<svg width="462" height="141" viewBox="0 0 462 141" fill="none" xmlns="http://www.w3.org/2000/svg">
<path d="M439.206 1C578.945 166 1 20.5 1 141" stroke="#12B4A9" stroke-width="2" stroke-dasharray="12 12"/>
<g clip-path="url(#clip0_2:384)">
<path d="M61.2762 57.941C60.3425 58.7262 58.617 59.353 55.5849 58.1869C56.2146 61.3733 55.2998 62.9672 54.3668 63.7518C52.915 64.9728 50.7543 64.8195 49.3624 64.1634C48.2946 63.6581 47.5844 62.924 47.2529 61.9798C46.9993 61.2588 46.9708 60.4387 47.1665 59.528C43.8037 61.904 41.1913 58.7961 40.3076 57.7453C39.4946 56.7787 37.5908 54.5149 39.4551 52.947C39.8094 52.649 40.281 52.3909 40.8965 52.1595C43.4106 51.2119 48.052 51.4858 50.9166 52.6359C50.2739 49.6159 50.8006 44.9969 52.1644 42.6832C52.4994 42.1166 52.8323 41.6968 53.1874 41.3982C55.0525 39.8296 56.9564 42.0935 57.7693 43.0601C58.9008 44.4055 59.502 45.5398 59.6628 46.6275C59.8489 47.8991 59.4067 49.0746 58.35 50.1253C59.2788 50.0877 60.0826 50.2558 60.7509 50.6293C61.6249 51.1186 62.2264 51.9442 62.5411 53.0828C62.9475 54.565 62.7281 56.72 61.2762 57.941V57.941Z" fill="#8EE4B0"/>
</g>
<defs>
<clipPath id="clip0_2:384">
<rect width="24" height="24" fill="white" transform="translate(35.4847 52.932) rotate(-40.0637)"/>
</clipPath>
</defs>
</svg>
