<svg width="285" height="86" viewBox="0 0 285 86" fill="none" xmlns="http://www.w3.org/2000/svg">
<path d="M270.734 1C355.792 101.179 4 12.8393 4 86" stroke="#12B4A9" stroke-width="2" stroke-dasharray="12 12"/>
<g clip-path="url(#clip0_1:5)">
<path d="M25.4584 21.852C24.4808 22.5818 22.7218 23.1076 19.7623 21.768C20.2065 24.9855 19.201 26.5238 18.2242 27.253C16.7041 28.3879 14.5559 28.1099 13.2043 27.3743C12.1675 26.8081 11.501 26.034 11.2247 25.0722C11.0133 24.3377 11.0323 23.5174 11.2805 22.6195C7.78571 24.7969 5.35758 21.543 4.53617 20.4428C3.78057 19.4308 2.01093 17.0605 3.9629 15.6032C4.3339 15.3262 4.8196 15.0958 5.44743 14.9004C8.01218 14.1 12.63 14.642 15.4232 15.9561C14.9564 12.9039 15.7496 8.32321 17.245 6.09225C17.6122 5.54605 17.9689 5.14623 18.3407 4.86863C20.2935 3.41068 22.0631 5.78093 22.8187 6.79298C23.8704 8.20167 24.4049 9.36884 24.5025 10.464C24.6147 11.7443 24.1052 12.8922 22.9895 13.88C23.9189 13.8962 24.7116 14.1105 25.3571 14.5221C26.2013 15.0612 26.7541 15.9202 27.0024 17.0751C27.3223 18.5784 26.9784 20.7171 25.4584 21.852V21.852Z" fill="#8EE4B0"/>
</g>
<defs>
<clipPath id="clip0_1:5">
<rect width="24" height="24" fill="white" transform="translate(0 15.3584) rotate(-36.7453)"/>
</clipPath>
</defs>
</svg>
