<svg width="299" height="86" viewBox="0 0 299 86" fill="none" xmlns="http://www.w3.org/2000/svg">
<path d="M284.734 1C369.792 101.179 18 12.8393 18 86" stroke="#12B4A9" stroke-width="2" stroke-dasharray="12 12"/>
<g clip-path="url(#clip0_1:334)">
<path d="M25.7915 30.4563C24.8578 31.2415 23.1323 31.8682 20.1002 30.7021C20.7299 33.8886 19.8151 35.4824 18.8822 36.267C17.4303 37.488 15.2696 37.3348 13.8777 36.6787C12.8099 36.1734 12.0997 35.4392 11.7682 34.495C11.5146 33.774 11.4861 32.954 11.6819 32.0432C8.31901 34.4193 5.7066 31.3114 4.82288 30.2606C4.00996 29.294 2.10608 27.0302 3.97042 25.4622C4.32477 25.1642 4.79632 24.9062 5.41178 24.6747C7.9259 23.7272 12.5674 24.001 15.4319 25.1512C14.7892 22.1311 15.3159 17.5122 16.6797 15.1984C17.0147 14.6319 17.3476 14.2121 17.7027 13.9134C19.5678 12.3449 21.4717 14.6087 22.2846 15.5753C23.4161 16.9208 24.0173 18.0551 24.1781 19.1428C24.3643 20.4144 23.9221 21.5899 22.8654 22.6406C23.7941 22.603 24.5979 22.771 25.2662 23.1446C26.1402 23.6338 26.7417 24.4594 27.0564 25.598C27.4629 27.0803 27.2434 29.2353 25.7915 30.4563V30.4563Z" fill="#8EE4B0"/>
</g>
<defs>
<clipPath id="clip0_1:334">
<rect width="24" height="24" fill="white" transform="translate(0 25.4473) rotate(-40.0637)"/>
</clipPath>
</defs>
</svg>
