<svg width="442" height="140" viewBox="0 0 442 140" fill="none" xmlns="http://www.w3.org/2000/svg">
<path d="M1.00001 0C1.00001 156.35 441 64.8905 441 140" stroke="#12B4A9" stroke-width="2" stroke-dasharray="12 12"/>
<g clip-path="url(#clip0_2:383)">
<path d="M396.085 88.9539C395.029 88.3439 393.851 86.9354 393.914 83.6874C391.133 85.3659 389.323 85.0494 388.267 84.4399C386.624 83.4914 386.031 81.4079 386.174 79.8757C386.285 78.6996 386.733 77.7816 387.507 77.148C388.098 76.6638 388.86 76.3573 389.783 76.2308C386.402 73.8797 388.433 70.3641 389.12 69.1751C389.751 68.0813 391.23 65.5196 393.34 66.7376C393.741 66.9691 394.144 67.3244 394.572 67.8241C396.32 69.8644 397.645 74.3211 397.54 77.4061C400.16 75.7722 404.682 74.6924 407.322 75.1856C407.969 75.3073 408.477 75.4771 408.879 75.7091C410.989 76.9276 409.51 79.4893 408.879 80.5831C408 82.1056 407.138 83.0574 406.171 83.5795C405.039 84.1881 403.783 84.1732 402.435 83.5381C402.787 84.3983 402.903 85.2113 402.78 85.9669C402.618 86.9553 402.047 87.8023 401.084 88.4864C399.829 89.3739 397.728 89.9024 396.085 88.9539V88.9539Z" fill="#8EE4B0"/>
</g>
<defs>
<clipPath id="clip0_2:383">
<rect width="24" height="24" fill="white" transform="translate(392 63) rotate(30)"/>
</clipPath>
</defs>
</svg>
