<svg width="271" height="97" viewBox="0 0 271 97" fill="none" xmlns="http://www.w3.org/2000/svg">
<path d="M263 0C263 94.927 1 39.3978 1 85" stroke="#12B4A9" stroke-width="2" stroke-dasharray="12 12"/>
<g clip-path="url(#clip0_1:333)">
<path d="M254.085 89.9539C253.029 89.3439 251.851 87.9354 251.914 84.6874C249.133 86.3659 247.323 86.0494 246.267 85.4399C244.624 84.4914 244.031 82.4079 244.174 80.8757C244.285 79.6996 244.733 78.7816 245.507 78.148C246.098 77.6638 246.86 77.3573 247.783 77.2308C244.402 74.8797 246.433 71.3641 247.12 70.1751C247.751 69.0813 249.23 66.5196 251.34 67.7376C251.741 67.9691 252.144 68.3244 252.572 68.8241C254.32 70.8644 255.645 75.3211 255.54 78.4061C258.16 76.7722 262.682 75.6924 265.322 76.1855C265.969 76.3073 266.477 76.4771 266.879 76.7091C268.989 77.9276 267.51 80.4893 266.879 81.5831C266 83.1056 265.139 84.0574 264.171 84.5795C263.039 85.1881 261.783 85.1732 260.435 84.5381C260.787 85.3983 260.903 86.2113 260.78 86.9669C260.618 87.9553 260.047 88.8023 259.084 89.4864C257.829 90.3739 255.728 90.9024 254.085 89.9539V89.9539Z" fill="#8EE4B0"/>
</g>
<defs>
<clipPath id="clip0_1:333">
<rect width="24" height="24" fill="white" transform="translate(250 64) rotate(30)"/>
</clipPath>
</defs>
</svg>
