<svg width="512" height="141" viewBox="0 0 512 141" fill="none" xmlns="http://www.w3.org/2000/svg">
<path d="M489.206 1C628.945 166 51 20.5 51 141" stroke="#12B4A9" stroke-width="2" stroke-dasharray="12 12"/>
<g clip-path="url(#clip0_1:382)">
<path d="M25.4584 74.8518C24.4808 75.5817 22.7218 76.1074 19.7623 74.7678C20.2065 77.9854 19.201 79.5236 18.2242 80.2529C16.7041 81.3877 14.5559 81.1097 13.2043 80.3741C12.1675 79.8079 11.501 79.0338 11.2247 78.072C11.0133 77.3376 11.0323 76.5172 11.2805 75.6193C7.78571 77.7967 5.35758 74.5429 4.53617 73.4427C3.78057 72.4306 2.01093 70.0604 3.9629 68.603C4.3339 68.326 4.8196 68.0957 5.44743 67.9002C8.01218 67.0998 12.63 67.6419 15.4232 68.9559C14.9564 65.9037 15.7496 61.323 17.245 59.0921C17.6122 58.5459 17.9689 58.146 18.3407 57.8685C20.2935 56.4105 22.0631 58.7808 22.8187 59.7928C23.8704 61.2015 24.4049 62.3687 24.5025 63.4639C24.6147 64.7441 24.1052 65.892 22.9895 66.8798C23.9189 66.896 24.7116 67.1103 25.3571 67.5219C26.2013 68.061 26.7541 68.92 27.0024 70.0749C27.3223 71.5782 26.9784 73.7169 25.4584 74.8518V74.8518Z" fill="#8EE4B0"/>
</g>
<defs>
<clipPath id="clip0_1:382">
<rect width="24" height="24" fill="white" transform="translate(0 68.3582) rotate(-36.7453)"/>
</clipPath>
</defs>
</svg>
