<svg width="352" height="162" viewBox="0 0 352 162" fill="none" xmlns="http://www.w3.org/2000/svg">
<g clip-path="url(#clip0)">
<mask id="mask0" mask-type="alpha" maskUnits="userSpaceOnUse" x="-186" y="-47" width="575" height="209">
<rect x="-185.481" y="-47" width="574" height="209" fill="#C4C4C4"/>
</mask>
<g mask="url(#mask0)">
<path d="M37.1724 31.7722C37.1724 31.7722 31.8791 38.0925 35.9393 52.0268C39.9995 65.9611 46.511 83.3328 46.511 83.3328L37.61 80.8365L25.3503 34.9293L37.1724 31.7722Z" fill="url(#paint0_linear)"/>
<path d="M36.9795 55.4195C42.0832 66.9079 46.0357 80.0685 50.8567 80.968L37.611 80.8369L31.4811 57.8832C32.8131 62.871 36.4898 61.9165 36.9795 55.4195Z" fill="#9B7A71"/>
<path d="M42.2592 40.9054C49.2864 34.3014 46.4535 24.0776 39.446 0.527914C23.8796 19.0039 18.7212 29.2565 22.9495 37.677C27.1777 46.0974 35.2319 47.5093 42.2592 40.9054Z" fill="url(#paint1_linear)"/>
<path d="M27.4121 32.2558C22.98 26.1165 15.1162 27.5506 -3.03277 31.2385C9.66609 45.1487 16.9673 50.0919 23.5826 47.399C30.1979 44.7062 31.8442 38.3951 27.4121 32.2558Z" fill="url(#paint2_linear)"/>
<path d="M197.169 51.6214C197.169 51.6214 189.178 53.6467 184.312 67.3206C179.446 80.9945 176.458 96.9539 176.458 96.9539L168.801 91.6556L185.736 47.2601L197.169 51.6214Z" fill="url(#paint3_linear)"/>
<path d="M183.169 70.6802C180.581 82.982 177.355 93.6925 180.737 97.244L168.801 91.6566L177.269 69.4588C175.429 74.2823 178.968 75.6608 183.169 70.6802Z" fill="#9B7A71"/>
<path d="M192.557 51.0226C196.282 44.5382 191.796 38.0418 181.102 23.2023C173.74 40.2861 172.256 48.8674 177.368 53.7284C182.481 58.5894 188.831 57.507 192.557 51.0226Z" fill="url(#paint4_linear)"/>
<path d="M187.013 64.3721C193.825 69.1748 201.724 64.9235 219.825 54.7199C201.556 44.7724 192.091 42.2181 185.951 47.3346C179.812 52.4512 180.2 59.5694 187.013 64.3721Z" fill="url(#paint5_linear)"/>
<path d="M326.507 107.773C326.507 107.773 318.266 107.579 309.909 119.446C301.552 131.313 298.7 131.821 298.7 131.821L288.436 138.726L316.664 100.504L326.507 107.773Z" fill="url(#paint6_linear)"/>
<path d="M307.21 122.911C299.825 138.735 277.696 147.31 281.459 147.364L271.461 138.779C285.332 136.033 288.335 133.83 300.184 122.853C297.117 127.006 302.751 128.173 307.21 122.911Z" fill="#9B7A71"/>
<path d="M322.73 100.815C324.386 92.76 317.462 87.5226 301.18 75.7131C299.381 96.0895 300.79 105.561 307.803 108.875C314.817 112.189 321.074 108.87 322.73 100.815Z" fill="url(#paint7_linear)"/>
<path d="M312.199 127.443C318.412 134.954 328.393 132.446 351.396 126.173C333.905 109.378 324.107 103.646 315.837 107.665C307.566 111.684 305.986 119.931 312.199 127.443Z" fill="url(#paint8_linear)"/>
<path d="M331.564 111.491C339.701 109.683 341.871 100.979 346.502 80.7226C326.851 87.5439 318.592 92.8276 318.246 100.812C317.9 108.797 323.428 113.299 331.564 111.491Z" fill="url(#paint9_linear)"/>
<path d="M-58.9084 63.316C-22.0954 74.8327 4.85562 85.1899 46.0488 84.3289C87.8803 83.4544 152.137 81.9252 190.723 98.0631C213.211 107.468 207.067 105.208 247.122 130.683C269.124 144.676 262.062 130.796 304.557 148.651C347.051 166.506 467.48 237.694 514.76 252.486" stroke="url(#paint10_linear)" stroke-width="16"/>
</g>
<g clip-path="url(#clip1)">
<path d="M194.168 117.596C191.547 117.797 188.915 118.03 186.365 118.644C185.143 118.943 183.895 119.346 182.965 120.216C182.711 120.443 182.474 120.734 182.423 121.077C182.308 121.793 182.988 122.354 183.628 122.714C184.793 123.397 186.008 123.956 187.281 124.403C186.191 124.605 184.759 125.27 185.043 126.343C185.231 127.087 186.138 127.346 186.885 127.471C190.89 128.152 194.95 128.606 199.012 128.84C197.679 129.794 196.357 130.737 195.024 131.69C194.784 131.865 194.532 132.051 194.432 132.338C194.154 133.161 195.353 133.636 196.221 133.652C213.263 134.077 230.102 130.185 246.634 125.972C249.175 125.326 251.749 124.651 253.976 123.276C253.683 123.459 249.743 121.094 249.181 120.843C247.404 120.054 245.578 119.367 243.726 118.783C240.115 117.631 236.377 116.871 232.605 116.516C229.03 116.183 225.7 116.346 222.183 116.833C218.023 117.4 213.468 116.815 209.252 116.897C204.228 116.987 199.197 117.223 194.168 117.596Z" fill="#303033"/>
<path d="M273.76 136.719C273.782 136.863 273.8 137.021 273.895 137.124C273.98 137.208 274.09 137.253 274.201 137.298C278.175 138.714 282.599 139.318 285.913 141.917C286.61 142.459 287.281 143.437 286.739 144.132C285.913 143.05 284.677 142.347 283.456 141.755C277.251 138.724 270.152 137.516 263.301 138.335C263.598 137.803 264.305 137.689 264.92 137.626C267.338 137.425 269.756 137.224 272.173 137.023C272.299 137.012 272.425 137 272.524 136.92C272.681 136.794 272.696 136.568 272.685 136.382C272.482 130.632 269.212 125.886 268.087 120.422C273.457 93.2977 271.322 123.091 271.912 125.777C272.696 129.389 273.332 133.036 273.76 136.719Z" fill="#7C5946"/>
<path d="M281.954 138.133C283.888 138.581 285.842 139.127 287.535 140.184C287.72 140.295 287.942 140.493 287.87 140.703C287.823 140.874 287.621 140.942 287.445 140.91C287.284 140.881 287.128 140.778 286.987 140.678C286.153 140.13 284.899 139.606 283.916 139.385C282.485 139.058 279.427 138.396 277.978 138.14C275.537 137.692 274.751 138.213 272.383 137.494C272.663 136.575 276.05 137.157 276.838 137.249C278.57 137.428 280.266 137.736 281.954 138.133Z" fill="#7C5946"/>
<path d="M277.591 141.204C278.933 142.533 280.048 144.137 280.616 145.944C280.346 146.147 280.026 145.8 279.859 145.509C278.246 142.576 275.748 140.137 272.753 138.62C272.255 138.362 271.735 138.129 271.297 137.765C271.42 137.875 272.642 137.503 272.994 137.675C273.471 137.896 273.954 138.379 274.411 138.672C275.528 139.419 276.622 140.252 277.591 141.204Z" fill="#7C5946"/>
<path d="M262.126 139.837C262.148 139.981 262.166 140.139 262.261 140.242C262.346 140.326 262.456 140.371 262.567 140.416C266.541 141.832 270.965 142.436 274.279 145.035C274.977 145.577 275.647 146.555 275.105 147.25C274.279 146.168 273.043 145.465 271.822 144.873C265.617 141.842 258.518 140.634 251.667 141.453C251.964 140.921 252.671 140.807 253.286 140.744C255.704 140.543 258.122 140.342 260.539 140.141C260.665 140.13 260.791 140.118 260.89 140.037C261.047 139.912 261.062 139.686 261.051 139.5C260.848 133.749 256.933 121.037 255.812 115.558C258.878 116.36 259.677 126.191 260.264 128.891C261.073 132.525 261.695 136.169 262.126 139.837Z" fill="#7C5946"/>
<path d="M270.33 141.269C272.265 141.717 274.219 142.263 275.911 143.32C276.096 143.431 276.318 143.629 276.246 143.839C276.2 144.01 275.997 144.078 275.822 144.046C275.661 144.017 275.505 143.914 275.363 143.814C274.53 143.266 273.275 142.742 272.292 142.521C270.862 142.194 267.804 141.532 266.354 141.276C263.913 140.828 263.127 141.349 260.759 140.63C261.04 139.711 264.426 140.293 265.215 140.385C266.932 140.56 268.643 140.872 270.33 141.269Z" fill="#7C5946"/>
<path d="M265.967 144.34C267.31 145.669 268.424 147.273 268.992 149.08C268.722 149.283 268.402 148.936 268.236 148.645C266.623 145.712 264.124 143.273 261.129 141.756C260.631 141.498 260.111 141.265 259.673 140.901C259.797 141.011 261.018 140.639 261.37 140.811C261.847 141.032 262.33 141.515 262.788 141.808C263.904 142.555 265.002 143.374 265.967 144.34Z" fill="#7C5946"/>
<path d="M267.463 128.521C271.965 126.559 275.619 122.957 278.317 118.842C280.935 114.838 282.765 110.152 282.536 105.384C282.318 100.606 279.787 95.7945 275.508 93.6736C270.058 90.9749 263.527 93.0666 257.894 95.3858C251.166 98.1476 244.527 101.208 238.461 105.221C233.899 108.228 228.648 112.82 229.609 118.896C230.302 123.25 233.401 126.94 237.598 128.103C246.377 130.482 258.877 132.27 267.463 128.521Z" fill="#FFD91F"/>
<path d="M284.859 114.007C286.169 110.895 286.035 107.389 285.872 104.028C289.162 102.931 290.928 102.085 292.422 99.8001C293.823 97.6565 294.832 95.2294 295.041 92.685C295.27 90.1418 294.647 87.4888 293.077 85.4645C292.17 84.2937 290.976 83.3795 289.699 82.6179C285.971 80.4016 281.451 79.5662 277.178 80.2738C272.905 80.9814 268.879 83.2319 266.05 86.5121C263.873 89.032 262.408 92.1043 260.271 94.6683C263.994 93.3229 268.231 93.2418 271.838 94.8335C275.444 96.4251 278.331 99.7894 278.924 103.698C279.168 105.282 279.054 106.91 278.816 108.51C278.539 110.402 278.107 112.274 277.377 114.035C275.869 117.681 273.161 120.696 270.361 123.475C267.516 126.314 264.427 129.035 260.621 130.355C262.352 130.314 263.822 130.07 265.374 129.873C277.824 128.337 284.023 115.983 284.859 114.007Z" fill="#303033"/>
<path d="M288.445 100.817C287.735 101.511 286.973 102.192 286.058 102.613C285.143 103.034 284.067 103.164 283.158 102.768C281.502 102.048 281.011 100.01 280.246 98.3758C279.443 96.6765 278.154 95.2124 276.556 94.2236C276.111 93.9477 275.567 93.5616 275.66 93.043C275.751 92.5452 276.338 92.3575 276.845 92.2807C280.884 91.644 285.084 92.2103 288.79 93.8913C289.658 94.2847 290.531 94.7727 291.008 95.595C292.174 97.5447 289.677 99.6175 288.445 100.817Z" fill="#E2E2E2"/>
<path d="M284.342 89.9804C284.536 90.6195 284.941 91.2284 285.531 91.5332C286.212 91.8955 287.108 91.8086 287.731 91.3505C288.355 90.8925 288.705 90.0843 288.655 89.3168C288.615 88.5395 288.197 87.8042 287.584 87.341C287.193 87.0367 286.701 86.842 286.209 86.8463C284.51 86.8785 283.899 88.5733 284.342 89.9804Z" fill="#696970"/>
<path d="M284.968 90.2138C285.272 90.7543 285.849 91.1107 286.452 91.1858C286.692 91.2095 286.934 91.1914 287.168 91.1205C287.798 90.9142 288.212 90.2666 288.25 89.6192C288.287 88.9718 287.989 88.3269 287.555 87.8422C287.368 87.6328 287.138 87.4421 286.872 87.3436C286.482 87.1965 286.039 87.2559 285.67 87.4661C284.751 87.9707 284.464 89.3166 284.968 90.2138Z" fill="#1D1D1E"/>
<path d="M285.234 89.778C285.324 90.0343 285.489 90.2634 285.736 90.3398C285.983 90.4163 286.317 90.2566 286.311 89.9839C286.316 89.7223 286.053 89.5612 285.973 89.3158C285.911 89.1134 285.986 88.908 285.977 88.698C285.989 88.4892 285.867 88.2415 285.657 88.2509C285.018 88.2472 285.088 89.3929 285.234 89.778Z" fill="white"/>
<path d="M303.069 89.7119C300.525 91.3108 299.017 92.2229 296.869 93.3302C296.307 93.6136 295.743 93.9596 295.111 94.0087C294.354 94.0717 293.599 93.7159 293.064 93.1837C292.528 92.6514 292.17 91.9613 291.896 91.2549C291.584 90.4835 291.358 89.675 291.406 88.8396C291.462 88.057 291.885 86.8862 292.718 86.6178C293.625 86.322 295.04 87.0389 295.894 87.3059C298.305 88.0251 300.71 88.8279 303.069 89.7119Z" fill="#696970"/>
<path d="M293.073 93.1947C292.538 92.6624 292.18 91.9723 291.906 91.2659C291.751 90.8698 291.606 90.4638 291.526 90.0403C295.18 90.9956 299.058 90.9577 302.688 89.9528C300.373 91.4071 298.94 92.2919 296.89 93.3314C296.328 93.6147 295.764 93.9608 295.132 94.0098C294.352 94.0926 293.609 93.7269 293.073 93.1947Z" fill="#57575B"/>
<path d="M260.487 94.7325C256.154 94.1065 251.744 95.1941 247.626 96.6749C233.624 101.697 221.744 111.183 210.146 120.496C209.795 120.77 209.419 121.126 209.477 121.57C209.533 122.054 210.053 122.303 210.527 122.434C212.66 123.065 214.952 123.096 217.101 122.523C216.844 122.991 216.587 123.459 216.339 123.937C219.263 125.01 222.563 125.013 225.485 123.948C224.87 124.438 225.112 125.51 225.745 125.974C226.379 126.438 227.226 126.454 228.013 126.444C236.518 126.294 244.895 124.179 252.833 121.127C256.1 119.872 259.357 118.428 262.121 116.275C264.885 114.123 267.169 111.19 267.973 107.777C268.598 105.099 268.204 102.102 266.671 99.7865C264.975 97.2211 263.843 95.2209 260.487 94.7325Z" fill="#EABA44"/>
<path d="M232.755 104.236C232.715 105.303 233.053 106.348 233.48 107.314C234.314 109.204 235.482 110.933 236.664 112.612C238.369 115.031 240.178 117.456 242.582 119.212C244.291 120.458 246.242 121.33 248.223 122.036C248.551 122.159 248.891 122.272 249.23 122.385C250.384 121.988 251.529 121.579 252.664 121.139C254.914 120.278 257.158 119.323 259.239 118.117C258.421 117.758 257.522 117.551 256.666 117.305C254.678 116.725 252.792 115.814 251.1 114.632C250.697 114.358 250.296 114.043 250.069 113.611C249.842 113.18 249.823 112.603 250.158 112.244C246.654 111.412 243.755 108.435 242.994 104.915C241.588 104.764 240.155 104.539 238.857 103.975C237.968 103.581 237.193 103.025 236.565 102.299C236.447 102.167 236.33 102.013 236.202 101.87C235.055 102.499 233.938 103.16 232.821 103.821C232.782 103.955 232.762 104.111 232.755 104.236Z" fill="#E2E2E2"/>
<path d="M234.619 102.789C225.908 107.819 217.914 114.209 210.049 120.543C209.698 120.817 209.322 121.174 209.38 121.617C209.436 122.102 209.956 122.35 210.43 122.481C212.563 123.112 214.855 123.144 217.004 122.571C216.747 123.038 216.49 123.506 216.242 123.985C219.167 125.057 222.466 125.06 225.388 123.996C224.773 124.485 225.015 125.557 225.648 126.021C226.282 126.485 227.13 126.501 227.916 126.492C236.421 126.342 244.798 124.226 252.736 121.174C253.582 120.854 254.429 120.513 255.257 120.15C253.015 119.598 250.834 118.891 248.846 117.755C248.147 117.35 247.452 116.861 247.084 116.16C246.716 115.438 246.784 114.447 247.429 113.969C246.013 113.273 244.577 112.555 243.456 111.456C242.336 110.357 241.546 108.785 241.782 107.226C241.828 106.967 238.192 106.254 237.833 106.119C236.518 105.669 235.458 104.972 234.884 103.662C234.753 103.383 234.675 103.096 234.619 102.789Z" fill="#3F3F44"/>
<path d="M280.127 118.691C280.984 118.183 281.429 116.636 281.294 115.707C281.27 115.569 281.062 115.558 281.022 115.692C280.889 116.187 280.817 116.707 280.642 117.2C280.479 117.684 280.15 118.116 280.038 118.613C280.024 118.664 280.073 118.719 280.127 118.691Z" fill="#3F3F44"/>
<path d="M276.166 120.903C276.873 120.628 277.503 119.51 277.441 118.773C277.423 118.531 277.089 118.513 276.964 118.684C276.747 118.997 276.66 119.411 276.494 119.758C276.327 120.105 276.11 120.418 276.016 120.78C275.979 120.872 276.08 120.94 276.166 120.903Z" fill="#3F3F44"/>
<path d="M278.483 117.05C279.109 116.351 279.605 115.572 279.618 114.609C279.617 114.452 279.372 114.334 279.289 114.507C278.898 115.292 278.682 116.139 278.312 116.925C278.264 117.027 278.415 117.13 278.483 117.05Z" fill="#3F3F44"/>
<path d="M282.306 114.862C282.922 113.817 283.506 112.581 283.2 111.349C283.148 111.158 282.866 111.132 282.803 111.327C282.425 112.438 282.419 113.632 282.093 114.756C282.074 114.891 282.237 114.984 282.306 114.862Z" fill="#3F3F44"/>
<path d="M284.946 111.77C285.029 111.419 285.123 111.057 285.175 110.693C285.207 110.507 285.239 110.32 285.249 110.132C285.272 109.913 285.238 109.785 285.197 109.584C285.164 109.436 284.914 109.401 284.884 109.567C284.842 109.743 284.814 109.867 284.814 110.045C284.815 110.223 284.825 110.412 284.824 110.611C284.823 110.988 284.812 111.354 284.77 111.729C284.732 111.842 284.919 111.873 284.946 111.77Z" fill="#3F3F44"/>
<path d="M282.039 111.673C282.293 110.891 282.646 109.863 282.389 109.042C282.327 108.84 282.057 108.804 281.971 109.019C281.812 109.419 281.84 109.85 281.805 110.277C281.768 110.726 281.743 111.164 281.686 111.612C281.685 111.811 281.986 111.859 282.039 111.673Z" fill="#3F3F44"/>
<path d="M286.677 84.5256C286.327 84.0663 286.024 83.6831 285.494 83.4234C284.974 83.1748 284.56 83.0892 283.997 83.2154C283.849 83.2491 283.784 83.4655 283.936 83.5472C284.759 84.001 285.732 84.2012 286.53 84.7165C286.63 84.8058 286.765 84.6456 286.677 84.5256Z" fill="#3F3F44"/>
<path d="M289.649 85.6947C289.421 84.9071 288.882 83.9032 288.118 83.5155C287.895 83.3985 287.674 83.5958 287.765 83.8313C288.067 84.5916 288.864 85.3059 289.506 85.8021C289.566 85.8473 289.665 85.7794 289.649 85.6947Z" fill="#3F3F44"/>
<path d="M291.457 85.3857C291.167 84.7936 290.806 84.3233 290.16 84.0887C290.037 84.0401 289.943 84.2026 290.022 84.2907C290.405 84.7412 290.867 85.0809 291.262 85.5007C291.372 85.601 291.524 85.5046 291.457 85.3857Z" fill="#3F3F44"/>
<path d="M285.502 82.0098C284.853 81.4399 284.183 81.0678 283.307 80.9986C283.078 80.986 283.017 81.3178 283.233 81.3821C283.963 81.6213 284.727 81.81 285.433 82.1107C285.485 82.124 285.552 82.044 285.502 82.0098Z" fill="#3F3F44"/>
<path d="M282.796 83.893C281.921 83.6248 280.7 83.3482 279.947 84.0609C279.792 84.1991 279.881 84.4763 280.09 84.4878C280.509 84.4899 280.947 84.336 281.35 84.2534C281.806 84.1632 282.304 84.0545 282.764 84.0798C282.859 84.0745 282.899 83.9196 282.796 83.893Z" fill="#3F3F44"/>
<path d="M281.079 81.6825C280.252 81.4903 279.482 81.207 278.617 81.3061C278.438 81.3276 278.445 81.5794 278.598 81.6402C279.397 81.9566 280.198 81.8749 281.035 81.9C281.16 81.9069 281.203 81.7102 281.079 81.6825Z" fill="#3F3F44"/>
<path d="M277.744 82.8398C277.53 82.7338 277.281 82.6782 277.049 82.7073C276.849 82.7277 276.51 82.7929 276.415 82.9971C276.356 83.1091 276.4 83.2477 276.546 83.2558C276.64 83.2714 276.705 83.2331 276.791 83.1959C276.877 83.1587 276.982 83.1436 277.078 83.1174C277.268 83.086 277.458 83.0755 277.654 83.1177C277.85 83.1808 277.917 82.9227 277.744 82.8398Z" fill="#3F3F44"/>
<path d="M229.317 122.525C232.984 122.518 236.654 122.091 240.268 121.379C242.09 121.018 243.886 120.583 245.675 120.073C246.591 119.81 247.488 119.524 248.395 119.228C249.196 118.968 250.211 118.794 250.928 118.351C251.396 118.052 250.857 117.405 250.532 117.774C250.453 117.864 250.397 117.935 250.318 118.024C250.239 118.135 250.314 118.286 250.427 118.324C250.509 118.349 250.582 118.364 250.664 118.389C250.677 118.159 250.691 117.93 250.704 117.7C249.867 117.853 249.009 118.382 248.206 118.683C247.339 119.002 246.464 119.289 245.578 119.565C243.808 120.117 242.01 120.595 240.206 120.998C236.619 121.785 232.99 122.235 229.339 122.506C229.297 122.503 229.306 122.535 229.317 122.525Z" fill="#E2E2E2"/>
<path d="M231.126 118.749C234.108 118.264 237.059 117.588 239.956 116.763C241.298 116.376 242.623 115.925 243.921 115.399C244.619 115.113 245.296 114.805 245.975 114.475C246.331 114.296 246.687 114.117 247.034 113.926C247.142 113.869 247.765 113.411 247.857 113.448C247.759 113.338 247.66 113.227 247.552 113.106C247.554 113.064 247.568 113.013 247.57 112.971C247.709 112.926 247.859 112.872 247.988 112.816C247.978 112.805 247.957 112.804 247.957 112.804C247.803 112.743 247.566 112.856 247.536 113.021C247.535 113.042 247.535 113.042 247.534 113.063C247.49 113.281 247.575 113.443 247.769 113.527C247.932 113.598 248.06 113.564 248.2 113.498C248.372 113.424 248.48 113.189 248.438 113.008C248.356 112.606 247.976 112.47 247.613 112.596C246.93 112.81 246.256 113.412 245.608 113.753C244.138 114.552 242.59 115.221 241.027 115.806C237.793 117.031 234.43 117.758 231.118 118.696C231.086 118.705 231.094 118.758 231.126 118.749Z" fill="#E2E2E2"/>
<path d="M223.88 117.041C227.129 116.476 230.317 115.133 233.281 113.693C234.779 112.969 236.229 112.169 237.651 111.294C238.379 110.842 239.096 110.399 239.804 109.925C240.479 109.48 241.28 109.042 241.848 108.456C242.093 108.197 241.827 107.721 241.481 107.912C240.831 108.274 240.267 108.798 239.675 109.247C238.932 109.793 238.189 110.318 237.407 110.799C235.995 111.684 234.555 112.496 233.065 113.252C230.077 114.753 226.969 115.786 223.863 116.977C223.851 117.008 223.859 117.04 223.88 117.041Z" fill="#E2E2E2"/>
<path d="M223.912 113.565C225.087 113.169 226.174 112.474 227.247 111.853C228.45 111.154 229.635 110.413 230.8 109.649C231.866 108.954 232.913 108.236 233.951 107.487C234.498 107.098 235.034 106.698 235.581 106.288C236.14 105.868 236.822 105.476 237.272 104.936C237.486 104.685 237.271 104.223 236.925 104.414C236.396 104.688 235.96 105.157 235.489 105.518C234.963 105.929 234.425 106.35 233.899 106.761C232.836 107.572 231.733 108.36 230.631 109.127C229.463 109.932 228.276 110.715 227.071 111.455C226.007 112.109 224.863 112.696 223.896 113.48C223.861 113.531 223.88 113.574 223.912 113.565Z" fill="#E2E2E2"/>
</g>
<path d="M126.454 31.843C127.672 32.3608 128.94 32.78 130.219 33.1869C131.647 33.6554 133.086 34.1116 134.513 34.5801C134.464 34.765 134.169 34.802 133.935 34.802C130.17 34.728 126.405 34.6417 122.64 34.5678C121.717 34.5431 120.745 34.5431 119.957 34.913C120.093 34.8513 120.105 33.9266 120.13 33.7663C120.191 33.3595 120.24 32.9526 120.302 32.5581C120.413 31.7567 120.499 30.9553 120.585 30.1662C120.622 29.8333 120.548 29.3031 120.708 28.9826C120.892 28.6003 121.212 28.9702 121.52 29.1675C122.271 29.6237 123.021 30.0799 123.784 30.5114C124.645 30.9922 125.531 31.4484 126.454 31.843Z" fill="#8E5D4A"/>
<path d="M61.6837 86.7703C61.8928 85.9812 62.0897 85.1798 62.2989 84.3907C60.1825 86.3264 57.697 87.8553 55.0146 88.8539C61.1915 78.3493 68.3158 68.3995 76.2029 59.1032C77.458 57.6237 78.7746 56.1318 80.4726 55.1948C82.1706 54.2701 84.3731 53.9988 86.0219 55.0222C87.0555 55.6633 87.7691 56.7236 88.1752 57.8702C89.9839 62.8636 86.3049 66.8214 82.6874 69.5462C78.0363 73.06 74.0004 77.2643 69.5954 81.0494C67.1222 83.1701 64.526 85.1674 61.6837 86.7703Z" fill="#BA7D60"/>
<path d="M89.5408 87.8552C89.5778 87.9909 89.6147 88.1265 89.7131 88.2128C89.7992 88.2868 89.91 88.3114 90.0207 88.3361C93.8597 89.1991 98.0186 89.2485 101.39 91.2828C102.091 91.702 102.83 92.5404 102.411 93.2555C101.513 92.3431 100.307 91.8376 99.1014 91.4184C93.0107 89.3101 86.3171 89.0019 80.0664 90.5554C80.2756 90.0252 80.9277 89.8403 81.4937 89.717C83.7085 89.2485 85.9233 88.7923 88.1258 88.3238C88.2366 88.2991 88.3596 88.2744 88.4334 88.1881C88.5688 88.0648 88.5196 87.8552 88.5196 87.6703C88.2858 82.0728 89.061 74.8971 87.3999 69.9407C90.3283 70.3229 90.5621 68.3872 90.2791 71.0626C89.8484 75.1437 88.7287 84.5017 89.5408 87.8552Z" fill="#7C5946"/>
<path d="M97.2927 88.2375C99.1383 88.4347 100.996 88.7183 102.682 89.4951C102.867 89.5814 103.088 89.7293 103.051 89.9389C103.027 90.0992 102.842 90.1855 102.682 90.1732C102.522 90.1609 102.374 90.0869 102.239 90.0129C101.402 89.5937 100.184 89.2608 99.2491 89.1622C97.8956 89.0265 94.9794 88.7553 93.6136 88.6937C91.3004 88.558 90.6359 89.1252 88.3596 88.743C88.5196 87.8553 91.7187 88.0155 92.4447 88.0032C94.0689 87.9662 95.6931 88.0772 97.2927 88.2375Z" fill="#7C5946"/>
<path d="M93.6014 91.5911C94.9919 92.6761 96.21 94.0323 96.936 95.6474C96.7145 95.857 96.37 95.5858 96.1854 95.3269C94.3643 92.787 91.7681 90.8143 88.8273 89.7417C88.3351 89.5567 87.8184 89.4088 87.3877 89.1129C87.5107 89.1992 88.6058 88.7183 88.9381 88.8293C89.4056 88.9772 89.9101 89.3718 90.3531 89.5937C91.4974 90.1732 92.5925 90.8143 93.6014 91.5911Z" fill="#7C5946"/>
<path d="M99.3597 82.1345C99.3966 82.2701 99.4335 82.4057 99.532 82.492C99.6181 82.566 99.7288 82.5907 99.8396 82.6153C103.679 83.4784 107.837 83.5277 111.209 85.562C111.91 85.9812 112.649 86.8196 112.23 87.5347C111.332 86.6224 110.126 86.1169 108.92 85.6977C102.83 83.5893 96.1359 83.2811 89.8853 84.8346C90.0944 84.3044 90.7466 84.1195 91.3126 83.9962C93.5274 83.5277 95.7422 83.0715 97.9447 82.603C98.0554 82.5783 98.1785 82.5537 98.2523 82.4674C98.3876 82.3441 98.3384 82.1345 98.3384 81.9495C98.1046 76.352 98.8798 69.1763 97.2187 64.2199C100.147 64.6021 100.381 62.6664 100.098 65.3419C99.655 69.4106 98.5353 78.7686 99.3597 82.1345Z" fill="#7C5946"/>
<path d="M107.099 82.5166C108.945 82.7139 110.803 82.9975 112.489 83.7742C112.673 83.8606 112.895 84.0085 112.858 84.2181C112.833 84.3784 112.649 84.4647 112.489 84.4524C112.329 84.44 112.181 84.3661 112.046 84.2921C111.209 83.8729 109.991 83.54 109.056 83.4413C107.702 83.3057 104.786 83.0345 103.42 82.9728C101.107 82.8372 100.443 83.4044 98.1663 83.0222C98.3262 82.1344 101.525 82.2947 102.251 82.2824C103.876 82.2454 105.5 82.344 107.099 82.5166Z" fill="#7C5946"/>
<path d="M103.408 85.8702C104.798 86.9552 106.017 88.3114 106.743 89.9266C106.521 90.1362 106.177 89.8649 105.992 89.606C104.171 87.0662 101.575 85.0935 98.634 84.0208C98.1418 83.8359 97.625 83.6879 97.1943 83.392C97.3174 83.4783 98.4125 82.9975 98.7447 83.1085C99.2123 83.2564 99.7167 83.6509 100.16 83.8729C101.304 84.44 102.399 85.0935 103.408 85.8702Z" fill="#7C5946"/>
<path d="M116.315 21.437C119.859 23.385 122.283 27.2194 122.529 31.2635C122.775 35.3075 120.794 39.4008 117.509 41.7557C117.189 41.99 116.832 42.2366 116.746 42.6188C116.672 42.927 116.808 43.2476 116.931 43.5312C119.478 49.7698 118.493 57.1428 115.036 62.9253C111.578 68.7077 105.98 69.879 99.6798 72.2463C93.3799 74.6135 86.5386 75.2177 79.8327 74.8108C78.836 74.7491 77.7778 74.6505 76.9657 74.0587C75.8829 73.2696 75.5261 71.8148 75.3169 70.4832C74.7632 66.92 74.7878 60.0402 75.44 56.4893C76.5474 50.3493 81.5799 40.979 86.0956 35.1102C89.9469 30.1045 94.8072 25.9742 100.455 23.1631C105.414 20.6725 110.963 18.4902 116.315 21.437Z" fill="#F4D1A6"/>
<path d="M108.182 24.8522C111.197 23.2863 115.319 22.8301 118.998 23.4589C121.04 25.5303 122.345 28.3414 122.517 31.2388C122.751 35.2828 120.782 39.3761 117.497 41.7311C117.177 41.9653 116.82 42.2119 116.734 42.5941C116.66 42.9023 116.795 43.2229 116.918 43.5065C119.465 49.7451 118.481 57.1181 115.023 62.9006C114.125 64.4048 113.092 65.5884 111.923 66.5747C113.178 62.8019 113.498 61.1498 113.498 57.6853C113.498 51.3973 111.541 44.3326 107.087 39.894C105.721 38.5254 104.097 37.3295 103.248 35.5787C102.288 33.6183 102.497 31.2018 103.506 29.2661C104.515 27.3427 106.25 25.8508 108.182 24.8522Z" fill="#F47047"/>
<path d="M106.607 44.4929C106.583 47.9574 104.761 51.2247 102.301 53.6659C99.8274 56.0948 96.7513 57.7962 93.6505 59.3251C85.7019 63.2458 77.3348 66.2912 68.734 68.3872C68.7094 67.3515 69.1155 66.3158 69.8414 65.5761C66.3469 67.3145 62.7294 68.7817 59.0258 69.99C57.4877 70.4832 55.7897 70.9394 54.2886 70.3599C54.7561 68.4365 56.0358 66.7227 57.7461 65.7364C56.6879 66.2789 55.5313 66.6364 54.3501 66.772C54.0794 65.0459 55.236 63.4554 56.3434 62.1115C62.0404 55.2317 68.5002 49.0424 74.9478 42.8654C77.1257 40.7817 79.3158 38.6857 81.7644 36.9103C84.8159 34.7157 88.3719 33.0142 92.1248 32.9279C98.2401 32.7923 106.656 37.6994 106.607 44.4929Z" fill="#BA7D60"/>
<path d="M109.474 24.7536C104.38 24.5563 99.1259 24.7412 94.4749 26.8249C97.6248 24.2974 101.021 21.9795 104.86 20.7219C108.699 19.4766 113.042 19.3903 116.648 21.2274C117.718 21.7699 118.715 22.485 119.49 23.3973C120.646 24.7536 121.852 27.1701 122.185 28.9949C120.487 27.6633 118.739 26.381 116.574 25.7276C114.285 25.0248 111.861 24.8399 109.474 24.7536Z" fill="#BA7D60"/>
<path d="M54.2886 70.3599C54.7561 68.4365 56.0358 66.7227 57.7461 65.7364C56.6879 66.2789 55.5313 66.6364 54.3501 66.772C54.0794 65.0459 55.236 63.4554 56.3434 62.1115C57.8323 60.3115 59.3703 58.5607 60.9576 56.8469C60.6746 57.3031 60.4039 57.7593 60.1455 58.2155C59.8748 58.6963 59.6041 59.1895 59.5795 59.7443C59.5549 60.2868 59.8379 60.8909 60.367 61.0512C60.8715 61.1992 61.3759 60.9156 61.8189 60.632C63.0617 59.8183 64.2675 58.9306 65.3995 57.9689C63.7261 59.584 62.2619 61.4088 61.056 63.3938C60.9084 63.6404 60.7484 63.924 60.8222 64.2075C60.9699 64.824 61.8558 64.787 62.4587 64.5897C66.0639 63.4185 69.5584 61.9389 72.9052 60.1512C72.5484 60.3484 72.3023 60.7553 72.29 61.1745C75.1446 61.2485 77.9993 59.9786 79.8696 57.8086C79.7588 58.3634 79.3282 58.7949 79.0205 59.2758C78.7129 59.7566 78.5407 60.4347 78.9098 60.8539C79.0944 61.0512 79.3528 61.1498 79.6235 61.2238C82.6627 62.1115 85.911 61.1868 88.8518 60.0525C94.1058 58.0305 99.1014 55.3427 103.691 52.0754C103.248 52.6303 102.78 53.1604 102.276 53.6536C99.8028 56.0825 96.7267 57.7839 93.626 59.3128C85.7019 63.2458 77.3348 66.2912 68.734 68.3872C68.7094 67.3515 69.1155 66.3159 69.8414 65.5761C66.347 67.3145 62.7417 68.7941 59.0381 69.99C57.4877 70.4832 55.802 70.9394 54.2886 70.3599Z" fill="#A36B55"/>
<path d="M94.2168 53.5056C91.3621 55.7742 88.3598 57.8456 85.1976 59.6456C83.6472 60.5334 82.0476 61.3471 80.4235 62.0869C79.5991 62.4691 78.75 62.8266 77.9133 63.1718C77.1136 63.5047 76.2522 63.7513 75.4894 64.1582C75.3294 64.2445 75.4401 64.4788 75.6124 64.4418C76.5106 64.2445 77.3843 63.8253 78.221 63.4801C79.0331 63.1472 79.8328 62.7896 80.6203 62.4198C82.2691 61.643 83.881 60.7923 85.456 59.8676C88.5813 58.0428 91.5467 55.9222 94.2414 53.5179C94.2414 53.5179 94.2291 53.5056 94.2168 53.5056Z" fill="#A36B55"/>
<path d="M78.7376 53.2591C77.2241 54.4427 75.6245 55.503 74.1111 56.699C72.6222 57.8826 71.1334 59.0415 69.5092 60.0279C66.3593 61.9389 62.9878 63.5294 59.6287 65.0336C59.2965 65.1815 59.5303 65.7364 59.8748 65.6254C63.4554 64.4295 66.8761 62.7773 70.0875 60.8046C71.6871 59.8306 73.1144 58.6593 74.5048 57.4141C75.9814 56.0948 77.3349 54.6523 78.7991 53.333C78.8483 53.2837 78.7868 53.2344 78.7376 53.2591Z" fill="#A36B55"/>
<path d="M70.3581 51.1261C67.6019 53.0248 64.9811 55.0345 62.471 57.2415C61.2282 58.3388 60.0101 59.4607 58.8165 60.6074C58.2259 61.1868 57.6353 61.7663 57.0447 62.3581C56.4541 62.9623 55.7896 63.5418 55.2975 64.2199C55.1006 64.4911 55.5066 64.7377 55.7281 64.5528C56.368 64.0349 56.9093 63.3815 57.4877 62.7897C58.066 62.1979 58.6566 61.6184 59.2595 61.0389C60.453 59.8799 61.6589 58.7456 62.8893 57.636C65.3379 55.4167 67.848 53.2467 70.3827 51.1384C70.4073 51.1507 70.3827 51.1138 70.3581 51.1261Z" fill="#A36B55"/>
<path d="M115.577 28.9826C115.885 29.7347 115.983 30.6224 115.676 31.3745C115.319 32.2499 114.408 32.854 113.473 32.9156C112.538 32.9773 111.591 32.4841 111.025 31.7197C110.471 30.9553 110.286 29.9443 110.495 29.0196C110.631 28.4278 110.938 27.8606 111.406 27.4784C112.993 26.1961 114.9 27.3181 115.577 28.9826Z" fill="#BA7D60"/>
<path d="M115.159 29.6976C115.282 30.4374 115.036 31.2265 114.519 31.769C114.322 31.9785 114.076 32.1635 113.805 32.2621C113.067 32.558 112.169 32.2745 111.627 31.6826C111.086 31.1032 110.864 30.2648 110.901 29.4634C110.914 29.1181 110.988 28.7606 111.16 28.4524C111.406 28.0085 111.873 27.7126 112.378 27.6263C113.621 27.4167 114.95 28.4647 115.159 29.6976Z" fill="#1D1D1E"/>
<path d="M114.568 29.4881C114.679 29.7963 114.704 30.1415 114.531 30.4128C114.359 30.684 113.916 30.7827 113.707 30.5361C113.51 30.3018 113.621 29.9319 113.51 29.636C113.412 29.4018 113.19 29.2538 113.018 29.0689C112.858 28.8839 112.772 28.551 112.956 28.3908C113.596 27.8853 114.408 29.0196 114.568 29.4881Z" fill="white"/>
<path d="M104.011 68.8803C104.442 68.868 104.884 68.3748 105.192 68.1036C105.598 67.746 106.103 67.3145 106.336 66.8213C106.423 66.6487 106.226 66.5008 106.078 66.6241C105.66 66.9693 105.34 67.4748 104.946 67.857C104.651 68.1529 104.122 68.4488 103.986 68.8433C103.974 68.868 103.986 68.8803 104.011 68.8803Z" fill="#F2BF91"/>
<path d="M104.589 66.3282C105.192 65.9337 105.697 65.4898 106.164 64.935C106.57 64.4418 107.025 63.8377 107.21 63.2089C107.284 62.9376 106.952 62.7527 106.755 62.9376C106.312 63.3691 105.967 63.9733 105.598 64.4911C105.204 65.0459 104.811 65.6008 104.441 66.1679C104.368 66.2666 104.491 66.3898 104.589 66.3282Z" fill="#F2BF91"/>
<path d="M107.567 64.6144C108.342 63.8993 109.166 63.0856 109.646 62.1239C109.72 61.9883 109.548 61.8403 109.425 61.9513C108.65 62.6787 108.047 63.6034 107.382 64.4295C107.284 64.5651 107.444 64.7254 107.567 64.6144Z" fill="#F2BF91"/>
<path d="M107.505 67.6721C108.194 67.1172 109.105 66.3652 109.388 65.4898C109.449 65.3048 109.203 65.1939 109.08 65.3048C108.736 65.6007 108.49 66.0323 108.194 66.3775C107.887 66.735 107.567 67.0556 107.21 67.3638C107.001 67.5488 107.296 67.8323 107.505 67.6721Z" fill="#F2BF91"/>
<path d="M104.921 59.7073C105.856 58.6716 106.755 57.1181 107.001 55.7373C107.038 55.503 106.742 55.3551 106.619 55.577C106.213 56.2181 105.943 56.9702 105.623 57.6606C105.327 58.3141 104.995 58.9429 104.737 59.5963C104.7 59.695 104.848 59.7813 104.921 59.7073Z" fill="#F2BF91"/>
<path d="M107.727 59.2388C108.133 58.8813 108.502 58.5361 108.847 58.1045C109.13 57.7593 109.45 57.3278 109.56 56.8963C109.622 56.6497 109.326 56.5017 109.154 56.662C108.81 56.9579 108.551 57.4141 108.293 57.784C108.01 58.2032 107.739 58.6224 107.469 59.0292C107.345 59.1895 107.592 59.3498 107.727 59.2388Z" fill="#F2BF91"/>
<path d="M110.36 58.0675C110.852 57.4757 111.307 56.7113 111.394 55.9222C111.406 55.7866 111.197 55.7373 111.135 55.8482C110.951 56.1688 110.828 56.5387 110.655 56.8716C110.483 57.2168 110.335 57.562 110.163 57.9072C110.102 58.0305 110.262 58.1785 110.36 58.0675Z" fill="#F2BF91"/>
<path d="M109.265 53.2098C109.77 52.4207 110.471 51.3727 110.483 50.3987C110.483 50.1028 110.102 50.0288 109.954 50.2507C109.683 50.633 109.585 51.1508 109.425 51.5946C109.24 52.0755 109.105 52.581 108.933 53.0618C108.859 53.2714 109.154 53.3701 109.265 53.2098Z" fill="#F2BF91"/>
<path d="M96.8867 69.0653C98.1294 68.5351 99.2614 67.9433 100.307 67.0803C100.43 66.9816 100.27 66.8213 100.16 66.883C98.9784 67.4625 97.8833 68.1652 96.7882 68.8804C96.6652 68.9543 96.7636 69.1146 96.8867 69.0653Z" fill="#F2BF91"/>
<path d="M97.2679 71.2353C98.1293 70.8037 99.0767 70.4092 99.8642 69.842C99.9749 69.7681 99.9134 69.5461 99.7658 69.6078C98.8429 69.9653 97.9939 70.5325 97.1326 71.0133C96.9972 71.0996 97.1203 71.3092 97.2679 71.2353Z" fill="#F2BF91"/>
<path d="M101.156 64.9473C101.402 64.6761 101.648 64.4171 101.907 64.1459C102.141 63.8993 102.399 63.665 102.571 63.3815C102.645 63.2582 102.497 63.0979 102.374 63.1842C102.104 63.3815 101.882 63.6527 101.648 63.8993C101.402 64.1582 101.144 64.4295 100.898 64.6884C100.726 64.8487 100.996 65.1199 101.156 64.9473Z" fill="#F2BF91"/>
<path d="M97.9819 64.2199C98.8432 63.4432 99.9014 62.3828 100.221 61.2362C100.283 61.0143 99.9752 60.8047 99.8153 61.002C99.4707 61.4335 99.237 61.9636 98.9293 62.4198C98.5602 62.9623 98.1665 63.4802 97.7358 63.9733C97.5759 64.1459 97.8096 64.3802 97.9819 64.2199Z" fill="#F2BF91"/>
<path d="M107.985 38.1063C107.37 37.6378 106.767 37.1323 106.312 36.4911C105.82 35.8007 105.537 34.9746 105.266 34.1732C105.303 35.5418 105.967 36.8117 106.78 37.909C107.764 39.2529 108.982 40.4365 110.446 41.201C111.911 41.9777 113.633 42.3106 115.257 41.9531C113.879 41.6571 113.03 40.8064 111.849 40.19C111.221 39.8571 110.508 39.6844 109.88 39.3516C109.216 38.9817 108.588 38.5501 107.985 38.1063Z" fill="#D35F40"/>
</g>
<defs>
<linearGradient id="paint0_linear" x1="43.3022" y1="54.7258" x2="31.4802" y2="57.8829" gradientUnits="userSpaceOnUse">
<stop stop-color="#B59A66"/>
<stop offset="1" stop-color="#B58366"/>
</linearGradient>
<linearGradient id="paint1_linear" x1="43.2149" y1="14.6571" x2="24.6743" y2="21.864" gradientUnits="userSpaceOnUse">
<stop stop-color="#B3FF7D"/>
<stop offset="1" stop-color="#12B4A9"/>
</linearGradient>
<linearGradient id="paint2_linear" x1="8.58249" y1="26.3027" x2="13.295" y2="44.5484" gradientUnits="userSpaceOnUse">
<stop stop-color="#B3FF7D"/>
<stop offset="1" stop-color="#12B4A9"/>
</linearGradient>
<linearGradient id="paint3_linear" x1="188.701" y1="73.8191" x2="177.268" y2="69.4579" gradientUnits="userSpaceOnUse">
<stop stop-color="#B59A66"/>
<stop offset="1" stop-color="#B58366"/>
</linearGradient>
<linearGradient id="paint4_linear" x1="190.265" y1="31.653" x2="175.754" y2="43.309" gradientUnits="userSpaceOnUse">
<stop stop-color="#B3FF7D"/>
<stop offset="1" stop-color="#12B4A9"/>
</linearGradient>
<linearGradient id="paint5_linear" x1="208.881" y1="60.4707" x2="199.117" y2="46.12" gradientUnits="userSpaceOnUse">
<stop stop-color="#B3FF7D"/>
<stop offset="1" stop-color="#12B4A9"/>
</linearGradient>
<linearGradient id="paint6_linear" x1="312.393" y1="126.884" x2="302.55" y2="119.615" gradientUnits="userSpaceOnUse">
<stop stop-color="#B59A66"/>
<stop offset="1" stop-color="#B58366"/>
</linearGradient>
<linearGradient id="paint7_linear" x1="313.661" y1="81.3792" x2="302.527" y2="98.5516" gradientUnits="userSpaceOnUse">
<stop stop-color="#B3FF7D"/>
<stop offset="1" stop-color="#12B4A9"/>
</linearGradient>
<linearGradient id="paint8_linear" x1="336.892" y1="133.496" x2="329.294" y2="110.456" gradientUnits="userSpaceOnUse">
<stop stop-color="#B3FF7D"/>
<stop offset="1" stop-color="#12B4A9"/>
</linearGradient>
<linearGradient id="paint9_linear" x1="343.392" y1="92.6883" x2="326.207" y2="90.255" gradientUnits="userSpaceOnUse">
<stop stop-color="#B3FF7D"/>
<stop offset="1" stop-color="#12B4A9"/>
</linearGradient>
<linearGradient id="paint10_linear" x1="158.459" y1="121.5" x2="173.661" y2="68.2892" gradientUnits="userSpaceOnUse">
<stop stop-color="#9E8179"/>
<stop offset="1" stop-color="#D0B580"/>
</linearGradient>
<clipPath id="clip0">
<rect width="352" height="162" fill="white"/>
</clipPath>
<clipPath id="clip1">
<rect width="112.519" height="89.9769" fill="white" transform="translate(181 121.972) rotate(-41.7823)"/>
</clipPath>
</defs>
</svg>
