<svg width="346" height="160" viewBox="0 0 346 160" fill="none" xmlns="http://www.w3.org/2000/svg">
<g clip-path="url(#clip0)">
<mask id="mask0" mask-type="alpha" maskUnits="userSpaceOnUse" x="-217" y="-24" width="568" height="184">
<rect x="350.898" y="-24" width="184" height="567" transform="rotate(90 350.898 -24)" fill="#C4C4C4"/>
</mask>
<g mask="url(#mask0)">
<path d="M310.164 41.6447C314.761 33.636 324.481 34.3782 346.963 36.5498C333.324 55.0327 325.095 61.9544 316.729 59.527C308.364 57.0997 305.566 49.6534 310.164 41.6447Z" fill="url(#paint0_linear)"/>
<path d="M79.2871 92.0406C79.2871 92.0406 85.8158 100.843 79.3351 119.016C72.8545 137.189 62.5191 156.137 62.5191 156.137L74.8589 157.116L94.7278 97.1573L79.2871 92.0406Z" fill="url(#paint1_linear)"/>
<path d="M294.86 29.5278C294.86 29.5278 303.24 36.5908 301.117 55.7674C298.993 74.944 293.298 95.7632 293.298 95.7632L305.531 93.8749L311.064 30.9526L294.86 29.5278Z" fill="url(#paint2_linear)"/>
<path d="M77.6896 123.436C70.016 138.282 64.3373 152.024 57.8692 152.84L74.8585 157.116L84.7929 127.137C82.6342 133.651 77.83 132.096 77.6896 123.436Z" fill="#9B7A71"/>
<path d="M300.533 60.4477C296.483 76.6607 294.12 91.3415 288.014 93.6241L305.531 93.8749L308.297 62.4138C307.696 69.2502 302.663 68.8429 300.533 60.4477Z" fill="#9B7A71"/>
<path d="M72.5155 88.9389C68.2412 78.7162 76.0301 69.6872 94.4781 49.1284C102.135 75.6991 102.729 88.7187 94.3226 95.2159C85.9166 101.713 76.7898 99.1615 72.5155 88.9389Z" fill="url(#paint3_linear)"/>
<path d="M292.966 43.8655C282.69 48.0086 273.761 40.1047 253.44 21.3951C280.107 14.0785 293.133 13.6519 299.522 22.1405C305.911 30.6291 303.243 39.7224 292.966 43.8655Z" fill="url(#paint4_linear)"/>
<path d="M90.8827 90.3483C98.3614 82.3749 109.357 85.8788 134.665 94.5071C113.915 112.083 102.549 117.814 93.573 112.738C84.5973 107.662 83.404 98.3216 90.8827 90.3483Z" fill="url(#paint5_linear)"/>
<path d="M-106.153 183.49C-106.153 183.49 -13.7355 170.501 86.3768 155.193C184.724 140.156 254.485 96.1379 373.941 73.1675C493.396 50.1971 670.016 26.7158 670.016 26.7158" stroke="url(#paint6_linear)" stroke-width="16"/>
<path d="M301.42 32.5481C299.282 22.8392 307.562 16.3904 327.042 1.83782C329.565 26.4382 328.023 37.9116 319.601 42.0369C311.18 46.1622 303.559 42.2569 301.42 32.5481Z" fill="url(#paint7_linear)"/>
</g>
<g clip-path="url(#clip1)">
<path d="M173.781 18.239C170.126 18.2234 166.487 18.8511 163.082 20.0908C166.049 20.4203 168.767 21.7228 171.391 23.0724C174.984 24.9241 178.561 26.9327 181.451 29.6633C180.482 28.4235 179.498 27.1367 179.045 25.6459C178.561 24.0767 178.733 22.3976 178.983 20.7812C179.092 20.0751 179.451 19.1492 179.358 18.4431C179.264 17.6741 178.983 17.784 178.295 17.9566C176.812 18.3018 175.296 18.239 173.781 18.239Z" fill="#CEAF8E"/>
<path d="M186.387 108.942C173.782 120.147 167.581 136.702 160.755 152.175C159.88 154.153 158.787 156.334 156.741 157.04C153.898 158.029 151.102 155.69 148.29 154.608C143.62 152.819 138.247 154.592 133.451 153.211C131.858 152.756 130.218 151.783 129.781 150.167C129.265 148.268 130.593 146.4 131.843 144.878C141.98 132.607 152.461 120.649 163.301 109.005C166.097 105.992 170.189 102.744 173.844 104.611C177.171 106.322 177.375 110.935 177.125 114.686C177.093 115.078 176.984 115.596 176.594 115.659C176.203 115.721 176.281 114.858 176.578 115.125L186.387 108.942Z" fill="#BA7D60"/>
<path d="M192.135 127.962C192.166 128.134 192.213 128.323 192.338 128.417C192.447 128.495 192.588 128.495 192.713 128.495C197.586 128.448 202.897 127.146 207.114 128.935C207.989 129.311 208.895 130.268 208.317 131.414C207.224 130.41 205.693 130.08 204.178 129.892C196.493 128.887 187.933 130.676 179.873 134.992C180.17 134.16 181.013 133.674 181.732 133.313C184.59 131.916 187.433 130.52 190.292 129.107C190.432 129.044 190.588 128.966 190.698 128.825C190.87 128.589 190.854 128.307 190.838 128.056C190.01 120.712 184.106 106.118 182.216 99.5581C185.934 99.1344 187.886 111.5 188.855 114.686C190.135 118.985 191.26 123.411 192.135 127.962Z" fill="#7C5946"/>
<path d="M202.038 125.922C204.381 125.592 206.755 125.372 208.879 125.937C209.114 126 209.395 126.141 209.332 126.455C209.286 126.691 209.051 126.879 208.848 126.926C208.645 126.973 208.458 126.895 208.286 126.847C207.239 126.534 205.693 126.455 204.506 126.628C202.772 126.879 199.07 127.459 197.321 127.82C194.369 128.401 193.478 129.437 190.604 129.625C190.854 128.291 194.931 127.459 195.868 127.193C197.93 126.612 199.992 126.22 202.038 125.922Z" fill="#7C5946"/>
<path d="M197.149 131.963C198.883 133.046 200.366 134.584 201.21 136.671C200.913 137.048 200.491 136.765 200.273 136.467C198.07 133.423 194.837 131.461 191.135 130.912C190.51 130.818 189.87 130.755 189.323 130.488C189.479 130.567 190.901 129.515 191.323 129.562C191.916 129.625 192.541 130.017 193.103 130.19C194.525 130.614 195.899 131.179 197.149 131.963Z" fill="#7C5946"/>
<path d="M160.177 75.8779C161.614 65.7562 165.144 55.7757 171.47 47.7725C173.36 45.3715 175.515 43.1432 178.046 41.4327C183.903 37.4625 191.292 36.5209 198.352 36.6779C200.648 36.7249 202.944 36.8819 205.178 37.3997C208.364 38.153 211.379 39.6438 213.893 41.7466L213.597 41.6838C214.862 42.3429 216.018 43.253 216.971 44.3044C219.22 46.8153 220.501 50.0636 221.313 53.3277C224.515 66.2741 221 80.0992 214.815 91.9001C209.582 101.833 202.428 110.794 193.51 117.542C187.027 122.438 178.889 126.235 170.986 124.431C169.283 124.038 167.612 123.379 166.237 122.297C164.347 120.79 163.145 118.546 162.348 116.239C161.255 113.085 160.802 109.758 160.427 106.447C159.286 96.294 158.74 85.984 160.177 75.8779Z" fill="#CEAF8E"/>
<path d="M217.954 29.7888C216.58 23.1037 212.222 16.9993 206.13 13.9707C200.788 11.3029 194.54 11.0832 188.605 11.7737C185.028 12.1817 181.357 12.9506 178.452 15.0848C175.547 17.219 173.61 21.0166 174.578 24.5004C175.578 28.0626 179.155 30.2125 181.107 33.3667C182.513 35.6421 183.028 38.4668 182.497 41.0874C182.091 43.0961 181.107 45.042 181.357 47.082C181.701 49.9224 184.325 51.9153 186.902 53.1394C189.589 54.4104 192.557 55.2422 195.509 54.9597C198.43 54.6772 201.132 53.3277 203.818 52.1507C207.255 50.6285 217.439 64.7362 219.688 61.5192C222.765 57.1253 218.985 34.779 217.954 29.7888Z" fill="#CEAF8E"/>
<path d="M204.881 11.9306C208.176 11.7423 211.503 11.554 214.627 10.4712C217.736 9.38844 220.657 7.28563 221.953 4.24127C222.078 7.3641 219.985 10.4398 217.049 11.4285C218.517 11.5226 220.016 11.2559 221.36 10.6752C219.641 11.8993 217.97 13.1547 216.314 14.4728C217.876 15.2889 219.907 15.1476 221.328 14.1119C216.642 19.3375 209.161 21.252 202.178 20.7656C195.493 20.2948 188.167 18.1135 182.201 15.1162C188.449 11.0989 197.82 12.3073 204.881 11.9306Z" fill="#CEAF8E"/>
<path d="M218.517 53.0923C220.657 55.1951 221.563 58.3493 221.438 61.3466C221.313 64.3439 220.266 67.247 219.001 69.9618C215.58 77.3217 210.52 83.7556 205.381 90.017C199.008 97.7691 192.401 105.38 184.809 111.908C177.218 118.452 168.565 123.913 159.005 126.895C167.206 117.761 175.5 108.503 181.357 97.675C178.546 96.1842 177.296 92.669 177.562 89.4834C177.843 86.0468 179.545 82.9082 181.31 79.958C186.153 71.8763 191.791 64.2811 198.117 57.3293C200.788 54.3948 203.006 50.864 207.099 50.4089C211.004 49.9852 215.518 50.1578 218.517 53.0923Z" fill="#BA7D60"/>
<path d="M167.893 63.3081C167.003 69.9932 166.659 78.6712 166.893 85.419C165.831 85.2307 165.331 84.0067 164.738 84.9011C164.144 85.7956 163.926 86.8784 163.738 87.9455C161.239 101.881 161.708 114.011 162.27 128.166C159.974 115.753 157.412 105.506 156.725 92.9044C155.803 75.8465 164.035 52.0095 167.409 48.2276C169.424 45.9678 172.86 41.7465 176.234 41.6838C178.483 41.6524 177.64 42.437 176.5 44.0063C174.797 46.3131 172.673 48.2903 171.329 50.8482C169.33 54.5988 168.455 59.1339 167.893 63.3081Z" fill="#BA7D60"/>
<path d="M201.491 98.4125C196.462 105.961 191.26 113.619 184.028 119.08C182.826 119.99 181.186 120.837 179.936 120.037C177.062 122.689 174.11 125.388 170.533 126.973C168.971 127.664 167.299 128.134 165.659 128.589C163.488 129.201 161.301 129.798 159.13 130.41C157.225 130.943 155.272 131.477 153.304 131.288C151.336 131.1 149.337 130.033 148.587 128.197C159.49 122.281 169.908 115.455 179.686 107.797C184.778 103.811 188.355 102.132 191.901 96.7177C189.714 98.4753 187.433 99.0088 183.279 99.4325C180.451 99.715 177.468 94.5521 176.5 91.8373C183.341 91.7275 191.62 89.201 197.43 85.576C203.272 81.9196 208.348 77.2432 213.284 72.4727C216.455 69.4126 219.501 66.227 221.204 62.0842C220.454 68.0944 218.205 72.865 214.956 77.9337C210.535 84.807 206.021 91.6176 201.491 98.4125Z" fill="#303033"/>
<path d="M158.412 124.07C157.271 124.76 156.037 123.285 155.616 122.014C154.6 118.923 154.46 115.627 154.335 112.379C153.819 99.4011 153.398 85.8898 158.677 74.0419C158.146 79.5971 158.068 85.1679 158.615 90.7231C161.239 117.087 164.519 120.523 167.065 126.314C167.971 128.37 168.721 130.645 168.283 132.842C167.502 136.844 163.332 137.032 161.145 134.38C160.177 133.156 156.178 125.419 158.412 124.07Z" fill="#303033"/>
<path d="M197.368 99.307C196.962 99.0245 196.712 98.538 196.727 98.0516C195.868 101.567 194.259 104.894 192.057 107.75C191.807 108.079 191.495 108.424 191.089 108.471C190.682 108.519 190.245 108.032 190.479 107.703C189.511 110.747 187.277 113.368 184.419 114.78C184.294 114.309 184.169 113.823 184.06 113.352C180.545 118.499 174.485 121.135 168.737 123.505C174.891 120.382 179.827 114.937 182.341 108.487C182.107 109.837 183.966 110.763 185.2 110.182C186.434 109.617 187.043 108.22 187.433 106.902C187.824 105.6 188.136 104.187 189.074 103.199C188.699 104.078 190.026 104.878 190.87 104.47C191.729 104.046 192.088 103.042 192.338 102.116C192.932 100.06 193.416 97.9888 193.806 95.886C194.009 96.2783 194.213 96.6863 194.416 97.0786C194.931 97.5023 195.509 96.6392 195.603 95.9801C195.993 93.2339 196.103 90.3936 195.774 87.6317C198.039 86.8785 200.429 88.3536 200.726 90.7702C200.882 91.7745 198.149 99.8562 197.368 99.307Z" fill="#FFD91F"/>
<path d="M209.91 75.6896C208.848 77.6512 204.771 86.9412 200.851 89.5148C199.695 90.2681 198.148 90.8801 196.977 90.1425C195.837 91.5705 194.275 92.669 192.556 93.2653C191.416 93.6577 189.885 93.7047 189.276 92.6533C187.933 93.9087 185.918 94.1912 184.122 93.8303C182.325 93.4693 180.701 92.5592 179.108 91.6647C184.637 91.445 207.755 77.8081 209.91 75.6896Z" fill="#E2E2E2"/>
<path d="M213.753 74.497C212.785 78.4986 211.082 82.359 208.458 85.5132C207.989 86.0781 207.489 86.6273 206.849 86.9883C209.301 83.8184 210.707 79.8638 210.848 75.8465C210.91 74.1204 210.707 72.3314 209.879 70.8249C211.644 70.0246 212.878 68.1729 212.956 66.227C214.44 68.9104 214.456 71.5782 213.753 74.497Z" fill="#E2E2E2"/>
<path d="M199.617 91.8373C199.226 92.1982 198.789 92.5748 198.258 92.6062C197.727 92.6376 197.149 92.1355 197.336 91.6333C196.04 93.0927 194.369 94.2383 192.541 94.9287C191.901 95.1641 191.213 95.3524 190.542 95.2583C189.87 95.1641 189.198 94.7247 189.011 94.0657C187.512 95.3681 185.465 96.0429 183.497 95.8546C181.264 95.6506 178.905 93.8773 179.139 91.6333C182.638 93.8616 187.683 93.1869 190.479 90.1111C190.042 91.037 191.042 92.1198 192.057 92.1512C193.072 92.1825 193.978 91.5235 194.744 90.8487C195.915 89.8287 197.008 88.6988 197.992 87.4905C197.852 88.2594 197.821 89.2166 198.477 89.609C199.055 89.9385 199.789 89.5933 200.335 89.2166C202.757 87.5532 204.881 85.215 206.287 82.6414C205.709 85.9212 201.929 89.656 199.617 91.8373Z" fill="#ED473A"/>
<path d="M161.583 78.0749C163.035 80.774 164.863 83.2691 166.987 85.4504C164.722 85.4033 162.489 84.7129 160.599 83.4574C159.599 82.7984 158.678 81.9667 158.1 80.9152C156.944 78.8281 157.287 76.2389 158.022 73.9634C158.756 71.6566 158.99 69.5695 160.083 66.9802C159.318 71.076 159.583 74.3401 161.583 78.0749Z" fill="#E2E2E2"/>
<path d="M161.395 84.9953C159.973 84.5716 158.474 84.0852 157.521 82.9396C156.6 81.8411 156.35 80.3189 156.521 78.8909C156.693 77.4786 157.24 76.129 157.802 74.8109C157.927 77.1804 159.114 79.3931 160.739 81.1036C161.645 82.0451 162.691 82.8611 163.785 83.5516C164.706 84.1322 166.221 84.5873 166.893 85.3876C165.519 86.3763 162.832 85.419 161.395 84.9953Z" fill="#ED473A"/>
<path d="M157.88 108.628C157.708 109.005 157.396 109.272 157.068 109.35C156.678 107.075 156.662 104.674 157.021 102.398C156.943 102.806 156.74 103.167 156.459 103.371C155.99 101.017 155.99 98.5223 156.475 96.1684C156.365 96.4509 156.256 96.7334 156.146 97.0159C156.037 94.8346 156.209 92.6219 156.615 90.4877C155.74 93.1712 155.194 96.0586 155.022 98.9774C155.256 98.7891 155.444 98.4596 155.49 98.0986C155.178 99.7464 155.022 101.457 155.053 103.167C155.053 103.575 155.084 104.03 155.319 104.329C155.553 104.611 156.022 104.517 156.068 104.109C155.694 105.49 155.6 106.996 155.772 108.456C156.1 108.377 156.459 108.519 156.678 108.848C156.365 109.962 156.381 111.233 156.709 112.332C156.959 111.987 157.146 111.579 157.287 111.155C156.803 113.305 157.068 116.129 158.24 117.84C158.411 116.522 158.224 115.125 158.052 113.823C157.896 112.63 157.365 109.711 157.88 108.628Z" fill="#FFD91F"/>
<path d="M197.259 16.0421C195.29 15.8694 193.291 16.0891 191.307 15.9165C189.339 15.7439 187.277 15.0848 186.028 13.5312C185.747 13.186 185.512 12.7937 185.122 12.5583C184.716 12.3229 184.216 12.2915 183.747 12.3229C179.546 12.5269 175.625 15.587 174.391 19.62C174.141 20.4203 174.001 21.2991 174.282 22.0837C174.563 22.8683 175.391 23.5117 176.203 23.3234C176.469 23.2606 176.703 23.1351 176.953 23.0253C178.202 22.476 179.639 22.5859 180.998 22.6957C185.528 23.041 190.276 23.1508 194.416 21.252C195.806 20.6086 197.102 19.7612 198.493 19.0864C199.242 18.7255 200.008 18.4587 200.82 18.2547C201.523 18.0821 201.976 18.1292 201.46 17.4073C200.757 16.403 198.368 16.1362 197.259 16.0421Z" fill="#ED473A"/>
<path d="M197.258 16.0421C193.416 15.7753 189.37 15.995 186.199 17.8467C184.481 18.8354 182.966 20.5459 180.982 20.4674C178.999 20.3889 176.624 18.6471 175.781 16.8581C174.781 18.1292 173.875 19.9025 173.781 21.864C173.719 23.2136 173.891 24.5789 174.375 25.85C175.265 28.2352 176.656 30.4479 178.421 32.2839C179.467 33.3667 180.654 34.3553 181.42 35.6578C182.185 36.9603 181.81 38.6394 180.857 39.8164C182.779 39.8007 185.059 38.3256 185.606 36.4738C186.152 34.6221 185.699 32.5821 184.809 30.8559C183.919 29.1297 182.607 27.686 181.31 26.2423C180.248 25.0653 179.186 23.8884 178.124 22.7114C180.607 24.9712 183.934 26.7444 187.23 26.101C189.667 25.6303 191.651 23.9355 193.822 22.7585C199.32 19.7926 206.474 20.2634 211.535 23.9041C210.551 23.1979 209.832 21.7856 208.817 20.9853C207.848 20.232 206.786 19.4474 205.708 18.8668C203.1 17.4544 200.179 16.2461 197.258 16.0421Z" fill="#303033"/>
<path d="M132.561 144.91C132.686 144.203 133.061 143.591 133.451 142.995C135.091 140.516 137.028 138.225 139.215 136.216C138.294 137.613 137.403 139.041 136.56 140.484C136.122 141.222 135.701 141.991 135.685 142.854C135.669 144.031 136.56 145.145 137.7 145.38C138.45 145.537 139.262 145.302 139.84 144.8C139.824 145.035 139.856 145.271 139.98 145.475C140.308 146.055 141.027 146.306 141.683 146.259C142.339 146.196 142.948 145.883 143.511 145.553C145.057 144.611 146.478 143.387 147.509 141.897C146.556 143.56 146.01 145.459 145.916 147.373C145.885 148.032 145.932 148.754 146.353 149.272C146.931 149.963 147.978 150.01 148.837 149.806C150.211 149.476 151.461 148.629 152.289 147.468C151.898 148.409 151.68 149.79 152.617 150.167C152.867 150.276 153.164 150.261 153.445 150.229C154.913 150.057 156.319 149.319 157.272 148.189C157.037 148.723 156.803 149.304 156.834 149.884C156.881 150.465 157.303 151.077 157.896 151.092C158.24 151.108 158.552 150.936 158.834 150.747C160.942 149.413 164.035 143.78 165.269 141.818C164.113 145.004 163.598 148.142 162.02 151.14C160.974 153.148 159.49 155.235 157.256 155.628C155.179 155.989 152.961 154.451 152.554 152.379C152.148 153.117 151.211 153.541 150.399 153.337C149.587 153.133 148.946 152.332 148.931 151.485C147.869 152.238 146.385 152.364 145.213 151.799C144.042 151.234 143.198 150.01 143.104 148.707C142.23 149.806 141.043 150.936 139.652 150.763C138.825 150.653 138.075 150.041 137.809 149.225C137.544 148.425 137.794 147.483 138.418 146.903C137.091 147.311 135.669 147.405 134.295 147.201C133.92 147.138 133.545 147.06 133.233 146.84C132.639 146.4 132.452 145.6 132.561 144.91Z" fill="#303033"/>
<path d="M164.128 138.601C163.082 140.986 161.864 143.309 160.739 145.647C159.614 148.001 158.521 150.371 157.443 152.74C157.287 153.085 156.756 152.787 156.928 152.442C158.068 150.104 159.224 147.781 160.411 145.459C161.598 143.152 162.738 140.798 164.097 138.586C164.113 138.57 164.128 138.586 164.128 138.601Z" fill="#303033"/>
<path d="M158.943 141.646C158.13 143.45 157.256 145.208 156.272 146.918C155.803 147.719 155.334 148.535 154.819 149.319C154.335 150.057 153.882 151.03 153.148 151.532C152.773 151.799 152.304 151.359 152.414 150.967C152.632 150.12 153.398 149.335 153.897 148.613C154.429 147.844 154.975 147.091 155.522 146.322C156.631 144.737 157.756 143.183 158.896 141.63C158.911 141.583 158.958 141.614 158.943 141.646Z" fill="#303033"/>
<path d="M156.678 137.205C155.163 139.558 153.616 141.912 152.257 144.36C150.898 146.808 149.774 149.351 148.509 151.846C148.274 152.317 147.54 151.893 147.79 151.422C150.492 146.51 153.32 141.708 156.568 137.142C156.615 137.079 156.709 137.142 156.678 137.205Z" fill="#303033"/>
<path d="M152.961 134.631C151.758 137.267 150.211 139.715 148.696 142.163C147.962 143.34 147.228 144.533 146.447 145.679C146.057 146.259 145.666 146.824 145.276 147.405C144.901 147.938 144.573 148.676 143.948 148.943C143.667 149.068 143.261 148.927 143.292 148.566C143.339 147.86 143.854 147.358 144.245 146.808C144.651 146.244 145.057 145.679 145.447 145.098C146.275 143.921 147.134 142.744 147.962 141.567C149.602 139.245 151.149 136.844 152.929 134.615C152.945 134.584 152.976 134.615 152.961 134.631Z" fill="#303033"/>
<path d="M147.931 133.721C146.416 135.981 144.791 138.146 143.151 140.327C142.355 141.394 141.574 142.477 140.793 143.56C140.027 144.611 139.324 145.788 138.434 146.746C138.075 147.138 137.387 146.62 137.684 146.165C138.372 145.114 139.277 144.172 140.09 143.199C140.964 142.132 141.855 141.065 142.714 139.982C144.401 137.848 146.088 135.729 147.9 133.705C147.931 133.689 147.947 133.705 147.931 133.721Z" fill="#303033"/>
<path d="M142.308 136.498C141.308 138.24 140.309 139.904 139.075 141.504C137.809 143.136 136.497 144.69 135.06 146.181C134.279 146.997 132.998 145.694 133.842 144.957C136.81 142.32 139.652 139.464 142.277 136.483C142.277 136.436 142.323 136.483 142.308 136.498Z" fill="#303033"/>
<path d="M157.522 159.331C156.069 160.43 153.788 160.649 152.539 159.315C152.07 158.813 151.68 158.076 150.992 158.06C150.696 158.06 150.415 158.201 150.165 158.342C149.634 158.609 149.056 158.845 148.462 158.766C147.868 158.688 147.322 158.154 147.415 157.558C145.9 158.923 143.183 158.484 142.167 156.726C141.043 157.213 139.824 157.589 138.622 157.448C137.403 157.307 136.2 156.522 135.872 155.329C134.857 156.036 133.451 156.146 132.327 155.612C131.202 155.078 130.405 153.917 130.296 152.677C129.624 153.242 128.515 153.007 127.969 152.317C127.422 151.626 127.391 150.622 127.688 149.79C127.969 148.958 128.531 148.252 129.093 147.577C130.843 145.506 132.577 143.246 134.56 141.41C133.967 142.634 133.639 144.659 134.654 145.553C135.013 145.883 135.513 146.008 135.982 146.118C137.184 146.369 138.418 146.432 139.637 146.322C139.371 146.793 139.09 147.279 139.028 147.813C138.965 148.346 139.168 148.958 139.652 149.209C139.949 149.366 140.308 149.351 140.636 149.304C141.699 149.147 142.714 148.613 143.448 147.813C143.245 149.068 144.213 150.276 145.385 150.732C146.556 151.202 147.868 151.077 149.118 150.873C148.915 151.297 149.024 151.846 149.384 152.144C149.743 152.442 150.305 152.458 150.68 152.175C151.149 151.814 151.43 151.03 152.008 151.124C152.414 151.187 152.601 151.642 152.789 152.003C153.851 154.043 156.85 154.309 158.818 153.148C161.177 151.767 162.286 149.696 163.645 147.091C163.051 149.319 162.395 150.732 161.786 152.16C160.739 154.608 159.693 157.683 157.522 159.331Z" fill="#FFD91F"/>
<path d="M190.308 20.3576C190.604 21.001 190.714 21.7699 190.464 22.429C190.183 23.1979 189.417 23.7629 188.605 23.8256C187.793 23.9041 186.965 23.5118 186.45 22.8684C185.934 22.225 185.747 21.3462 185.903 20.5459C185.997 20.028 186.246 19.5259 186.637 19.1806C187.996 18.0194 189.667 18.9295 190.308 20.3576Z" fill="#ED473A"/>
<path d="M189.98 20.9853C190.12 21.6287 189.917 22.3191 189.495 22.8056C189.324 22.9939 189.121 23.1509 188.886 23.2607C188.261 23.5432 187.48 23.3235 186.981 22.837C186.496 22.3505 186.278 21.6287 186.278 20.9382C186.278 20.64 186.325 20.3262 186.465 20.0594C186.668 19.6671 187.059 19.4003 187.496 19.3062C188.574 19.0551 189.745 19.9182 189.98 20.9853Z" fill="#1D1D1E"/>
<path d="M189.464 20.8127C189.573 21.0638 189.605 21.3776 189.464 21.613C189.323 21.8484 188.949 21.9582 188.761 21.7385C188.574 21.5345 188.667 21.2207 188.558 20.9696C188.464 20.7656 188.261 20.6558 188.121 20.4831C187.965 20.3262 187.886 20.0437 188.058 19.9025C188.558 19.4631 189.308 20.4204 189.464 20.8127Z" fill="white"/>
<path d="M216.174 45.3088C215.893 44.2888 215.814 43.206 215.627 42.1546C215.471 41.1659 215.143 40.1773 215.065 39.1887C215.049 38.9219 215.471 38.7964 215.596 39.0474C216.033 39.9576 216.174 41.0718 216.299 42.0761C216.439 43.1432 216.533 44.2574 216.299 45.3245C216.283 45.3716 216.189 45.3716 216.174 45.3088Z" fill="#F4D1A6"/>
<path d="M218.001 42.2487C217.642 40.0831 217.033 37.9803 216.549 35.8461C216.502 35.6578 216.767 35.5323 216.877 35.7049C217.986 37.7292 218.282 39.9576 218.142 42.233C218.126 42.2958 218.017 42.3271 218.001 42.2487Z" fill="#F4D1A6"/>
<path d="M214.393 35.8148C214.112 35.1086 213.784 34.4338 213.44 33.759C213.112 33.147 212.644 32.6292 212.347 32.0172C212.206 31.719 212.535 31.4836 212.784 31.6719C213.925 32.5664 214.503 34.3867 214.628 35.7834C214.643 35.9246 214.44 35.9246 214.393 35.8148Z" fill="#F4D1A6"/>
<path d="M214.987 31.107C214.69 30.4479 214.393 29.7731 214.05 29.1297C213.706 28.4706 213.253 27.8743 212.925 27.2152C212.784 26.9327 213.113 26.6974 213.347 26.8857C214.518 27.8429 215.174 29.5691 215.206 31.0599C215.19 31.154 215.034 31.2168 214.987 31.107Z" fill="#F4D1A6"/>
<path d="M188.261 63.0414C188.87 61.1269 189.87 59.2281 191.276 57.7844C191.401 57.6588 191.619 57.8158 191.526 57.9884C190.51 59.7146 189.401 61.378 188.417 63.1199C188.37 63.1983 188.23 63.1356 188.261 63.0414Z" fill="#F4D1A6"/>
<path d="M192.947 59.2752C193.635 57.5176 194.603 55.9327 196.056 54.7087C196.228 54.5517 196.446 54.7871 196.306 54.9597C195.165 56.3564 194.025 57.7844 193.072 59.338C193.041 59.4007 192.916 59.3537 192.947 59.2752Z" fill="#F4D1A6"/>
<path d="M193.619 53.9397C194.478 52.4646 195.431 51.0837 196.649 49.8753C196.774 49.7498 197.008 49.9224 196.899 50.0637C195.899 51.3975 194.853 52.7157 193.9 54.0967C193.775 54.2693 193.509 54.128 193.619 53.9397Z" fill="#F4D1A6"/>
<path d="M199.211 51.8683C200.226 50.5658 201.601 49.0436 203.147 48.3845C203.334 48.3061 203.475 48.5885 203.334 48.7141C202.71 49.2947 201.944 49.7184 201.288 50.2833C200.632 50.8483 200.007 51.4446 199.43 52.088C199.289 52.2606 199.086 52.0252 199.211 51.8683Z" fill="#F4D1A6"/>
<path d="M181.967 70.0874C182.529 68.8634 183.091 67.6236 183.685 66.431C183.747 66.3054 183.919 66.4153 183.857 66.5408C183.294 67.7649 182.685 68.9732 182.076 70.1815C182.06 70.2443 181.935 70.1658 181.967 70.0874Z" fill="#F4D1A6"/>
<path d="M178.921 73.9791C179.405 72.1588 179.827 70.3071 180.467 68.5338C180.529 68.3612 180.764 68.424 180.732 68.6123C180.42 70.464 179.764 72.2843 179.046 74.0105C179.03 74.089 178.905 74.0733 178.921 73.9791Z" fill="#F4D1A6"/>
<path d="M184.653 61.3937C185.262 59.5733 185.965 57.6432 187.012 56.0268C187.137 55.8228 187.418 55.9954 187.324 56.2151C186.574 57.9884 185.606 59.7146 184.794 61.4721C184.762 61.5506 184.622 61.4878 184.653 61.3937Z" fill="#F4D1A6"/>
<path d="M191.057 49.5929C191.323 49.2319 191.588 48.8553 191.854 48.4944C192.104 48.1648 192.354 47.7882 192.666 47.5214C192.807 47.3959 193.025 47.5528 192.931 47.7254C192.744 48.0864 192.432 48.4159 192.15 48.7141C191.854 49.0593 191.541 49.3888 191.229 49.7184C191.151 49.8282 190.995 49.7027 191.057 49.5929Z" fill="#F4D1A6"/>
<path d="M178.733 57.0154C179.249 55.3834 179.827 53.5474 180.811 52.135C180.936 51.9624 181.264 52.0566 181.17 52.292C180.514 53.924 179.592 55.4462 178.952 57.0782C178.905 57.2194 178.686 57.1724 178.733 57.0154Z" fill="#F4D1A6"/>
<path d="M178.936 49.5929C179.405 48.1805 180.107 46.5799 181.263 45.5912C181.482 45.4029 181.794 45.6383 181.654 45.9051C181.31 46.5642 180.795 47.1605 180.404 47.7882C179.998 48.4316 179.545 49.0436 179.139 49.687C179.077 49.7812 178.905 49.7184 178.936 49.5929Z" fill="#F4D1A6"/>
<path d="M184.95 49.1535C185.434 47.9922 186.043 47.0036 186.902 46.0777C187.074 45.9051 187.371 46.1248 187.246 46.3445C186.621 47.3488 185.981 48.3845 185.418 49.4202C185.231 49.7341 184.809 49.4673 184.95 49.1535Z" fill="#F4D1A6"/>
<path d="M189.433 36.9132C192.026 37.1016 194.525 37.8548 196.993 38.7022C199.851 39.6908 202.694 40.805 205.193 42.4998C201.32 40.5382 197.165 39.0788 192.854 38.608C188.464 38.1216 183.544 38.7964 179.499 40.5225C180.858 39.8007 182.029 38.357 183.294 37.792C185.169 36.9603 187.387 36.772 189.433 36.9132Z" fill="#303033"/>
</g>
</g>
<defs>
<linearGradient id="paint0_linear" x1="332.248" y1="32.036" x2="328.846" y2="54.7648" gradientUnits="userSpaceOnUse">
<stop stop-color="#B3FF7D"/>
<stop offset="1" stop-color="#12B4A9"/>
</linearGradient>
<linearGradient id="paint1_linear" x1="69.3527" y1="122.02" x2="84.7933" y2="127.137" gradientUnits="userSpaceOnUse">
<stop stop-color="#B59A66"/>
<stop offset="1" stop-color="#B58366"/>
</linearGradient>
<linearGradient id="paint2_linear" x1="292.094" y1="60.989" x2="308.298" y2="62.4138" gradientUnits="userSpaceOnUse">
<stop stop-color="#B59A66"/>
<stop offset="1" stop-color="#B58366"/>
</linearGradient>
<linearGradient id="paint3_linear" x1="83.8672" y1="61.679" x2="99.6851" y2="78.4772" gradientUnits="userSpaceOnUse">
<stop stop-color="#B3FF7D"/>
<stop offset="1" stop-color="#12B4A9"/>
</linearGradient>
<linearGradient id="paint4_linear" x1="265.854" y1="32.1657" x2="282.853" y2="16.5642" gradientUnits="userSpaceOnUse">
<stop stop-color="#B3FF7D"/>
<stop offset="1" stop-color="#12B4A9"/>
</linearGradient>
<linearGradient id="paint5_linear" x1="118.943" y1="85.2971" x2="108.83" y2="110.554" gradientUnits="userSpaceOnUse">
<stop stop-color="#B3FF7D"/>
<stop offset="1" stop-color="#12B4A9"/>
</linearGradient>
<linearGradient id="paint6_linear" x1="208.743" y1="124.556" x2="199.792" y2="94.8767" gradientUnits="userSpaceOnUse">
<stop stop-color="#AE7E71"/>
<stop offset="1" stop-color="#C9AE79"/>
</linearGradient>
<linearGradient id="paint7_linear" x1="312.052" y1="8.89958" x2="325.804" y2="29.4679" gradientUnits="userSpaceOnUse">
<stop stop-color="#B3FF7D"/>
<stop offset="1" stop-color="#12B4A9"/>
</linearGradient>
<clipPath id="clip0">
<rect width="346" height="160" fill="white"/>
</clipPath>
<clipPath id="clip1">
<rect width="95" height="156" fill="white" transform="matrix(-1 0 0 1 222.5 4.24127)"/>
</clipPath>
</defs>
</svg>
