<svg width="80" height="80" viewBox="0 0 80 80" fill="none" xmlns="http://www.w3.org/2000/svg">
<path d="M51.9996 58.4C52.8832 58.4 53.5996 58.0459 53.5996 57.6091V51.9908C53.5996 51.5541 52.8832 51.2 51.9996 51.2C51.116 51.2 50.3996 51.5541 50.3996 51.9908V57.6091C50.3996 58.0459 51.116 58.4 51.9996 58.4Z" fill="#FF5E3A"/>
<path d="M46.6653 63.2785C47.0747 63.2785 47.4841 63.1237 47.7966 62.8142L51.6208 59.026L55.445 62.8142C56.07 63.4333 57.0825 63.4333 57.7075 62.8142C58.3325 62.1951 58.3325 61.1921 57.7075 60.573L52.752 55.6643C52.127 55.0452 51.1146 55.0452 50.4896 55.6643L45.5341 60.573C44.9091 61.1921 44.9091 62.1951 45.5341 62.8142C45.8466 63.1237 46.256 63.2785 46.6653 63.2785Z" fill="#FF5E3A"/>
<path d="M34.3995 58.4C35.2831 58.4 35.9995 58.0916 35.9995 57.7113V51.8886C35.9995 51.5083 35.2831 51.2 34.3995 51.2C33.5159 51.2 32.7995 51.5083 32.7995 51.8886V57.7113C32.7995 58.0916 33.5159 58.4 34.3995 58.4Z" fill="#FF5E3A"/>
<path d="M29.4866 63.2785C29.896 63.2785 30.3054 63.1237 30.6179 62.8142L34.4421 59.026L38.2663 62.8142C38.8913 63.4333 39.9038 63.4333 40.5288 62.8142C41.1538 62.1951 41.1538 61.1921 40.5288 60.573L35.5733 55.6643C34.9483 55.0452 33.9358 55.0452 33.3108 55.6643L28.3554 60.573C27.7304 61.1921 27.7304 62.1951 28.3554 62.8142C28.6679 63.1237 29.0772 63.2785 29.4866 63.2785Z" fill="#FF5E3A"/>
<path d="M27.7348 30.6128C28.034 30.6128 28.2894 30.5498 28.5677 30.4434C28.8231 30.3381 29.0586 30.1905 29.2504 29.9994C29.6559 29.5978 29.8696 29.0484 29.8696 28.4981C29.8696 27.9488 29.6559 27.3984 29.2504 26.9967C29.0586 26.8067 28.8231 26.6581 28.5677 26.5527C27.7775 26.2357 26.8383 26.4257 26.24 26.9967C25.8345 27.3984 25.6 27.9488 25.6 28.4981C25.6 29.0484 25.8345 29.5978 26.24 29.9994C26.6247 30.3804 27.1792 30.6128 27.7348 30.6128Z" fill="#FF5E3A"/>
<path d="M46.4985 53.7769C56.9712 53.7769 69.6001 48.359 69.6001 30.0784C69.6001 29.6141 69.3946 29.1738 69.0384 28.8727C68.6821 28.5709 68.2157 28.4363 67.7478 28.5137C53.053 30.8367 48.8001 31.6 39.9977 27.1601C38.3852 22.431 33.8962 19.2 28.7829 19.2C23.3696 19.2 18.6712 22.8744 17.3282 27.9464H9.50164C8.97898 27.9464 8.48835 28.1995 8.18914 28.6243C7.88992 29.0492 7.8196 29.5924 8.00007 30.0784C8.07898 30.292 10.0079 35.2232 19.0719 37.6447C27.6532 49.9283 29.9049 53.7769 46.4985 53.7769ZM66.3423 31.9458C65.3649 47.6122 54.5735 50.6071 46.4985 50.6071C31.712 50.6071 28.6657 47.1366 21.4376 35.436C21.218 35.0816 20.8657 34.8262 20.4579 34.7256C16.5376 33.7621 14.1696 32.318 12.7837 31.1162H18.6384C19.4384 31.1162 20.1149 30.5312 20.2235 29.7464C20.8048 25.5412 24.4844 22.3698 28.7829 22.3698C32.7376 22.3698 36.1798 25.0165 37.154 28.8062C37.2915 29.3409 37.7001 29.7658 38.2321 29.9291C47.2001 34.7256 51.3544 34.3146 66.3423 31.9458Z" fill="#FF5E3A"/>
</svg>
