<svg width="80" height="80" viewBox="0 0 80 80" fill="none" xmlns="http://www.w3.org/2000/svg">
<path d="M29.2888 18.5527C26.1399 18.5528 23.0661 19.8281 20.8403 22.0542C18.6145 24.2803 17.34 27.354 17.3403 30.5027C17.3405 33.6509 18.6143 36.7251 20.8403 38.9511C23.0664 41.1771 26.1406 42.451 29.2888 42.4511C29.2903 42.4511 29.2919 42.4511 29.2935 42.4511C30.7685 42.4474 32.2124 42.1077 33.5841 41.573L38.4685 46.3417C37.9808 47.6579 37.6693 49.0369 37.6654 50.4433C37.6654 50.4449 37.6654 50.4464 37.6654 50.448C37.6655 53.5969 38.9408 56.6707 41.1669 58.8965C43.393 61.1222 46.4666 62.3968 49.6154 62.3964C52.7636 62.3963 55.8378 61.1225 58.0638 58.8965C60.2898 56.6704 61.5637 53.5962 61.5638 50.448C61.5637 47.2998 60.2898 44.2256 58.0638 41.9996C55.8382 39.774 52.7645 38.5002 49.6169 38.4996H49.6153C49.6143 38.4996 49.6132 38.4996 49.6122 38.4996C47.7726 38.5036 45.9858 39.0211 44.3435 39.8386L39.995 35.5933C40.7545 33.9989 41.2355 32.2767 41.2388 30.5058C41.2388 30.5048 41.2388 30.5037 41.2388 30.5027C41.2391 27.3539 39.9652 24.2792 37.7388 22.0527C35.5123 19.8262 32.4376 18.5524 29.2888 18.5527V18.5527ZM29.2888 21.7527C31.559 21.7524 33.8709 22.7098 35.4763 24.3152C37.0813 25.9202 38.0386 28.2314 38.0388 30.5011C38.0357 32.0212 37.6205 33.5558 36.8575 34.8714C36.8575 34.872 36.8575 34.8725 36.8575 34.873C36.3977 35.6666 36.5385 36.692 37.195 37.3324L42.6653 42.673C43.3174 43.3089 44.3379 43.4283 45.1185 42.959C45.119 42.9584 45.1195 42.9579 45.1201 42.9574C46.4631 42.1475 48.0479 41.7036 49.6154 41.6995H49.617H49.6186C51.8875 41.7004 54.197 42.6576 55.8014 44.262C57.4065 45.8671 58.3638 48.1782 58.3639 50.448C58.3638 52.7178 57.4065 55.0288 55.8014 56.6339C54.1963 58.239 51.8852 59.1963 49.6154 59.1964C47.3456 59.1966 45.0351 58.2393 43.4295 56.6339C41.8246 55.0292 40.8664 52.7197 40.8654 50.4511C40.8691 49.216 41.1419 47.9723 41.6545 46.848L41.6529 46.8496C42.0054 46.0784 41.8336 45.1539 41.2263 44.5621L35.3029 38.7793C35.3024 38.7787 35.3018 38.7782 35.3013 38.7777C34.6986 38.1914 33.7803 38.0404 33.0216 38.4027C31.8637 38.9535 30.5709 39.2472 29.2888 39.2511C29.2883 39.2511 29.2878 39.2511 29.2872 39.2511C27.0179 39.2506 24.7075 38.2933 23.1028 36.6886C21.4978 35.0835 20.5404 32.7725 20.5403 30.5027C20.5401 28.2329 21.4974 25.9224 23.1028 24.3167C24.7082 22.7111 27.0192 21.7528 29.2888 21.7527V21.7527Z" fill="#67A716"/>
</svg>
