<svg width="80" height="80" viewBox="0 0 80 80" fill="none" xmlns="http://www.w3.org/2000/svg">
<circle cx="40" cy="40" r="40" fill="#72D582"/>
<path d="M39.8766 56.5C49.6266 56.5 55.4266 53.1 55.4266 46.6C55.4266 41.7 52.2266 39.2 47.3266 38.5V37.95C51.6766 37.4 53.9766 34.8 53.9766 30.95C53.9766 25.05 49.0266 22 40.0766 22C29.1766 22 23.9766 26.8 23.9766 33.85V34.1H31.9266V33.85C31.9266 30.45 33.4266 29.2 39.4266 29.2C45.1266 29.2 46.5266 30.2 46.5266 32.55C46.5266 34.65 45.2266 35.7 42.3266 35.7H33.3766V41.85H43.0266C46.1766 41.85 47.7766 42.9 47.7766 45.4C47.7766 48.3 45.8266 49.3 39.5266 49.3C32.8766 49.3 31.9266 48.05 31.9266 44.65V43.85H23.9766V44.65C23.9766 52.05 28.9266 56.5 39.8766 56.5Z" fill="white"/>
</svg>
