<svg width="80" height="80" viewBox="0 0 80 80" fill="none" xmlns="http://www.w3.org/2000/svg">
<circle cx="40" cy="40" r="40" fill="#72D582"/>
<path d="M54.3105 56V49.25H41.2106L32.4606 50.1C32.4606 47.45 34.0106 46.5 37.2606 45.5L44.5605 43.5C50.5105 41.85 54.4106 38.9 54.4106 32.95C54.4106 26.6 50.3106 22 40.2106 22C29.0606 22 24.6105 27.9 24.6105 34.4V35.05H31.9606V34.4C31.9606 30.7 33.8106 28.85 39.9606 28.85C45.4606 28.85 46.8605 30.3 46.8605 32.85C46.8605 35.05 45.7606 36.05 42.7606 37.1L34.1606 39.9C27.1106 42.25 24.5605 45.3 24.5605 51.2V56H54.3105Z" fill="white"/>
</svg>
