<svg width="626" height="321" viewBox="0 0 626 321" fill="none" xmlns="http://www.w3.org/2000/svg">
<path d="M102.714 112.438C102.714 114.699 93.9283 116.531 58.5939 116.531C23.2595 116.531 14.4736 114.699 14.4736 112.438C14.4736 110.177 34.2269 108.344 58.5939 108.344C82.9608 108.344 102.714 110.177 102.714 112.438Z" fill="#3E1200" fill-opacity="0.1"/>
<circle r="28.5174" transform="matrix(-1 0 0 1 80.1867 52.3313)" fill="url(#paint0_linear)"/>
<ellipse rx="15.652" ry="16.211" transform="matrix(-1 0 0 1 81.5589 29.8855)" fill="url(#paint1_linear)"/>
<circle r="28.1946" transform="matrix(-0.168092 0.985771 0.985771 0.168092 43.7162 57.5337)" fill="url(#paint2_linear)"/>
<circle r="17.8709" transform="matrix(-0.295174 0.955444 0.955444 0.295174 24.9969 61.5569)" fill="url(#paint3_linear)"/>
<circle r="14.3986" transform="matrix(-1 0 0 1 28.8729 37.2313)" fill="url(#paint4_linear)"/>
<circle r="22.2122" transform="matrix(-0.8057 0.592323 0.592323 0.8057 54.8366 23.1811)" fill="url(#paint5_linear)"/>
<path fill-rule="evenodd" clip-rule="evenodd" d="M50.3824 27.5183C48.6361 27.5551 44.9825 23.4981 44.9825 23.4981C44.9825 23.4981 42.6756 24.1235 43.8792 25.0616C45.0827 25.9996 54.6902 35.0008 58 40.6292C61.3098 46.2576 59.1081 53.8187 58 54.5C56.8919 55.1813 42.3558 46.553 41.417 45.5141C40.4782 44.4752 43.8792 37.6528 43.8792 37.6528C42.6671 37.7121 42.0679 37.8485 41.417 38.6268C41.0144 38.7024 39.5977 44.1478 38.8332 44.5C38.0686 44.8522 27.9188 37.6528 27.9188 37.6528C26.9724 38.3123 27.1531 40.7472 27.9188 41.5389C27.5392 41.3133 55.7226 57.0451 57.3532 58.5C58.9838 59.9549 58.1152 78.1264 56.2406 78C54.366 77.8736 39.046 69.1566 37.411 68.2297C35.7759 67.3027 37.1324 64.273 38.8326 62.2976C35.1256 61.7186 35.8574 64.6895 33.9175 66.8732C32.8626 68.0607 26.0135 64.998 25.4126 64.3167C23.9104 63.6354 23.1599 66.5534 24.9994 67.5C35.711 70.1107 55.1167 80.1418 55.7697 83C56.4226 85.8583 55.5331 92.6268 55.5331 98.2784C55.5331 103.93 55.7697 108.706 55.7697 113.416C56.5307 113.954 59.7151 113.762 62.3853 112.665C62.3853 103.162 61.5 99.0065 61.5 91C61.5 82.9936 60.8468 75.3427 62.3066 73.2607C63.7664 71.1787 86.7083 62.8342 94.4143 61.9294C95.7798 61.2441 95.3588 59.914 94.4143 59.1486C94.4143 59.6601 87.19 61.6911 85.7846 60.9627C84.3793 60.2342 85.9799 52.0419 86.7084 50.9562C87.4368 49.8704 84.9086 50.8179 84.0091 52.0419C84.0091 52.0419 82.0351 59.8049 81.0369 60.9627C80.0388 62.1204 63.0734 68.89 61.5 68.2297C59.9266 67.5694 62.4958 50.0098 63.0475 48.1337C63.5991 46.2576 87.009 31.6445 87.009 31.6445C88.2971 30.5816 88.0164 29.8952 86.7084 29.5C86.7084 29.5 80.0052 33.6352 78.5698 33.6541C77.1344 33.6729 72.0863 24.8694 71.6153 25.0616C70.567 25.6873 70.4179 26.0869 71.3391 26.9312C71.3391 26.9312 76.1302 34.1226 75.2747 35.5184C74.6643 36.5141 73.1543 37.2953 67.5 40.6292C62.5 44.5 61.7543 40.5318 58.5 36.5C55.4958 32.7781 52.8953 31.5803 52.8824 30.0183C52.8694 28.4563 56.8899 18.4497 56.082 18.3211C56.082 18.3211 54.3808 18.2358 53.8754 19.5718C53.37 20.9079 52.1286 27.4816 50.3824 27.5183Z" fill="#B8968B"/>
<path d="M518.5 69.5V85.0001C197.69 85.0001 599.762 114.969 602.333 199.875C603.963 253.737 420 290.895 376.5 297C333 303.105 318.5 320.5 304 318C289.5 315.5 314.5 297.5 290 297.5C265.5 297.5 259.677 299.205 228.5 301C180.564 303.76 242.379 272.323 202.5 273C161.532 273.695 162.5 327 138.5 301C114.5 275 206.5 257 154 237C101.5 217 0 327 0 287.5C0 248 45.6904 193.938 262.5 193.938C351.865 193.938 317.5 160.5 248.5 148.5C179.5 136.5 119.777 69.5 518.5 69.5Z" fill="url(#paint6_linear)"/>
<path d="M543.327 41.8587C544.511 43.4209 544.906 45.039 544.173 46.7686C543.496 48.4982 542.369 50.2279 542.651 52.0133C542.82 52.9618 543.327 53.7987 543.553 54.7472C543.947 56.5884 543.046 58.597 541.467 59.9919C539.945 61.3867 537.86 62.2237 535.774 62.7258C534.929 62.949 533.971 63.1164 533.463 63.7859C532.73 64.7344 533.52 65.9619 533.971 66.9662C535.323 69.9791 533.35 73.9963 529.799 75.3354C526.981 76.4513 523.261 76.2281 521.683 78.5714C520.161 80.8032 522.021 83.6488 521.288 86.1595C520.33 89.3398 515.933 90.5115 512.777 92.3527C508.436 94.9192 506.069 99.327 503.702 103.456C500.602 108.812 497.05 114.001 493.161 118.967C495.641 113.889 496.994 108.422 497.163 102.954C497.276 98.4901 496.599 94.1381 496.938 89.6746C497.05 87.9449 497.389 86.1595 498.347 84.5972C501.052 80.2453 508.211 78.5157 509.564 73.7731C510.071 71.9319 509.564 70.0907 509.338 68.2495C509.113 66.4082 509.338 64.2881 510.917 63.0048C512.495 61.6657 514.975 61.5541 516.61 60.2151C518.639 58.597 518.526 55.8631 519.428 53.6313C520.499 50.9532 523.317 48.833 526.474 48.3308C527.657 48.1634 528.954 48.1635 530.081 47.7171C531.659 47.1034 532.674 45.7643 533.801 44.5368C535.267 42.9746 537.071 41.5239 539.269 41.0775C541.411 40.5754 542.876 41.3007 543.327 41.8587Z" fill="url(#paint7_linear)"/>
<path d="M514.299 35.1074C514.412 36.7255 512.157 37.8971 512.157 39.5152C512.101 41.6912 513.904 43.4766 515.314 45.2062C516.666 46.9358 517.681 49.5582 516.103 51.232C515.201 52.1805 513.735 52.5153 513.003 53.5754C510.748 56.6999 517.286 60.6613 515.145 63.8416C514.186 65.348 511.763 65.627 510.917 67.1893C509.959 68.9747 511.706 70.9275 511.706 72.9361C511.706 75.0563 509.621 76.7301 507.591 77.6228C507.084 77.846 506.52 78.0692 506.239 78.5155C505.506 79.743 507.14 80.9147 507.93 82.0863C508.888 83.537 508.324 85.5456 507.197 86.9405C506.126 88.3353 504.548 89.3396 503.195 90.5671C498.235 95.0307 496.6 101.726 495.811 108.087C495.022 114.447 494.853 121.031 491.978 126.834C489.16 114.447 486.398 102.061 483.579 89.6744C482.846 86.4941 482.114 83.2022 482.565 79.9662C482.734 78.6829 483.072 77.4554 483.128 76.1721C483.297 72.3781 480.874 68.8631 480.648 65.069C480.254 58.5969 486.003 53.408 489.103 47.5496C491.922 42.2491 492.88 35.7211 497.671 31.8713C499.756 30.0859 513.454 24.3949 514.299 35.1074Z" fill="url(#paint8_linear)"/>
<path d="M492.879 125.327C495.754 121.087 498.741 116.735 503.081 114.001C507.421 111.267 513.453 110.486 517.567 113.555C518.918 114.594 520.719 120.188 522.419 118.913C524.119 117.638 527.095 117.213 530.07 117.638C533.046 118.063 536.078 123.663 536.021 126.564C535.12 123.998 533.046 121.924 530.07 121.924C527.095 121.924 524.843 123.212 522.419 124.439C519.319 125.946 517.06 121.701 514.129 119.971C512.156 118.855 510.101 119.134 507.96 119.971C506.832 120.417 505.618 121.143 504.716 121.924C501.447 124.881 496.43 122.482 492.879 125.327Z" fill="url(#paint9_linear)"/>
<path d="M492.372 125.941C495.416 117.906 501.334 112.383 507.704 106.58C509.169 105.241 510.691 103.958 512.551 103.344C514.411 102.675 516.61 102.786 518.188 103.958C518.864 104.46 519.428 105.185 520.217 105.52C521.908 106.134 523.486 104.683 524.952 103.679C527.601 101.838 531.152 101.28 534.196 102.284C537.296 103.288 539.833 105.743 540.904 108.756C539.156 107.529 537.183 106.19 535.042 106.524C533.012 106.803 531.547 108.533 530.081 109.984C528.616 111.434 526.587 112.773 524.614 112.215C523.655 111.936 522.866 111.211 521.908 110.988C519.484 110.486 517.512 113.22 515.031 113.276C513.397 113.331 511.931 112.215 510.297 112.104C508.493 111.992 506.915 113.052 505.505 114.168C501.109 117.628 497.107 120.64 493.048 126.666L492.372 125.941Z" fill="url(#paint10_linear)"/>
<path d="M492.26 126.889C497.784 125.048 500.884 119.58 503.251 114.503C505.619 109.426 508.155 103.846 513.397 101.28C515.765 100.108 518.414 99.7175 520.838 98.7689C524.22 97.4299 527.038 94.9191 528.673 91.8504C529.744 89.8418 530.42 87.5543 532.28 86.1594C534.591 84.4856 537.917 84.8203 540.453 83.4255C543.835 81.5285 544.681 77.3439 545.075 73.6614C544.399 75.1679 542.482 75.7258 540.791 76.0048C537.015 76.6743 533.182 77.0091 529.349 77.0091C525.009 77.0091 520.049 76.7859 516.892 79.6872C513.679 82.6443 513.736 87.6659 510.692 90.7903C508.493 93.0221 505.224 93.8032 502.406 95.2539C496.938 98.211 493.613 103.958 492.373 109.76C491.245 115.507 491.809 121.477 492.26 126.889Z" fill="url(#paint11_linear)"/>
<path d="M444.798 41.5239C449.026 42.9187 452.352 46.5454 453.197 50.73C453.479 52.069 453.535 53.4639 454.212 54.6356C455.846 57.4811 459.961 57.7043 463.23 58.7644C467.965 60.3824 471.516 64.6786 471.911 69.4769C472.08 71.7645 471.685 74.2194 472.7 76.2838C474.278 79.2967 478.28 80.1895 481.268 81.9749C485.777 84.5972 488.313 89.5071 489.328 94.4728C490.343 99.4385 490.004 104.572 490.117 109.593C490.23 115.284 490.906 121.031 492.09 126.61C487.13 115.563 479.069 105.855 468.867 98.7132C465.09 96.0909 460.75 93.4127 459.566 89.1166C458.552 85.4341 460.017 81.0822 457.988 77.8461C454.944 73.0477 446.377 73.8289 443.389 68.9747C440.684 64.6228 443.784 57.6485 439.387 54.803C438.316 54.1334 437.02 53.8544 435.836 53.4081C433.807 52.627 432.06 51.1763 430.989 49.3351C430.256 48.1076 429.354 46.378 430.256 45.2621C434.765 39.571 440.571 40.129 444.798 41.5239Z" fill="url(#paint12_linear)"/>
<path d="M444.347 65.1249C447.109 66.2408 450.209 66.4082 452.915 67.6356C455.564 68.8073 457.424 70.8159 458.833 73.1593C460.243 75.4469 461.201 77.9018 462.554 80.1894C463.85 82.4212 465.541 84.5972 468.021 85.7689C469.43 86.4384 471.009 86.8289 472.587 87.1079C473.376 87.2195 474.165 87.3311 475.011 87.4427C475.8 87.5543 476.533 87.7216 477.265 87.9448C479.971 88.7259 482.62 89.9534 484.649 91.7947C485.72 92.799 486.509 93.8591 487.073 95.1423C487.75 96.6488 488.2 98.2668 488.595 99.8291C489.328 102.954 489.779 106.078 490.23 109.258C490.23 109.37 490.23 109.537 490.23 109.649C490.286 112.662 490.512 115.619 490.85 118.632C490.85 119.078 490.906 120.306 491.075 120.361C491.357 122.482 491.752 124.602 492.202 126.666C487.242 115.619 479.182 105.911 468.979 98.769C465.203 96.1466 460.863 93.4685 459.679 89.1723C458.664 85.4899 460.13 81.1379 458.101 77.9018C455.057 73.1035 446.489 73.8846 443.502 69.0305C442.6 67.5799 442.318 65.7944 442.262 64.009C442.825 64.3996 443.558 64.7901 444.347 65.1249Z" fill="url(#paint13_linear)"/>
<path d="M491.978 125.997C489.216 119.078 486.341 112.104 481.888 106.022C477.435 99.9406 471.122 94.8075 463.456 93.1337C460.751 92.52 457.876 92.3526 455.396 91.1251C452.183 89.5628 450.21 86.4941 448.068 83.7602C445.926 81.0263 443.108 78.3482 439.444 78.0692C435.724 77.846 432.116 80.2452 428.396 79.743C425.465 79.2967 423.267 77.1207 420.561 75.949C416.334 74.1077 411.317 75.0005 406.977 76.6743C401.848 78.6271 396.549 82.7559 397.338 87.889C397.958 92.1294 402.693 94.8075 407.259 95.1981C411.768 95.6444 416.334 94.417 420.843 94.138C425.409 93.8032 430.482 94.6401 433.244 97.9878C434.935 100.108 435.247 101.861 436.964 105.074C438.681 108.286 444.183 110.502 450.157 110.837C456.132 111.172 464.865 111.602 470.277 114.001C472.531 115.005 474.617 116.512 475.631 118.632C476.195 119.748 476.421 121.031 477.097 122.035C478.506 124.1 481.381 124.713 483.917 125.104C486.848 125.55 489.779 126.052 491.978 125.997Z" fill="url(#paint14_linear)"/>
<path d="M405.061 85.6572C417.348 84.4297 425.071 82.5327 435.949 89.3396C441.191 92.6315 443.559 96.9835 449.196 99.6058C458.44 103.846 481.155 102.675 491.47 125.606C486.792 116.344 475.237 107.919 464.64 105.408C442.319 100.164 445.024 98.7689 441.079 94.9749C432.06 86.3267 417.518 86.0478 405.061 85.6572Z" fill="url(#paint15_linear)"/>
<path d="M492.034 126.778C488.596 125.55 485.946 123.04 483.466 120.529C478.88 115.886 473.111 112.537 467.16 114.928C461.209 117.319 459.799 115.776 454.833 114.928C450.38 114.147 445.468 114.067 442.931 117.638C439.437 122.548 435.28 124.864 432.305 132.09C448.032 118.913 467.154 122.267 484.312 126.22C486.905 127.113 489.779 127.224 492.034 126.778Z" fill="url(#paint16_linear)"/>
<path d="M497.669 122.739C500.938 121.958 503.362 120.284 506.181 123.185C508.041 125.138 508.097 128.151 509.901 130.159C511.817 132.335 515.199 132.726 517.679 134.288C520.498 136.018 522.132 139.254 521.794 142.378C521.399 140.258 519.709 138.473 517.679 137.413C515.65 136.408 513.283 136.074 510.972 136.074C509.393 136.074 505.975 136.632 504.566 136.074C495.66 132.67 500.375 125.863 492.145 128.765C491.131 125.919 492.371 125.194 493.667 123.91C494.964 122.739 496.655 123.018 497.669 122.739Z" fill="url(#paint17_linear)"/>
<path d="M490.567 123.263C488.313 123.597 486.34 122.984 485.438 125.997C484.874 128.005 485.72 130.404 485.213 132.413C484.649 134.645 482.676 135.872 481.605 137.825C480.365 139.945 480.309 142.902 481.436 145.246C481.042 143.46 481.549 141.619 482.507 140.28C483.465 138.941 484.818 137.992 486.227 137.379C487.185 136.932 488.313 136.709 489.046 135.872C493.555 130.739 489.778 126.499 495.697 126.387C495.471 123.876 494.513 123.709 493.386 123.095C492.258 122.482 491.3 123.207 490.567 123.263Z" fill="url(#paint18_linear)"/>
<path fill-rule="evenodd" clip-rule="evenodd" d="M374.439 159.643C373.232 158.296 372.569 156.999 372.569 156.999C372.569 156.999 381.349 151.848 377.818 150.94C376.345 150.732 373.978 151.527 374.422 152.027C375.439 152.351 373.172 153.648 370.956 154.916C369.487 155.757 368.04 156.584 367.585 157.108C367.096 157.67 366.657 158.092 366.251 158.439C355.94 157.038 342.822 155.705 331.723 156.121L331.724 156.124C331.56 156.117 331.395 156.117 331.23 156.124C328.08 156.257 325.814 158.821 326.168 161.849C326.521 164.878 329.36 167.225 332.51 167.092C332.626 167.087 332.741 167.079 332.855 167.067L332.859 167.106C341.858 166.77 353.781 167.978 364.038 169.427C369.043 170.135 373.431 170.867 376.564 171.421C378.128 171.698 379.372 171.93 380.215 172.09L380.278 172.102L387.262 174.985L313.373 172.21C305.654 168.125 297.209 163.3 297.209 163.3C297.209 163.3 292.873 160.562 293.779 157.108C292.936 156.822 289.067 156.975 288.81 157.708C288.467 160.707 289.954 164.588 289.954 164.588C289.954 164.588 293.559 165.98 296.737 167.514C276.761 169.97 238.518 166.695 223.716 178.721C220.747 180.502 224.779 184.065 225.497 184.659C228.062 186.779 233.156 184.946 236.185 183.25C270.766 168.449 307.14 177.308 313.966 183.25L380.747 185.78L380.279 187.616L370.958 191.355C370.995 192.704 371.768 193.065 374.065 193.225L386.494 189.486C386.494 189.486 388.851 187.736 391.154 186.149L391.459 186.159L392.881 186.21L394.261 185.997L394.263 185.997L394.267 185.997L394.275 185.995L394.303 185.991L394.395 185.977C394.473 185.964 394.585 185.947 394.727 185.924C395.011 185.879 395.421 185.813 395.941 185.728C396.981 185.557 398.465 185.308 400.281 184.986C402.436 184.604 405.07 184.119 407.992 183.541L418.682 199.347C413.41 201.198 408.323 203.373 404.07 205.898C403.852 205.98 403.649 206.076 403.463 206.186C401.208 207.515 402.253 210.359 405.798 212.537C409.343 214.715 414.045 215.403 416.3 214.074C416.346 214.047 416.391 214.019 416.434 213.991L416.462 214.008C421.272 211.043 428.334 208.482 435.755 206.394L452.51 213.31L453.698 213.8C455.091 214.049 454.806 214 455.56 214.131C455.854 214.183 456.279 214.256 456.82 214.347C457.903 214.529 459.455 214.784 461.367 215.081C463.532 215.418 466.171 215.811 469.125 216.215L467.538 218.29L459.685 219.798C458.826 220.29 459.398 221.666 461.253 221.5L471.304 220.371C471.304 220.371 476.896 218.017 478.916 217.435C489.851 218.654 503.731 219.689 513.927 218.402C518.87 217.778 522.037 214.86 521 211.886C519.963 208.911 515.115 207.005 510.171 207.629C503.242 208.504 491.354 207.698 479.907 206.342C474.453 205.697 469.518 204.98 465.944 204.424C464.161 204.147 462.727 203.911 461.747 203.746L461.63 203.727L456.706 201.694C456.859 201.667 457.009 201.641 457.157 201.615L457.452 201.564C459.83 201.152 457.753 194.597 461 193L549.448 189.969L550.268 192.217L547 194.5C546.561 195.056 549.322 195.663 549.858 195.188L554.841 192.217L556.995 189.855C559.404 188.268 569.5 180.5 569.5 180.5C569.5 180.5 582.019 174.009 586 171.5C591 166.5 594.5 163 598.5 160.862C591.222 155.133 574.055 167.895 565.122 169.961L469.144 179.747L467.337 178.657L469.522 174.128C468.991 173.471 468.51 173.324 467.337 173.44L463.806 177.911L463.273 179.835L462.657 179.845C462.308 179.893 461.959 179.94 461.611 179.989C461.552 179.998 461.475 180.009 461.383 180.022L461.267 180.039C460.975 180.081 460.561 180.143 460.036 180.223C458.986 180.385 457.493 180.623 455.66 180.941C452.003 181.574 446.95 182.528 441.345 183.816L441.119 183.868L428.651 178.721C435.273 176.862 441.727 174.631 446.293 172.072C449.99 170 450.195 166.518 446.753 164.293C443.31 162.069 437.523 161.945 433.827 164.017C431.807 165.149 428.861 166.299 425.359 167.419L420.893 166.758L414.734 161.185C413.565 161.423 413.091 161.672 412.753 162.447L416.394 168.028C416.394 168.028 416.214 168.995 415.91 170.066C414.204 170.492 412.456 170.907 410.689 171.307L389.526 162.572L388.467 162.134C385.355 161.509 388.055 162.05 387.125 161.865C387.054 161.851 386.954 161.831 386.825 161.806C386.567 161.756 386.197 161.684 385.723 161.594C384.777 161.414 383.417 161.161 381.727 160.862C379.725 160.507 377.25 160.086 374.439 159.643Z" fill="#24221B" fill-opacity="0.15"/>
<path d="M231 174.5C231 184.717 208 193 115.5 193C23 193 0 184.717 0 174.5C0 164.283 51.7111 156 115.5 156C179.289 156 231 164.283 231 174.5Z" fill="#3E1200" fill-opacity="0.1"/>
<path d="M360.891 132.063L346.734 129.079C347.878 127.317 348.97 126.669 350.581 123.59C351.768 121.321 357.683 114.819 357.683 114.819C359.729 114.322 360.287 114.756 360.891 116L355.758 123.402C355.758 123.402 357.655 129.574 360.891 132.063Z" fill="#D0B791"/>
<path d="M364.669 170.372L379.111 169.529C377.212 170.859 370.222 179.479 370.222 179.479L357.312 185.934C354.926 185.657 354 184 355 182L363.767 176.251L364.669 170.372Z" fill="#9E8368"/>
<path d="M459.627 207.884L470.014 210.215C468.401 210.771 463.539 213.806 463.539 213.806L455.959 217.792C454.032 218.078 453.439 215.703 454.33 214.854L459.627 210.215L459.627 207.884Z" fill="#A88661"/>
<path d="M292.348 151.071L282.663 156.699C283.643 154.408 273.314 148.162 273.314 148.162C273.314 148.162 272.33 142.742 272.848 138.488C272.947 136.371 276.957 136.245 277.151 137.417L278.429 144.393C278.429 144.393 285.475 147.818 292.348 151.071Z" fill="#D0B791"/>
<path d="M412.315 141.811L400.373 148.025C400.929 145.59 401.281 142.44 401.281 142.44L397.499 132.806C397.85 131.468 398.342 131.038 399.557 130.628L405.955 140.247L412.315 141.811Z" fill="#CCB48E"/>
<path d="M286.875 159.018L287.432 149.534L286.45 149.476L285.476 149.621L286.875 159.018ZM432.338 149.42C436.177 145.844 436.391 139.833 432.815 135.993C429.239 132.154 423.228 131.94 419.389 135.516L432.338 149.42ZM375.937 164.254L375.379 173.737L376.856 173.824L378.29 173.458L375.937 164.254ZM286.875 159.018C285.476 149.621 285.475 149.622 285.473 149.622C285.472 149.622 285.47 149.622 285.469 149.622C285.466 149.623 285.462 149.623 285.458 149.624C285.45 149.625 285.439 149.627 285.426 149.629C285.4 149.633 285.364 149.638 285.319 149.645C285.23 149.659 285.103 149.679 284.94 149.704C284.616 149.756 284.15 149.831 283.557 149.931C282.372 150.132 280.675 150.431 278.581 150.837C274.4 151.647 268.598 152.885 262.093 154.604C249.368 157.967 232.863 163.444 220.807 171.785L231.616 187.41C240.834 181.033 254.661 176.221 266.948 172.973C272.95 171.387 278.325 170.24 282.194 169.49C284.125 169.116 285.672 168.843 286.723 168.666C287.249 168.577 287.65 168.512 287.913 168.47C288.045 168.449 288.142 168.434 288.202 168.425C288.233 168.42 288.254 168.417 288.266 168.415C288.272 168.415 288.275 168.414 288.276 168.414C288.277 168.414 288.277 168.414 288.276 168.414C288.276 168.414 288.275 168.414 288.275 168.414C288.274 168.414 288.273 168.414 286.875 159.018ZM419.389 135.516C414.306 140.25 403.582 145.161 392.675 149.086C387.491 150.952 382.688 152.452 379.177 153.485C377.426 154.001 376.007 154.397 375.034 154.663C374.548 154.795 374.175 154.895 373.928 154.96C373.805 154.992 373.713 155.016 373.656 155.031C373.627 155.039 373.606 155.044 373.594 155.047C373.588 155.049 373.584 155.05 373.583 155.05C373.582 155.05 373.582 155.05 373.582 155.05C373.582 155.05 373.583 155.05 373.583 155.05C373.583 155.05 373.584 155.05 375.937 164.254C378.29 173.458 378.291 173.457 378.292 173.457C378.293 173.457 378.294 173.457 378.296 173.456C378.298 173.456 378.301 173.455 378.305 173.454C378.312 173.452 378.321 173.45 378.333 173.447C378.356 173.441 378.389 173.432 378.429 173.422C378.51 173.401 378.626 173.371 378.774 173.332C379.069 173.254 379.495 173.14 380.035 172.993C381.115 172.698 382.657 172.267 384.543 171.712C388.307 170.604 393.482 168.989 399.11 166.963C409.828 163.106 424.067 157.124 432.338 149.42L419.389 135.516ZM376.495 154.77L287.432 149.534L286.317 168.501L375.379 173.737L376.495 154.77Z" fill="url(#paint19_linear)"/>
<path d="M286.875 159.018L287.432 149.534L286.45 149.476L285.476 149.621L286.875 159.018ZM432.338 149.42C436.177 145.844 436.391 139.833 432.815 135.993C429.239 132.154 423.228 131.94 419.389 135.516L432.338 149.42ZM375.937 164.254L375.379 173.737L376.856 173.824L378.29 173.458L375.937 164.254ZM286.875 159.018C285.476 149.621 285.475 149.622 285.473 149.622C285.472 149.622 285.47 149.622 285.469 149.622C285.466 149.623 285.462 149.623 285.458 149.624C285.45 149.625 285.439 149.627 285.426 149.629C285.4 149.633 285.364 149.638 285.319 149.645C285.23 149.659 285.103 149.679 284.94 149.704C284.616 149.756 284.15 149.831 283.557 149.931C282.372 150.132 280.675 150.431 278.581 150.837C274.4 151.647 268.598 152.885 262.093 154.604C249.368 157.967 232.863 163.444 220.807 171.785L231.616 187.41C240.834 181.033 254.661 176.221 266.948 172.973C272.95 171.387 278.325 170.24 282.194 169.49C284.125 169.116 285.672 168.843 286.723 168.666C287.249 168.577 287.65 168.512 287.913 168.47C288.045 168.449 288.142 168.434 288.202 168.425C288.233 168.42 288.254 168.417 288.266 168.415C288.272 168.415 288.275 168.414 288.276 168.414C288.277 168.414 288.277 168.414 288.276 168.414C288.276 168.414 288.275 168.414 288.275 168.414C288.274 168.414 288.273 168.414 286.875 159.018ZM419.389 135.516C414.306 140.25 403.582 145.161 392.675 149.086C387.491 150.952 382.688 152.452 379.177 153.485C377.426 154.001 376.007 154.397 375.034 154.663C374.548 154.795 374.175 154.895 373.928 154.96C373.805 154.992 373.713 155.016 373.656 155.031C373.627 155.039 373.606 155.044 373.594 155.047C373.588 155.049 373.584 155.05 373.583 155.05C373.582 155.05 373.582 155.05 373.582 155.05C373.582 155.05 373.583 155.05 373.583 155.05C373.583 155.05 373.584 155.05 375.937 164.254C378.29 173.458 378.291 173.457 378.292 173.457C378.293 173.457 378.294 173.457 378.296 173.456C378.298 173.456 378.301 173.455 378.305 173.454C378.312 173.452 378.321 173.45 378.333 173.447C378.356 173.441 378.389 173.432 378.429 173.422C378.51 173.401 378.626 173.371 378.774 173.332C379.069 173.254 379.495 173.14 380.035 172.993C381.115 172.698 382.657 172.267 384.543 171.712C388.307 170.604 393.482 168.989 399.11 166.963C409.828 163.106 424.067 157.124 432.338 149.42L419.389 135.516ZM376.495 154.77L287.432 149.534L286.317 168.501L375.379 173.737L376.495 154.77Z" fill="url(#paint20_linear)"/>
<path d="M367.998 140.855L373.371 133.021L372.271 132.266L371.005 131.844L367.998 140.855ZM505.983 212.053C511.118 210.976 514.407 205.94 513.33 200.805C512.253 195.67 507.217 192.381 502.082 193.458L505.983 212.053ZM447.56 195.429L442.186 203.264L443.421 204.111L444.857 204.537L447.56 195.429ZM367.998 140.855C371.005 131.844 371.004 131.843 371.003 131.843C371.002 131.843 371.001 131.842 371 131.842C370.997 131.841 370.994 131.84 370.991 131.839C370.984 131.837 370.976 131.834 370.965 131.83C370.943 131.823 370.914 131.813 370.877 131.801C370.804 131.777 370.699 131.743 370.566 131.699C370.298 131.612 369.913 131.488 369.422 131.333C368.438 131.023 367.026 130.586 365.27 130.07C361.763 129.038 356.856 127.677 351.239 126.358C340.259 123.78 325.605 121.122 313.329 121.886L314.509 140.849C323.857 140.267 336.242 142.353 346.895 144.855C352.095 146.076 356.653 147.34 359.907 148.297C361.532 148.775 362.824 149.174 363.7 149.451C364.138 149.589 364.471 149.697 364.69 149.768C364.799 149.804 364.88 149.83 364.93 149.847C364.955 149.855 364.973 149.861 364.983 149.864C364.988 149.866 364.991 149.867 364.992 149.867C364.993 149.867 364.993 149.867 364.993 149.867C364.992 149.867 364.992 149.867 364.992 149.867C364.991 149.867 364.99 149.866 367.998 140.855ZM502.082 193.458C494.884 194.968 482.535 193.577 470.645 191.237C464.979 190.122 459.854 188.885 456.141 187.926C454.289 187.447 452.799 187.04 451.781 186.756C451.272 186.613 450.882 186.502 450.624 186.427C450.496 186.39 450.4 186.362 450.339 186.345C450.309 186.336 450.287 186.329 450.275 186.326C450.268 186.324 450.264 186.322 450.262 186.322C450.261 186.322 450.261 186.322 450.261 186.322C450.261 186.322 450.262 186.322 450.262 186.322C450.263 186.322 450.264 186.322 447.56 195.429C444.857 204.537 444.858 204.537 444.859 204.537C444.86 204.538 444.861 204.538 444.862 204.538C444.865 204.539 444.868 204.54 444.872 204.541C444.879 204.543 444.889 204.546 444.901 204.55C444.924 204.557 444.957 204.566 444.999 204.579C445.083 204.603 445.202 204.638 445.355 204.682C445.661 204.77 446.102 204.896 446.664 205.054C447.788 205.368 449.4 205.808 451.387 206.322C455.353 207.346 460.853 208.674 466.977 209.879C478.666 212.18 494.553 214.451 505.983 212.053L502.082 193.458ZM452.934 187.595L373.371 133.021L362.624 148.689L442.186 203.264L452.934 187.595Z" fill="url(#paint21_linear)"/>
<path d="M367.998 140.855L373.371 133.021L372.271 132.266L371.005 131.844L367.998 140.855ZM505.983 212.053C511.118 210.976 514.407 205.94 513.33 200.805C512.253 195.67 507.217 192.381 502.082 193.458L505.983 212.053ZM447.56 195.429L442.186 203.264L443.421 204.111L444.857 204.537L447.56 195.429ZM367.998 140.855C371.005 131.844 371.004 131.843 371.003 131.843C371.002 131.843 371.001 131.842 371 131.842C370.997 131.841 370.994 131.84 370.991 131.839C370.984 131.837 370.976 131.834 370.965 131.83C370.943 131.823 370.914 131.813 370.877 131.801C370.804 131.777 370.699 131.743 370.566 131.699C370.298 131.612 369.913 131.488 369.422 131.333C368.438 131.023 367.026 130.586 365.27 130.07C361.763 129.038 356.856 127.677 351.239 126.358C340.259 123.78 325.605 121.122 313.329 121.886L314.509 140.849C323.857 140.267 336.242 142.353 346.895 144.855C352.095 146.076 356.653 147.34 359.907 148.297C361.532 148.775 362.824 149.174 363.7 149.451C364.138 149.589 364.471 149.697 364.69 149.768C364.799 149.804 364.88 149.83 364.93 149.847C364.955 149.855 364.973 149.861 364.983 149.864C364.988 149.866 364.991 149.867 364.992 149.867C364.993 149.867 364.993 149.867 364.993 149.867C364.992 149.867 364.992 149.867 364.992 149.867C364.991 149.867 364.99 149.866 367.998 140.855ZM502.082 193.458C494.884 194.968 482.535 193.577 470.645 191.237C464.979 190.122 459.854 188.885 456.141 187.926C454.289 187.447 452.799 187.04 451.781 186.756C451.272 186.613 450.882 186.502 450.624 186.427C450.496 186.39 450.4 186.362 450.339 186.345C450.309 186.336 450.287 186.329 450.275 186.326C450.268 186.324 450.264 186.322 450.262 186.322C450.261 186.322 450.261 186.322 450.261 186.322C450.261 186.322 450.262 186.322 450.262 186.322C450.263 186.322 450.264 186.322 447.56 195.429C444.857 204.537 444.858 204.537 444.859 204.537C444.86 204.538 444.861 204.538 444.862 204.538C444.865 204.539 444.868 204.54 444.872 204.541C444.879 204.543 444.889 204.546 444.901 204.55C444.924 204.557 444.957 204.566 444.999 204.579C445.083 204.603 445.202 204.638 445.355 204.682C445.661 204.77 446.102 204.896 446.664 205.054C447.788 205.368 449.4 205.808 451.387 206.322C455.353 207.346 460.853 208.674 466.977 209.879C478.666 212.18 494.553 214.451 505.983 212.053L502.082 193.458ZM452.934 187.595L373.371 133.021L362.624 148.689L442.186 203.264L452.934 187.595Z" fill="url(#paint22_linear)" fill-opacity="0.2"/>
<path d="M265.5 268C271.674 268.064 274.327 262.869 280.5 263C286.304 263.123 288.695 268.068 294.5 268C300.122 267.934 302.385 263.291 308 263C314.538 262.661 317.462 268.339 324 268C329.615 267.709 332.228 264.953 337.5 263" stroke="white" stroke-width="2"/>
<path d="M299 102.002C303.717 98.3105 307.51 97.0024 313.5 97.0024C319.49 97.0024 322.011 101.941 328 102.002C334.174 102.066 336.826 96.9388 343 97.0024C348.989 97.0642 351.511 101.941 357.5 102.002C363.674 102.066 366.327 96.8711 372.5 97.0024C378.304 97.1259 380.695 102.07 386.5 102.002" stroke="white" stroke-width="2"/>
<path d="M143.5 217.5C148 213.5 151.51 211.015 157.5 211.015C163.49 211.015 166.011 215.953 172 216.015C178.174 216.078 180.826 210.951 187 211.015C192.989 211.076 195.511 215.953 201.5 216.015C207.674 216.078 210.327 210.883 216.5 211.015C222.304 211.138 224.695 216.082 230.5 216.015C236.122 215.949 238.385 211.306 244 211.015C250.538 210.676 253.462 216.354 260 216.015C265.615 215.723 268.228 212.967 273.5 211.015" stroke="white" stroke-width="2"/>
<path d="M235 249.015C239.717 245.323 243.51 244.015 249.5 244.015C255.49 244.015 258.011 248.953 264 249.015C270.174 249.078 272.826 243.951 279 244.015C284.989 244.076 287.511 248.953 293.5 249.015C299.674 249.078 302.327 243.883 308.5 244.015C314.304 244.138 316.695 249.082 322.5 249.015C328.122 248.949 330.385 244.306 336 244.015C342.538 243.676 345.462 249.354 352 249.015C357.615 248.723 360.228 245.967 365.5 244.015" stroke="white" stroke-width="2"/>
<path d="M408 242.002C412.717 238.311 416.51 237.002 422.5 237.002C428.49 237.002 431.011 241.941 437 242.002C443.174 242.066 445.826 236.939 452 237.002C457.989 237.064 460.511 241.941 466.5 242.002C472.674 242.066 475.327 236.871 481.5 237.002C487.304 237.126 489.695 242.07 495.5 242.002C501.122 241.937 503.385 237.294 509 237.002" stroke="white" stroke-width="2"/>
<path d="M326 89.0006C330.717 85.3087 334.51 84.0006 340.5 84.0006C346.49 84.0006 349.011 88.9388 355 89.0006C361.174 89.0642 363.826 83.9369 370 84.0006C375.989 84.0623 378.511 88.9388 384.5 89.0006" stroke="white" stroke-width="2"/>
<ellipse cx="313.481" cy="131.358" rx="5.9375" ry="9.48927" transform="rotate(-4.01737 313.481 131.358)" fill="#E8DBAE"/>
<ellipse cx="313.481" cy="131.358" rx="4.51922" ry="7.22258" transform="rotate(-4.01737 313.481 131.358)" stroke="#C5BA97" stroke-width="1.1875"/>
<ellipse cx="313.481" cy="131.358" rx="2.53551" ry="4.05223" transform="rotate(-4.01737 313.481 131.358)" stroke="#C5BA97" stroke-width="1.1875"/>
<ellipse cx="226.406" cy="179.488" rx="5.9375" ry="9.52877" transform="rotate(-36.0533 226.406 179.488)" fill="#E8DBAE"/>
<rect x="282.846" y="92.3381" width="9.6066" height="79.1648" transform="rotate(48.5832 282.846 92.3381)" fill="#C99A6F"/>
<rect x="282.846" y="92.3381" width="9.6066" height="79.1648" transform="rotate(48.5832 282.846 92.3381)" fill="url(#paint23_linear)"/>
<path d="M278.15 86.9718L297.527 108.938L289.392 116.114L270.015 94.1484L266.092 83.1423L267.719 81.707L278.15 86.9718Z" fill="#4A4537"/>
<path d="M258.662 77.0458C258.662 78.2648 257.063 79.2543 255.076 79.2543C253.097 79.2543 251.491 78.2648 251.491 77.0458V64.9635C251.491 63.7445 253.097 62.755 255.076 62.755C257.063 62.755 258.662 63.7445 258.662 64.9635V77.0458Z" fill="#B4927C"/>
<path d="M241.272 33.0834C239.523 23.9554 230.732 17 220.112 17C209.17 17 200.369 24.0412 199.014 33.5852C198.216 34.0925 197.173 34.9 197.173 35.9848C197.173 37.0697 197.061 39.5906 197.173 40.5294C197.398 42.426 198.275 41.9515 199.87 42.907C202.838 50.4217 210.762 55.8139 220.112 55.8139C229.319 55.8139 237.156 50.5723 240.19 43.2297H251.975C251.433 39.2394 249.806 37.6121 241.272 33.0834Z" fill="url(#paint24_linear)"/>
<path d="M145.688 164.461C74.6307 164.461 62.7976 133 26.8981 133C-9.00143 133 -8.9306 180.733 26.8981 180.733L145.688 180.733C155.035 180.733 154.212 164.461 145.688 164.461Z" fill="url(#paint25_linear)"/>
<path d="M259.823 55.2331C259.823 55.2331 206.828 6.18056 151.134 70.4999C151.134 70.4999 76.1344 94 107.943 168.373C107.943 168.373 153.504 194.121 187.134 167C187.134 167 225.311 142.297 230.015 77.978C230.03 77.978 257.091 85.3564 259.823 55.2331Z" fill="url(#paint26_linear)"/>
<path d="M243.754 51.3396C243.754 52.1905 243.502 53.0223 243.029 53.7298C242.556 54.4373 241.884 54.9887 241.098 55.3144C240.312 55.64 239.447 55.7252 238.612 55.5592C237.778 55.3932 237.011 54.9834 236.41 54.3818C235.808 53.7801 235.398 53.0135 235.232 52.1789C235.066 51.3443 235.151 50.4793 235.477 49.6931C235.803 48.907 236.354 48.2351 237.061 47.7623C237.769 47.2896 238.601 47.0373 239.452 47.0373C240.593 47.0373 241.687 47.4905 242.494 48.2974C243.301 49.1042 243.754 50.1985 243.754 51.3396Z" fill="#361300"/>
<path d="M226.888 44.6423C226.888 46.2017 226.268 47.6973 225.166 48.8C224.063 49.9026 222.567 50.5221 221.008 50.5221C219.448 50.5221 217.952 49.9029 216.848 48.8004C215.744 47.6979 215.123 46.2024 215.121 44.6423V37.5794C215.123 36.0193 215.744 34.5238 216.848 33.4213C217.952 32.3188 219.448 31.6996 221.008 31.6996C222.567 31.6996 224.063 32.319 225.166 33.4217C226.268 34.5244 226.888 36.0199 226.888 37.5794V44.6423Z" fill="#875E4F"/>
<path d="M221.599 122.773L192.979 97.8044C190.488 95.7601 188.908 92.8127 188.584 89.6066C188.26 86.4005 189.219 83.1967 191.251 80.6956C193.295 78.2047 196.243 76.6245 199.449 76.3007C202.655 75.9769 205.859 76.9357 208.36 78.9675C208.36 78.9675 227.024 88.0576 228.109 95.1091C229.193 102.161 231.097 113.717 238.415 121.145C242.754 125.55 247.739 125.867 250.348 128.739C254.954 133.81 252.518 140.673 248.721 141.215C242.212 139.045 223.769 130.909 221.599 122.773Z" fill="#AC735F"/>
<path d="M137.01 172.86C137.01 170.78 137.836 168.785 139.307 167.314C140.779 165.842 142.774 165.016 144.854 165.016C144.854 165.016 131.155 165.016 163.158 165.016C195.161 165.016 193.995 160.121 207.596 160.121C221.198 160.121 224.452 180.705 207.596 180.705H144.854C142.774 180.705 140.779 179.878 139.307 178.407C137.836 176.936 137.01 174.941 137.01 172.86Z" fill="#7E5B50"/>
<path d="M259.93 57.6353C259.928 58.0638 259.757 58.4742 259.453 58.7765C259.149 59.0789 258.738 59.2486 258.31 59.2486C257.882 59.2486 257.471 59.0786 257.169 58.7761C256.866 58.4735 256.696 58.0632 256.696 57.6353V54.6882C256.696 54.2603 256.866 53.8499 257.169 53.5474C257.471 53.2448 257.882 53.0748 258.31 53.0748C258.738 53.0748 259.149 53.2446 259.453 53.5469C259.757 53.8493 259.928 54.2596 259.93 54.6882V57.6353Z" fill="#361300"/>
<path d="M226.838 45.3163C226.821 46.0732 226.506 46.7928 225.961 47.318C225.415 47.8432 224.684 48.1315 223.927 48.1199C223.169 48.1334 222.436 47.846 221.889 47.3206C221.342 46.7952 221.026 46.0745 221.009 45.3163V37.2925C221.026 36.5343 221.342 35.8136 221.889 35.2882C222.436 34.7628 223.169 34.4754 223.927 34.4888C224.684 34.4773 225.415 34.7655 225.961 35.2908C226.506 35.816 226.821 36.5355 226.838 37.2925V45.3163Z" fill="#B4927C"/>
<path d="M239.831 50.264C239.832 50.4284 239.8 50.5914 239.738 50.7436C239.676 50.8958 239.584 51.0342 239.468 51.1508C239.352 51.2674 239.214 51.36 239.062 51.4231C238.911 51.4863 238.748 51.5188 238.583 51.5188C238.418 51.5197 238.254 51.488 238.101 51.4253C237.948 51.3627 237.809 51.2704 237.691 51.1538C237.574 51.0372 237.481 50.8985 237.417 50.7458C237.354 50.5931 237.321 50.4293 237.321 50.264C237.321 50.0986 237.354 49.9348 237.417 49.7821C237.481 49.6294 237.574 49.4907 237.691 49.3741C237.809 49.2575 237.948 49.1652 238.101 49.1026C238.254 49.0399 238.418 49.0082 238.583 49.0091C238.748 49.0091 238.911 49.0416 239.062 49.1048C239.214 49.1679 239.352 49.2605 239.468 49.3771C239.584 49.4937 239.676 49.6321 239.738 49.7843C239.8 49.9365 239.832 50.0995 239.831 50.264Z" fill="white"/>
<path d="M220.635 122C218.135 119 211.135 111.5 228.361 97.8213C229.395 97.0427 229.533 92.6058 228.903 91.3122C228.903 91.3122 179 55.0001 156 61C156 61 73.7526 75.1103 91.6789 151.835C95.6547 171.312 120.135 181.709 140.135 181.709C160.135 181.709 172.894 177.691 182.135 168.5C203.956 146.795 203.135 132.5 220.635 122Z" fill="url(#paint27_linear)"/>
<path d="M229.473 177.438C230.641 178.938 231.3 180.571 231.445 181.977C231.59 183.393 231.214 184.485 230.449 185.08C229.684 185.676 228.534 185.774 227.196 185.285C225.868 184.8 224.447 183.762 223.279 182.262C222.111 180.762 221.452 179.13 221.308 177.723C221.162 176.307 221.538 175.216 222.304 174.62C223.069 174.024 224.219 173.927 225.556 174.415C226.884 174.9 228.306 175.939 229.473 177.438Z" stroke="#C5BA97" stroke-width="1.1875"/>
<path d="M227.908 178.657C228.538 179.466 228.885 180.337 228.96 181.07C229.037 181.813 228.834 182.32 228.501 182.579C228.168 182.838 227.627 182.911 226.925 182.655C226.233 182.402 225.474 181.852 224.844 181.043C224.214 180.234 223.867 179.363 223.792 178.63C223.715 177.887 223.918 177.381 224.251 177.121C224.584 176.862 225.125 176.79 225.826 177.046C226.519 177.298 227.278 177.848 227.908 178.657Z" stroke="#C5BA97" stroke-width="1.1875"/>
<path d="M457.06 163.656L449 163.656L449.594 160.094L453.262 152.375C454.197 151.735 455.914 151.836 456.466 152.969L454.197 160.786L457.06 163.656Z" fill="#CCB48E"/>
<path d="M547.737 178.057L536.813 178.057L538 183.465L534.606 187.407C534.087 189.66 538.969 190.749 539.592 188.594L544.768 183.465L547.737 178.057Z" fill="#B09676"/>
<path d="M450.529 172.31L450.29 162.813L449.336 162.837L448.405 163.051L450.529 172.31ZM557.998 169.609L558.236 179.106L559.817 179.067L561.299 178.517L557.998 169.609ZM601.38 158.819C605.548 155.632 606.344 149.67 603.158 145.502C599.972 141.333 594.009 140.537 589.841 143.724L601.38 158.819ZM404.743 204.468C411.714 197.328 423.242 191.541 433.977 187.441C439.185 185.452 443.906 183.971 447.321 182.989C449.023 182.499 450.39 182.136 451.315 181.9C451.778 181.782 452.129 181.695 452.357 181.64C452.47 181.613 452.553 181.593 452.603 181.581C452.628 181.576 452.645 181.572 452.653 181.57C452.657 181.569 452.659 181.568 452.659 181.568C452.659 181.568 452.659 181.568 452.657 181.569C452.657 181.569 452.656 181.569 452.655 181.569C452.654 181.569 452.653 181.57 450.529 172.31C448.405 163.051 448.403 163.051 448.401 163.052C448.401 163.052 448.399 163.052 448.397 163.053C448.394 163.053 448.39 163.054 448.385 163.055C448.377 163.057 448.366 163.06 448.353 163.063C448.327 163.069 448.292 163.077 448.249 163.087C448.163 163.107 448.044 163.136 447.892 163.172C447.589 163.246 447.158 163.352 446.613 163.491C445.523 163.769 443.972 164.181 442.068 164.729C438.269 165.822 433.02 167.468 427.198 169.692C415.876 174.016 401.112 180.989 391.148 191.195L404.743 204.468ZM450.767 181.807L558.236 179.106L557.759 160.112L450.29 162.813L450.767 181.807ZM557.998 169.609C561.299 178.517 561.3 178.517 561.3 178.517C561.301 178.517 561.302 178.516 561.303 178.516C561.304 178.515 561.306 178.515 561.309 178.514C561.314 178.512 561.32 178.509 561.328 178.506C561.345 178.5 561.367 178.492 561.396 178.481C561.453 178.46 561.536 178.429 561.641 178.389C561.853 178.31 562.158 178.194 562.547 178.046C563.324 177.749 564.438 177.318 565.806 176.776C568.536 175.693 572.301 174.156 576.436 172.34C584.412 168.836 594.787 163.859 601.38 158.819L589.841 143.724C585.266 147.221 576.833 151.413 568.795 154.944C564.923 156.645 561.379 158.092 558.802 159.114C557.516 159.623 556.477 160.025 555.764 160.297C555.409 160.433 555.135 160.537 554.953 160.605C554.862 160.639 554.795 160.665 554.752 160.681C554.73 160.689 554.714 160.695 554.705 160.698C554.7 160.7 554.697 160.701 554.696 160.702C554.695 160.702 554.695 160.702 554.695 160.702C554.695 160.702 554.695 160.702 554.695 160.702C554.696 160.702 554.696 160.701 557.998 169.609Z" fill="url(#paint28_linear)"/>
<ellipse cx="397.907" cy="197.775" rx="5.9375" ry="9.52877" transform="rotate(-44.4028 397.907 197.775)" fill="#E8DBAE"/>
<path d="M400.475 194.876C401.771 196.266 402.572 197.834 402.84 199.222C403.111 200.62 402.833 201.74 402.123 202.401C401.414 203.062 400.277 203.261 398.902 202.893C397.536 202.528 396.028 201.619 394.732 200.229C393.436 198.838 392.635 197.271 392.367 195.882C392.096 194.485 392.374 193.364 393.084 192.703C393.793 192.042 394.93 191.843 396.305 192.211C397.671 192.576 399.179 193.485 400.475 194.876Z" stroke="#C5BA97" stroke-width="1.1875"/>
<path d="M399.023 196.228C399.723 196.978 400.145 197.815 400.285 198.538C400.427 199.272 400.27 199.794 399.961 200.082C399.653 200.369 399.12 200.49 398.399 200.297C397.687 200.106 396.882 199.626 396.183 198.876C395.484 198.126 395.061 197.289 394.921 196.566C394.779 195.832 394.936 195.31 395.245 195.022C395.554 194.734 396.086 194.614 396.807 194.807C397.519 194.998 398.324 195.478 399.023 196.228Z" stroke="#C5BA97" stroke-width="1.1875"/>
<defs>
<linearGradient id="paint0_linear" x1="12.7585" y1="-8.69338" x2="67.6778" y2="36.3921" gradientUnits="userSpaceOnUse">
<stop stop-color="#B3FF7D"/>
<stop offset="1" stop-color="#1FBCB2"/>
</linearGradient>
<linearGradient id="paint1_linear" x1="7.00258" y1="-4.94183" x2="37.9911" y2="19.6206" gradientUnits="userSpaceOnUse">
<stop stop-color="#B3FF7D"/>
<stop offset="1" stop-color="#1FBCB2"/>
</linearGradient>
<linearGradient id="paint2_linear" x1="12.614" y1="-8.59495" x2="66.9115" y2="35.9801" gradientUnits="userSpaceOnUse">
<stop stop-color="#B3FF7D"/>
<stop offset="1" stop-color="#1FBCB2"/>
</linearGradient>
<linearGradient id="paint3_linear" x1="7.9953" y1="-5.44785" x2="42.4114" y2="22.8057" gradientUnits="userSpaceOnUse">
<stop stop-color="#B3FF7D"/>
<stop offset="1" stop-color="#1FBCB2"/>
</linearGradient>
<linearGradient id="paint4_linear" x1="6.44181" y1="-4.38933" x2="34.1708" y2="18.3745" gradientUnits="userSpaceOnUse">
<stop stop-color="#B3FF7D"/>
<stop offset="1" stop-color="#1FBCB2"/>
</linearGradient>
<linearGradient id="paint5_linear" x1="9.93756" y1="-6.77127" x2="52.7142" y2="28.3458" gradientUnits="userSpaceOnUse">
<stop stop-color="#B3FF7D"/>
<stop offset="1" stop-color="#1FBCB2"/>
</linearGradient>
<linearGradient id="paint6_linear" x1="321.686" y1="321" x2="321.686" y2="55" gradientUnits="userSpaceOnUse">
<stop stop-color="#5BCEFF"/>
<stop offset="1" stop-color="#A9F5FF"/>
</linearGradient>
<linearGradient id="paint7_linear" x1="512.589" y1="26.532" x2="545.517" y2="90.9832" gradientUnits="userSpaceOnUse">
<stop stop-color="#B3FF7D"/>
<stop offset="1" stop-color="#12B4A9"/>
</linearGradient>
<linearGradient id="paint8_linear" x1="494.345" y1="10.6962" x2="545.172" y2="66.5979" gradientUnits="userSpaceOnUse">
<stop stop-color="#B3FF7D"/>
<stop offset="1" stop-color="#12B4A9"/>
</linearGradient>
<linearGradient id="paint9_linear" x1="509.865" y1="109.045" x2="511.323" y2="123.211" gradientUnits="userSpaceOnUse">
<stop stop-color="#B3FF7D"/>
<stop offset="1" stop-color="#12B4A9"/>
</linearGradient>
<linearGradient id="paint10_linear" x1="510.722" y1="97.2084" x2="515.058" y2="122.362" gradientUnits="userSpaceOnUse">
<stop stop-color="#B3FF7D"/>
<stop offset="1" stop-color="#12B4A9"/>
</linearGradient>
<linearGradient id="paint11_linear" x1="511.889" y1="63.8579" x2="528.6" y2="113.674" gradientUnits="userSpaceOnUse">
<stop stop-color="#B3FF7D"/>
<stop offset="1" stop-color="#12B4A9"/>
</linearGradient>
<linearGradient id="paint12_linear" x1="453.4" y1="24.7503" x2="487.642" y2="98.3904" gradientUnits="userSpaceOnUse">
<stop stop-color="#B3FF7D"/>
<stop offset="1" stop-color="#12B4A9"/>
</linearGradient>
<linearGradient id="paint13_linear" x1="461.144" y1="52.4687" x2="484.511" y2="107.849" gradientUnits="userSpaceOnUse">
<stop stop-color="#B3FF7D"/>
<stop offset="1" stop-color="#12B4A9"/>
</linearGradient>
<linearGradient id="paint14_linear" x1="433.073" y1="65.5194" x2="442.41" y2="117.006" gradientUnits="userSpaceOnUse">
<stop stop-color="#B3FF7D"/>
<stop offset="1" stop-color="#12B4A9"/>
</linearGradient>
<linearGradient id="paint15_linear" x1="437.732" y1="76.8657" x2="444.426" y2="118.649" gradientUnits="userSpaceOnUse">
<stop stop-color="#B3FF7D"/>
<stop offset="1" stop-color="#12B4A9"/>
</linearGradient>
<linearGradient id="paint16_linear" x1="457.155" y1="107.758" x2="460.302" y2="130.922" gradientUnits="userSpaceOnUse">
<stop stop-color="#B3FF7D"/>
<stop offset="1" stop-color="#12B4A9"/>
</linearGradient>
<linearGradient id="paint17_linear" x1="503.14" y1="116.056" x2="507.935" y2="136.631" gradientUnits="userSpaceOnUse">
<stop stop-color="#B3FF7D"/>
<stop offset="1" stop-color="#12B4A9"/>
</linearGradient>
<linearGradient id="paint18_linear" x1="486.327" y1="118.725" x2="495.654" y2="137.381" gradientUnits="userSpaceOnUse">
<stop stop-color="#B3FF7D"/>
<stop offset="1" stop-color="#12B4A9"/>
</linearGradient>
<linearGradient id="paint19_linear" x1="343.281" y1="173.343" x2="341" y2="142" gradientUnits="userSpaceOnUse">
<stop stop-color="#9B8168"/>
<stop offset="1" stop-color="#ECD19C"/>
</linearGradient>
<linearGradient id="paint20_linear" x1="367.404" y1="173.156" x2="419.654" y2="156.531" gradientUnits="userSpaceOnUse">
<stop stop-opacity="0"/>
<stop offset="0.507055" stop-color="#400303" stop-opacity="0.2"/>
<stop offset="1" stop-opacity="0"/>
</linearGradient>
<linearGradient id="paint21_linear" x1="417.873" y1="190.375" x2="436.279" y2="152.969" gradientUnits="userSpaceOnUse">
<stop stop-color="#9B8168"/>
<stop offset="1" stop-color="#ECD19C"/>
</linearGradient>
<linearGradient id="paint22_linear" x1="408.373" y1="164.25" x2="438.654" y2="193.344" gradientUnits="userSpaceOnUse">
<stop stop-opacity="0"/>
<stop offset="0.49033" stop-opacity="0.6"/>
<stop offset="1" stop-opacity="0"/>
</linearGradient>
<linearGradient id="paint23_linear" x1="286.727" y1="113.446" x2="285.896" y2="167.684" gradientUnits="userSpaceOnUse">
<stop stop-color="#533200" stop-opacity="0"/>
<stop offset="0.62328" stop-color="#593600" stop-opacity="0.25"/>
<stop offset="1" stop-color="#533200" stop-opacity="0"/>
</linearGradient>
<linearGradient id="paint24_linear" x1="237.873" y1="45.5628" x2="210.893" y2="21.4418" gradientUnits="userSpaceOnUse">
<stop stop-color="#FFC34E"/>
<stop offset="0.505208" stop-color="#FFD25E"/>
<stop offset="1" stop-color="#FFDD87"/>
</linearGradient>
<linearGradient id="paint25_linear" x1="87.0785" y1="176.936" x2="27.4119" y2="124.864" gradientUnits="userSpaceOnUse">
<stop stop-color="#7E5B50"/>
<stop offset="1" stop-color="#A27767"/>
</linearGradient>
<linearGradient id="paint26_linear" x1="172.562" y1="37.0976" x2="172.562" y2="213.613" gradientUnits="userSpaceOnUse">
<stop stop-color="#BE7D65"/>
<stop offset="1" stop-color="#7E5B50"/>
</linearGradient>
<linearGradient id="paint27_linear" x1="197" y1="145" x2="111.197" y2="88.6" gradientUnits="userSpaceOnUse">
<stop stop-color="#FFC34E"/>
<stop offset="0.519376" stop-color="#FFD25E"/>
<stop offset="1" stop-color="#FFDE89"/>
</linearGradient>
<linearGradient id="paint28_linear" x1="478.435" y1="193.937" x2="475.5" y2="160" gradientUnits="userSpaceOnUse">
<stop stop-color="#9B8168"/>
<stop offset="1" stop-color="#ECD19C"/>
</linearGradient>
</defs>
</svg>
