<svg width="360" height="355" viewBox="0 0 360 355" fill="none" xmlns="http://www.w3.org/2000/svg">
<path d="M113.566 63.8423C113.566 63.8423 120.72 58.3003 135.458 46.7628C150.195 35.2252 162.569 32.5781 162.569 32.5781L161.119 51.9747C161.119 51.9747 138.029 59.9109 131.32 63.3963C126.652 65.6856 122.909 69.0722 117.86 70.3124L113.566 63.8423Z" fill="#FEFFE1"/>
<path d="M155.892 53.261C155.892 53.261 161.47 43.5958 177.831 34.4576C194.192 25.3195 206.807 24.6887 206.807 24.6887L202.362 43.6609C202.362 43.6609 178.321 47.9592 171.16 50.3296C166.19 51.8488 161.072 52.8315 155.892 53.261V53.261Z" fill="#FEFFE1"/>
<path d="M198.069 40.5396C198.069 40.5396 205.452 32.1785 223.288 26.4506C241.123 20.7226 244.205 23.8889 244.205 23.8889L245.546 40.2294C245.546 40.2294 221.14 39.646 213.635 40.5807C208.46 41.1294 203.241 41.1156 198.069 40.5396Z" fill="#FEFFE1"/>
<path d="M239.59 37.5448C239.59 37.5448 249.814 33.0722 268.406 35.4159C286.997 37.7595 300.055 44.8612 300.055 44.8612C287.864 48.8759 281.689 50.8353 292.691 59.9701C292.691 59.9701 260.868 46.4426 253.678 44.125C248.761 42.441 244.038 40.235 239.59 37.5448Z" fill="#FEFFE1"/>
<path d="M276.414 52.3232C276.414 52.3232 287.499 51.0789 304.59 58.7287C321.682 66.3785 329.742 76.1588 329.742 76.1588L311.881 83.877C311.881 83.877 294.136 67.1131 287.916 62.7862C283.719 59.719 279.864 56.2113 276.414 52.3232V52.3232Z" fill="#FEFFE1"/>
<path d="M305.368 79.4456C305.368 79.4456 316.078 82.5757 328.844 96.2821C341.609 109.988 345.253 122.105 345.253 122.105L325.804 122.288C325.804 122.288 315.956 99.9464 311.923 93.531C309.238 89.0852 307.04 84.3627 305.368 79.4456V79.4456Z" fill="#FEFFE1"/>
<path d="M319.73 116.825C319.73 116.825 329.375 122.43 338.473 138.808C347.572 155.186 348.24 167.813 348.24 167.813L329.271 163.319C329.271 163.319 325.069 139.275 322.679 132.123C321.152 127.144 320.163 122.015 319.73 116.825V116.825Z" fill="#FEFFE1"/>
<path d="M326.23 158.168C326.23 158.168 334.424 165.772 339.662 183.751C344.9 201.729 339.134 208.636 339.134 208.636L325.28 205.635C325.28 205.635 326.498 181.249 325.756 173.727C325.351 168.539 325.51 163.322 326.23 158.168Z" fill="#FEFFE1"/>
<path d="M113.975 67.3648C113.975 67.3648 171.375 38.1705 211.13 33.8741C250.884 29.5778 289.106 41.7767 311.15 80.5416C333.193 119.306 333.892 192.596 318.08 230.116C302.267 267.635 255.479 327.599 182.383 316.83C109.288 306.062 118.267 243.778 136.462 226.708C154.657 209.638 180.67 211.927 190.172 223.768C199.843 235.841 188.546 244.626 173.045 240.384C162.048 237.38 145.449 249.603 155.799 267.395C166.148 285.186 202.004 301.926 241.677 282.017C281.35 262.108 292.438 225.367 290.571 204.987C289.908 197.751 285.414 189.888 278.169 182.441C276.134 180.35 269.366 197.37 266.921 195.367C264.282 193.205 265.934 172.03 262.875 170.027C250.439 161.884 234.78 155.294 217.917 152.205C179.38 145.144 141.963 144.426 131.035 145.315C123.941 145.843 116.82 145.927 109.716 145.565L113.975 67.3648Z" fill="#FEFFE1"/>
<path d="M120.446 40.963C124.514 49.4687 128.643 57.6125 131.318 66.7063C133.978 76.3569 135.928 86.1891 137.153 96.1243C140.029 116.691 141.289 138.486 138.617 159.145C138.039 163.546 136.745 167.691 135.805 172.031C134.473 178.059 138.049 183.446 144.304 184.224C155.41 185.608 158.177 170.468 159.06 162.353C161.249 140.914 160.55 119.278 156.984 98.0244C153.526 76.7486 148.23 50.6161 131.256 35.7181C127.102 32.0665 117.085 33.9536 120.446 40.963V40.963Z" fill="url(#paint0_linear)"/>
<path d="M174.752 27.6322C179.718 37.9904 183.599 48.8347 186.333 59.992C188.987 71.5044 189.831 83.5093 190.162 95.29C190.504 114.591 188.147 133.845 183.159 152.494C181.417 158.946 179.216 165.356 179.411 172.108C179.575 177.722 189.11 183.698 193.671 179.05C198.863 173.751 201.235 166.647 203.303 159.647C205.253 153.048 206.854 146.351 208.1 139.584C210.595 125.517 211.576 111.224 211.026 96.9489C210.165 71.2673 204.254 42.1429 185.92 23.1482C182.195 19.293 171.461 20.4823 174.757 27.5942L174.752 27.6322Z" fill="url(#paint1_linear)"/>
<path d="M231.331 21.0455C239.691 47.0248 242.848 74.3975 240.62 101.598C239.444 116.681 236.856 131.572 233.819 146.406C232.439 153.221 231.056 160.074 229.229 166.794C227.339 173.769 223.368 180.772 226.005 187.977C227.413 191.845 241.274 199.744 245.129 199.019C253.771 197.432 248.198 182.747 250.471 175.333C252.745 167.919 254.384 160.177 256.001 152.492C259.408 136.779 261.641 120.834 262.681 104.789C264.466 74.2897 260.416 43.2203 244.095 16.902C240.277 10.7499 228.644 12.7785 231.332 21.0359L231.331 21.0455Z" fill="url(#paint2_linear)"/>
<path d="M299.401 54.5909C299.297 69.3592 297.352 84.0306 294.625 98.529C291.985 112.761 289.344 127.042 285.017 140.876C280.811 154.32 275.168 167.355 269.294 180.152C266.709 185.871 263.746 191.413 260.426 196.74C256.863 202.375 252.275 207.155 250.703 213.805C249.362 219.426 257.157 223.049 261.539 222.288C275.651 219.859 283.388 203.21 288.797 191.531C295.208 177.745 301.189 163.607 305.619 149.056C310.219 133.956 313.633 118.519 315.83 102.887C318.102 86.6327 319.395 70.6301 313.563 54.9794C311.717 50.0385 299.434 47.1821 299.401 54.5909Z" fill="url(#paint3_linear)"/>
<path d="M335.745 180.604C330.153 187.526 326.307 195.633 320.823 202.677C315.094 210.032 308.55 216.717 301.318 222.601C294.452 228.185 287.061 233.091 279.25 237.249C275.253 239.421 271.134 241.359 266.913 243.055C262.131 244.936 256.93 245.492 252.846 248.841C248.257 252.591 252.852 258.464 256.307 260.658C267.097 267.344 280.473 260.428 290.386 255.234C299.628 250.435 308.321 244.645 316.31 237.964C323.976 231.447 330.847 224.05 336.782 215.925C342.692 207.896 348.714 197.902 349.527 187.781C349.989 181.978 340.257 174.982 335.748 180.566L335.745 180.604Z" fill="url(#paint4_linear)"/>
<path d="M301.531 282.639C289.507 287.029 276.465 287.824 263.998 284.926C257.383 283.319 251.006 280.854 245.029 277.594C238.121 273.976 231.437 269.678 223.548 268.723C217.435 267.982 215.402 274.295 218.349 278.652C223.254 285.9 232.602 290.371 240.307 294.019C248.958 298.235 258.18 301.158 267.68 302.694C282.036 304.903 304.191 306.407 313.306 292.407C315.038 289.752 312.996 286.009 310.918 284.274C309.641 283.197 308.101 282.479 306.455 282.192C304.809 281.905 303.117 282.06 301.55 282.641L301.531 282.639Z" fill="url(#paint5_linear)"/>
<path d="M212.665 335.955C203.6 328.451 199.789 315.13 198.815 303.87C198.323 297.517 198.862 291.126 200.409 284.944C201.892 278.819 206.221 271.3 203.548 265.161C202.752 263.543 201.462 262.22 199.865 261.383C198.268 260.547 196.446 260.24 194.663 260.506C185.989 261.985 182.85 273.936 181.281 281.307C179.582 289.445 179.313 297.816 180.485 306.046C181.621 314.195 184.257 322.063 188.26 329.251C192.442 336.94 199.251 342.868 207.443 345.949C214.227 348.608 217.794 340.186 212.675 335.955L212.665 335.955Z" fill="url(#paint6_linear)"/>
<path d="M116.28 289.208C124.308 279.27 134.121 271.472 146.417 267.415C153.32 265.314 160.433 263.982 167.628 263.444C174.119 262.88 183.111 263.431 188.045 258.297C191.251 254.982 188.422 250.911 185.308 248.959C177.542 244.105 166.969 245.64 158.392 246.798C150.386 247.824 142.521 249.75 134.946 252.537C121.709 257.499 108.227 266.765 103.397 280.556C102.224 283.987 103.579 287.149 106.605 289.115C109.075 290.729 114.03 291.996 116.31 289.191L116.28 289.208Z" fill="url(#paint7_linear)"/>
<path d="M129.136 85.3171C129.242 83.5916 136.019 47.9808 113.109 43.1109C90.1979 38.2409 43.9527 41.985 24.4163 83.7411C4.88001 125.497 14.3078 146.86 21.0406 150.045C27.7734 153.229 109.04 159.601 123.003 152.837C133.407 147.789 127.693 125.759 127.78 107.404C127.734 100.02 128.187 92.6406 129.136 85.3171Z" fill="#FEFFE1"/>
<path d="M67.8316 121.393C84.6043 122.422 99.0357 109.659 100.065 92.8865C101.094 76.1138 88.3314 61.6824 71.5587 60.6532C54.7859 59.624 40.3546 72.3867 39.3254 89.1594C38.2962 105.932 51.0589 120.363 67.8316 121.393Z" fill="url(#paint8_linear)"/>
<path d="M52.8378 80.9111C54.9574 81.0412 56.7811 79.4284 56.9111 77.3088C57.0412 75.1892 55.4284 73.3656 53.3088 73.2355C51.1892 73.1054 49.3655 74.7182 49.2355 76.8378C49.1054 78.9574 50.7182 80.7811 52.8378 80.9111Z" fill="#002331"/>
<path d="M169.313 112.204C161.319 107.461 139.27 95.4458 136.543 113.08C135.466 119.961 139.002 126.481 145.673 131.452C151.343 135.649 161.694 139.613 159.71 148.421C158.173 155.274 148.026 168.065 141.855 170.304C136.058 172.412 126.546 167.632 121.959 172.605C112.599 182.76 138.204 183.388 143.108 183.91C148.013 184.432 153.304 185.075 157.958 183.253C167.107 179.676 175.307 171.808 182.669 165.524C193.411 156.368 202.184 146.498 193.205 133.033C186.695 123.242 177.585 117.119 169.313 112.204Z" fill="#FEFFE1"/>
<path d="M305.459 172.52C303.008 164.469 296.385 152.449 292.271 144.691C287.304 135.312 280.919 126.933 274.354 118.65C269.282 112.247 261.069 107.153 252.71 110.701C242.069 115.225 240.91 138.19 241.075 147.89C241.341 163.784 247.367 180.223 246.253 195.868C240.342 192.927 231.634 187.427 224.482 189.991C221.284 191.142 219.034 194.718 220.306 197.971C221.811 201.836 227.47 202.77 231.035 203.941C238.449 206.369 246.07 209.829 253.853 210.951C261.95 212.122 262.888 209.389 265.176 201.735C268.325 191.199 268.516 180.703 269.805 169.889C277.575 168.73 283.156 191.147 288.97 198.49C293.435 204.123 302.793 196.682 306.527 189.617C309.838 183.325 306.396 175.599 305.459 172.52Z" fill="#FEFFE1"/>
<path d="M12.2004 131.732C73.6018 135.199 101.114 135.751 108.015 111.101" stroke="#12B3A8" stroke-width="2"/>
<defs>
<linearGradient id="paint0_linear" x1="137.83" y1="19.7656" x2="204.648" y2="84.0765" gradientUnits="userSpaceOnUse">
<stop stop-color="#B3FF7D"/>
<stop offset="1" stop-color="#19A8B1"/>
</linearGradient>
<linearGradient id="paint1_linear" x1="194.363" y1="7.0514" x2="259.735" y2="79.1633" gradientUnits="userSpaceOnUse">
<stop stop-color="#B3FF7D"/>
<stop offset="1" stop-color="#12B4A9"/>
</linearGradient>
<linearGradient id="paint2_linear" x1="245.666" y1="-4.6202" x2="317.284" y2="39.8299" gradientUnits="userSpaceOnUse">
<stop stop-color="#B3FF7D"/>
<stop offset="1" stop-color="#12B4A9"/>
</linearGradient>
<linearGradient id="paint3_linear" x1="279.701" y1="31.8432" x2="360.127" y2="115.418" gradientUnits="userSpaceOnUse">
<stop stop-color="#B3FF7D"/>
<stop offset="1" stop-color="#12B4A9"/>
</linearGradient>
<linearGradient id="paint4_linear" x1="293.399" y1="186.734" x2="305.497" y2="248.679" gradientUnits="userSpaceOnUse">
<stop stop-color="#B3FF7D"/>
<stop offset="1" stop-color="#12B4A9"/>
</linearGradient>
<linearGradient id="paint5_linear" x1="248.318" y1="263.831" x2="253.668" y2="302.517" gradientUnits="userSpaceOnUse">
<stop stop-color="#B3FF7D"/>
<stop offset="1" stop-color="#12B4A9"/>
</linearGradient>
<linearGradient id="paint6_linear" x1="211.376" y1="260.577" x2="214.438" y2="301.74" gradientUnits="userSpaceOnUse">
<stop stop-color="#B3FF7D"/>
<stop offset="1" stop-color="#12B4A9"/>
</linearGradient>
<linearGradient id="paint7_linear" x1="136.096" y1="249.04" x2="141.713" y2="275.647" gradientUnits="userSpaceOnUse">
<stop stop-color="#B3FF7D"/>
<stop stop-color="#B3FF7D"/>
<stop offset="0.0001" stop-color="#B3FF7D"/>
<stop offset="1" stop-color="#12B4A9"/>
</linearGradient>
<linearGradient id="paint8_linear" x1="63.3536" y1="64.0183" x2="75.595" y2="108.157" gradientUnits="userSpaceOnUse">
<stop stop-color="#B3FF7D"/>
<stop offset="1" stop-color="#12B4A9"/>
</linearGradient>
</defs>
</svg>
