<svg width="421" height="359" viewBox="0 0 421 359" fill="none" xmlns="http://www.w3.org/2000/svg">
<g clip-path="url(#clip0)">
<path d="M205.983 119.462C221.867 99.3772 242.391 82.7054 263.57 66.8954C244.664 88.7317 229.568 113.25 218.71 139.582C212.012 155.82 206.019 173.699 192.286 184.807C196.655 183.393 201.003 182.132 205.22 180.698C220.302 131.301 259.864 92.9657 311.2 74.9294C292.549 99.4272 264.447 117.23 248.537 143.182C243.155 152.029 239.037 161.82 232.503 170.045C232.137 170.459 231.771 170.873 231.406 171.286C234.843 169.901 238.128 168.494 241.413 167.087C253.129 149.216 268.214 136.129 285.316 126.408C305.116 115.045 327.478 107.585 349.688 100.104C322.036 123.685 293.694 147.789 260.277 164.868C306.154 150.568 359.883 150.163 412.109 155.115C358.345 179.619 294.182 188.491 230.145 180.54C225.694 182.56 220.938 184.538 216.204 186.366C241.2 193.634 266.194 194.103 290.76 195.441C317.625 196.938 345.519 199.966 369.06 213.37C341.297 210.515 313.923 213.893 286.106 212.576C260.131 211.354 232.257 204.776 212.787 187.6C210.82 188.413 208.722 189.054 206.755 189.868C203.014 191.212 199.101 192.688 195.36 194.032C243.304 216.787 298.893 225.442 337.093 259.539C303.489 248.472 269.885 237.404 236.28 226.337C224.876 222.62 213.341 218.731 203.2 212.56C196.627 208.574 190.545 203.265 186.409 197.294C181.37 199.079 176.332 200.865 171.445 202.671C186.806 211.408 201.628 220.689 217.202 228.991C250.243 246.471 286.153 258.78 318.034 277.956C284.991 276.39 252.773 261.957 221.922 247.711C208.398 241.388 194.55 235.175 182.42 226.57C174.384 220.84 166.969 213.958 161.672 206.284C153.542 209.194 145.26 212.082 136.998 214.82C142.438 218.033 147.513 221.66 152.76 225.156C200.651 256.247 261.451 266.384 306.396 300.937C283.449 292.248 259.972 285.187 236.267 279.795C213.757 274.719 190.757 270.968 169.839 261.011C150.53 251.736 133.083 235.608 129.386 217.336C125.817 218.55 122.421 219.632 118.853 220.845C119.489 221.859 119.993 222.7 120.628 223.714C148.63 269.091 202.251 301.272 226.988 347.904C196.694 326.163 167.283 303.615 138.604 280.24C126.204 270.208 113.735 259.548 106.236 246.474C102.596 240.262 100.427 233.477 100.101 226.789C93.4818 228.822 86.711 230.836 80.1127 232.718C83.0269 237.441 86.0929 242.185 89.3315 246.798C116.379 285.556 154.504 317.943 183.539 355.736C165.025 348.578 151.485 333.291 136.641 320.763C124.434 310.447 110.634 301.614 97.9098 291.692C85.1857 281.77 73.2551 270.565 66.1211 257.078C63.552 252.093 62.6804 244.867 62.7612 237.461C57.6329 238.771 52.6566 240.102 47.5284 241.412C48.7298 242.812 49.7587 244.342 50.8083 245.721C61.8844 262.063 72.6154 278.667 86.5625 293.236C103.762 311.185 125.356 325.251 147.227 338.428C120.376 335.697 93.4872 324.154 72.8439 306.509C53.0291 289.595 39.356 267.337 34.4352 244.418C16.5588 248.472 -1.53863 251.877 -19.9677 254.311C-24.3725 250.312 -26.4376 246.168 -28.6544 242.003C-7.9412 237.563 12.7927 232.971 33.2642 228.035L33.2848 227.883C37.6948 200.055 48.0966 173.661 63.8072 150.307C58.6216 169.069 55.0652 188.361 53.3105 208.053C52.8702 213.556 52.43 219.058 50.2087 224.009C55.0125 222.809 59.8163 221.609 64.4683 220.389C64.8268 218.893 65.1647 217.548 65.4612 216.507C61.6456 196.828 64.0563 177.998 68.1447 160.478C74.129 134.718 83.5441 109.889 95.983 86.7078C88.9645 116.653 86.1153 147.784 87.0834 179.281C87.3827 188.438 88.117 197.808 85.5516 206.42C84.6001 209.999 82.9099 213.322 80.6535 216.259C86.5824 214.749 92.5319 213.088 98.4607 211.578C97.0104 208.599 95.684 204.71 94.9444 201.056C86.5665 156.962 123.167 119.922 118.648 75.89C124.932 85.3985 126.067 96.3686 125.007 106.422C123.946 116.475 120.781 126.086 119.417 136.098C116.302 156.687 120.264 178.703 116.997 199.271C116.625 202.001 115.95 204.69 114.839 207.166C119.015 206.035 123.342 204.925 127.539 203.642C126.71 202.912 125.771 201.857 125.308 200.712C122.076 193.782 123.696 186.432 125.386 179.71C135.749 137.705 151.192 97.0105 171.095 58.7777C162.773 91.4809 154.409 124.487 152.231 158.646C151.729 168.002 151.511 177.552 148.338 186.081C146.124 192.114 142.129 197.596 136.387 201.14C141.86 199.568 147.334 197.996 152.655 196.403C151.171 172.098 161.167 149.82 172.343 129.094C183.499 108.519 195.959 88.5857 208.551 68.8247C199.664 107.94 187.52 145.994 171.985 182.813C170.619 186.027 169.102 189.219 167.301 192.218C170.849 191.157 174.396 190.095 177.944 189.033C178.813 163.349 190.099 139.547 205.983 119.462Z" fill="url(#paint0_linear)"/>
<path d="M-59.7597 166.629L-58.0158 162.904C-35.4058 159.635 -16.0429 153.284 0.451524 145.152C-0.933505 144.268 -11.0797 136.568 4.24844 114.915C4.24844 114.915 15.255 132.39 0.939879 144.866C21.6104 134.682 37.6208 121.88 49.8173 109.525C82.4759 76.4449 94.7106 39.5639 96.0703 35.3381C85.6781 18.8954 109.164 1.42436 109.164 1.42436C105.627 5.46236 108.214 11.2613 108.214 11.2613C108.214 11.2613 111.953 17.0622 107.966 26.3975C105.211 32.8419 100.983 35.2867 98.7049 36.2371C96.8289 42.0968 84.0594 78.857 51.555 111.907C29.0392 134.913 -6.68563 159.377 -59.7597 166.629ZM120.681 38.141C120.681 38.141 103.992 27.6744 95.3021 46.4507C95.3021 46.4507 103.166 60.056 120.681 38.141ZM91.7094 45.2248C98.2011 25.6573 78.2023 23.5643 78.2023 23.5643C76.2978 50.8471 91.7094 45.2248 91.7094 45.2248ZM87.1729 65.1509C87.1729 65.1509 94.7449 79.0681 112.572 57.4447C112.572 57.4447 96.1024 46.4563 87.1729 65.1509ZM70.5448 41.726C68.1222 69.1406 83.5933 63.8266 83.5933 63.8266C90.4228 44.3538 70.5448 41.726 70.5448 41.726ZM76.0192 83.251C76.0192 83.251 82.7983 97.8644 101.493 77.2567C101.45 77.201 85.7952 64.9687 76.0192 83.251ZM72.5769 81.6445C80.2234 62.4299 60.7801 58.4077 60.7801 58.4077C57.0949 85.9057 72.5769 81.6445 72.5769 81.6445ZM64.0264 98.9873C64.0264 98.9873 68.7704 114.984 89.1503 97.1521C89.1503 97.1521 75.5848 81.992 64.0264 98.9873ZM60.9148 96.7737C70.5497 78.4228 52.3489 71.0605 52.3489 71.0605C45.5184 98.4931 60.9148 96.7737 60.9148 96.7737ZM51.1073 113.4C51.1073 113.4 53.8978 130.54 75.501 115.573C75.501 115.573 64.1695 97.9049 51.1073 113.4ZM48.4116 110.69C59.7863 93.5707 43.0545 83.0484 43.0545 83.0484C33.3962 109.907 48.4116 110.69 48.4116 110.69ZM36.1274 126.739C36.1274 126.739 37.1279 144.543 59.505 132.432C59.505 132.432 50.2737 112.889 36.1274 126.739ZM33.792 123.576C46.4996 107.734 31.4113 94.6257 31.4113 94.6257C19.3023 120.71 33.792 123.576 33.792 123.576ZM19.2574 139.227C19.2574 139.227 17.9202 157.674 40.9114 149.249C40.9114 149.249 34.5639 127.583 19.2574 139.227ZM17.3936 135.526C31.54 121.677 18.8064 105.525 18.8064 105.525C3.95699 129.995 17.3936 135.526 17.3936 135.526ZM2.16482 149.233C2.16482 149.233 -0.589078 167.793 22.5263 161.837C22.4706 161.88 17.9651 139.156 2.16482 149.233ZM-16.2754 156.557C-16.2754 156.557 -20.7839 175.135 2.16765 172.312C2.12495 172.256 0.00922475 148.497 -16.2754 156.557ZM-17.3592 152.259C-1.69075 141.664 -10.7419 121.894 -10.7419 121.894C-28.9238 143.171 -17.3592 152.259 -17.3592 152.259ZM-35.3598 162.695C-35.3598 162.695 -41.233 180.993 -18.6326 180.827C-18.6326 180.827 -18.8043 156.373 -35.3598 162.695ZM-36.0797 158.295C-19.9602 149.212 -27.2417 128.174 -27.2417 128.174C-46.6916 147.68 -36.0797 158.295 -36.0797 158.295Z" fill="url(#paint1_linear)"/>
</g>
<defs>
<linearGradient id="paint0_linear" x1="-102.402" y1="203.447" x2="276.953" y2="80.6188" gradientUnits="userSpaceOnUse">
<stop stop-color="#B3FF7D"/>
<stop offset="1" stop-color="#12B4A9"/>
</linearGradient>
<linearGradient id="paint1_linear" x1="-82.9118" y1="207.442" x2="-62.5202" y2="37.9892" gradientUnits="userSpaceOnUse">
<stop stop-color="#B3FF7D"/>
<stop offset="1" stop-color="#12B4A9"/>
</linearGradient>
<clipPath id="clip0">
<rect width="421" height="359" fill="white"/>
</clipPath>
</defs>
</svg>
