<svg width="438" height="312" viewBox="0 0 438 312" fill="none" xmlns="http://www.w3.org/2000/svg">
<g clip-path="url(#clip0)">
<path d="M602.582 158.739C596.715 227.302 541.486 239.292 513.628 241.038C514.326 241.226 515.11 241.261 515.808 241.449C518.838 242.132 521.63 242.884 524.439 243.244C527.248 243.604 529.886 244.27 532.542 244.545C535.198 244.82 537.463 245.077 539.88 245.42C540.425 245.523 540.97 245.625 541.6 245.575C542.145 245.677 542.775 245.627 543.166 245.644C544.188 245.611 545.277 245.816 546.299 245.783C548.257 245.87 550.215 245.957 551.935 246.112C558.609 246.015 562.526 246.189 562.526 246.189L562.644 247.058C562.644 247.058 558.914 247.991 552.187 249.262C548.799 249.583 544.61 250.26 539.893 250.443C537.458 250.492 534.87 250.456 532.197 250.572C529.609 250.536 526.714 250.329 523.666 250.037C520.687 249.984 517.657 249.3 514.456 248.922C512.822 248.614 511.255 248.545 509.706 248.084C508.072 247.776 506.523 247.315 504.888 247.007C503.254 246.699 501.467 246.306 499.917 245.845C499.764 245.76 499.611 245.674 499.373 245.742C516.452 303.002 463.116 330.692 463.116 330.692C478.45 319.366 477.935 284.971 477.935 284.971C468.377 330.612 430.011 335.737 430.011 335.737C448.407 327.921 457.378 291.985 457.378 291.985C429.75 341.611 381.979 334.078 381.979 334.078C399.281 331.471 413.552 308.718 413.552 308.718C358.713 341.992 326.774 318.994 326.774 318.994C358.612 321.27 398.93 284.527 398.93 284.527C355.416 296.016 326.693 274.809 326.693 274.809C357.692 283.639 389.076 260.783 389.076 260.783C315.902 270.407 307.347 240.364 307.347 240.364C334.309 249.956 371.232 240.215 371.232 240.215C307.347 240.364 300.202 213.914 300.202 213.914C326.466 223.319 367.046 217.821 367.046 217.821C278.117 214.661 264.37 163.67 264.37 163.67C280.814 187.471 343.517 196.295 343.517 196.295C298.147 187.691 275.395 134.496 275.395 134.496C290.456 162.944 324.112 170.244 324.112 170.244C284.743 153.744 278.422 99.8655 278.422 99.8655C283.497 118.14 310.328 141.303 310.328 141.303C283.301 108.4 289.988 74.4031 289.988 74.4031C293.685 91.9101 311.157 108.459 311.157 108.459C292.408 72.9409 305.17 43.5294 305.17 43.5294C310.791 79.5635 327.898 104.336 327.898 104.336C298.616 40.8846 321.366 0.380159 321.366 0.380159C331.263 72.7025 354.949 90.7038 354.949 90.7038C368.243 75.8339 365.929 16.5608 365.929 16.5608C390.908 35.4827 381.485 101.062 381.485 101.062C386.813 64.1015 420.685 38.2161 420.685 38.2161C403.058 101.235 407.595 131.649 407.595 131.649C421.698 87.9359 466.165 76.1751 466.165 76.1751C430.665 113.995 431.39 161.348 431.39 161.348C447.116 130.577 486.766 98.2772 486.766 98.2772C493.126 126.496 451.796 191.367 451.796 191.367C477.182 172.796 517.238 85.3463 517.238 85.3463C529.012 134.837 483.262 191.429 483.262 191.429C517.008 173.699 535.191 98.1493 535.191 98.1493C553.763 160.655 516.559 199.733 516.559 199.733C556.98 181.907 573.074 139.303 573.074 139.303C581.692 174.999 548.764 211.442 548.764 211.442C578.285 196.978 602.582 158.739 602.582 158.739Z" fill="url(#paint0_linear)"/>
<path d="M424.407 203.807C360.139 154.185 322.161 85.0902 315.63 18.2535C311.784 35.9752 310.293 66.0436 328.035 104.813C328.035 104.813 310.928 80.0404 305.306 44.0063C305.306 44.0063 292.698 73.5031 311.294 108.936C311.294 108.936 293.975 92.4723 290.125 74.88C290.125 74.88 283.438 108.877 310.465 141.78C310.465 141.78 283.566 118.378 278.559 100.342C278.559 100.342 284.88 154.221 324.249 170.721C324.249 170.721 290.593 163.421 275.532 134.973C275.532 134.973 298.216 187.929 343.654 196.772C343.654 196.772 280.798 187.863 264.507 164.147C264.507 164.147 278.169 215.291 367.183 218.298C367.183 218.298 326.365 223.864 300.339 214.391C300.339 214.391 307.569 240.687 371.455 240.539C371.455 240.539 334.617 250.127 307.569 240.687C307.569 240.687 316.124 270.73 389.298 261.106C389.298 261.106 357.999 283.81 326.916 275.133C326.916 275.133 355.639 296.34 399.153 284.85C399.153 284.85 358.988 321.679 326.996 319.318C326.996 319.318 359.021 342.162 413.775 309.042C413.775 309.042 399.588 331.641 382.201 334.401C382.201 334.401 429.973 341.935 457.6 292.308C457.6 292.308 448.714 328.091 430.233 336.061C430.233 336.061 468.685 330.782 478.158 285.294C478.158 285.294 478.672 319.689 463.338 331.016C463.338 331.016 516.35 303.547 499.645 246.696C473.586 236.201 448.16 222.047 424.407 203.807Z" fill="url(#paint1_linear)"/>
</g>
<g clip-path="url(#clip1)">
<path d="M319.933 131.985C322.526 135.442 323.39 139.022 321.785 142.849C320.304 146.677 317.834 150.504 318.452 154.455C318.822 156.553 319.933 158.405 320.427 160.504C321.291 164.578 319.316 169.023 315.859 172.109C312.526 175.196 307.958 177.048 303.39 178.159C301.538 178.653 299.439 179.023 298.328 180.505C296.723 182.603 298.451 185.32 299.439 187.542C302.402 194.209 298.081 203.098 290.303 206.061C284.13 208.53 275.982 208.036 272.525 213.222C269.191 218.16 273.265 224.456 271.66 230.012C269.562 237.049 259.932 239.642 253.018 243.716C243.512 249.395 238.326 259.149 233.141 268.285C226.351 280.137 218.573 291.619 210.054 302.607C215.486 291.372 218.449 279.273 218.82 267.174C219.066 257.297 217.585 247.667 218.326 237.79C218.573 233.963 219.313 230.012 221.412 226.555C227.338 216.925 243.018 213.098 245.981 202.604C247.092 198.53 245.981 194.456 245.487 190.381C244.993 186.307 245.487 181.616 248.944 178.776C252.401 175.813 257.833 175.566 261.413 172.603C265.858 169.023 265.611 162.973 267.586 158.035C269.932 152.109 276.105 147.417 283.019 146.306C285.611 145.936 288.451 145.936 290.92 144.948C294.377 143.59 296.599 140.627 299.069 137.911C302.279 134.454 306.229 131.244 311.044 130.256C315.736 129.145 318.946 130.75 319.933 131.985Z" fill="url(#paint2_linear)"/>
<path d="M263.512 233.963C263.759 230.629 262.772 227.543 261.907 224.333C260.92 221 259.932 217.666 258.944 214.209C258.08 211.246 257.339 208.16 257.957 205.073C258.451 201.987 259.932 198.9 262.154 196.555C264.377 194.085 266.969 192.233 270.55 192.233C274.253 192.233 277.463 193.962 280.426 195.443C283.266 196.801 286.476 198.036 289.809 198.53C293.019 199.024 296.229 198.653 299.069 196.925C299.192 196.801 299.316 196.801 299.316 196.678C297.834 200.752 294.624 204.333 290.18 206.061C284.007 208.53 275.858 208.036 272.402 213.222C269.068 218.16 273.142 224.457 271.537 230.012C270.303 234.086 266.475 236.679 262.154 239.025C262.895 237.296 263.389 235.691 263.512 233.963Z" fill="url(#paint3_linear)"/>
<path d="M303.266 178.036C301.537 178.406 299.562 178.9 298.451 180.134C298.328 178.776 297.957 177.542 298.328 176.06C298.574 174.702 299.192 173.467 300.179 172.233C300.673 171.616 301.167 170.998 301.784 170.504C302.402 170.011 303.266 169.64 304.007 169.27C306.723 167.788 309.315 166.183 311.291 163.838C313.019 161.739 314.254 159.27 314.501 156.677C314.871 153.467 313.883 150.257 312.896 147.294C312.278 145.689 311.785 143.961 311.167 142.356C310.674 141.121 310.18 139.763 310.056 138.528C309.562 135.812 309.933 132.849 311.661 130.38C311.785 130.257 311.785 130.133 311.785 130.01C316.229 129.269 319.192 130.75 320.057 131.985C322.649 135.442 323.513 139.022 321.908 142.849C320.427 146.677 317.958 150.504 318.451 154.455C318.822 156.553 319.933 158.405 320.427 160.504C321.291 164.578 319.316 169.023 315.859 172.109C312.402 175.072 307.957 177.048 303.266 178.036Z" fill="url(#paint4_linear)"/>
<path d="M304.131 146.8C301.908 163.961 269.932 194.332 253.512 218.654C235.61 245.321 225.734 275.322 210.301 303.1L220.919 277.544C224.869 268.161 228.697 258.655 233.018 249.395C249.315 214.827 279.686 185.567 300.55 152.973C302.773 149.516 302.649 148.282 303.76 146.553C303.76 146.553 303.637 146.553 304.131 146.8Z" fill="url(#paint5_linear)"/>
<path d="M256.352 117.046C256.599 120.627 251.66 123.219 251.66 126.8C251.537 131.615 255.487 135.565 258.574 139.393C261.537 143.22 263.759 149.022 260.302 152.726C258.327 154.825 255.117 155.566 253.512 157.912C248.574 164.825 262.895 173.591 258.204 180.628C256.105 183.962 250.796 184.579 248.944 188.036C246.845 191.986 250.672 196.308 250.672 200.752C250.672 205.444 246.104 209.147 241.66 211.123C240.549 211.617 239.314 212.11 238.697 213.098C237.092 215.814 240.672 218.407 242.401 221C244.499 224.209 243.265 228.654 240.796 231.741C238.45 234.827 234.993 237.049 232.03 239.765C221.166 249.642 217.585 264.458 215.857 278.532C214.128 292.606 213.758 307.175 207.461 320.014C201.288 292.606 195.239 265.198 189.066 237.79C187.461 230.753 185.856 223.469 186.844 216.308C187.214 213.468 187.955 210.752 188.078 207.913C188.449 199.518 183.14 191.74 182.646 183.344C181.782 169.023 194.375 157.541 201.165 144.578C207.338 132.849 209.437 118.404 219.931 109.886C224.499 105.935 254.5 93.3419 256.352 117.046Z" fill="url(#paint6_linear)"/>
<path d="M187.214 213.716C189.436 215.814 191.288 218.16 192.893 220.629C193.881 222.234 194.622 223.839 195.61 225.321C196.721 226.926 197.708 228.531 198.696 230.259C200.671 233.716 202.4 237.42 203.634 241.124C204.252 243.099 204.746 245.198 204.869 247.297C204.992 248.655 204.992 250.507 204.499 251.865H204.375C199.437 248.037 194.745 243.963 189.683 240.259C189.436 239.272 189.313 238.408 189.066 237.42C187.461 230.383 185.856 223.098 186.844 215.938C186.967 215.32 187.091 214.58 187.214 213.716Z" fill="url(#paint7_linear)"/>
<path d="M210.795 272.976C211.042 269.89 211.535 266.803 212.4 263.717C213.264 260.507 214.375 257.42 215.857 254.457C216.597 252.976 217.708 251.618 218.82 250.383C219.931 249.149 221.165 248.037 222.277 246.803C224.375 244.087 226.598 241.494 229.19 239.272C231.906 236.926 234.622 235.074 238.203 234.58C236.227 236.309 234.129 237.914 232.153 239.766C224.252 247.05 220.178 256.926 217.832 267.297C215.61 269.396 213.634 271.742 210.795 272.976Z" fill="url(#paint8_linear)"/>
<path d="M236.846 119.392C223.142 157.171 222.031 187.542 216.598 230.63C215.487 239.766 211.66 255.198 209.932 264.334C206.598 282.112 207.462 300.138 208.203 318.039C206.722 310.014 206.722 303.471 205.24 295.446C203.018 283.1 204.623 260.507 206.598 254.457C213.759 232.111 215.24 208.654 217.833 185.443C220.673 162.356 224.87 138.775 236.846 119.392Z" fill="url(#paint9_linear)"/>
<path d="M209.436 316.681C215.732 307.298 222.276 297.668 231.782 291.619C241.289 285.569 254.499 283.841 263.511 290.631C264.623 291.495 265.734 292.483 267.092 292.977C270.302 294.211 273.759 292.483 276.722 290.878C282.524 287.915 289.068 285.693 295.488 286.804C301.907 287.915 307.957 293.347 307.834 299.767C305.858 294.088 297.957 293.224 292.525 295.693C287.092 298.162 282.895 302.854 277.586 305.57C270.796 308.903 262.4 308.656 255.98 304.829C251.659 302.36 247.215 298.162 242.523 300.014C240.054 301.002 237.338 307.422 235.363 309.15C228.202 315.693 217.214 310.385 209.436 316.681Z" fill="url(#paint10_linear)"/>
<path d="M208.326 318.039C214.993 300.261 227.956 288.038 241.907 275.199C245.117 272.236 248.45 269.396 252.525 268.038C256.599 266.556 261.414 266.803 264.871 269.396C266.352 270.507 267.587 272.112 269.315 272.853C273.019 274.211 276.476 271.001 279.686 268.779C285.488 264.704 293.266 263.47 299.933 265.692C306.723 267.914 312.279 273.347 314.625 280.014C310.798 277.297 306.477 274.334 301.785 275.075C297.341 275.692 294.131 279.52 290.921 282.73C287.711 285.94 283.266 288.903 278.945 287.668C276.846 287.051 275.118 285.446 273.019 284.952C267.71 283.841 263.389 289.89 257.957 290.014C254.376 290.137 251.167 287.668 247.586 287.421C243.635 287.174 240.179 289.52 237.092 291.989C227.462 299.644 218.697 306.311 209.807 319.644L208.326 318.039Z" fill="url(#paint11_linear)"/>
<path d="M208.078 320.138C220.177 316.064 226.968 303.965 232.153 292.73C237.338 281.495 242.894 269.149 254.376 263.47C259.561 260.877 265.364 260.013 270.673 257.914C278.08 254.951 284.253 249.395 287.833 242.605C290.179 238.161 291.661 233.099 295.735 230.012C300.797 226.308 308.081 227.049 313.637 223.963C321.044 219.765 322.896 210.506 323.76 202.357C322.279 205.691 318.081 206.925 314.377 207.542C306.106 209.024 297.71 209.765 289.315 209.765C279.809 209.765 268.944 209.271 262.03 215.691C254.993 222.234 255.117 233.346 248.45 240.259C243.635 245.198 236.474 246.926 230.301 250.136C218.325 256.68 211.041 269.396 208.325 282.236C205.856 294.952 207.091 308.162 208.078 320.138Z" fill="url(#paint12_linear)"/>
<path d="M209.066 317.792C216.597 306.681 217.832 292.73 223.881 280.878C228.82 271.248 236.844 263.099 246.598 257.914C254.005 253.963 262.524 251.618 269.067 246.432C275.117 241.741 279.068 235.198 283.883 229.395C288.698 223.592 294.994 218.16 302.649 217.419C295.488 216.555 288.327 220.135 282.772 224.827C277.216 229.395 272.771 235.074 267.463 239.889C256.845 249.272 242.894 254.581 232.647 264.211C217.585 278.408 212.893 299.644 209.066 317.792Z" fill="url(#paint13_linear)"/>
<path d="M104.125 131.244C113.385 134.331 120.669 142.356 122.521 151.615C123.138 154.578 123.261 157.665 124.743 160.257C128.323 166.554 137.336 167.048 144.497 169.393C154.867 172.974 162.645 182.48 163.509 193.098C163.88 198.16 163.016 203.592 165.238 208.16C168.695 214.827 177.46 216.802 184.004 220.753C193.881 226.555 199.436 237.42 201.659 248.408C203.881 259.396 203.14 270.754 203.387 281.865C203.634 294.458 205.115 307.175 207.708 319.521C196.844 295.076 179.189 273.594 156.843 257.791C148.571 251.988 139.064 246.062 136.472 236.556C134.249 228.407 137.459 218.777 133.015 211.617C126.348 200.999 107.582 202.728 101.039 191.986C95.1126 182.357 101.903 166.924 92.273 160.628C89.9272 159.146 87.0877 158.529 84.495 157.541C80.0505 155.813 76.2232 152.603 73.8775 148.529C72.2725 145.813 70.2971 141.985 72.2725 139.516C82.1493 126.923 94.8657 128.158 104.125 131.244Z" fill="url(#paint14_linear)"/>
<path d="M103.137 183.468C109.187 185.937 115.977 186.307 121.903 189.023C127.706 191.616 131.78 196.061 134.866 201.246C137.953 206.308 140.052 211.74 143.015 216.802C145.854 221.74 149.558 226.555 154.99 229.148C158.077 230.63 161.534 231.494 164.991 232.111C166.719 232.358 168.447 232.605 170.299 232.852C172.028 233.099 173.633 233.469 175.238 233.963C181.164 235.691 186.966 238.407 191.411 242.482C193.757 244.704 195.485 247.05 196.72 249.889C198.201 253.223 199.189 256.803 200.053 260.26C201.658 267.174 202.646 274.087 203.634 281.125C203.634 281.372 203.634 281.742 203.634 281.989C203.757 288.656 204.251 295.199 204.992 301.866C204.992 302.854 205.115 305.57 205.485 305.693C206.103 310.385 206.967 315.076 207.955 319.644C197.09 295.199 179.435 273.717 157.089 257.914C148.817 252.112 139.311 246.185 136.718 236.679C134.496 228.531 137.706 218.901 133.261 211.74C126.595 201.123 107.829 202.851 101.285 192.11C99.3099 188.9 98.6926 184.949 98.5691 180.999C99.8037 181.863 101.409 182.727 103.137 183.468Z" fill="url(#paint15_linear)"/>
<path d="M205.856 315.076C202.029 300.755 198.201 286.433 194.004 272.236C190.67 260.63 186.966 248.902 180.053 239.025C174.62 231.247 167.583 224.95 160.793 218.407C138.941 197.419 120.051 173.344 104.989 147.171C110.792 165.319 120.298 182.357 132.521 196.925C145.36 212.234 161.163 224.827 173.139 240.753C189.436 262.359 197.831 288.532 205.856 315.076Z" fill="url(#paint16_linear)"/>
<path d="M207.461 318.163C201.412 302.854 195.115 287.421 185.362 273.964C175.609 260.507 161.781 249.148 144.991 245.445C139.064 244.087 132.768 243.716 127.336 241C120.299 237.543 115.977 230.753 111.286 224.703C106.594 218.654 100.422 212.728 92.3966 212.11C84.2482 211.617 76.3468 216.925 68.1984 215.814C61.7785 214.827 56.9636 210.012 51.0375 207.419C41.778 203.345 30.7901 205.32 21.2836 209.024C10.0488 213.345 -1.55647 222.481 0.171974 233.839C1.53003 243.222 11.9007 249.148 21.9009 250.013C31.7777 251 41.778 248.284 51.6548 247.667C61.6551 246.926 72.7665 248.778 78.816 256.186C82.5198 260.877 83.7544 266.927 86.9644 271.865C93.7547 282.359 108.199 285.816 121.286 286.557C134.373 287.298 148.077 286.31 159.929 291.619C164.868 293.841 169.436 297.174 171.658 301.866C172.893 304.335 173.386 307.175 174.868 309.397C177.954 313.965 184.251 315.323 189.807 316.187C196.226 317.175 202.646 318.286 207.461 318.163Z" fill="url(#paint17_linear)"/>
<path d="M17.086 228.901C44.0003 226.185 60.9143 221.987 84.7421 237.049C96.2239 244.333 101.409 253.963 113.755 259.766C134.003 269.149 183.757 266.556 206.35 317.298C196.103 296.804 170.794 278.162 147.583 272.606C98.6931 261.001 104.619 257.914 95.977 249.519C76.2234 230.383 44.3707 229.765 17.086 228.901Z" fill="url(#paint18_linear)"/>
<path d="M207.584 319.891C200.053 317.175 194.251 311.619 188.818 306.064C183.386 300.508 178.201 294.582 171.287 290.754C164.373 286.927 155.361 285.446 148.323 289.273C146.348 290.384 144.496 291.866 142.397 292.73C135.731 295.693 128.199 292.977 121.039 291.742C111.285 290.014 99.8037 291.989 94.248 299.891C86.5934 310.755 93.6306 327.175 84.7415 337.175C92.0257 334.459 98.3221 329.274 102.149 322.731C104.125 319.274 105.483 315.446 108.075 312.483C112.397 307.545 119.434 305.446 126.101 304.459C131.903 303.594 138.694 303.594 142.644 307.668C144.373 309.52 145.36 311.99 147.459 313.595C150.422 316.064 154.99 315.817 158.941 314.829C162.768 313.841 166.596 312.113 170.546 311.99C177.707 311.743 183.88 316.311 190.67 318.656C196.349 320.632 202.646 320.879 207.584 319.891Z" fill="url(#paint19_linear)"/>
<path d="M219.93 307.298C227.09 305.57 232.399 301.866 238.572 308.286C242.646 312.607 242.77 319.274 246.721 323.718C250.918 328.533 258.326 329.397 263.758 332.854C269.931 336.682 273.511 343.842 272.771 350.756C271.906 346.065 268.203 342.114 263.758 339.768C259.313 337.546 254.128 336.805 249.066 336.805C245.609 336.805 241.906 337.546 238.819 336.311C219.312 328.78 225.856 314.212 207.831 320.632C205.608 314.335 208.325 312.73 211.164 309.891C214.004 307.298 217.707 307.915 219.93 307.298Z" fill="url(#paint20_linear)"/>
<path d="M204.374 312.113C199.436 312.854 195.115 311.496 193.14 318.163C191.905 322.607 193.757 327.916 192.646 332.36C191.411 337.299 187.09 340.015 184.744 344.336C182.028 349.028 181.905 355.571 184.374 360.756C183.51 356.806 184.621 352.731 186.72 349.768C188.818 346.805 191.781 344.707 194.868 343.348C196.967 342.361 199.436 341.867 201.041 340.015C210.918 328.657 202.646 319.274 215.609 319.027C215.115 313.471 213.017 313.101 210.547 311.743C208.078 310.385 205.979 311.99 204.374 312.113Z" fill="url(#paint21_linear)"/>
</g>
<defs>
<linearGradient id="paint0_linear" x1="620.598" y1="271.359" x2="300.51" y2="223.585" gradientUnits="userSpaceOnUse">
<stop stop-color="#B3FF7D"/>
<stop offset="1" stop-color="#12B4A9"/>
</linearGradient>
<linearGradient id="paint1_linear" x1="571.85" y1="272.367" x2="289.425" y2="231.95" gradientUnits="userSpaceOnUse">
<stop stop-color="#B3FF7D"/>
<stop offset="1" stop-color="#12B4A9"/>
</linearGradient>
<linearGradient id="paint2_linear" x1="252.606" y1="98.0706" x2="325.904" y2="240.08" gradientUnits="userSpaceOnUse">
<stop stop-color="#B3FF7D"/>
<stop offset="1" stop-color="#12B4A9"/>
</linearGradient>
<linearGradient id="paint3_linear" x1="273.453" y1="183.615" x2="289.579" y2="226.233" gradientUnits="userSpaceOnUse">
<stop stop-color="#B3FF7D"/>
<stop offset="1" stop-color="#12B4A9"/>
</linearGradient>
<linearGradient id="paint4_linear" x1="307.45" y1="120.542" x2="331.935" y2="156.062" gradientUnits="userSpaceOnUse">
<stop stop-color="#B3FF7D"/>
<stop offset="1" stop-color="#12B4A9"/>
</linearGradient>
<linearGradient id="paint5_linear" x1="245.778" y1="117.72" x2="315.337" y2="241.69" gradientUnits="userSpaceOnUse">
<stop stop-color="#B3FF7D"/>
<stop offset="1" stop-color="#12B4A9"/>
</linearGradient>
<linearGradient id="paint6_linear" x1="212.646" y1="63.03" x2="325.218" y2="185.584" gradientUnits="userSpaceOnUse">
<stop stop-color="#B3FF7D"/>
<stop offset="1" stop-color="#12B4A9"/>
</linearGradient>
<linearGradient id="paint7_linear" x1="193.496" y1="206.689" x2="212.134" y2="233.413" gradientUnits="userSpaceOnUse">
<stop stop-color="#B3FF7D"/>
<stop offset="1" stop-color="#12B4A9"/>
</linearGradient>
<linearGradient id="paint8_linear" x1="221.158" y1="227.508" x2="236.572" y2="260.225" gradientUnits="userSpaceOnUse">
<stop stop-color="#B3FF7D"/>
<stop offset="1" stop-color="#12B4A9"/>
</linearGradient>
<linearGradient id="paint9_linear" x1="216.521" y1="82.805" x2="298.165" y2="122.745" gradientUnits="userSpaceOnUse">
<stop stop-color="#B3FF7D"/>
<stop offset="1" stop-color="#12B4A9"/>
</linearGradient>
<linearGradient id="paint10_linear" x1="246.641" y1="280.653" x2="249.9" y2="311.992" gradientUnits="userSpaceOnUse">
<stop stop-color="#B3FF7D"/>
<stop offset="1" stop-color="#12B4A9"/>
</linearGradient>
<linearGradient id="paint11_linear" x1="248.518" y1="254.461" x2="258.205" y2="310.088" gradientUnits="userSpaceOnUse">
<stop stop-color="#B3FF7D"/>
<stop offset="1" stop-color="#12B4A9"/>
</linearGradient>
<linearGradient id="paint12_linear" x1="251.073" y1="180.664" x2="288.352" y2="290.665" gradientUnits="userSpaceOnUse">
<stop stop-color="#B3FF7D"/>
<stop offset="1" stop-color="#12B4A9"/>
</linearGradient>
<linearGradient id="paint13_linear" x1="244.45" y1="198.779" x2="277.883" y2="291.348" gradientUnits="userSpaceOnUse">
<stop stop-color="#B3FF7D"/>
<stop offset="1" stop-color="#12B4A9"/>
</linearGradient>
<linearGradient id="paint14_linear" x1="122.966" y1="94.1284" x2="199.233" y2="256.482" gradientUnits="userSpaceOnUse">
<stop stop-color="#B3FF7D"/>
<stop offset="1" stop-color="#12B4A9"/>
</linearGradient>
<linearGradient id="paint15_linear" x1="139.928" y1="155.463" x2="192.002" y2="277.625" gradientUnits="userSpaceOnUse">
<stop stop-color="#B3FF7D"/>
<stop offset="1" stop-color="#12B4A9"/>
</linearGradient>
<linearGradient id="paint16_linear" x1="143.127" y1="116.245" x2="217.644" y2="249.354" gradientUnits="userSpaceOnUse">
<stop stop-color="#B3FF7D"/>
<stop offset="1" stop-color="#12B4A9"/>
</linearGradient>
<linearGradient id="paint17_linear" x1="78.4413" y1="184.341" x2="99.2996" y2="298.193" gradientUnits="userSpaceOnUse">
<stop stop-color="#B3FF7D"/>
<stop offset="1" stop-color="#12B4A9"/>
</linearGradient>
<linearGradient id="paint18_linear" x1="88.647" y1="209.448" x2="103.602" y2="301.857" gradientUnits="userSpaceOnUse">
<stop stop-color="#B3FF7D"/>
<stop offset="1" stop-color="#12B4A9"/>
</linearGradient>
<linearGradient id="paint19_linear" x1="131.188" y1="277.804" x2="138.221" y2="329.042" gradientUnits="userSpaceOnUse">
<stop stop-color="#B3FF7D"/>
<stop offset="1" stop-color="#12B4A9"/>
</linearGradient>
<linearGradient id="paint20_linear" x1="231.913" y1="296.167" x2="242.62" y2="341.645" gradientUnits="userSpaceOnUse">
<stop stop-color="#B3FF7D"/>
<stop offset="1" stop-color="#12B4A9"/>
</linearGradient>
<linearGradient id="paint21_linear" x1="195.087" y1="302.073" x2="215.851" y2="343.185" gradientUnits="userSpaceOnUse">
<stop stop-color="#B3FF7D"/>
<stop offset="1" stop-color="#12B4A9"/>
</linearGradient>
<clipPath id="clip0">
<rect width="174" height="312" fill="white" transform="translate(264)"/>
</clipPath>
<clipPath id="clip1">
<rect width="324" height="209" fill="white" transform="translate(0 103)"/>
</clipPath>
</defs>
</svg>
