<svg width="445" height="302" viewBox="0 0 445 302" fill="none" xmlns="http://www.w3.org/2000/svg">
<path d="M430.853 126.371C426.658 175.394 387.169 183.967 367.25 185.215C367.749 185.35 368.309 185.374 368.808 185.509C370.975 185.998 372.971 186.535 374.98 186.793C376.988 187.05 378.875 187.526 380.774 187.723C382.673 187.919 384.292 188.103 386.02 188.348C386.41 188.422 386.8 188.495 387.25 188.459C387.64 188.532 388.09 188.496 388.37 188.509C389.101 188.485 389.88 188.632 390.61 188.608C392.01 188.67 393.41 188.732 394.64 188.843C399.412 188.774 402.212 188.898 402.212 188.898L402.297 189.519C402.297 189.519 399.63 190.186 394.82 191.095C392.397 191.325 389.402 191.809 386.03 191.94C384.289 191.975 382.438 191.949 380.527 192.032C378.676 192.006 376.607 191.859 374.427 191.65C372.297 191.611 370.13 191.122 367.842 190.853C366.673 190.632 365.553 190.583 364.446 190.253C363.277 190.033 362.169 189.703 361.001 189.483C359.832 189.263 358.554 188.982 357.447 188.652C357.337 188.591 357.228 188.53 357.057 188.579C369.269 229.52 331.133 249.319 331.133 249.319C342.097 241.22 341.729 216.627 341.729 216.627C334.895 249.261 307.463 252.926 307.463 252.926C320.616 247.337 327.03 221.643 327.03 221.643C307.276 257.126 273.119 251.739 273.119 251.739C285.49 249.875 295.695 233.607 295.695 233.607C256.484 257.398 233.647 240.955 233.647 240.955C256.412 242.582 285.24 216.31 285.24 216.31C254.127 224.525 233.589 209.362 233.589 209.362C255.754 215.676 278.193 199.333 278.193 199.333C225.874 206.214 219.756 184.733 219.756 184.733C239.035 191.592 265.435 184.627 265.435 184.627C219.756 184.733 214.648 165.821 214.648 165.821C233.427 172.546 262.442 168.615 262.442 168.615C198.857 166.355 189.027 129.896 189.027 129.896C200.785 146.914 245.618 153.224 245.618 153.224C213.179 147.071 196.91 109.036 196.91 109.036C207.679 129.377 231.744 134.597 231.744 134.597C203.594 122.799 199.075 84.2752 199.075 84.2752C202.704 97.3416 221.888 113.904 221.888 113.904C202.564 90.3776 207.345 66.0693 207.345 66.0693C209.988 78.587 222.481 90.4194 222.481 90.4194C209.075 65.0238 218.2 43.9943 218.2 43.9943C222.219 69.7591 234.451 87.4715 234.451 87.4715C213.514 42.1032 229.78 13.1421 229.78 13.1421C236.857 64.8534 253.793 77.7245 253.793 77.7245C263.298 67.0923 261.643 24.7114 261.643 24.7114C279.503 38.2408 272.766 85.1311 272.766 85.1311C276.576 58.7035 300.795 40.1952 300.795 40.1952C288.191 85.2542 291.435 107.001 291.435 107.001C301.519 75.7454 333.314 67.3363 333.314 67.3363C307.93 94.378 308.449 128.236 308.449 128.236C319.693 106.234 348.043 83.1395 348.043 83.1395C352.591 103.317 323.039 149.7 323.039 149.7C341.191 136.421 369.831 73.8938 369.831 73.8938C378.249 109.28 345.538 149.744 345.538 149.744C369.666 137.067 382.667 83.0481 382.667 83.0481C395.947 127.74 369.346 155.682 369.346 155.682C398.247 142.936 409.754 112.473 409.754 112.473C415.917 137.996 392.373 164.054 392.373 164.054C413.48 153.712 430.853 126.371 430.853 126.371Z" fill="url(#paint0_linear)"/>
<path d="M303.456 158.595C257.504 123.114 230.349 73.7107 225.679 25.9217C222.929 38.593 221.863 60.0922 234.549 87.8125C234.549 87.8125 222.317 70.1 218.298 44.3353C218.298 44.3353 209.282 65.4258 222.579 90.7604C222.579 90.7604 210.196 78.989 207.443 66.4103C207.443 66.4103 202.661 90.7186 221.986 114.245C221.986 114.245 202.753 97.512 199.173 84.6161C199.173 84.6161 203.692 123.14 231.842 134.938C231.842 134.938 207.777 129.718 197.008 109.377C197.008 109.377 213.228 147.242 245.716 153.565C245.716 153.565 200.774 147.194 189.125 130.237C189.125 130.237 198.894 166.806 262.54 168.956C262.54 168.956 233.354 172.936 214.745 166.162C214.745 166.162 219.915 184.964 265.594 184.858C265.594 184.858 239.255 191.714 219.915 184.964C219.915 184.964 226.032 206.446 278.352 199.564C278.352 199.564 255.974 215.797 233.748 209.593C233.748 209.593 254.286 224.756 285.399 216.542C285.399 216.542 256.68 242.874 233.806 241.186C233.806 241.186 256.704 257.52 295.854 233.838C295.854 233.838 285.71 249.997 273.278 251.971C273.278 251.971 307.435 257.358 327.189 221.874C327.189 221.874 320.836 247.459 307.622 253.158C307.622 253.158 335.115 249.383 341.888 216.859C341.888 216.859 342.256 241.452 331.292 249.55C331.292 249.55 369.196 229.91 357.252 189.261C338.62 181.757 320.44 171.636 303.456 158.595Z" fill="url(#paint1_linear)"/>
<path d="M228.756 107.242C230.61 109.713 231.228 112.273 230.08 115.01C229.021 117.746 227.255 120.483 227.696 123.308C227.961 124.808 228.756 126.133 229.109 127.633C229.727 130.546 228.314 133.724 225.843 135.931C223.459 138.138 220.193 139.462 216.927 140.257C215.603 140.61 214.102 140.875 213.308 141.934C212.16 143.435 213.396 145.377 214.102 146.966C216.221 151.732 213.131 158.088 207.57 160.207C203.156 161.972 197.33 161.619 194.858 165.327C192.475 168.858 195.388 173.36 194.24 177.332C192.74 182.364 185.854 184.218 180.911 187.131C174.113 191.191 170.406 198.165 166.698 204.698C161.843 213.172 156.282 221.382 150.191 229.238C154.075 221.205 156.194 212.554 156.458 203.903C156.635 196.841 155.576 189.956 156.105 182.894C156.282 180.157 156.811 177.332 158.312 174.861C162.549 167.975 173.76 165.239 175.879 157.735C176.673 154.822 175.879 151.909 175.526 148.996C175.173 146.083 175.526 142.728 177.998 140.698C180.469 138.579 184.353 138.403 186.913 136.284C190.091 133.724 189.915 129.399 191.327 125.868C193.004 121.631 197.418 118.276 202.362 117.482C204.215 117.217 206.246 117.217 208.011 116.511C210.483 115.54 212.072 113.421 213.837 111.479C216.132 109.007 218.957 106.712 222.4 106.006C225.754 105.211 228.05 106.359 228.756 107.242Z" fill="url(#paint2_linear)"/>
<path d="M188.414 180.156C188.59 177.773 187.884 175.566 187.266 173.271C186.56 170.887 185.854 168.504 185.148 166.032C184.53 163.914 184 161.707 184.442 159.5C184.795 157.293 185.854 155.086 187.443 153.409C189.032 151.643 190.886 150.319 193.446 150.319C196.094 150.319 198.389 151.555 200.508 152.615C202.538 153.586 204.833 154.468 207.217 154.821C209.512 155.175 211.807 154.91 213.837 153.674C213.926 153.586 214.014 153.586 214.014 153.497C212.954 156.41 210.659 158.97 207.481 160.206C203.068 161.972 197.241 161.619 194.77 165.326C192.386 168.857 195.299 173.359 194.152 177.332C193.269 180.245 190.533 182.098 187.443 183.776C187.973 182.54 188.326 181.392 188.414 180.156Z" fill="url(#paint3_linear)"/>
<path d="M216.838 140.168C215.602 140.433 214.19 140.786 213.396 141.668C213.307 140.697 213.042 139.815 213.307 138.755C213.484 137.784 213.925 136.902 214.631 136.019C214.985 135.577 215.338 135.136 215.779 134.783C216.22 134.43 216.838 134.165 217.368 133.9C219.31 132.841 221.164 131.693 222.576 130.016C223.812 128.515 224.695 126.75 224.871 124.896C225.136 122.601 224.43 120.306 223.724 118.187C223.282 117.04 222.929 115.804 222.488 114.656C222.135 113.773 221.782 112.802 221.693 111.92C221.34 109.978 221.605 107.859 222.841 106.093C222.929 106.005 222.929 105.917 222.929 105.829C226.107 105.299 228.226 106.358 228.844 107.241C230.698 109.713 231.316 112.273 230.168 115.009C229.109 117.746 227.343 120.482 227.696 123.307C227.961 124.808 228.756 126.132 229.109 127.633C229.727 130.546 228.314 133.724 225.842 135.93C223.371 138.049 220.193 139.461 216.838 140.168Z" fill="url(#paint4_linear)"/>
<path d="M217.457 117.834C215.868 130.104 193.004 151.82 181.264 169.21C168.464 188.278 161.402 209.729 150.367 229.591L157.959 211.318C160.784 204.609 163.52 197.811 166.61 191.191C178.262 166.474 199.978 145.553 214.897 122.248C216.485 119.776 216.397 118.893 217.192 117.658C217.192 117.658 217.103 117.658 217.457 117.834Z" fill="url(#paint5_linear)"/>
<path d="M183.294 96.5597C183.471 99.1196 179.94 100.973 179.94 103.533C179.851 106.976 182.676 109.801 184.883 112.537C187.002 115.274 188.591 119.423 186.119 122.071C184.707 123.572 182.411 124.102 181.264 125.779C177.733 130.722 187.973 136.99 184.618 142.021C183.118 144.405 179.322 144.846 177.998 147.318C176.497 150.143 179.234 153.232 179.234 156.41C179.234 159.765 175.967 162.413 172.789 163.825C171.995 164.178 171.112 164.532 170.671 165.238C169.523 167.18 172.083 169.034 173.319 170.887C174.82 173.183 173.937 176.361 172.172 178.567C170.494 180.774 168.023 182.363 165.904 184.305C158.136 191.367 155.576 201.96 154.34 212.024C153.104 222.087 152.839 232.504 148.337 241.684C143.923 222.087 139.598 202.49 135.184 182.893C134.037 177.861 132.889 172.653 133.595 167.533C133.86 165.503 134.39 163.561 134.478 161.53C134.743 155.528 130.947 149.966 130.594 143.963C129.976 133.724 138.98 125.514 143.835 116.245C148.249 107.859 149.75 97.5306 157.253 91.4397C160.519 88.6148 181.97 79.6108 183.294 96.5597Z" fill="url(#paint6_linear)"/>
<path d="M133.86 165.679C135.449 167.18 136.773 168.857 137.921 170.622C138.627 171.77 139.157 172.917 139.863 173.977C140.658 175.124 141.364 176.272 142.07 177.508C143.482 179.979 144.718 182.628 145.601 185.276C146.042 186.688 146.396 188.189 146.484 189.69C146.572 190.661 146.572 191.985 146.219 192.956H146.131C142.6 190.219 139.245 187.306 135.626 184.658C135.449 183.952 135.361 183.334 135.185 182.628C134.037 177.596 132.889 172.388 133.596 167.268C133.684 166.826 133.772 166.297 133.86 165.679Z" fill="url(#paint7_linear)"/>
<path d="M150.721 208.051C150.897 205.844 151.25 203.637 151.868 201.43C152.486 199.135 153.281 196.928 154.34 194.81C154.869 193.75 155.664 192.779 156.458 191.897C157.253 191.014 158.136 190.219 158.93 189.337C160.431 187.395 162.02 185.541 163.874 183.952C165.816 182.275 167.758 180.951 170.318 180.597C168.905 181.833 167.405 182.981 165.992 184.305C160.343 189.513 157.429 196.575 155.752 203.99C154.163 205.491 152.751 207.168 150.721 208.051Z" fill="url(#paint8_linear)"/>
<path d="M169.348 98.2367C159.549 125.249 158.754 146.965 154.87 177.773C154.076 184.305 151.339 195.34 150.104 201.872C147.72 214.584 148.338 227.472 148.868 240.272C147.808 234.534 147.808 229.855 146.749 224.117C145.16 215.29 146.308 199.135 147.72 194.81C152.84 178.832 153.899 162.06 155.753 145.464C157.783 128.957 160.785 112.096 169.348 98.2367Z" fill="url(#paint9_linear)"/>
<path d="M149.749 239.301C154.251 232.592 158.93 225.707 165.727 221.381C172.524 217.056 181.97 215.82 188.414 220.675C189.208 221.293 190.003 221.999 190.974 222.352C193.269 223.235 195.741 221.999 197.859 220.851C202.008 218.733 206.687 217.144 211.277 217.938C215.867 218.733 220.193 222.617 220.105 227.207C218.692 223.147 213.043 222.529 209.158 224.294C205.274 226.06 202.273 229.414 198.477 231.356C193.622 233.74 187.619 233.563 183.029 230.826C179.939 229.061 176.761 226.06 173.407 227.384C171.641 228.09 169.699 232.68 168.287 233.916C163.167 238.595 155.31 234.799 149.749 239.301Z" fill="url(#paint10_linear)"/>
<path d="M148.955 240.272C153.722 227.56 162.991 218.821 172.966 209.64C175.261 207.522 177.645 205.491 180.558 204.52C183.471 203.461 186.914 203.638 189.385 205.491C190.445 206.286 191.327 207.433 192.563 207.963C195.211 208.934 197.683 206.639 199.978 205.05C204.127 202.137 209.689 201.254 214.455 202.843C219.311 204.432 223.283 208.316 224.96 213.083C222.224 211.141 219.134 209.022 215.78 209.552C212.602 209.993 210.307 212.73 208.011 215.025C205.716 217.32 202.538 219.439 199.449 218.556C197.948 218.115 196.712 216.967 195.211 216.614C191.416 215.82 188.326 220.145 184.442 220.233C181.882 220.322 179.587 218.556 177.027 218.38C174.202 218.203 171.73 219.88 169.523 221.646C162.638 227.119 156.37 231.886 150.015 241.419L148.955 240.272Z" fill="url(#paint11_linear)"/>
<path d="M148.778 241.772C157.429 238.859 162.285 230.208 165.992 222.175C169.7 214.142 173.672 205.315 181.882 201.254C185.589 199.4 189.738 198.782 193.534 197.282C198.831 195.163 203.244 191.191 205.804 186.335C207.481 183.158 208.541 179.538 211.454 177.331C215.073 174.683 220.281 175.213 224.254 173.006C229.55 170.005 230.874 163.384 231.492 157.558C230.433 159.941 227.432 160.824 224.783 161.265C218.869 162.325 212.866 162.854 206.864 162.854C200.066 162.854 192.298 162.501 187.355 167.091C182.323 171.77 182.411 179.715 177.644 184.658C174.202 188.189 169.082 189.425 164.668 191.72C156.105 196.399 150.897 205.491 148.955 214.672C147.189 223.764 148.072 233.21 148.778 241.772Z" fill="url(#paint12_linear)"/>
<path d="M149.484 240.095C154.869 232.15 155.752 222.175 160.077 213.701C163.608 206.815 169.346 200.989 176.32 197.282C181.617 194.457 187.708 192.78 192.386 189.072C196.712 185.717 199.537 181.039 202.979 176.89C206.422 172.741 210.924 168.857 216.397 168.327C211.277 167.709 206.157 170.269 202.185 173.624C198.212 176.89 195.034 180.951 191.239 184.393C183.647 191.102 173.672 194.898 166.345 201.784C155.575 211.935 152.221 227.119 149.484 240.095Z" fill="url(#paint13_linear)"/>
<path d="M74.4508 106.711C81.0714 108.918 86.2797 114.656 87.6038 121.277C88.0452 123.395 88.1335 125.602 89.1928 127.456C91.7527 131.958 98.1968 132.311 103.317 133.988C110.732 136.548 116.293 143.346 116.911 150.937C117.176 154.556 116.558 158.441 118.147 161.707C120.619 166.474 126.886 167.886 131.565 170.711C138.627 174.86 142.599 182.628 144.188 190.485C145.777 198.341 145.248 206.462 145.424 214.407C145.601 223.411 146.66 232.504 148.514 241.331C140.746 223.853 128.122 208.493 112.144 197.193C106.23 193.045 99.4327 188.807 97.5789 182.01C95.99 176.184 98.2851 169.298 95.1072 164.178C90.3403 156.587 76.9225 157.823 72.2439 150.143C68.0067 143.257 72.8618 132.223 65.9763 127.721C64.2991 126.661 62.2688 126.22 60.415 125.514C57.2371 124.278 54.5006 121.983 52.8233 119.07C51.6757 117.128 50.2634 114.391 51.6758 112.626C58.7378 103.622 67.8301 104.504 74.4508 106.711Z" fill="url(#paint14_linear)"/>
<path d="M73.7443 144.052C78.0698 145.817 82.9249 146.082 87.1621 148.024C91.3111 149.878 94.2241 153.056 96.431 156.763C98.6379 160.383 100.139 164.267 102.257 167.886C104.288 171.417 106.936 174.86 110.82 176.713C113.027 177.773 115.498 178.391 117.97 178.832C119.206 179.009 120.442 179.185 121.766 179.362C123.002 179.538 124.149 179.803 125.297 180.156C129.534 181.392 133.683 183.334 136.861 186.247C138.538 187.836 139.774 189.513 140.657 191.544C141.716 193.927 142.422 196.487 143.04 198.959C144.188 203.902 144.894 208.846 145.6 213.877C145.6 214.054 145.6 214.319 145.6 214.495C145.689 219.262 146.042 223.941 146.571 228.708C146.571 229.414 146.66 231.356 146.925 231.444C147.366 234.799 147.984 238.153 148.69 241.419C140.922 223.941 128.298 208.581 112.321 197.282C106.406 193.133 99.6089 188.895 97.7552 182.098C96.1662 176.272 98.4614 169.387 95.2835 164.267C90.5166 156.675 77.0987 157.911 72.4202 150.231C71.0078 147.936 70.5664 145.111 70.4781 142.286C71.3608 142.904 72.5084 143.522 73.7443 144.052Z" fill="url(#paint15_linear)"/>
<path d="M147.189 238.153C144.453 227.913 141.716 217.673 138.715 207.521C136.331 199.224 133.683 190.837 128.74 183.775C124.856 178.214 119.824 173.712 114.969 169.033C99.3441 154.027 85.838 136.813 75.0684 118.099C79.2173 131.075 86.0145 143.257 94.7538 153.674C103.934 164.62 115.234 173.624 123.796 185.011C135.449 200.459 141.451 219.174 147.189 238.153Z" fill="url(#paint16_linear)"/>
<path d="M148.337 240.36C144.012 229.414 139.51 218.38 132.536 208.758C125.562 199.136 115.675 191.014 103.67 188.366C99.4327 187.395 94.9306 187.13 91.0465 185.188C86.0148 182.716 82.9252 177.861 79.5707 173.536C76.2163 169.21 71.8025 164.973 66.0646 164.532C60.2385 164.179 54.5888 167.974 48.7627 167.18C44.1723 166.474 40.7296 163.031 36.4924 161.177C29.8717 158.264 22.0152 159.677 15.218 162.325C7.18499 165.414 -1.11289 171.947 0.122963 180.068C1.09399 186.777 8.50912 191.014 15.6594 191.632C22.7214 192.338 29.8717 190.396 36.9338 189.955C44.0841 189.425 52.0288 190.749 56.3543 196.046C59.0026 199.4 59.8854 203.726 62.1805 207.257C67.0357 214.76 77.3639 217.232 86.721 217.762C96.0782 218.291 105.877 217.585 114.351 221.381C117.882 222.97 121.148 225.353 122.737 228.708C123.62 230.473 123.973 232.504 125.033 234.093C127.239 237.359 131.741 238.33 135.714 238.948C140.304 239.654 144.894 240.448 148.337 240.36Z" fill="url(#paint17_linear)"/>
<path d="M12.2166 176.537C31.4606 174.595 43.5543 171.594 60.5915 182.363C68.8011 187.572 72.5086 194.457 81.3362 198.606C95.8133 205.315 131.388 203.461 147.543 239.742C140.216 225.089 122.119 211.759 105.524 207.787C70.5666 199.489 74.8038 197.282 68.6245 191.279C54.5005 177.597 31.7255 177.155 12.2166 176.537Z" fill="url(#paint18_linear)"/>
<path d="M148.425 241.596C143.04 239.654 138.891 235.681 135.007 231.709C131.123 227.737 127.416 223.499 122.472 220.763C117.529 218.026 111.085 216.967 106.053 219.704C104.641 220.498 103.317 221.557 101.816 222.175C97.049 224.294 91.6642 222.352 86.5442 221.469C79.5705 220.233 71.3609 221.646 67.3885 227.295C61.9154 235.063 66.9471 246.804 60.5913 253.954C65.7995 252.012 70.3016 248.305 73.0381 243.626C74.4505 241.154 75.4215 238.418 77.2753 236.299C80.365 232.768 85.3966 231.268 90.1635 230.561C94.3124 229.943 99.1676 229.943 101.992 232.857C103.228 234.181 103.934 235.946 105.435 237.094C107.554 238.859 110.82 238.683 113.645 237.976C116.381 237.27 119.118 236.034 121.943 235.946C127.063 235.77 131.476 239.036 136.331 240.713C140.392 242.125 144.894 242.302 148.425 241.596Z" fill="url(#paint19_linear)"/>
<path d="M157.252 232.592C162.372 231.356 166.168 228.708 170.582 233.298C173.495 236.388 173.583 241.154 176.408 244.332C179.409 247.775 184.706 248.393 188.59 250.865C193.004 253.601 195.564 258.721 195.034 263.665C194.416 260.31 191.768 257.485 188.59 255.808C185.412 254.219 181.705 253.69 178.085 253.69C175.614 253.69 172.965 254.219 170.758 253.336C156.811 247.952 161.49 237.535 148.601 242.125C147.012 237.623 148.954 236.476 150.985 234.446C153.015 232.592 155.663 233.033 157.252 232.592Z" fill="url(#paint20_linear)"/>
<path d="M146.13 236.035C142.599 236.564 139.51 235.593 138.097 240.36C137.214 243.538 138.538 247.334 137.744 250.512C136.861 254.043 133.772 255.985 132.094 259.074C130.152 262.429 130.064 267.107 131.83 270.815C131.212 267.99 132.006 265.077 133.507 262.959C135.007 260.84 137.126 259.339 139.333 258.368C140.834 257.662 142.599 257.309 143.747 255.985C150.809 247.863 144.894 241.155 154.163 240.978C153.81 237.006 152.309 236.741 150.544 235.77C148.778 234.799 147.278 235.946 146.13 236.035Z" fill="url(#paint21_linear)"/>
<defs>
<linearGradient id="paint0_linear" x1="443.735" y1="206.895" x2="214.868" y2="172.736" gradientUnits="userSpaceOnUse">
<stop stop-color="#B3FF7D"/>
<stop offset="1" stop-color="#12B4A9"/>
</linearGradient>
<linearGradient id="paint1_linear" x1="408.879" y1="207.616" x2="206.942" y2="178.717" gradientUnits="userSpaceOnUse">
<stop stop-color="#B3FF7D"/>
<stop offset="1" stop-color="#12B4A9"/>
</linearGradient>
<linearGradient id="paint2_linear" x1="180.616" y1="82.9925" x2="233.025" y2="184.531" gradientUnits="userSpaceOnUse">
<stop stop-color="#B3FF7D"/>
<stop offset="1" stop-color="#12B4A9"/>
</linearGradient>
<linearGradient id="paint3_linear" x1="195.522" y1="144.157" x2="207.052" y2="174.629" gradientUnits="userSpaceOnUse">
<stop stop-color="#B3FF7D"/>
<stop offset="1" stop-color="#12B4A9"/>
</linearGradient>
<linearGradient id="paint4_linear" x1="219.83" y1="99.0595" x2="237.337" y2="124.456" gradientUnits="userSpaceOnUse">
<stop stop-color="#B3FF7D"/>
<stop offset="1" stop-color="#12B4A9"/>
</linearGradient>
<linearGradient id="paint5_linear" x1="175.734" y1="97.0415" x2="225.469" y2="185.681" gradientUnits="userSpaceOnUse">
<stop stop-color="#B3FF7D"/>
<stop offset="1" stop-color="#12B4A9"/>
</linearGradient>
<linearGradient id="paint6_linear" x1="152.044" y1="57.9374" x2="232.535" y2="145.565" gradientUnits="userSpaceOnUse">
<stop stop-color="#B3FF7D"/>
<stop offset="1" stop-color="#12B4A9"/>
</linearGradient>
<linearGradient id="paint7_linear" x1="138.352" y1="160.655" x2="151.678" y2="179.763" gradientUnits="userSpaceOnUse">
<stop stop-color="#B3FF7D"/>
<stop offset="1" stop-color="#12B4A9"/>
</linearGradient>
<linearGradient id="paint8_linear" x1="158.13" y1="175.541" x2="169.151" y2="198.934" gradientUnits="userSpaceOnUse">
<stop stop-color="#B3FF7D"/>
<stop offset="1" stop-color="#12B4A9"/>
</linearGradient>
<linearGradient id="paint9_linear" x1="154.815" y1="72.0765" x2="213.192" y2="100.634" gradientUnits="userSpaceOnUse">
<stop stop-color="#B3FF7D"/>
<stop offset="1" stop-color="#12B4A9"/>
</linearGradient>
<linearGradient id="paint10_linear" x1="176.351" y1="213.54" x2="178.681" y2="235.949" gradientUnits="userSpaceOnUse">
<stop stop-color="#B3FF7D"/>
<stop offset="1" stop-color="#12B4A9"/>
</linearGradient>
<linearGradient id="paint11_linear" x1="177.693" y1="194.813" x2="184.619" y2="234.586" gradientUnits="userSpaceOnUse">
<stop stop-color="#B3FF7D"/>
<stop offset="1" stop-color="#12B4A9"/>
</linearGradient>
<linearGradient id="paint12_linear" x1="179.52" y1="142.047" x2="206.175" y2="220.699" gradientUnits="userSpaceOnUse">
<stop stop-color="#B3FF7D"/>
<stop offset="1" stop-color="#12B4A9"/>
</linearGradient>
<linearGradient id="paint13_linear" x1="174.784" y1="155" x2="198.689" y2="221.187" gradientUnits="userSpaceOnUse">
<stop stop-color="#B3FF7D"/>
<stop offset="1" stop-color="#12B4A9"/>
</linearGradient>
<linearGradient id="paint14_linear" x1="87.9222" y1="80.173" x2="142.454" y2="196.257" gradientUnits="userSpaceOnUse">
<stop stop-color="#B3FF7D"/>
<stop offset="1" stop-color="#12B4A9"/>
</linearGradient>
<linearGradient id="paint15_linear" x1="100.05" y1="124.028" x2="137.283" y2="211.375" gradientUnits="userSpaceOnUse">
<stop stop-color="#B3FF7D"/>
<stop offset="1" stop-color="#12B4A9"/>
</linearGradient>
<linearGradient id="paint16_linear" x1="102.337" y1="95.9869" x2="155.618" y2="191.161" gradientUnits="userSpaceOnUse">
<stop stop-color="#B3FF7D"/>
<stop offset="1" stop-color="#12B4A9"/>
</linearGradient>
<linearGradient id="paint17_linear" x1="56.0864" y1="144.676" x2="71.0003" y2="226.082" gradientUnits="userSpaceOnUse">
<stop stop-color="#B3FF7D"/>
<stop offset="1" stop-color="#12B4A9"/>
</linearGradient>
<linearGradient id="paint18_linear" x1="63.3835" y1="162.628" x2="74.0766" y2="228.702" gradientUnits="userSpaceOnUse">
<stop stop-color="#B3FF7D"/>
<stop offset="1" stop-color="#12B4A9"/>
</linearGradient>
<linearGradient id="paint19_linear" x1="93.8014" y1="211.503" x2="98.83" y2="248.139" gradientUnits="userSpaceOnUse">
<stop stop-color="#B3FF7D"/>
<stop offset="1" stop-color="#12B4A9"/>
</linearGradient>
<linearGradient id="paint20_linear" x1="165.821" y1="224.633" x2="173.476" y2="257.15" gradientUnits="userSpaceOnUse">
<stop stop-color="#B3FF7D"/>
<stop offset="1" stop-color="#12B4A9"/>
</linearGradient>
<linearGradient id="paint21_linear" x1="139.49" y1="228.856" x2="154.336" y2="258.251" gradientUnits="userSpaceOnUse">
<stop stop-color="#B3FF7D"/>
<stop offset="1" stop-color="#12B4A9"/>
</linearGradient>
</defs>
</svg>
