<svg width="138" height="145" viewBox="0 0 138 145" fill="none" xmlns="http://www.w3.org/2000/svg">
<path d="M50.254 80.9397L39.3763 126.182C39.1191 127.252 39.7795 128.331 40.8495 128.588L104.25 143.831C104.652 143.928 105.085 143.891 105.434 143.762C106.016 143.549 106.495 143.027 106.656 142.358L117.534 97.1157C117.638 96.681 117.593 96.281 117.439 95.8904C117.225 95.3084 116.696 94.8627 116.061 94.71L52.6598 79.4665C51.8238 79.2655 50.9929 79.6317 50.5486 80.303C50.4 80.4796 50.3103 80.7056 50.254 80.9397Z" fill="#FFCF3B"/>
<path d="M50.2537 80.9399L39.376 126.182C39.1187 127.253 39.7791 128.331 40.8492 128.588L104.25 143.832C104.651 143.928 105.085 143.891 105.434 143.763L50.5482 80.3033C50.3997 80.4798 50.3099 80.7059 50.2537 80.9399Z" fill="#FFBC2C"/>
<path d="M50.0778 81.6755L76.5493 115.312C77.5788 116.62 79.1665 116.931 80.6691 116.125L117.368 96.1915C117.194 95.4423 116.697 94.8629 116.061 94.7101L52.6604 79.4667C51.8245 79.2657 50.9534 79.7991 50.4447 80.7379L50.0778 81.6755Z" fill="#D57C28"/>
<path d="M50.2547 80.9398L78.3824 107.688C79.4762 108.729 81.0559 109.073 82.4941 108.535L117.44 95.8905C117.226 95.3086 116.697 94.8629 116.061 94.7101L52.6604 79.4667C51.8245 79.2657 50.9936 79.6319 50.5492 80.3032L50.2547 80.9398Z" fill="#FECC37"/>
<path d="M99.4242 98.881L99.5017 99.1473C99.8035 100.246 99.1717 101.402 98.0733 101.704L88.513 104.393C87.4147 104.695 86.2578 104.063 85.9559 102.965L85.8785 102.699C85.5766 101.6 86.2085 100.443 87.3068 100.142L96.8671 97.4527C97.9735 97.1174 99.1223 97.7827 99.4242 98.881Z" fill="#FFF35A"/>
<g clip-path="url(#clip0)">
<path d="M136.276 79.0164C137.29 79.5482 138.473 80.7148 137.797 81.6412C137.476 82.0872 136.884 82.1901 136.36 82.2587C134.433 82.4818 132.489 82.5675 130.562 82.4818C131.272 82.4303 131.525 83.5797 131.001 84.0943C130.477 84.5918 129.682 84.5747 128.972 84.5232C123.867 84.0943 118.846 82.9106 113.859 81.7098C110.528 80.9206 107.198 80.1315 103.868 79.3424C111.019 81.8642 123.596 86.3931 117.849 88.2287C114.281 89.4467 90.9518 74.9678 79.6082 68.2602C75.5509 65.8584 71.2399 63.5425 68.4505 59.6998C65.6611 55.857 64.968 49.9557 68.2646 46.5761C71.9162 42.8363 78.8136 43.1451 83.4288 44.4317C87.3678 45.5468 88.6865 48.2916 91.3406 51.1051C98.9481 59.168 109.48 64.8463 119.083 70.0271C124.78 73.0979 130.562 75.98 136.276 79.0164Z" fill="#3F3F44"/>
<path d="M122.498 74.5217C123.884 75.1221 125.321 75.7569 126.267 76.9406C125.101 76.8719 123.934 76.8205 122.751 76.7519C124.374 77.541 125.794 78.759 126.808 80.2515C125.355 80.423 123.918 79.8741 122.548 79.308C116.378 76.8033 110.258 74.1271 104.223 71.2965C107.79 73.561 111.374 75.8255 114.636 78.536C109.565 77.1464 104.442 75.9284 99.2862 74.8991C100.453 75.3966 101.399 76.3916 101.873 77.5753C97.3252 75.9799 92.8621 74.1786 88.4667 72.1886C87.9088 71.9313 87.334 71.6739 86.8945 71.2279C85.8294 70.1643 85.8801 68.3287 86.5902 67.0078C87.8412 64.6575 90.7489 62.8734 92.9466 61.5696C95.0767 60.3173 96.7673 59.6997 98.9481 61.175C103.851 64.5031 108.415 67.8484 113.74 70.4902C116.631 71.9313 119.556 73.2351 122.498 74.5217Z" fill="#303033"/>
<path d="M34.0139 27.105C22.907 22.3359 12.3241 15.9027 4.41229 6.91345C3.212 5.5582 1.94409 4.0657 0.152098 3.70544C-0.0338632 5.35234 0.422587 7.05069 1.3862 8.40595C0.929753 8.32017 0.456398 8.2344 -5.20626e-05 8.14862C-0.0676742 10.6361 1.065 13.0035 2.50197 15.045C3.93894 17.0864 5.71402 18.8877 7.20171 20.8949C6.32262 19.9513 5.05471 19.3681 3.75298 19.2994C4.68278 22.8849 6.5762 26.213 9.21347 28.872C8.62177 28.5632 8.03008 28.2373 7.43839 27.9285C7.10028 28.1172 7.20171 28.5975 7.37076 28.9406C9.99112 34.6704 14.7416 39.1822 19.6611 43.2137C30.0411 51.6883 41.8581 58.7219 54.8584 62.3759C57.3266 63.0621 60.0822 63.6111 62.3645 62.4789C64.6129 61.3638 65.8301 58.8077 65.8809 56.3373C65.9147 53.867 64.951 51.4824 63.7338 49.3381C60.4035 43.4195 55.2642 38.7877 49.8544 34.7219C47.5891 33.0064 45.1547 30.8277 42.4498 29.7984C39.6942 28.7348 36.7695 28.2716 34.0139 27.105Z" fill="#696970"/>
<path d="M86.1507 83.8885C86.2353 83.9743 86.3198 84.06 86.3367 84.1801C86.3536 84.2831 86.3198 84.3688 86.286 84.4718C85.1533 87.7484 83.2937 90.8706 83.243 94.336C83.2261 95.0565 83.5135 96 84.2235 96C83.9699 94.9192 84.1559 93.7698 84.3926 92.6719C85.6267 87.148 88.4668 82.0014 92.4734 78.0557C91.9832 77.97 91.5436 78.3645 91.2055 78.7248C89.8531 80.1658 88.5006 81.6069 87.1482 83.0307C87.0806 83.0993 87.0129 83.1851 86.9115 83.2023C86.7593 83.2366 86.6072 83.1337 86.4889 83.0307C82.9725 79.9257 76.9372 70.8849 74.0633 67.351C73.0151 69.7184 78.7968 75.3109 80.2 77.0607C82.0765 79.4282 84.0545 81.7269 86.1507 83.8885Z" fill="#7C5946"/>
<path d="M82.8881 89.8585C82.178 91.3338 81.5525 92.8435 81.3497 94.4732C81.3328 94.6619 81.3328 94.8849 81.5018 94.9535C81.6371 95.005 81.7723 94.9192 81.8399 94.7991C81.9076 94.6791 81.9076 94.5247 81.9245 94.3874C81.9921 93.564 82.3133 92.5004 82.6683 91.7627C83.1924 90.6819 84.3251 88.3831 84.8998 87.3367C85.8635 85.5525 86.5904 85.3124 87.3342 83.4424C86.6073 83.1508 85.2549 85.604 84.9167 86.153C84.156 87.3195 83.4967 88.5718 82.8881 89.8585Z" fill="#7C5946"/>
<path d="M87.0462 88.6576C87.1984 90.2016 87.6379 91.7455 88.5001 93.0322C88.7537 92.9635 88.703 92.5861 88.6015 92.3288C87.5703 89.7899 87.2998 86.9249 87.8746 84.2488C87.976 83.8027 88.0775 83.3395 88.0606 82.8763C88.0606 83.0136 87.2153 83.5969 87.1477 83.9056C87.0462 84.3174 87.0969 84.8835 87.0631 85.3124C86.9617 86.4103 86.9279 87.5425 87.0462 88.6576Z" fill="#7C5946"/>
<path d="M77.0555 81.4867C77.14 81.5725 77.2246 81.6583 77.2415 81.7784C77.2584 81.8813 77.2246 81.9671 77.1908 82.07C76.0581 85.3466 74.1985 88.4689 74.1478 91.9342C74.1309 92.6547 74.4183 93.5982 75.1283 93.5982C74.8747 92.5175 75.0607 91.3681 75.2973 90.2701C76.5315 84.7462 79.3716 79.5997 83.3782 75.654C82.8879 75.5682 82.4484 75.9628 82.1103 76.323C80.7578 77.7641 79.4054 79.2051 78.053 80.629C77.9853 80.6976 77.9177 80.7834 77.8163 80.8005C77.6641 80.8348 77.512 80.7319 77.3936 80.629C73.8773 77.5239 67.842 68.4832 64.9681 64.9492C63.9199 67.3166 69.7016 72.9092 71.1048 74.659C72.9813 77.0436 74.9423 79.3252 77.0555 81.4867Z" fill="#7C5946"/>
<path d="M73.7758 87.4567C73.0657 88.9321 72.4402 90.4417 72.2374 92.0715C72.2205 92.2602 72.2205 92.4832 72.3895 92.5518C72.5248 92.6033 72.66 92.5175 72.7276 92.3974C72.7953 92.2773 72.7953 92.1229 72.8122 91.9857C72.8798 91.1622 73.201 90.0986 73.556 89.3609C74.0801 88.2802 75.2127 85.9814 75.7875 84.9349C76.7511 83.1508 77.4781 82.9106 78.2219 81.0407C77.495 80.7491 76.1425 83.2023 75.8044 83.7512C75.0606 84.9178 74.3844 86.1701 73.7758 87.4567Z" fill="#7C5946"/>
<path d="M77.9342 86.2559C78.0863 87.7998 78.5259 89.3438 79.3881 90.6304C79.6417 90.5618 79.5909 90.1844 79.4895 89.9271C78.4583 87.3881 78.1878 84.5232 78.7626 81.847C78.864 81.401 78.9654 80.9378 78.9485 80.4746C78.9485 80.6119 78.1032 81.1951 78.0356 81.5039C77.9342 81.9156 77.9849 82.4818 77.9511 82.9106C77.8496 84.0257 77.8158 85.1408 77.9342 86.2559Z" fill="#7C5946"/>
<path d="M58.848 24.1372C68.2306 26.6933 76.4974 32.4059 83.7329 38.9763C88.2129 43.0421 92.4055 47.5024 95.6345 52.6489C97.4264 55.4967 98.9479 58.7219 98.8127 62.1014C98.6098 66.9906 94.8061 71.1765 90.3261 72.9949C85.8461 74.8134 80.8421 74.6761 76.0747 73.9728C67.8755 72.7719 59.9468 70.0099 52.5253 66.3044C45.9829 63.0278 39.5926 58.7733 35.8395 52.4431C32.0865 46.1129 31.647 37.2608 36.465 31.7026C39.9138 27.7226 45.239 26.11 50.2431 24.6347C53.2861 23.7254 55.7205 23.2966 58.848 24.1372Z" fill="#ED473A"/>
<path d="M30.5311 22.1643C29.669 17.8412 30.379 13.0549 33.1515 9.67539C37.2088 4.73472 44.5458 3.96274 50.6825 5.59247C54.1144 6.50169 57.5293 8.13143 59.6763 10.9792C62.9222 15.268 62.6855 21.3237 61.1978 26.5045C60.5047 28.8891 59.558 31.2737 57.8167 33.0406C56.1768 34.7047 53.9622 35.6654 51.7138 36.2487C47.5043 37.3294 40.9957 37.7583 37.2257 34.962C33.7263 32.3544 31.3426 26.2472 30.5311 22.1643Z" fill="#ED473A"/>
<path d="M60.3187 23.8456C59.7439 21.684 59.8623 19.3338 58.9832 17.2923C57.9688 14.9764 55.6359 13.2952 53.1508 13.1065C52.4407 13.055 51.7138 13.1236 51.0714 13.4496C49.4653 14.2902 49.1103 16.4346 48.9413 18.2702C48.7891 20.0543 48.6032 21.8899 47.741 23.4682C46.118 26.4532 42.5003 27.7226 39.153 27.98C37.1412 28.1344 34.9773 27.98 33.3205 26.7963C31.5455 25.5439 30.6833 23.3309 30.2099 21.1865C29.652 18.6133 29.5337 15.9371 29.8718 13.3123C30.0916 11.6483 30.5142 9.98425 31.444 8.59469C32.2217 7.44529 33.3036 6.57038 34.4701 5.84987C38.6965 3.25945 43.9203 2.81341 48.806 3.56824C52.5253 4.15151 56.2614 5.47246 58.9663 8.11434C61.7557 10.842 63.1926 14.7191 63.9872 18.5618C64.3422 20.3116 64.5958 22.1129 65.3397 23.7427C66.7259 26.8134 69.6168 28.8549 72.3724 30.7419C68.4503 28.0657 61.8233 29.4896 60.3187 23.8456Z" fill="#3F3F44"/>
<path d="M99.3539 61.5524C100.132 66.9048 96.1418 72.6689 90.9518 73.9041C76.5314 77.3008 63.7846 72.0857 58.155 68.8777C71.1892 72.6175 78.6784 73.3723 86.2183 70.7304C88.7034 69.8555 92.355 67.814 90.5968 64.1257C91.4252 64.9834 92.9974 63.9027 92.9974 62.7018C93.0143 61.501 92.1352 60.506 91.3237 59.6139C88.7541 56.8348 86.3028 53.9355 83.9867 50.9506C83.4795 50.2815 82.9724 49.3037 83.5303 48.6861C83.8008 48.3944 84.2065 48.3258 84.5953 48.2744C92.0338 47.4338 98.3395 54.4674 99.3539 61.5524Z" fill="#E2E2E2"/>
<path d="M65.374 28.1172C76.7345 28.6833 88.2303 25.7326 97.951 19.7283C105.694 14.942 112.185 8.38879 118.779 2.05855C119.844 1.02924 121.078 -0.0515277 122.549 -6.2405e-05C122.836 0.0170927 123.157 0.068558 123.377 0.274419C123.867 0.703297 123.698 1.49243 123.478 2.11002C122.346 5.21509 120.672 8.09715 118.542 10.6018C119.624 10.0357 120.74 9.52103 121.872 9.04068C122.396 8.81767 122.988 8.6118 123.512 8.85198C124.543 9.31516 124.256 10.8591 123.766 11.8884C121.94 15.7312 119.624 19.3166 116.919 22.5761C118.728 22.1472 121.788 20.2773 122.43 21.8727C123.022 23.1593 122.024 24.5832 121.044 25.5954C118.981 27.6883 116.665 29.5239 114.146 31.0164C117.663 31.7884 124.898 30.2787 124.679 33.3495C123.85 35.5796 119.522 37.8441 116.31 38.8734C117.359 39.4395 118.626 39.1994 119.793 39.3881C120.959 39.5596 122.244 40.6061 121.855 41.7383C121.686 42.2358 121.23 42.5789 120.79 42.8706C118.255 44.5346 115.397 45.6668 112.439 46.1987C113.166 46.6618 113.893 47.1079 114.603 47.5711C114.857 47.7255 115.127 47.9142 115.212 48.2058C115.313 48.5489 115.093 48.9092 114.857 49.1836C112.236 52.323 107.587 52.4603 103.53 52.3402C104.679 53.2151 103.986 55.2737 102.685 55.8398C101.366 56.4231 99.8444 56.0114 98.475 55.5825C98.7455 56.1315 98.9653 56.7319 99.1005 57.3323C97.1226 57.744 95.0601 57.4524 93.0653 57.0407C79.4056 54.1929 67.1491 45.0836 60.3192 32.749C59.7444 31.7197 59.2035 30.6218 59.2204 29.4381C59.2373 25.7841 63.2439 28.0142 65.374 28.1172Z" fill="#696970"/>
<path d="M47.3354 12.9006C47.4368 13.7069 47.3016 14.5647 46.8282 15.2166C46.2704 15.9542 45.256 16.3145 44.36 16.1258C43.464 15.9371 42.6864 15.2337 42.3483 14.3588C42.0102 13.4839 42.0947 12.4718 42.5342 11.6312C42.8047 11.0993 43.2443 10.6362 43.7853 10.396C45.5941 9.57254 47.1156 11.1337 47.3354 12.9006Z" fill="#696970"/>
<path d="M46.7606 13.4839C46.6929 14.2215 46.2534 14.9249 45.6279 15.3023C45.3912 15.4567 45.1038 15.5596 44.8164 15.5939C44.0388 15.6797 43.278 15.1822 42.9061 14.4789C42.5342 13.7755 42.5342 12.9349 42.7709 12.1801C42.8723 11.8541 43.0244 11.5282 43.2611 11.288C43.6161 10.9278 44.1233 10.7562 44.6136 10.8077C45.8815 10.8934 46.862 12.2315 46.7606 13.4839Z" fill="#1D1D1E"/>
<path d="M46.2532 13.1236C46.287 13.4324 46.2194 13.7927 45.9827 13.9985C45.746 14.2044 45.3065 14.1872 45.1712 13.9128C45.036 13.6383 45.2388 13.3123 45.205 13.0035C45.1712 12.7634 45.0022 12.5575 44.8838 12.3345C44.7824 12.1115 44.7824 11.7855 45.0022 11.6654C45.746 11.3395 46.2194 12.6433 46.2532 13.1236Z" fill="white"/>
<path d="M33.5237 11.2709C33.4899 11.9228 33.473 12.5918 33.2025 13.1751C32.6277 14.4446 30.6836 16.8806 29.7031 16.2802C26.7784 14.5303 22.907 10.7905 20.5064 8.14863C20.4219 8.0457 20.3036 7.94277 20.3205 7.80553C20.3543 7.63398 20.5402 7.56536 20.7093 7.53105C23.5494 6.96493 32.0867 7.23941 32.8475 7.8913C33.659 8.59466 33.5575 10.3102 33.5237 11.2709Z" fill="#696970"/>
<path d="M46.3212 48.1544C45.9324 46.7476 45.831 45.3581 45.7126 43.917C45.6957 43.7283 45.4422 43.7283 45.4253 43.917C45.2731 45.3752 45.6788 46.8506 46.2536 48.1715C46.2705 48.2058 46.3212 48.1887 46.3212 48.1544Z" fill="#FC6460"/>
<path d="M47.6057 46.1472C47.4705 44.8091 47.7748 43.5225 47.9607 42.2187C47.9945 41.9957 47.6733 41.807 47.5719 42.0471C46.9971 43.3681 47.1323 44.8091 47.4705 46.1644C47.5043 46.233 47.6226 46.233 47.6057 46.1472Z" fill="#FC6460"/>
<path d="M44.5459 49.9728C43.8358 48.4288 43.6499 46.7648 43.3118 45.1007C43.261 44.8605 42.9398 44.9463 42.9229 45.1522C42.7201 46.9363 43.447 48.6004 44.343 50.0929C44.4106 50.2301 44.5966 50.11 44.5459 49.9728Z" fill="#FC6460"/>
<path d="M44.4613 43.5396C44.512 42.4074 44.6304 41.258 44.4782 40.1258C44.4613 39.9885 44.2247 39.9885 44.2078 40.1258C44.0556 41.258 44.1739 42.3902 44.2247 43.5396C44.2078 43.7112 44.4444 43.7112 44.4613 43.5396Z" fill="#FC6460"/>
<path d="M40.4714 49.1322C40.2517 48.2573 40.015 47.3996 39.8628 46.5075C39.7107 45.6326 39.6938 44.7062 39.4571 43.8656C39.4064 43.7112 39.1528 43.694 39.119 43.8656C38.764 45.5811 39.474 47.7255 40.3193 49.2008C40.3531 49.2866 40.4884 49.2352 40.4714 49.1322Z" fill="#FC6460"/>
<path d="M37.4123 49.3723C37.0573 48.2401 36.7699 47.0049 36.229 45.9413C36.1275 45.7526 35.857 45.8898 35.8908 46.0786C36.1444 47.2279 36.7023 48.3602 37.1419 49.4409C37.2095 49.6296 37.48 49.561 37.4123 49.3723Z" fill="#FC6460"/>
<path d="M43.0584 56.7147C42.2638 55.634 41.7566 54.3816 41.1142 53.2151C41.0466 53.0778 40.8437 53.1808 40.8776 53.318C41.2326 54.6733 42.0609 55.7712 42.9231 56.8348C42.9738 56.8863 43.1091 56.8005 43.0584 56.7147Z" fill="#FC6460"/>
<path d="M46.4734 56.6976C45.6281 55.6682 44.9012 54.5532 44.1236 53.4895C44.0559 53.3866 43.9038 53.4724 43.9545 53.5925C44.4955 54.8619 45.3408 55.8913 46.3551 56.8176C46.4396 56.8691 46.541 56.7662 46.4734 56.6976Z" fill="#FC6460"/>
<path d="M53.2526 59.1679C52.2383 58.0871 51.2916 56.9034 50.1758 55.9255C50.0744 55.8398 49.8715 55.9599 49.973 56.0971C50.8182 57.3323 52.0016 58.3616 53.1174 59.3223C53.2188 59.408 53.3541 59.2708 53.2526 59.1679Z" fill="#FC6460"/>
<path d="M48.3666 61.1922C48.0284 60.6947 47.6734 60.2144 47.2677 59.7683C46.8789 59.3566 46.4393 58.8248 45.9153 58.5675C45.6955 58.4474 45.5095 58.7219 45.6617 58.9106C46.0167 59.3566 46.5408 59.6997 46.9465 60.0943C47.3691 60.506 47.7918 60.9006 48.1806 61.3466C48.2651 61.4495 48.4511 61.3123 48.3666 61.1922Z" fill="#FC6460"/>
<path d="M42.8047 58.5503C41.7735 57.4009 40.8944 56.08 39.7955 54.9992C39.6434 54.8619 39.4067 55.0335 39.5081 55.2222C40.2858 56.5946 41.4861 57.6754 42.6357 58.7218C42.754 58.8248 42.9061 58.6704 42.8047 58.5503Z" fill="#FC6460"/>
<path d="M39.0185 53.1121C38.8325 52.4602 38.6296 51.6196 38.2239 51.0535C38.1056 50.8991 37.8689 50.9849 37.9027 51.1907C38.0379 51.8769 38.4944 52.5975 38.8494 53.1807C38.9001 53.2665 39.0354 53.215 39.0185 53.1121Z" fill="#FC6460"/>
<path d="M42.7035 52.2373C42.4837 51.4825 42.2978 50.6247 41.892 49.9385C41.7906 49.767 41.5539 49.887 41.5877 50.0586C41.7399 50.8306 42.1794 51.6026 42.5176 52.3059C42.5683 52.4088 42.7373 52.3402 42.7035 52.2373Z" fill="#FC6460"/>
<path d="M47.5042 53.5753C47.0309 52.5117 46.7773 51.3795 46.5575 50.2301C46.5237 50.0928 46.3208 50.1271 46.3208 50.2644C46.2701 51.4995 46.659 52.6489 47.2675 53.7126C47.3521 53.8841 47.5718 53.7469 47.5042 53.5753Z" fill="#FC6460"/>
<path d="M41.6043 45.0321C41.655 43.7455 41.7733 42.4074 41.5366 41.1208C41.5028 40.8977 41.1985 40.9835 41.1816 41.1722C41.0633 42.4588 41.2831 43.7626 41.4352 45.0321C41.4521 45.135 41.6043 45.135 41.6043 45.0321Z" fill="#FC6460"/>
<path d="M37.125 43.6597C37.1588 42.4931 37.3448 41.2579 37.0574 40.0914C36.9898 39.8512 36.601 39.8341 36.5672 40.0914C36.3812 41.2751 36.6686 42.476 36.8038 43.6597C36.8207 43.8655 37.125 43.8827 37.125 43.6597Z" fill="#FC6460"/>
<path d="M34.5042 43.6597C34.5887 42.7333 34.6395 41.8412 34.5718 40.9148C34.5549 40.6404 34.183 40.6404 34.1661 40.9148C34.0985 41.8412 34.1492 42.7333 34.2337 43.6597C34.2506 43.8312 34.4873 43.8312 34.5042 43.6597Z" fill="#FC6460"/>
<path d="M39.1022 38.6676C39.0684 37.7927 39.2206 36.9349 39.3896 36.0771C39.4066 35.9571 39.2375 35.8541 39.1699 35.9914C38.7472 36.832 38.6627 37.7412 38.7472 38.6847C38.7641 38.8906 39.1022 38.9077 39.1022 38.6676Z" fill="#FC6460"/>
<path d="M45.2896 39.0793C45.6616 37.9128 46.0842 36.7805 46.4054 35.5797C46.4561 35.4081 46.2026 35.3052 46.118 35.4596C45.5601 36.609 45.2896 37.7584 45.0868 39.0107C45.0699 39.1479 45.2558 39.1994 45.2896 39.0793Z" fill="#FC6460"/>
<path d="M48.2823 39.714C48.5697 38.8906 48.9078 38.05 49.0092 37.1751C49.0261 37.0207 48.7895 36.9692 48.7388 37.1065C48.3499 37.8956 48.1809 38.7877 47.978 39.6283C47.9104 39.8341 48.2147 39.9027 48.2823 39.714Z" fill="#FC6460"/>
<path d="M50.9366 50.8306C50.4971 49.9728 50.1421 49.0636 49.6856 48.223C49.618 48.1029 49.4658 48.1887 49.4827 48.3088C49.6856 49.2695 50.1928 50.1444 50.7676 50.9335C50.8521 51.0364 51.0042 50.9507 50.9366 50.8306Z" fill="#FC6460"/>
<path d="M56.211 57.2122C55.9743 56.8691 55.7377 56.5432 55.4841 56.2172C55.2136 55.857 54.96 55.4624 54.6388 55.1536C54.5205 55.0507 54.3514 55.1879 54.419 55.3252C54.6219 55.6854 54.9093 55.9942 55.1629 56.303C55.4503 56.6633 55.7377 57.0064 56.025 57.3495C56.1096 57.4352 56.2786 57.3152 56.211 57.2122Z" fill="#FC6460"/>
<path d="M36.3464 38.1357C36.0928 37.1064 36.2788 36.0942 36.3802 35.0478C36.3971 34.8934 36.1604 34.8419 36.0928 34.962C35.5349 35.9913 35.7378 37.1407 36.1266 38.1871C36.1604 38.3415 36.3802 38.2901 36.3464 38.1357Z" fill="#FC6460"/>
<path d="M118.541 16.9492C116.073 20.4488 113.335 23.7254 110.342 26.7619C111.559 25.784 113.064 25.1836 114.602 25.0635C114.839 26.2301 113.842 27.2422 112.929 28.0142C110.832 29.764 108.736 31.4967 106.64 33.2465C108.347 31.9084 110.156 30.3988 110.613 28.2715C109.446 28.2887 108.297 28.4602 107.181 28.8033C109.007 26.7276 110.832 24.6346 112.675 22.5589C114.433 20.5517 116.276 18.3902 116.733 15.7483C115.465 16.6061 114.231 17.4981 112.996 18.4073C114.67 17.0521 116.124 15.3366 117.747 13.9985C120.317 11.9227 119.522 15.5768 118.541 16.9492Z" fill="#E2E2E2"/>
<path d="M120.266 3.84265C119.877 5.09497 119.032 6.14144 118.187 7.13643C113.808 12.2658 108.77 16.7948 103.225 20.586C107.84 17.3094 112.117 13.5353 115.972 9.3666C116.564 8.73186 117.172 7.94272 117.003 7.08497C115.854 7.85695 114.822 8.81763 113.943 9.89841C115.803 7.94272 117.578 4.58032 120.266 3.84265Z" fill="#E2E2E2"/>
<path d="M7.421 12.5918C5.98403 11.1507 4.61468 9.5553 2.8396 8.5603C3.17771 10.4474 4.24276 12.2143 5.73045 13.398C5.03732 13.0378 4.58087 12.2315 4.61468 11.4424C9.99065 15.9542 15.4342 20.5003 21.6555 23.7426C19.0351 22.3702 16.6683 20.7233 14.5044 18.6818C12.2391 16.5374 9.63563 14.8219 7.421 12.5918Z" fill="#E2E2E2"/>
</g>
<defs>
<clipPath id="clip0">
<rect width="138" height="96" fill="white"/>
</clipPath>
</defs>
</svg>
