<svg width="1920" height="213" viewBox="0 0 1920 213" fill="none" xmlns="http://www.w3.org/2000/svg">
<path d="M196.166 155.996C192.334 161.553 195.888 167.729 204.409 181.87C212.297 167.048 214.267 159.439 210.029 154.687C205.79 149.936 199.998 150.439 196.166 155.996Z" fill="url(#paint0_linear)"/>
<path d="M183.35 149.725C183.35 149.725 190.65 153.024 202.627 145.577C214.604 138.131 226.537 127.81 226.537 127.81L229.149 136.473L189.399 159.961L183.35 149.725Z" fill="url(#paint1_linear)"/>
<path d="M205.529 143.716C214.944 135.934 223.88 129.747 223.46 125L229.149 136.473L209.274 148.217C213.593 145.665 211.737 142.474 205.529 143.716Z" fill="#9B7A71"/>
<path d="M182.627 144.16C174.027 146.166 172.031 155.272 167.833 176.459C188.514 169.055 197.118 163.423 197.197 155.094C197.276 146.764 191.227 142.153 182.627 144.16Z" fill="url(#paint2_linear)"/>
<path d="M1629.28 106.19C1629.28 106.19 1637.44 103.516 1648.31 113.735C1659.17 123.955 1669.43 137.433 1669.43 137.433L1673.82 127.976L1637.52 95.451L1629.28 106.19Z" fill="url(#paint3_linear)"/>
<path d="M568.417 107.422C568.417 107.422 576.771 105.427 586.757 116.506C596.744 127.584 605.855 141.86 605.855 141.86L611.008 132.796L577.51 97.3961L568.417 107.422Z" fill="url(#paint4_linear)"/>
<path d="M1650.93 116.276C1659.09 126.501 1667.07 134.843 1665.71 140.173L1673.82 127.976L1655.67 111.714C1659.61 115.248 1657.07 118.599 1650.93 116.276Z" fill="#9B7A71"/>
<path d="M589.161 119.254C596.453 130.115 603.722 139.085 601.923 144.285L611.008 132.797L594.259 115.097C597.898 118.943 595.094 122.075 589.161 119.254Z" fill="#9B7A71"/>
<path d="M1634.12 102.954C1627.17 100.039 1626.95 91.2848 1626.82 70.9714C1643.14 80.3944 1649.51 86.6995 1648.23 94.4955C1646.95 102.291 1641.08 105.87 1634.12 102.954Z" fill="url(#paint5_linear)"/>
<path d="M573.509 104.595C566.813 101.117 567.316 92.3747 568.857 72.1194C584.345 82.8528 590.182 89.661 588.265 97.3253C586.348 104.99 580.205 108.073 573.509 104.595Z" fill="url(#paint6_linear)"/>
<path d="M1636.78 115.042C1630.17 121.29 1621.87 117.689 1602.8 108.929C1620.71 95.4118 1630.16 91.2793 1636.73 96.0792C1643.31 100.879 1643.38 108.794 1636.78 115.042Z" fill="url(#paint7_linear)"/>
<path d="M576.835 113.569C571.095 118.166 564.638 114.711 549.852 106.38C565.186 96.6738 573.078 93.9709 578.06 98.2781C583.042 102.585 582.575 108.971 576.835 113.569Z" fill="url(#paint8_linear)"/>
<path d="M1346.22 183.947C1346.22 183.947 1347.21 175.551 1360.48 168.787C1373.74 162.022 1374.67 159.2 1374.67 159.2L1383.17 149.78L1340.26 172.899L1346.22 183.947Z" fill="url(#paint9_linear)"/>
<path d="M1364.39 166.548C1381.52 161.345 1393.44 140.118 1392.95 143.948L1385.68 132.551C1380.88 146.237 1378.21 148.967 1365.35 159.405C1370.01 156.893 1370.37 162.784 1364.39 166.548Z" fill="#9B7A71"/>
<path d="M1339.7 179.102C1331.28 179.615 1326.97 171.826 1317.34 153.581C1338.29 154.709 1347.7 157.513 1350.05 165.115C1352.4 172.717 1348.12 178.59 1339.7 179.102Z" fill="url(#paint10_linear)"/>
<path d="M1368.26 172.271C1374.99 179.669 1371 189.44 1361.29 211.886C1346.77 191.691 1342.37 180.911 1347.65 173.096C1352.93 165.282 1361.54 164.873 1368.26 172.271Z" fill="url(#paint11_linear)"/>
<path d="M1349.26 189.621C1346.24 197.62 1337.09 198.561 1315.85 200.326C1325.63 181.362 1332.19 173.743 1340.35 174.549C1348.5 175.356 1352.27 181.621 1349.26 189.621Z" fill="url(#paint12_linear)"/>
<path d="M924.314 113.524C934.338 90.1044 916.606 69.1966 874.59 21.5766C856.474 82.5143 854.859 112.435 874.059 127.534C893.259 142.633 914.291 136.943 924.314 113.524Z" fill="url(#paint13_linear)"/>
<path d="M1006.02 134.891C1035.02 140.009 1053.89 114.545 1096.43 54.7156C1023.07 50.364 988.964 56.4223 977.022 82.0093C965.08 107.596 977.021 129.772 1006.02 134.891Z" fill="url(#paint14_linear)"/>
<path d="M977.331 131.401C1004.75 120.657 1007.58 89.0916 1012.71 15.8582C947.831 50.3757 921.881 73.3195 925.023 101.381C928.165 129.442 949.913 142.146 977.331 131.401Z" fill="url(#paint15_linear)"/>
<path d="M-13 131.41C-13 131.41 140.042 127.771 316.5 131.411C367.032 132.453 433.296 140.552 488 140.411C575.597 140.184 631.183 133.284 715.5 131.41C754.631 130.541 810.016 131.752 851.5 131.411C966.811 130.461 1072.25 129.429 1172 129.911C1306.88 130.562 1392.61 138.91 1435 138.91C1534.52 138.91 1662.05 131.982 1761.5 129.911C1839.43 128.287 1921 129.911 1921 129.911" stroke="url(#paint16_linear)" stroke-width="16"/>
<path d="M989.089 75.6912C989.089 75.6912 986.373 73.0627 980.785 67.5978C975.197 62.1328 970.182 60.4666 970.182 60.4666L969.895 68.5843C969.895 68.5843 979.115 72.9374 981.74 74.6918C983.572 75.8561 984.971 77.4335 987.01 78.1799L989.089 75.6912Z" fill="#FEFFE1"/>
<path d="M972.005 69.3578C972.005 69.3578 970.133 65.0902 963.761 60.5468C957.389 56.0033 952.182 55.163 952.182 55.163L953.157 63.2419C953.157 63.2419 962.939 66.1286 965.802 67.4409C967.795 68.2994 969.875 68.942 972.005 69.3578Z" fill="#FEFFE1"/>
<path d="M955.082 62.1432C955.082 62.1432 952.401 58.334 945.26 55.1385C938.12 51.943 936.695 53.1159 936.695 53.1159L935.389 59.8371C935.389 59.8371 945.546 60.7142 948.619 61.4464C950.742 61.9114 952.909 62.1451 955.082 62.1432Z" fill="#FEFFE1"/>
<path d="M937.984 58.9958C937.984 58.9958 933.946 56.6704 926.121 56.7906C918.297 56.9108 912.551 59.2598 912.551 59.2598C917.427 61.4853 919.9 62.5818 914.915 65.8689C914.915 65.8689 928.744 61.7133 931.835 61.0811C933.953 60.6076 936.015 59.9085 937.984 58.9958Z" fill="#FEFFE1"/>
<path d="M922.022 63.4415C922.022 63.4415 917.478 62.4166 910.033 64.8081C902.587 67.1996 898.793 70.8895 898.793 70.8895L905.853 74.9124C905.853 74.9124 913.988 68.7678 916.768 67.257C918.65 66.1763 920.412 64.8972 922.022 63.4415Z" fill="#FEFFE1"/>
<path d="M908.76 73.3716C908.76 73.3716 904.17 74.1797 898.243 79.2835C892.316 84.3874 890.248 89.2498 890.248 89.2498L898.312 90.2175C898.312 90.2175 903.425 81.3956 905.393 78.9176C906.711 77.1954 907.84 75.3359 908.76 73.3716Z" fill="#FEFFE1"/>
<path d="M901.084 88.2285C901.084 88.2285 896.824 90.1128 892.296 96.4936C887.768 102.874 886.911 108.085 886.911 108.085L894.991 107.09C894.991 107.09 897.838 97.3022 899.158 94.4432C900.021 92.4465 900.666 90.363 901.084 88.2285Z" fill="#FEFFE1"/>
<path d="M896.49 105.091C896.49 105.091 892.74 107.872 889.741 115.094C886.743 122.317 888.819 125.448 888.819 125.448L894.707 124.837C894.707 124.837 895.32 114.66 895.973 111.571C896.379 109.436 896.552 107.263 896.49 105.091Z" fill="#FEFFE1"/>
<path d="M988.757 77.1344C988.757 77.1344 966.271 62.384 949.966 58.7775C933.662 55.1709 917.237 58.4816 906.309 73.5613C895.382 88.641 891.731 119.03 896.573 135.329C901.416 151.628 918.087 178.664 948.922 177.546C979.756 176.428 978.886 150.164 972.116 142.244C965.347 134.324 954.444 134.081 949.957 138.56C945.389 143.128 949.675 147.293 956.304 146.243C961.006 145.5 967.336 151.335 962.224 158.245C957.112 165.156 941.461 170.46 925.906 160.377C910.352 150.293 907.434 134.534 909.144 126.16C909.751 123.187 911.977 120.13 915.326 117.371C916.267 116.596 918.295 123.971 919.402 123.252C920.597 122.476 920.882 113.61 922.243 112.919C927.779 110.109 934.581 108.092 941.722 107.583C958.042 106.42 973.606 107.838 978.101 108.708C981.022 109.252 983.974 109.614 986.939 109.789L988.757 77.1344Z" fill="#FEFFE1"/>
<path d="M987.282 65.8788C985.203 69.2228 983.116 72.4138 981.589 76.0658C980.042 79.9496 978.782 83.9414 977.818 88.0091C975.681 96.4141 974.158 105.403 974.32 114.101C974.358 115.954 974.705 117.734 974.896 119.578C975.172 122.142 973.441 124.214 970.809 124.25C966.135 124.315 965.681 117.904 965.687 114.495C965.762 105.495 967.044 96.5467 969.499 87.8884C971.91 79.2157 975.307 68.6114 983.035 63.206C984.927 61.8807 988.999 63.1235 987.282 65.8788Z" fill="url(#paint17_linear)"/>
<path d="M965.352 57.8549C962.816 61.9266 960.708 66.2499 959.061 70.7557C957.431 75.4126 956.531 80.357 955.853 85.2318C954.826 93.2276 954.921 101.328 956.136 109.297C956.563 112.055 957.183 114.817 956.793 117.611C956.467 119.933 952.235 121.976 950.555 119.838C948.643 117.4 947.984 114.343 947.447 111.343C946.94 108.514 946.583 105.661 946.376 102.795C945.985 96.8415 946.234 90.8637 947.116 84.9635C948.652 74.3429 952.441 62.525 960.922 55.4815C962.645 54.0521 967.046 55.038 965.352 57.8388L965.352 57.8549Z" fill="url(#paint18_linear)"/>
<path d="M942.169 52.5261C937.508 62.9263 934.942 74.1434 934.62 85.536C934.416 91.8507 934.807 98.1503 935.387 104.447C935.648 107.339 935.908 110.247 936.358 113.12C936.822 116.102 938.15 119.191 936.725 122.061C935.963 123.602 929.847 126.245 928.28 125.767C924.766 124.712 927.752 118.872 927.149 115.691C926.545 112.509 926.22 109.22 925.901 105.956C925.207 99.2774 925.012 92.5565 925.316 85.849C925.974 73.1073 929.08 60.3966 937.061 50.2209C938.928 47.8423 943.664 49.2179 942.17 52.5221L942.169 52.5261Z" fill="url(#paint19_linear)"/>
<path d="M912.376 63.3284C911.742 69.4632 911.876 75.6422 912.343 81.7853C912.786 87.8141 913.228 93.8628 914.389 99.8034C915.519 105.577 917.263 111.246 919.115 116.827C919.925 119.32 920.901 121.756 922.035 124.119C923.255 126.622 924.94 128.816 925.288 131.649C925.587 134.043 922.185 135.19 920.401 134.673C914.655 133.017 912.207 125.752 910.497 120.656C908.469 114.64 906.634 108.497 905.463 102.254C904.246 95.7753 903.537 89.2113 903.342 82.622C903.144 75.7707 903.341 69.069 906.48 62.8402C907.473 60.8739 912.702 60.2516 912.376 63.3284Z" fill="url(#paint20_linear)"/>
<path d="M891.511 113.968C893.515 117.097 894.739 120.638 896.693 123.814C898.734 127.13 901.143 130.204 903.875 132.979C906.469 135.611 909.312 137.986 912.364 140.071C913.923 141.156 915.544 142.149 917.218 143.046C919.117 144.047 921.25 144.516 922.792 146.093C924.525 147.86 922.348 150.087 920.813 150.84C916.028 153.12 910.793 149.636 906.916 147.025C903.3 144.61 899.957 141.807 896.948 138.668C894.065 135.611 891.552 132.226 889.461 128.581C887.376 124.977 885.335 120.553 885.461 116.315C885.536 113.885 889.896 111.427 891.512 113.951L891.511 113.968Z" fill="url(#paint21_linear)"/>
<path d="M901.034 157.89C905.823 160.264 911.2 161.191 916.508 160.561C919.328 160.197 922.088 159.466 924.718 158.387C927.752 157.202 930.723 155.724 934.042 155.69C936.613 155.663 937.167 158.376 935.744 160.049C933.376 162.833 929.29 164.26 925.925 165.421C922.141 166.774 918.179 167.565 914.165 167.767C908.105 168.025 898.84 167.633 895.698 161.404C895.101 160.223 896.12 158.763 897.062 158.138C897.642 157.75 898.314 157.522 899.011 157.478C899.707 157.435 900.402 157.577 901.026 157.89L901.034 157.89Z" fill="url(#paint22_linear)"/>
<path d="M935.475 184.095C939.582 181.396 941.775 176.042 942.696 171.413C943.191 168.798 943.261 166.121 942.902 163.484C942.568 160.873 941.115 157.554 942.507 155.128C942.911 154.493 943.507 154.003 944.208 153.729C944.91 153.455 945.68 153.411 946.408 153.604C949.94 154.615 950.695 159.72 951.008 162.851C951.34 166.307 951.068 169.794 950.204 173.157C949.359 176.487 947.904 179.632 945.913 182.432C943.825 185.432 940.726 187.58 937.185 188.484C934.247 189.276 933.152 185.616 935.471 184.095L935.475 184.095Z" fill="url(#paint23_linear)"/>
<path d="M977.627 169.112C974.75 164.619 971.035 160.932 966.117 158.684C963.348 157.495 960.456 156.616 957.495 156.063C954.826 155.531 951.068 155.348 949.256 152.99C948.077 151.467 949.438 149.907 950.82 149.24C954.266 147.581 958.584 148.703 962.092 149.577C965.368 150.37 968.544 151.53 971.561 153.035C976.828 155.701 981.999 160.166 983.371 166.112C983.701 167.589 982.993 168.84 981.647 169.517C980.547 170.074 978.433 170.372 977.615 169.104L977.627 169.112Z" fill="url(#paint24_linear)"/>
<path d="M981.641 83.891C981.677 83.1699 980.497 68.0777 990.23 67.1069C999.963 66.1362 1018.99 69.8111 1025.18 88.0393C1031.38 106.267 1026.48 114.703 1023.54 115.716C1020.6 116.729 986.576 115.647 981.09 112.199C977.004 109.626 980.385 100.744 981.191 93.1211C981.549 90.0581 981.699 86.9743 981.641 83.891Z" fill="#FEFFE1"/>
<path d="M1005.43 101.677C998.424 101.335 993.019 95.3753 993.361 88.366C993.703 81.3567 999.662 75.9518 1006.67 76.2938C1013.68 76.6358 1019.09 82.5952 1018.74 89.6045C1018.4 96.6138 1012.44 102.019 1005.43 101.677Z" fill="url(#paint25_linear)"/>
<path d="M1011.54 95.2234C1010.65 95.1802 1009.97 94.4271 1010.01 93.5413C1010.05 92.6555 1010.81 91.9725 1011.69 92.0157C1012.58 92.059 1013.26 92.812 1013.22 93.6978C1013.18 94.5836 1012.42 95.2666 1011.54 95.2234Z" fill="#002331"/>
<path d="M963.731 93.2087C967.267 91.6063 976.97 87.6304 977.293 95.0752C977.425 97.9809 975.658 100.525 972.661 102.282C970.115 103.764 965.637 104.935 966.056 108.682C966.38 111.597 970.005 117.372 972.464 118.584C974.773 119.725 978.941 118.177 980.617 120.452C984.037 125.096 973.379 124.183 971.32 124.174C969.26 124.166 967.034 124.19 965.186 123.221C961.553 121.316 958.51 117.674 955.742 114.728C951.703 110.435 948.514 105.936 952.859 100.759C956.01 96.9934 960.072 94.8694 963.731 93.2087Z" fill="#FEFFE1"/>
<path d="M904.453 112.001C905.84 108.772 909.14 104.086 911.204 101.054C913.695 97.3892 916.73 94.2042 919.835 91.0669C922.234 88.642 925.877 86.9043 929.183 88.7602C933.393 91.126 932.821 100.712 932.307 104.73C931.468 111.315 928.213 117.863 927.958 124.408C930.546 123.458 934.413 121.574 937.264 122.966C938.539 123.591 939.309 125.178 938.631 126.471C937.83 128.006 935.438 128.134 933.904 128.457C930.715 129.124 927.394 130.211 924.112 130.32C920.697 130.434 920.433 129.257 919.834 125.975C919.01 121.457 919.412 117.092 919.373 112.544C916.201 111.707 912.856 120.756 910.107 123.537C907.995 125.67 904.452 122.153 903.226 119.049C902.14 116.285 903.923 113.236 904.453 112.001Z" fill="#FEFFE1"/>
<path d="M1028.05 108.52C994.355 107.036 985.739 99.6416 984.005 89.0933" stroke="#12B3A8" stroke-width="2"/>
<defs>
<linearGradient id="paint0_linear" x1="196.793" y1="173.589" x2="210.709" y2="164.179" gradientUnits="userSpaceOnUse">
<stop stop-color="#B3FF7D"/>
<stop offset="1" stop-color="#12B4A9"/>
</linearGradient>
<linearGradient id="paint1_linear" x1="203.225" y1="137.981" x2="209.274" y2="148.217" gradientUnits="userSpaceOnUse">
<stop stop-color="#B59A66"/>
<stop offset="1" stop-color="#B58366"/>
</linearGradient>
<linearGradient id="paint2_linear" x1="167.749" y1="161.741" x2="189.501" y2="164.88" gradientUnits="userSpaceOnUse">
<stop stop-color="#B3FF7D"/>
<stop offset="1" stop-color="#12B4A9"/>
</linearGradient>
<linearGradient id="paint3_linear" x1="1647.43" y1="122.453" x2="1656.44" y2="112.402" gradientUnits="userSpaceOnUse">
<stop stop-color="#B59A66"/>
<stop offset="1" stop-color="#B58366"/>
</linearGradient>
<linearGradient id="paint4_linear" x1="585.167" y1="125.122" x2="594.969" y2="115.846" gradientUnits="userSpaceOnUse">
<stop stop-color="#B59A66"/>
<stop offset="1" stop-color="#B58366"/>
</linearGradient>
<linearGradient id="paint5_linear" x1="1624.37" y1="84.72" x2="1643.25" y2="85.5025" gradientUnits="userSpaceOnUse">
<stop stop-color="#B3FF7D"/>
<stop offset="1" stop-color="#12B4A9"/>
</linearGradient>
<linearGradient id="paint6_linear" x1="565.284" y1="85.6198" x2="584.041" y2="87.9531" gradientUnits="userSpaceOnUse">
<stop stop-color="#B3FF7D"/>
<stop offset="1" stop-color="#12B4A9"/>
</linearGradient>
<linearGradient id="paint7_linear" x1="1614.3" y1="113.763" x2="1624" y2="96.9791" gradientUnits="userSpaceOnUse">
<stop stop-color="#B3FF7D"/>
<stop offset="1" stop-color="#12B4A9"/>
</linearGradient>
<linearGradient id="paint8_linear" x1="558.8" y1="111.042" x2="567.733" y2="98.1562" gradientUnits="userSpaceOnUse">
<stop stop-color="#B3FF7D"/>
<stop offset="1" stop-color="#12B4A9"/>
</linearGradient>
<linearGradient id="paint9_linear" x1="1367.67" y1="172.388" x2="1361.71" y2="161.339" gradientUnits="userSpaceOnUse">
<stop stop-color="#B59A66"/>
<stop offset="1" stop-color="#B58366"/>
</linearGradient>
<linearGradient id="paint10_linear" x1="1321.28" y1="167.075" x2="1340.33" y2="158.26" gradientUnits="userSpaceOnUse">
<stop stop-color="#B3FF7D"/>
<stop offset="1" stop-color="#12B4A9"/>
</linearGradient>
<linearGradient id="paint11_linear" x1="1370.83" y1="198.222" x2="1348.54" y2="187.165" gradientUnits="userSpaceOnUse">
<stop stop-color="#B3FF7D"/>
<stop offset="1" stop-color="#12B4A9"/>
</linearGradient>
<linearGradient id="paint12_linear" x1="1328.45" y1="198.904" x2="1328.47" y2="181.101" gradientUnits="userSpaceOnUse">
<stop stop-color="#B3FF7D"/>
<stop offset="1" stop-color="#12B4A9"/>
</linearGradient>
<linearGradient id="paint13_linear" x1="908.901" y1="47.7397" x2="863.92" y2="91.6924" gradientUnits="userSpaceOnUse">
<stop stop-color="#B3FF7D"/>
<stop offset="1" stop-color="#12B4A9"/>
</linearGradient>
<linearGradient id="paint14_linear" x1="1076.01" y1="100.224" x2="1014.7" y2="61.1612" gradientUnits="userSpaceOnUse">
<stop stop-color="#B3FF7D"/>
<stop offset="1" stop-color="#12B4A9"/>
</linearGradient>
<linearGradient id="paint15_linear" x1="1019" y1="65.339" x2="946.313" y2="63.9534" gradientUnits="userSpaceOnUse">
<stop stop-color="#B3FF7D"/>
<stop offset="1" stop-color="#12B4A9"/>
</linearGradient>
<linearGradient id="paint16_linear" x1="1096.01" y1="138.911" x2="1096.01" y2="123.411" gradientUnits="userSpaceOnUse">
<stop stop-color="#B58477"/>
<stop offset="1" stop-color="#D0B580"/>
</linearGradient>
<linearGradient id="paint17_linear" x1="981.038" y1="56.2829" x2="950.354" y2="79.9129" gradientUnits="userSpaceOnUse">
<stop stop-color="#B3FF7D"/>
<stop offset="1" stop-color="#19A8B1"/>
</linearGradient>
<linearGradient id="paint18_linear" x1="958.156" y1="48.4128" x2="927.714" y2="75.3471" gradientUnits="userSpaceOnUse">
<stop stop-color="#B3FF7D"/>
<stop offset="1" stop-color="#12B4A9"/>
</linearGradient>
<linearGradient id="paint19_linear" x1="937.396" y1="41.2153" x2="905.63" y2="56.3813" gradientUnits="userSpaceOnUse">
<stop stop-color="#B3FF7D"/>
<stop offset="1" stop-color="#12B4A9"/>
</linearGradient>
<linearGradient id="paint20_linear" x1="921.596" y1="54.7896" x2="884.38" y2="85.7918" gradientUnits="userSpaceOnUse">
<stop stop-color="#B3FF7D"/>
<stop offset="1" stop-color="#12B4A9"/>
</linearGradient>
<linearGradient id="paint21_linear" x1="908.807" y1="118.454" x2="900.945" y2="143.611" gradientUnits="userSpaceOnUse">
<stop stop-color="#B3FF7D"/>
<stop offset="1" stop-color="#12B4A9"/>
</linearGradient>
<linearGradient id="paint22_linear" x1="923.984" y1="152.523" x2="919.989" y2="168.336" gradientUnits="userSpaceOnUse">
<stop stop-color="#B3FF7D"/>
<stop offset="1" stop-color="#12B4A9"/>
</linearGradient>
<linearGradient id="paint23_linear" x1="939.467" y1="152.867" x2="936.308" y2="169.812" gradientUnits="userSpaceOnUse">
<stop stop-color="#B3FF7D"/>
<stop offset="1" stop-color="#12B4A9"/>
</linearGradient>
<linearGradient id="paint24_linear" x1="971.243" y1="151.53" x2="967.692" y2="162.317" gradientUnits="userSpaceOnUse">
<stop stop-color="#B3FF7D"/>
<stop stop-color="#B3FF7D"/>
<stop offset="0.0001" stop-color="#B3FF7D"/>
<stop offset="1" stop-color="#12B4A9"/>
</linearGradient>
<linearGradient id="paint25_linear" x1="1009.92" y1="78.0669" x2="1002.82" y2="95.8268" gradientUnits="userSpaceOnUse">
<stop stop-color="#B3FF7D"/>
<stop offset="1" stop-color="#12B4A9"/>
</linearGradient>
</defs>
</svg>
