<svg width="2030" height="827" viewBox="0 0 2030 827" fill="none" xmlns="http://www.w3.org/2000/svg">
<path d="M138.305 388.684C145.245 382.592 142.593 373.212 136.013 351.605C120.597 368.634 115.441 378.07 119.477 385.789C123.512 393.509 131.365 394.776 138.305 388.684Z" fill="url(#paint0_linear)"/>
<path d="M134.617 624.968C134.617 624.968 124.697 620.312 108.167 630.262C91.6366 640.212 75.1091 654.095 75.1091 654.095L71.7067 642.193L126.545 610.846L134.617 624.968Z" fill="url(#paint1_linear)"/>
<path d="M153.212 401.286C153.212 401.286 144.63 394.471 126.253 400.348C107.876 406.226 88.5971 415.931 88.5971 415.931L88.0259 403.566L148.607 385.685L153.212 401.286Z" fill="url(#paint2_linear)"/>
<path d="M140.934 123.492C140.934 123.492 129.975 123.507 119.262 139.554C108.549 155.6 95.0781 180.59 95.0781 180.59L91.3642 165.886L127.613 114.157L140.934 123.492Z" fill="url(#paint3_linear)"/>
<path d="M104.159 632.75C91.1273 643.211 78.7809 651.498 79.2621 658L71.7065 642.194L99.1256 626.52C93.1675 629.926 95.6429 634.327 104.159 632.75Z" fill="#9B7A71"/>
<path d="M121.781 401.848C106.691 409.028 92.7684 414.25 91.74 420.688L88.0259 403.567L118.317 394.626C111.735 396.569 113.13 401.422 121.781 401.848Z" fill="#9B7A71"/>
<path d="M116.698 143.513C109.367 158.53 91.9206 184.486 95.1268 190.163L91.3643 165.886L109.489 140.022C105.55 145.642 109.665 148.569 116.698 143.513Z" fill="#9B7A71"/>
<path d="M138.998 630.992C149.865 633.158 157.173 623.735 173.672 601.582C146.112 599.337 133.232 601.333 128.528 610.859C123.824 620.385 128.132 628.826 138.998 630.992Z" fill="url(#paint4_linear)"/>
<path d="M137.225 403.318C135.198 414.212 144.714 421.399 167.076 437.613C168.968 410.026 166.807 397.173 157.222 392.591C147.636 388.009 139.251 392.425 137.225 403.318Z" fill="url(#paint5_linear)"/>
<path d="M129.016 134.934C134.453 140.956 142.865 138.615 162.24 132.813C147.031 119.447 138.593 114.99 131.665 118.53C124.738 122.07 123.579 128.912 129.016 134.934Z" fill="url(#paint6_linear)"/>
<path d="M133.98 613.267C140.315 604.358 134.704 594.274 121.236 571.176C108.116 594.994 104.748 607.27 111.501 615.063C118.254 622.856 127.645 622.177 133.98 613.267Z" fill="url(#paint7_linear)"/>
<path d="M140.998 116.415C148.849 107.694 144.106 96.2501 132.586 69.9623C115.666 93.7469 110.564 106.423 116.806 115.564C123.048 124.705 133.147 125.136 140.998 116.415Z" fill="url(#paint8_linear)"/>
<path d="M81.6924 824.844C81.6924 824.844 76.1274 731.684 71.3109 630.522C66.5793 531.145 95.9142 454.05 94.7792 332.411C93.6443 210.772 81.6924 33 81.6924 33" stroke="url(#paint9_linear)" stroke-width="16"/>
<path d="M148.953 395.453C158.893 395.627 163.574 386.234 173.982 364.259C149.369 366.657 138.428 370.44 136.052 379.511C133.676 388.582 139.013 395.28 148.953 395.453Z" fill="url(#paint10_linear)"/>
<mask id="mask0" mask-type="alpha" maskUnits="userSpaceOnUse" x="1847" y="0" width="183" height="751">
<rect x="1847.19" width="182" height="751" fill="#C4C4C4"/>
</mask>
<g mask="url(#mask0)">
<path d="M1895.65 98.1643C1895.65 98.1643 1898.07 87.4754 1916.07 80.5427C1934.08 73.61 1957.69 66.5 1957.69 66.5L1947.88 59.0991L1889.46 83.1201L1895.65 98.1643Z" fill="url(#paint11_linear)"/>
<path d="M1920.5 78.9091C1936.76 75.0503 1953.86 68.627 1958.69 73.0001L1947.88 59.0997L1918.67 71.1102C1925.02 68.5003 1926.97 73.157 1920.5 78.9091Z" fill="#9B7A71"/>
<path d="M1909.41 96.1852C1908.08 108.936 1894.99 114.177 1864.44 125.74C1871.44 94.3952 1878.13 80.6809 1890.44 78.368C1902.75 76.0551 1910.73 83.4342 1909.41 96.1852Z" fill="url(#paint12_linear)"/>
<path d="M1888.3 87.4544C1878.24 87.7139 1873.42 78.2435 1862.69 56.0815C1887.63 58.3028 1898.74 62.0407 1901.23 71.2052C1903.71 80.3697 1898.36 87.1949 1888.3 87.4544Z" fill="url(#paint13_linear)"/>
<path d="M1902.15 330.609C1902.15 330.609 1912.2 326.225 1928.45 336.623C1944.7 347.02 1960.84 361.349 1960.84 361.349L1964.57 349.544L1910.61 316.713L1902.15 330.609Z" fill="url(#paint14_linear)"/>
<path d="M1932.39 339.22C1945.13 350.032 1957.24 358.653 1956.59 365.139L1964.57 349.545L1937.59 333.129C1943.45 336.696 1940.86 341.028 1932.39 339.22Z" fill="#9B7A71"/>
<path d="M1907.77 326.065C1898.12 323.682 1896 313.402 1891.58 289.491C1914.76 298.127 1924.36 304.591 1924.33 313.968C1924.3 323.346 1917.42 328.449 1907.77 326.065Z" fill="url(#paint15_linear)"/>
<path d="M1913.74 339.905C1906.47 348.263 1894.92 345.276 1868.32 337.837C1888.76 319.207 1900.17 312.911 1909.72 317.572C1919.26 322.233 1921.02 331.546 1913.74 339.905Z" fill="url(#paint16_linear)"/>
<path d="M1905.51 568.464C1905.51 568.464 1915.65 564.32 1931.65 575.102C1947.65 585.884 1951.44 585.165 1951.44 585.165L1967.46 588.88L1914.29 554.773L1905.51 568.464Z" fill="url(#paint17_linear)"/>
<path d="M1936.65 578.128C1953.32 594.285 1984.86 594.455 1980.22 596.306L1988.57 580.906C1970.04 584.065 1965.26 582.751 1945.35 574.728C1951.12 578.434 1944.68 582.552 1936.65 578.128Z" fill="#9B7A71"/>
<path d="M1906.91 558.032C1901.03 548.811 1907.15 539.027 1921.78 516.647C1933.67 541.104 1936.41 553.536 1929.26 560.974C1922.12 568.412 1912.78 567.254 1906.91 558.032Z" fill="url(#paint18_linear)"/>
<path d="M1932.6 586.119C1928.44 598.392 1914.85 600.004 1883.31 603.106C1897.08 573.961 1906.54 562.2 1918.71 563.276C1930.89 564.351 1936.76 573.846 1932.6 586.119Z" fill="url(#paint19_linear)"/>
<path d="M1900.99 575.477C1890.03 577.085 1883.21 567.302 1867.86 544.334C1895.5 543.5 1908.26 546.152 1912.47 555.906C1916.69 565.659 1911.95 573.869 1900.99 575.477Z" fill="url(#paint20_linear)"/>
<path d="M1941.42 -1.99998C1960.92 108.5 1955.42 197 1955.42 284.5C1955.42 372 1985.6 605.5 1992.42 753.5" stroke="url(#paint21_linear)" stroke-width="16"/>
</g>
<defs>
<linearGradient id="paint0_linear" x1="143.351" y1="365.135" x2="121.746" y2="372.97" gradientUnits="userSpaceOnUse">
<stop stop-color="#B3FF7D"/>
<stop offset="1" stop-color="#12B4A9"/>
</linearGradient>
<linearGradient id="paint1_linear" x1="107.198" y1="640.642" x2="99.1257" y2="626.52" gradientUnits="userSpaceOnUse">
<stop stop-color="#B59A66"/>
<stop offset="1" stop-color="#B58366"/>
</linearGradient>
<linearGradient id="paint2_linear" x1="122.921" y1="410.226" x2="118.317" y2="394.625" gradientUnits="userSpaceOnUse">
<stop stop-color="#B59A66"/>
<stop offset="1" stop-color="#B58366"/>
</linearGradient>
<linearGradient id="paint3_linear" x1="122.81" y1="149.356" x2="109.489" y2="140.021" gradientUnits="userSpaceOnUse">
<stop stop-color="#B59A66"/>
<stop offset="1" stop-color="#B58366"/>
</linearGradient>
<linearGradient id="paint4_linear" x1="163.471" y1="614.468" x2="143.874" y2="602.289" gradientUnits="userSpaceOnUse">
<stop stop-color="#B3FF7D"/>
<stop offset="1" stop-color="#12B4A9"/>
</linearGradient>
<linearGradient id="paint5_linear" x1="154.061" y1="427.578" x2="165.988" y2="407.826" gradientUnits="userSpaceOnUse">
<stop stop-color="#B3FF7D"/>
<stop offset="1" stop-color="#12B4A9"/>
</linearGradient>
<linearGradient id="paint6_linear" x1="150.615" y1="135.923" x2="144.426" y2="120.203" gradientUnits="userSpaceOnUse">
<stop stop-color="#B3FF7D"/>
<stop offset="1" stop-color="#12B4A9"/>
</linearGradient>
<linearGradient id="paint7_linear" x1="133.376" y1="584.762" x2="110.621" y2="599.676" gradientUnits="userSpaceOnUse">
<stop stop-color="#B3FF7D"/>
<stop offset="1" stop-color="#12B4A9"/>
</linearGradient>
<linearGradient id="paint8_linear" x1="143.861" y1="85.9443" x2="117.761" y2="99.0481" gradientUnits="userSpaceOnUse">
<stop stop-color="#B3FF7D"/>
<stop offset="1" stop-color="#12B4A9"/>
</linearGradient>
<linearGradient id="paint9_linear" x1="77.1147" y1="504.513" x2="107.979" y2="507.411" gradientUnits="userSpaceOnUse">
<stop stop-color="#AE7E71"/>
<stop offset="1" stop-color="#C9AE79"/>
</linearGradient>
<linearGradient id="paint10_linear" x1="170.028" y1="380.35" x2="147.144" y2="370.943" gradientUnits="userSpaceOnUse">
<stop stop-color="#B3FF7D"/>
<stop offset="1" stop-color="#12B4A9"/>
</linearGradient>
<linearGradient id="paint11_linear" x1="1924.86" y1="86.1538" x2="1918.67" y2="71.1096" gradientUnits="userSpaceOnUse">
<stop stop-color="#B59A66"/>
<stop offset="1" stop-color="#B58366"/>
</linearGradient>
<linearGradient id="paint12_linear" x1="1882.42" y1="118.342" x2="1875.1" y2="92.9313" gradientUnits="userSpaceOnUse">
<stop stop-color="#B3FF7D"/>
<stop offset="1" stop-color="#12B4A9"/>
</linearGradient>
<linearGradient id="paint13_linear" x1="1866.83" y1="72.34" x2="1889.92" y2="62.6236" gradientUnits="userSpaceOnUse">
<stop stop-color="#B3FF7D"/>
<stop offset="1" stop-color="#12B4A9"/>
</linearGradient>
<linearGradient id="paint14_linear" x1="1929.13" y1="347.025" x2="1937.59" y2="333.128" gradientUnits="userSpaceOnUse">
<stop stop-color="#B59A66"/>
<stop offset="1" stop-color="#B58366"/>
</linearGradient>
<linearGradient id="paint15_linear" x1="1891.27" y1="306.059" x2="1915.81" y2="302.84" gradientUnits="userSpaceOnUse">
<stop stop-color="#B3FF7D"/>
<stop offset="1" stop-color="#12B4A9"/>
</linearGradient>
<linearGradient id="paint16_linear" x1="1884.27" y1="341.795" x2="1892.33" y2="320.174" gradientUnits="userSpaceOnUse">
<stop stop-color="#B3FF7D"/>
<stop offset="1" stop-color="#12B4A9"/>
</linearGradient>
<linearGradient id="paint17_linear" x1="1932.09" y1="585.518" x2="1940.87" y2="571.826" gradientUnits="userSpaceOnUse">
<stop stop-color="#B59A66"/>
<stop offset="1" stop-color="#B58366"/>
</linearGradient>
<linearGradient id="paint18_linear" x1="1908.97" y1="529.596" x2="1930.93" y2="545.652" gradientUnits="userSpaceOnUse">
<stop stop-color="#B3FF7D"/>
<stop offset="1" stop-color="#12B4A9"/>
</linearGradient>
<linearGradient id="paint19_linear" x1="1904.79" y1="605.334" x2="1903.32" y2="573.116" gradientUnits="userSpaceOnUse">
<stop stop-color="#B3FF7D"/>
<stop offset="1" stop-color="#12B4A9"/>
</linearGradient>
<linearGradient id="paint20_linear" x1="1877.39" y1="557.724" x2="1897.59" y2="546.562" gradientUnits="userSpaceOnUse">
<stop stop-color="#B3FF7D"/>
<stop offset="1" stop-color="#12B4A9"/>
</linearGradient>
<linearGradient id="paint21_linear" x1="1965.42" y1="312.5" x2="1921.42" y2="314" gradientUnits="userSpaceOnUse">
<stop stop-color="#B58477"/>
<stop offset="1" stop-color="#D0B580"/>
</linearGradient>
</defs>
</svg>
