<svg width="360" height="355" viewBox="0 0 360 355" fill="none" xmlns="http://www.w3.org/2000/svg">
<path d="M113.634 63.9747C113.634 63.9747 120.789 58.4327 135.526 46.8951C150.264 35.3576 162.637 32.7105 162.637 32.7105L161.187 52.1071C161.187 52.1071 138.097 60.0433 131.388 63.5287C126.721 65.818 122.977 69.2046 117.929 70.4448L113.634 63.9747Z" fill="#FEFFE1"/>
<path d="M155.961 53.3934C155.961 53.3934 161.538 43.7282 177.899 34.59C194.26 25.4518 206.875 24.8211 206.875 24.8211L202.43 43.7933C202.43 43.7933 178.389 48.0916 171.228 50.462C166.258 51.9811 161.14 52.9639 155.961 53.3934V53.3934Z" fill="#FEFFE1"/>
<path d="M198.137 40.672C198.137 40.672 205.52 32.3108 223.356 26.5829C241.191 20.855 244.273 24.0213 244.273 24.0213L245.614 40.3617C245.614 40.3617 221.209 39.7783 213.703 40.7131C208.528 41.2617 203.309 41.248 198.137 40.672Z" fill="#FEFFE1"/>
<path d="M239.659 37.6771C239.659 37.6771 249.883 33.2046 268.474 35.5482C287.065 37.8918 300.123 44.9935 300.123 44.9935C287.932 49.0082 281.757 50.9676 292.759 60.1024C292.759 60.1024 260.936 46.5749 253.746 44.2573C248.829 42.5733 244.106 40.3674 239.659 37.6771Z" fill="#FEFFE1"/>
<path d="M276.482 52.4556C276.482 52.4556 287.567 51.2112 304.658 58.8611C321.75 66.5109 329.81 76.2912 329.81 76.2912L311.949 84.0093C311.949 84.0093 294.204 67.2455 287.984 62.9186C283.788 59.8514 279.932 56.3437 276.482 52.4556V52.4556Z" fill="#FEFFE1"/>
<path d="M305.436 79.578C305.436 79.578 316.147 82.7082 328.912 96.4145C341.677 110.121 345.321 122.238 345.321 122.238L325.873 122.42C325.873 122.42 316.024 100.079 311.991 93.6634C309.306 89.2176 307.108 84.4952 305.436 79.578V79.578Z" fill="#FEFFE1"/>
<path d="M319.799 116.957C319.799 116.957 329.443 122.563 338.541 138.94C347.64 155.318 348.309 167.945 348.309 167.945L329.339 163.452C329.339 163.452 325.138 139.407 322.747 132.255C321.22 127.276 320.231 122.148 319.799 116.957V116.957Z" fill="#FEFFE1"/>
<path d="M326.298 158.3C326.298 158.3 334.492 165.904 339.73 183.883C344.968 201.862 339.202 208.768 339.202 208.768L325.348 205.767C325.348 205.767 326.566 181.382 325.824 173.859C325.419 168.671 325.578 163.454 326.298 158.3Z" fill="#FEFFE1"/>
<path d="M114.043 67.4972C114.043 67.4972 171.443 38.3029 211.198 34.0065C250.952 29.7102 289.175 41.909 311.218 80.6739C333.261 119.439 333.96 192.728 318.148 230.248C302.335 267.768 255.547 327.732 182.452 316.963C109.356 306.194 118.335 243.91 136.53 226.84C154.725 209.77 180.738 212.059 190.24 223.9C199.911 235.973 188.614 244.758 173.113 240.516C162.116 237.513 145.518 249.735 155.867 267.527C166.216 285.319 202.072 302.059 241.745 282.15C281.419 262.241 292.507 225.499 290.639 205.12C289.976 197.883 285.483 190.021 278.237 182.574C276.202 180.482 269.434 197.502 266.989 195.499C264.35 193.338 266.002 172.162 262.944 170.159C250.507 162.016 234.849 155.427 217.986 152.337C179.448 145.277 142.031 144.559 131.103 145.447C124.009 145.975 116.889 146.059 109.784 145.698L114.043 67.4972Z" fill="#FEFFE1"/>
<path d="M120.514 41.0954C124.582 49.6011 128.711 57.7449 131.386 66.8387C134.046 76.4893 135.996 86.3215 137.221 96.2567C140.097 116.823 141.357 138.619 138.685 159.278C138.107 163.678 136.813 167.823 135.873 172.163C134.541 178.191 138.117 183.578 144.372 184.356C155.479 185.74 158.245 170.601 159.128 162.486C161.317 141.046 160.618 119.41 157.052 98.1568C153.594 76.881 148.299 50.7485 131.324 35.8505C127.17 32.1988 117.153 34.086 120.514 41.0954V41.0954Z" fill="url(#paint0_linear)"/>
<path d="M174.82 27.7646C179.786 38.1227 183.667 48.9671 186.401 60.1243C189.055 71.6367 189.899 83.6416 190.23 95.4224C190.572 114.723 188.215 133.978 183.227 152.626C181.486 159.078 179.284 165.488 179.479 172.24C179.643 177.854 189.178 183.83 193.739 179.182C198.931 173.883 201.303 166.779 203.371 159.78C205.321 153.181 206.922 146.483 208.168 139.716C210.663 125.65 211.644 111.357 211.095 97.0812C210.234 71.3996 204.322 42.2753 185.988 23.2806C182.263 19.4253 171.529 20.6147 174.825 27.7265L174.82 27.7646Z" fill="url(#paint1_linear)"/>
<path d="M231.399 21.1778C239.759 47.1571 242.916 74.5298 240.688 101.73C239.512 116.813 236.924 131.704 233.887 146.539C232.507 153.353 231.124 160.206 229.297 166.926C227.407 173.902 223.436 180.904 226.073 188.109C227.481 191.977 241.342 199.877 245.197 199.151C253.839 197.564 248.266 182.88 250.539 175.466C252.813 168.051 254.452 160.31 256.069 152.624C259.476 136.911 261.709 120.966 262.749 104.922C264.534 74.422 260.484 43.3526 244.163 17.0343C240.345 10.8822 228.712 12.9108 231.4 21.1683L231.399 21.1778Z" fill="url(#paint2_linear)"/>
<path d="M299.469 54.7233C299.366 69.4915 297.42 84.1629 294.694 98.6613C292.054 112.894 289.412 127.174 285.085 141.008C280.879 154.452 275.236 167.488 269.362 180.284C266.777 186.004 263.814 191.545 260.494 196.872C256.931 202.507 252.343 207.287 250.772 213.938C249.43 219.558 257.225 223.181 261.607 222.421C275.719 219.991 283.456 203.342 288.866 191.663C295.276 177.877 301.257 163.739 305.687 149.189C310.287 134.088 313.701 118.652 315.898 103.02C318.171 86.765 319.463 70.7624 313.631 55.1118C311.785 50.1708 299.502 47.3144 299.469 54.7233Z" fill="url(#paint3_linear)"/>
<path d="M335.814 180.736C330.222 187.658 326.375 195.765 320.891 202.809C315.162 210.165 308.619 216.849 301.386 222.733C294.52 228.317 287.13 233.223 279.318 237.382C275.321 239.553 271.202 241.492 266.981 243.187C262.199 245.068 256.998 245.625 252.914 248.973C248.325 252.723 252.921 258.596 256.375 260.79C267.165 267.476 280.542 260.56 290.454 255.366C299.697 250.568 308.389 244.777 316.378 238.097C324.044 231.58 330.916 224.182 336.851 216.057C342.761 208.029 348.782 198.035 349.595 187.914C350.057 182.111 340.325 175.115 335.816 180.698L335.814 180.736Z" fill="url(#paint4_linear)"/>
<path d="M301.599 282.772C289.575 287.162 276.534 287.956 264.066 285.059C257.451 283.451 251.074 280.986 245.097 277.727C238.189 274.108 231.505 269.81 223.616 268.855C217.503 268.114 215.47 274.427 218.417 278.784C223.322 286.032 232.67 290.503 240.375 294.151C249.026 298.367 258.249 301.29 267.748 302.826C282.104 305.035 304.259 306.539 313.374 292.54C315.106 289.884 313.065 286.141 310.987 284.406C309.709 283.33 308.169 282.611 306.523 282.324C304.877 282.037 303.185 282.192 301.618 282.773L301.599 282.772Z" fill="url(#paint5_linear)"/>
<path d="M212.734 336.087C203.668 328.583 199.857 315.263 198.883 304.002C198.392 297.649 198.93 291.258 200.477 285.077C201.96 278.951 206.289 271.432 203.616 265.293C202.82 263.675 201.53 262.352 199.933 261.516C198.336 260.679 196.514 260.372 194.731 260.639C186.057 262.118 182.918 274.069 181.35 281.439C179.651 289.577 179.381 297.948 180.553 306.178C181.689 314.327 184.325 322.195 188.329 329.384C192.51 337.073 199.319 343 207.511 346.082C214.295 348.74 217.863 340.318 212.743 336.088L212.734 336.087Z" fill="url(#paint6_linear)"/>
<path d="M116.348 289.341C124.377 279.403 134.189 271.604 146.485 267.548C153.388 265.447 160.501 264.115 167.696 263.576C174.188 263.012 183.18 263.564 188.113 258.43C191.319 255.114 188.49 251.044 185.376 249.092C177.611 244.237 167.037 245.772 158.46 246.93C150.454 247.957 142.589 249.882 135.014 252.67C121.777 257.631 108.295 266.898 103.465 280.689C102.292 284.119 103.647 287.282 106.673 289.247C109.143 290.862 114.098 292.128 116.378 289.323L116.348 289.341Z" fill="url(#paint7_linear)"/>
<path d="M129.204 85.4496C129.31 83.724 136.087 48.1133 113.177 43.2433C90.2661 38.3734 44.0209 42.1175 24.4845 83.8735C4.94822 125.63 14.376 146.993 21.1088 150.177C27.8416 153.361 109.108 159.734 123.071 152.97C133.475 147.921 127.762 125.891 127.849 107.537C127.803 100.152 128.256 92.773 129.204 85.4496Z" fill="#FEFFE1"/>
<path d="M67.8998 121.525C84.6725 122.554 99.1039 109.792 100.133 93.0188C101.162 76.2461 88.3996 61.8148 71.6269 60.7856C54.8541 59.7564 40.4228 72.519 39.3936 89.2918C38.3644 106.064 51.127 120.496 67.8998 121.525Z" fill="url(#paint8_linear)"/>
<path d="M51.8379 103.911C53.9574 104.041 55.7811 102.428 55.9112 100.309C56.0413 98.1892 54.4284 96.3656 52.3089 96.2355C50.1893 96.1054 48.3656 97.7182 48.2355 99.8378C48.1055 101.957 49.7183 103.781 51.8379 103.911Z" fill="#002331"/>
<path d="M169.381 112.337C161.387 107.593 139.338 95.5782 136.611 113.212C135.534 120.094 139.07 126.614 145.741 131.584C151.411 135.781 161.762 139.745 159.778 148.553C158.242 155.407 148.094 168.198 141.923 170.436C136.126 172.544 126.614 167.765 122.027 172.737C112.667 182.892 138.272 183.52 143.177 184.042C148.081 184.565 153.372 185.207 158.026 183.385C167.175 179.809 175.375 171.94 182.737 165.656C193.479 156.501 202.252 146.63 193.273 133.166C186.763 123.375 177.653 117.251 169.381 112.337Z" fill="#FEFFE1"/>
<path d="M305.527 172.652C303.077 164.602 296.453 152.581 292.339 144.823C287.372 135.444 280.987 127.066 274.423 118.782C269.35 112.38 261.137 107.286 252.779 110.834C242.138 115.358 240.979 138.323 241.144 148.023C241.41 163.916 247.435 180.356 246.321 196.001C240.41 193.059 231.703 187.56 224.55 190.123C221.352 191.274 219.102 194.85 220.375 198.104C221.879 201.968 227.538 202.902 231.103 204.074C238.517 206.501 246.138 209.961 253.921 211.084C262.019 212.254 262.956 209.521 265.244 201.867C268.393 191.331 268.585 180.835 269.874 170.022C277.643 168.863 283.224 191.279 289.038 198.622C293.503 204.256 302.861 196.814 306.595 189.75C309.906 183.458 306.464 175.731 305.527 172.652Z" fill="#FEFFE1"/>
<path d="M12.2686 131.865C73.67 135.332 101.183 135.883 108.083 111.233" stroke="#12B3A8" stroke-width="2"/>
<defs>
<linearGradient id="paint0_linear" x1="137.898" y1="19.8979" x2="204.716" y2="84.2089" gradientUnits="userSpaceOnUse">
<stop stop-color="#B3FF7D"/>
<stop offset="1" stop-color="#19A8B1"/>
</linearGradient>
<linearGradient id="paint1_linear" x1="194.431" y1="7.18376" x2="259.803" y2="79.2956" gradientUnits="userSpaceOnUse">
<stop stop-color="#B3FF7D"/>
<stop offset="1" stop-color="#12B4A9"/>
</linearGradient>
<linearGradient id="paint2_linear" x1="245.734" y1="-4.48787" x2="317.352" y2="39.9622" gradientUnits="userSpaceOnUse">
<stop stop-color="#B3FF7D"/>
<stop offset="1" stop-color="#12B4A9"/>
</linearGradient>
<linearGradient id="paint3_linear" x1="279.769" y1="31.9755" x2="360.196" y2="115.55" gradientUnits="userSpaceOnUse">
<stop stop-color="#B3FF7D"/>
<stop offset="1" stop-color="#12B4A9"/>
</linearGradient>
<linearGradient id="paint4_linear" x1="293.467" y1="186.867" x2="305.565" y2="248.811" gradientUnits="userSpaceOnUse">
<stop stop-color="#B3FF7D"/>
<stop offset="1" stop-color="#12B4A9"/>
</linearGradient>
<linearGradient id="paint5_linear" x1="248.386" y1="263.964" x2="253.736" y2="302.649" gradientUnits="userSpaceOnUse">
<stop stop-color="#B3FF7D"/>
<stop offset="1" stop-color="#12B4A9"/>
</linearGradient>
<linearGradient id="paint6_linear" x1="211.445" y1="260.71" x2="214.507" y2="301.873" gradientUnits="userSpaceOnUse">
<stop stop-color="#B3FF7D"/>
<stop offset="1" stop-color="#12B4A9"/>
</linearGradient>
<linearGradient id="paint7_linear" x1="136.164" y1="249.172" x2="141.781" y2="275.78" gradientUnits="userSpaceOnUse">
<stop stop-color="#B3FF7D"/>
<stop stop-color="#B3FF7D"/>
<stop offset="0.0001" stop-color="#B3FF7D"/>
<stop offset="1" stop-color="#12B4A9"/>
</linearGradient>
<linearGradient id="paint8_linear" x1="63.4217" y1="64.1507" x2="75.6631" y2="108.29" gradientUnits="userSpaceOnUse">
<stop stop-color="#B3FF7D"/>
<stop offset="1" stop-color="#12B4A9"/>
</linearGradient>
</defs>
</svg>
