<svg width="361" height="355" viewBox="0 0 361 355" fill="none" xmlns="http://www.w3.org/2000/svg">
<path d="M114.634 63.9747C114.634 63.9747 121.789 58.4327 136.526 46.8951C151.264 35.3576 163.637 32.7105 163.637 32.7105L162.187 52.107C162.187 52.107 139.097 60.0432 132.388 63.5287C127.721 65.818 123.977 69.2046 118.929 70.4448L114.634 63.9747Z" fill="#FEFFE1"/>
<path d="M156.961 53.3934C156.961 53.3934 162.538 43.7282 178.899 34.59C195.26 25.4519 207.875 24.8211 207.875 24.8211L203.43 43.7933C203.43 43.7933 179.389 48.0916 172.228 50.462C167.258 51.9812 162.14 52.9639 156.961 53.3934V53.3934Z" fill="#FEFFE1"/>
<path d="M199.137 40.672C199.137 40.672 206.52 32.3109 224.356 26.5829C242.191 20.855 245.273 24.0213 245.273 24.0213L246.614 40.3618C246.614 40.3618 222.209 39.7784 214.703 40.7131C209.528 41.2618 204.309 41.248 199.137 40.672Z" fill="#FEFFE1"/>
<path d="M240.659 37.6772C240.659 37.6772 250.883 33.2046 269.474 35.5482C288.065 37.8918 301.123 44.9935 301.123 44.9935C288.932 49.0082 282.757 50.9677 293.759 60.1025C293.759 60.1025 261.936 46.5749 254.746 44.2573C249.829 42.5733 245.106 40.3674 240.659 37.6772Z" fill="#FEFFE1"/>
<path d="M277.482 52.4556C277.482 52.4556 288.567 51.2112 305.658 58.8611C322.75 66.5109 330.81 76.2912 330.81 76.2912L312.949 84.0093C312.949 84.0093 295.204 67.2455 288.984 62.9186C284.788 59.8514 280.932 56.3437 277.482 52.4556V52.4556Z" fill="#FEFFE1"/>
<path d="M306.436 79.578C306.436 79.578 317.147 82.7082 329.912 96.4145C342.677 110.121 346.321 122.238 346.321 122.238L326.873 122.42C326.873 122.42 317.024 100.079 312.991 93.6634C310.306 89.2176 308.108 84.4952 306.436 79.578V79.578Z" fill="#FEFFE1"/>
<path d="M320.799 116.957C320.799 116.957 330.443 122.563 339.541 138.94C348.64 155.318 349.309 167.945 349.309 167.945L330.339 163.452C330.339 163.452 326.138 139.407 323.747 132.255C322.22 127.276 321.231 122.148 320.799 116.957V116.957Z" fill="#FEFFE1"/>
<path d="M327.298 158.3C327.298 158.3 335.492 165.904 340.73 183.883C345.968 201.862 340.202 208.768 340.202 208.768L326.348 205.767C326.348 205.767 327.566 181.382 326.824 173.859C326.419 168.671 326.578 163.454 327.298 158.3Z" fill="#FEFFE1"/>
<path d="M115.044 67.4972C115.044 67.4972 172.443 38.3029 212.198 34.0065C251.952 29.7102 290.175 41.909 312.218 80.6739C334.261 119.439 334.96 192.728 319.148 230.248C303.336 267.768 256.547 327.732 183.452 316.963C110.356 306.194 119.335 243.91 137.53 226.84C155.725 209.77 181.738 212.059 191.24 223.9C200.911 235.973 189.614 244.758 174.113 240.516C163.116 237.513 146.518 249.735 156.867 267.527C167.216 285.319 203.072 302.059 242.745 282.15C282.419 262.241 293.507 225.499 291.639 205.12C290.976 197.883 286.483 190.021 279.237 182.574C277.202 180.482 270.434 197.502 267.989 195.499C265.35 193.338 267.002 172.162 263.944 170.159C251.507 162.016 235.849 155.427 218.986 152.337C180.448 145.277 143.031 144.559 132.103 145.447C125.009 145.975 117.889 146.059 110.784 145.698L115.044 67.4972Z" fill="#FEFFE1"/>
<path d="M121.514 41.0954C125.582 49.6011 129.711 57.7449 132.386 66.8387C135.046 76.4893 136.996 86.3215 138.221 96.2567C141.097 116.823 142.357 138.619 139.685 159.278C139.107 163.678 137.813 167.823 136.874 172.163C135.541 178.191 139.118 183.578 145.373 184.357C156.479 185.74 159.245 170.601 160.128 162.486C162.317 141.046 161.618 119.41 158.052 98.1568C154.594 76.881 149.299 50.7485 132.324 35.8505C128.17 32.1989 118.153 34.086 121.514 41.0954V41.0954Z" fill="url(#paint0_linear)"/>
<path d="M175.82 27.7646C180.787 38.1227 184.667 48.9671 187.401 60.1243C190.055 71.6367 190.899 83.6416 191.23 95.4224C191.572 114.723 189.215 133.978 184.227 152.626C182.486 159.078 180.284 165.488 180.479 172.24C180.643 177.854 190.178 183.83 194.739 179.182C199.931 173.883 202.303 166.779 204.371 159.78C206.321 153.181 207.922 146.483 209.168 139.716C211.663 125.65 212.644 111.357 212.095 97.0812C211.234 71.3996 205.322 42.2753 186.988 23.2806C183.263 19.4253 172.529 20.6147 175.825 27.7265L175.82 27.7646Z" fill="url(#paint1_linear)"/>
<path d="M232.399 21.1778C240.759 47.1571 243.916 74.5298 241.688 101.73C240.512 116.813 237.924 131.704 234.887 146.539C233.507 153.353 232.124 160.206 230.297 166.926C228.407 173.902 224.436 180.904 227.073 188.109C228.481 191.977 242.342 199.877 246.197 199.151C254.839 197.564 249.266 182.88 251.539 175.466C253.813 168.051 255.452 160.31 257.069 152.624C260.476 136.911 262.709 120.966 263.749 104.922C265.534 74.422 261.484 43.3526 245.163 17.0343C241.345 10.8822 229.712 12.9108 232.4 21.1683L232.399 21.1778Z" fill="url(#paint2_linear)"/>
<path d="M300.469 54.7233C300.366 69.4915 298.42 84.1629 295.694 98.6613C293.054 112.894 290.412 127.174 286.085 141.008C281.879 154.452 276.236 167.488 270.362 180.284C267.777 186.004 264.814 191.545 261.494 196.872C257.931 202.507 253.343 207.287 251.772 213.938C250.43 219.558 258.225 223.181 262.607 222.421C276.719 219.991 284.456 203.342 289.866 191.663C296.276 177.877 302.257 163.739 306.687 149.189C311.287 134.088 314.701 118.652 316.898 103.02C319.171 86.765 320.463 70.7624 314.631 55.1118C312.785 50.1709 300.502 47.3144 300.469 54.7233Z" fill="url(#paint3_linear)"/>
<path d="M336.814 180.736C331.222 187.658 327.375 195.765 321.891 202.809C316.162 210.165 309.619 216.849 302.386 222.733C295.52 228.317 288.13 233.223 280.318 237.382C276.321 239.553 272.202 241.492 267.981 243.187C263.199 245.068 257.998 245.625 253.914 248.973C249.325 252.723 253.921 258.596 257.375 260.79C268.165 267.476 281.542 260.56 291.454 255.366C300.697 250.568 309.389 244.777 317.378 238.097C325.044 231.58 331.916 224.182 337.851 216.057C343.761 208.029 349.782 198.035 350.595 187.914C351.057 182.111 341.325 175.115 336.816 180.698L336.814 180.736Z" fill="url(#paint4_linear)"/>
<path d="M302.599 282.772C290.575 287.162 277.534 287.956 265.066 285.059C258.451 283.451 252.074 280.986 246.098 277.727C239.189 274.108 232.506 269.81 224.616 268.855C218.503 268.114 216.47 274.427 219.417 278.784C224.322 286.032 233.67 290.503 241.375 294.151C250.026 298.367 259.249 301.29 268.748 302.826C283.104 305.035 305.259 306.539 314.374 292.54C316.106 289.884 314.065 286.141 311.987 284.406C310.709 283.33 309.169 282.611 307.523 282.324C305.877 282.037 304.185 282.192 302.618 282.773L302.599 282.772Z" fill="url(#paint5_linear)"/>
<path d="M213.734 336.087C204.668 328.583 200.857 315.263 199.883 304.002C199.392 297.649 199.93 291.258 201.477 285.077C202.96 278.951 207.289 271.432 204.616 265.293C203.82 263.675 202.53 262.352 200.933 261.516C199.336 260.679 197.514 260.372 195.731 260.639C187.057 262.118 183.918 274.069 182.35 281.439C180.651 289.577 180.381 297.948 181.553 306.178C182.689 314.327 185.325 322.195 189.329 329.384C193.51 337.073 200.319 343 208.511 346.082C215.295 348.74 218.863 340.318 213.743 336.088L213.734 336.087Z" fill="url(#paint6_linear)"/>
<path d="M117.348 289.341C125.377 279.403 135.189 271.604 147.485 267.548C154.388 265.447 161.501 264.115 168.696 263.576C175.188 263.012 184.18 263.564 189.114 258.43C192.319 255.114 189.49 251.044 186.376 249.092C178.611 244.237 168.038 245.772 159.46 246.93C151.454 247.957 143.589 249.882 136.014 252.67C122.777 257.631 109.295 266.898 104.465 280.689C103.292 284.119 104.647 287.282 107.673 289.247C110.143 290.862 115.098 292.128 117.378 289.323L117.348 289.341Z" fill="url(#paint7_linear)"/>
<path d="M13.2686 131.865C74.67 135.332 102.183 135.883 109.083 111.233" stroke="#12B3A8" stroke-width="2"/>
<path d="M130.204 85.4496C130.31 83.724 137.087 48.1133 114.177 43.2433C91.2661 38.3734 45.0209 42.1175 25.4845 83.8735C5.94822 125.63 15.376 146.993 22.1088 150.177C28.8416 153.361 110.108 159.734 124.071 152.97C134.475 147.921 128.762 125.891 128.849 107.537C128.803 100.152 129.256 92.773 130.204 85.4496Z" fill="#FEFFE1"/>
<path d="M68.8998 121.525C85.6725 122.554 100.104 109.792 101.133 93.0189C102.162 76.2461 89.3996 61.8148 72.6269 60.7856C55.8541 59.7564 41.4228 72.519 40.3936 89.2918C39.3644 106.065 52.127 120.496 68.8998 121.525Z" fill="url(#paint8_linear)"/>
<path d="M82.8379 80.9112C84.9575 81.0412 86.7811 79.4284 86.9112 77.3088C87.0413 75.1893 85.4285 73.3656 83.3089 73.2355C81.1893 73.1054 79.3656 74.7183 79.2355 76.8378C79.1055 78.9574 80.7183 80.7811 82.8379 80.9112Z" fill="#002331"/>
<path d="M170.381 112.337C162.387 107.593 140.338 95.5782 137.611 113.212C136.534 120.094 140.07 126.614 146.741 131.584C152.411 135.781 162.762 139.745 160.778 148.553C159.242 155.407 149.094 168.198 142.923 170.436C137.126 172.544 127.614 167.765 123.027 172.737C113.667 182.892 139.272 183.52 144.177 184.042C149.081 184.565 154.372 185.207 159.026 183.385C168.175 179.809 176.375 171.94 183.737 165.656C194.48 156.501 203.252 146.63 194.273 133.166C187.763 123.375 178.653 117.251 170.381 112.337Z" fill="#FEFFE1"/>
<path d="M306.527 172.652C304.077 164.602 297.453 152.581 293.339 144.823C288.372 135.444 281.987 127.066 275.423 118.782C270.35 112.38 262.137 107.286 253.779 110.834C243.138 115.358 241.979 138.323 242.144 148.023C242.41 163.916 248.435 180.356 247.321 196.001C241.41 193.059 232.703 187.56 225.55 190.123C222.352 191.274 220.102 194.85 221.375 198.104C222.879 201.968 228.538 202.902 232.103 204.074C239.517 206.501 247.138 209.961 254.921 211.084C263.019 212.254 263.956 209.521 266.244 201.867C269.393 191.331 269.585 180.835 270.874 170.022C278.643 168.863 284.224 191.279 290.038 198.622C294.503 204.256 303.861 196.814 307.595 189.75C310.906 183.458 307.464 175.731 306.527 172.652Z" fill="#FEFFE1"/>
<defs>
<linearGradient id="paint0_linear" x1="138.898" y1="19.898" x2="205.716" y2="84.2089" gradientUnits="userSpaceOnUse">
<stop stop-color="#B3FF7D"/>
<stop offset="1" stop-color="#19A8B1"/>
</linearGradient>
<linearGradient id="paint1_linear" x1="195.431" y1="7.18376" x2="260.803" y2="79.2956" gradientUnits="userSpaceOnUse">
<stop stop-color="#B3FF7D"/>
<stop offset="1" stop-color="#12B4A9"/>
</linearGradient>
<linearGradient id="paint2_linear" x1="246.734" y1="-4.48787" x2="318.352" y2="39.9622" gradientUnits="userSpaceOnUse">
<stop stop-color="#B3FF7D"/>
<stop offset="1" stop-color="#12B4A9"/>
</linearGradient>
<linearGradient id="paint3_linear" x1="280.769" y1="31.9755" x2="361.196" y2="115.55" gradientUnits="userSpaceOnUse">
<stop stop-color="#B3FF7D"/>
<stop offset="1" stop-color="#12B4A9"/>
</linearGradient>
<linearGradient id="paint4_linear" x1="294.467" y1="186.867" x2="306.565" y2="248.811" gradientUnits="userSpaceOnUse">
<stop stop-color="#B3FF7D"/>
<stop offset="1" stop-color="#12B4A9"/>
</linearGradient>
<linearGradient id="paint5_linear" x1="249.386" y1="263.964" x2="254.736" y2="302.649" gradientUnits="userSpaceOnUse">
<stop stop-color="#B3FF7D"/>
<stop offset="1" stop-color="#12B4A9"/>
</linearGradient>
<linearGradient id="paint6_linear" x1="212.445" y1="260.71" x2="215.507" y2="301.873" gradientUnits="userSpaceOnUse">
<stop stop-color="#B3FF7D"/>
<stop offset="1" stop-color="#12B4A9"/>
</linearGradient>
<linearGradient id="paint7_linear" x1="137.165" y1="249.172" x2="142.781" y2="275.78" gradientUnits="userSpaceOnUse">
<stop stop-color="#B3FF7D"/>
<stop stop-color="#B3FF7D"/>
<stop offset="0.0001" stop-color="#B3FF7D"/>
<stop offset="1" stop-color="#12B4A9"/>
</linearGradient>
<linearGradient id="paint8_linear" x1="64.4217" y1="64.1507" x2="76.6631" y2="108.29" gradientUnits="userSpaceOnUse">
<stop stop-color="#B3FF7D"/>
<stop offset="1" stop-color="#12B4A9"/>
</linearGradient>
</defs>
</svg>
