<svg width="281" height="56" viewBox="0 0 281 56" fill="none" xmlns="http://www.w3.org/2000/svg">
<path d="M105.884 15.077C105.884 19.159 108.38 21.837 112.098 21.837C115.192 21.837 117.61 19.991 118.156 17.261H115.218C114.906 18.379 113.684 19.159 112.15 19.159C110.226 19.159 109.03 18.041 108.952 15.987H118.104V15.025C118.104 10.943 115.842 8.26503 112.098 8.26503C108.406 8.26503 105.884 10.943 105.884 15.077ZM109.004 13.959C109.03 12.009 110.252 10.891 111.994 10.891C113.71 10.891 114.932 11.957 114.958 13.959H109.004Z" fill="#002233"/>
<path d="M121.597 15.987H133.323V13.153H121.597V15.987Z" fill="#002233"/>
<path d="M140.548 21.837C142.576 21.837 144.11 20.927 144.656 19.601L144.89 21.499H147.672V13.699C147.672 10.293 145.696 8.26503 142.082 8.26503C138.754 8.26503 136.466 10.111 136.492 12.867H139.196C139.17 11.541 140.184 10.735 141.926 10.735C143.486 10.735 144.578 11.411 144.578 13.179V13.465L140.912 13.751C138.026 13.985 136.154 15.337 136.154 17.833C136.154 20.225 137.792 21.837 140.548 21.837ZM141.588 19.445C140.158 19.445 139.378 18.821 139.378 17.703C139.378 16.663 140.054 16.039 141.926 15.857L144.604 15.623V16.299C144.604 18.691 142.94 19.445 141.588 19.445Z" fill="#002233"/>
<path d="M149.857 17.651C149.961 20.199 151.937 21.837 155.005 21.837C158.021 21.837 160.075 20.225 160.075 17.729C160.075 15.883 158.931 14.635 156.825 14.115L154.563 13.569C153.601 13.309 152.951 12.971 152.951 12.139C152.951 11.255 153.653 10.631 154.797 10.631C155.993 10.631 156.773 11.307 156.773 12.425H159.659C159.555 9.87703 157.657 8.26503 154.875 8.26503C152.119 8.26503 150.065 9.87703 150.065 12.321C150.065 13.985 151.027 15.363 153.497 16.013L155.733 16.585C156.565 16.819 157.085 17.209 157.085 17.937C157.085 18.951 156.123 19.419 154.953 19.419C153.549 19.419 152.743 18.769 152.743 17.651H149.857Z" fill="#002233"/>
<path d="M161.587 17.651C161.691 20.199 163.667 21.837 166.735 21.837C169.751 21.837 171.805 20.225 171.805 17.729C171.805 15.883 170.661 14.635 168.555 14.115L166.293 13.569C165.331 13.309 164.681 12.971 164.681 12.139C164.681 11.255 165.383 10.631 166.527 10.631C167.723 10.631 168.503 11.307 168.503 12.425H171.389C171.285 9.87703 169.387 8.26503 166.605 8.26503C163.849 8.26503 161.795 9.87703 161.795 12.321C161.795 13.985 162.757 15.363 165.227 16.013L167.463 16.585C168.295 16.819 168.815 17.209 168.815 17.937C168.815 18.951 167.853 19.419 166.683 19.419C165.279 19.419 164.473 18.769 164.473 17.651H161.587Z" fill="#002233"/>
<path d="M179.165 21.837C180.907 21.837 182.571 21.031 183.325 19.835L183.533 21.499H186.497V8.65503H183.325V15.389C183.325 17.703 182.441 19.003 180.361 19.003C178.749 19.003 177.631 18.223 177.631 15.571V8.65503H174.459V16.689C174.459 19.757 176.123 21.837 179.165 21.837Z" fill="#002233"/>
<path d="M198.034 8.60303C196.084 8.16103 193.874 8.60303 193.094 10.163L192.912 8.68103H190V21.499H193.172V15.259C193.172 12.763 194.498 11.359 196.786 11.359H198.034V8.60303Z" fill="#002233"/>
<path d="M203.872 21.837C205.9 21.837 207.434 20.927 207.98 19.601L208.214 21.499H210.996V13.699C210.996 10.293 209.02 8.26503 205.406 8.26503C202.078 8.26503 199.79 10.111 199.816 12.867H202.52C202.494 11.541 203.508 10.735 205.25 10.735C206.81 10.735 207.902 11.411 207.902 13.179V13.465L204.236 13.751C201.35 13.985 199.478 15.337 199.478 17.833C199.478 20.225 201.116 21.837 203.872 21.837ZM204.912 19.445C203.482 19.445 202.702 18.821 202.702 17.703C202.702 16.663 203.378 16.039 205.25 15.857L207.928 15.623V16.299C207.928 18.691 206.264 19.445 204.912 19.445Z" fill="#002233"/>
<path d="M217.471 21.499V14.583C217.471 11.905 219.239 11.151 220.617 11.151C221.709 11.151 223.321 11.593 223.321 14.349V21.499H226.467V13.595C226.467 10.397 224.959 8.26503 221.605 8.26503C219.863 8.26503 218.329 8.99303 217.497 10.319L217.237 8.65503H214.299V21.499H217.471Z" fill="#002233"/>
<path d="M228.902 15.051C228.902 19.081 231.45 21.837 235.064 21.837C238.392 21.837 240.836 19.809 241.226 16.793H238.21C237.846 18.249 236.676 19.003 235.272 19.003C233.296 19.003 232.074 17.521 232.074 15.051C232.074 12.555 233.322 11.073 235.298 11.073C236.676 11.073 237.846 11.801 238.21 13.309H241.2C240.862 10.293 238.548 8.26503 235.324 8.26503C231.554 8.26503 228.902 11.021 228.902 15.051Z" fill="#002233"/>
<path d="M242.866 15.077C242.866 19.159 245.362 21.837 249.08 21.837C252.174 21.837 254.592 19.991 255.138 17.261H252.2C251.888 18.379 250.666 19.159 249.132 19.159C247.208 19.159 246.012 18.041 245.934 15.987H255.086V15.025C255.086 10.943 252.824 8.26503 249.08 8.26503C245.388 8.26503 242.866 10.943 242.866 15.077ZM245.986 13.959C246.012 12.009 247.234 10.891 248.976 10.891C250.692 10.891 251.914 11.957 251.94 13.959H245.986Z" fill="#002233"/>
<path d="M258.473 21.915C259.617 21.915 260.579 20.979 260.579 19.861C260.579 18.717 259.617 17.755 258.473 17.755C257.329 17.755 256.367 18.717 256.367 19.861C256.367 20.979 257.329 21.915 258.473 21.915Z" fill="#002233"/>
<path d="M262.634 8.65503V11.281H264.454L264.48 21.499H267.652V11.281H270.694V8.65503H267.652V7.09503C267.652 5.82103 268.016 4.98903 269.628 4.98903H270.746V2.28503C270.2 2.18103 269.602 2.15503 269.108 2.15503C266.326 2.15503 264.454 3.61103 264.454 7.09503V8.65503H262.634Z" fill="#002233"/>
<path d="M280.96 8.60303C279.01 8.16103 276.8 8.60303 276.02 10.163L275.838 8.68103H272.926V21.499H276.098V15.259C276.098 12.763 277.424 11.359 279.712 11.359H280.96V8.60303Z" fill="#002233"/>
<path d="M106.908 44.499H109.979C111.487 44.499 112.496 43.7395 112.496 42.4592C112.496 41.5261 111.986 40.886 111.194 40.5713C111.943 40.2675 112.398 39.6491 112.398 38.7594C112.398 37.5225 111.509 36.6653 109.914 36.6653H106.908V44.499ZM109.903 37.5767C110.847 37.5767 111.368 38.1626 111.368 38.8896C111.368 39.6165 110.858 40.159 109.914 40.159H107.939V37.5767H109.903ZM110 41.0053C110.836 41.0053 111.454 41.461 111.465 42.2856C111.465 43.0885 110.89 43.5768 110 43.5768H107.939V41.0053H110Z" fill="#002233"/>
<path d="M114.891 36.6545H113.828V44.499H114.891V36.6545Z" fill="#002233"/>
<path d="M121.452 44.499V43.49H117.731V41.027H121.083V40.0831H117.731V37.6635H121.452V36.6545H116.667V44.499H121.452Z" fill="#002233"/>
<path d="M124.268 44.499V38.3688L128.283 44.499H129.346V36.6545H128.283V42.763L124.268 36.6545H123.205V44.499H124.268Z" fill="#002233"/>
<path d="M137.167 41.7106C138.74 41.7106 139.695 40.6256 139.695 39.1717C139.695 37.6418 138.74 36.6545 137.178 36.6545H134.129V44.499H135.192V41.7106H137.167ZM137.004 37.6201C138.046 37.6201 138.588 38.2711 138.588 39.1391C138.588 40.0505 138.046 40.7558 136.972 40.7558H135.192V37.6201H137.004Z" fill="#002233"/>
<path d="M141.984 36.6545H140.91V44.499H145.185V43.5442H141.984V36.6545Z" fill="#002233"/>
<path d="M146.1 41.754C146.1 43.7721 147.619 44.6401 149.16 44.6401C150.744 44.6401 152.198 43.707 152.198 41.754V36.6545H151.135V41.7214C151.135 43.0234 150.191 43.6202 149.16 43.6202C148.173 43.6202 147.174 43.1319 147.174 41.7214V36.6545H146.1V41.754Z" fill="#002233"/>
<path d="M153.477 38.7702C153.477 39.7576 154.063 40.5279 155.397 40.886L156.71 41.2332C157.383 41.4068 157.795 41.7648 157.795 42.405C157.795 43.1645 157.144 43.6744 156.113 43.6744C155.115 43.6744 154.464 43.197 154.442 42.4484H153.379C153.455 43.7829 154.529 44.6292 156.07 44.6292C157.741 44.6292 158.858 43.7287 158.858 42.3724C158.858 41.3308 158.207 40.5605 156.927 40.235L155.614 39.8878C154.952 39.7142 154.529 39.367 154.529 38.7268C154.529 37.9673 155.115 37.4574 156.059 37.4574C156.916 37.4574 157.513 37.8914 157.578 38.7051H158.641C158.544 37.4031 157.6 36.5134 156.113 36.5134C154.518 36.5134 153.477 37.4357 153.477 38.7702Z" fill="#002233"/>
<path d="M170.257 40.5713C170.257 38.2169 168.727 36.5134 166.481 36.5134C164.235 36.5134 162.716 38.2169 162.716 40.5713C162.716 42.9366 164.225 44.6292 166.471 44.6292C167.241 44.6292 167.924 44.4339 168.499 44.0759L169.161 44.8137L170.051 44.3905L169.226 43.4574C169.877 42.7413 170.257 41.7323 170.257 40.5713ZM167.469 41.4719L166.568 41.9059L167.783 43.2621C167.404 43.4791 166.97 43.5876 166.481 43.5876C164.876 43.5876 163.823 42.3833 163.823 40.5713C163.823 38.7594 164.886 37.555 166.481 37.555C168.076 37.555 169.14 38.7594 169.14 40.5713C169.14 41.4176 168.912 42.1229 168.499 42.6437L167.469 41.4719Z" fill="#002233"/>
<path d="M171.466 41.754C171.466 43.7721 172.985 44.6401 174.526 44.6401C176.11 44.6401 177.564 43.707 177.564 41.754V36.6545H176.501V41.7214C176.501 43.0234 175.557 43.6202 174.526 43.6202C173.539 43.6202 172.54 43.1319 172.54 41.7214V36.6545H171.466V41.754Z" fill="#002233"/>
<path d="M180.535 37.848C180.535 37.2512 180.21 36.9149 179.776 36.9149C179.342 36.9149 179.06 37.197 179.06 37.6201C179.06 38.0324 179.342 38.282 179.667 38.282C179.776 38.282 179.852 38.2603 179.928 38.2169C179.917 38.5749 179.624 38.8896 179.244 38.9872V39.367C180.004 39.2693 180.535 38.6292 180.535 37.848Z" fill="#002233"/>
<path d="M182.03 41.754C182.03 43.7721 183.549 44.6401 185.09 44.6401C186.674 44.6401 188.128 43.707 188.128 41.754V36.6545H187.065V41.7214C187.065 43.0234 186.121 43.6202 185.09 43.6202C184.103 43.6202 183.104 43.1319 183.104 41.7214V36.6545H182.03V41.754Z" fill="#002233"/>
<path d="M190.926 44.499V38.3688L194.94 44.499H196.004V36.6545H194.94V42.763L190.926 36.6545H189.862V44.499H190.926Z" fill="#002233"/>
<path d="M204.042 44.6184C205.788 44.6184 207.21 43.6093 207.546 42.0144H206.418C206.114 42.9475 205.192 43.5768 204.063 43.5768C202.501 43.5768 201.438 42.4267 201.438 40.5713C201.438 38.7594 202.458 37.555 204.063 37.555C205.127 37.555 206.005 38.1409 206.309 39.1825H207.449C207.156 37.5767 205.81 36.5134 204.096 36.5134C201.872 36.5134 200.32 38.1409 200.32 40.5822C200.32 43.0668 201.85 44.6184 204.042 44.6184Z" fill="#002233"/>
<path d="M215.924 40.5713C215.924 38.2169 214.394 36.5134 212.148 36.5134C209.902 36.5134 208.383 38.2169 208.383 40.5713C208.383 42.9366 209.902 44.6292 212.138 44.6292C214.394 44.6292 215.924 42.9258 215.924 40.5713ZM214.807 40.5713C214.807 42.3833 213.743 43.5876 212.148 43.5876C210.543 43.5876 209.501 42.3833 209.501 40.5713C209.501 38.7594 210.553 37.555 212.148 37.555C213.743 37.555 214.807 38.7594 214.807 40.5713Z" fill="#002233"/>
<path d="M218.315 44.499V41.1464C218.315 40.0505 218.304 39.2259 218.25 38.8462L220.517 44.499H221.537L223.794 38.8245C223.762 39.2693 223.729 39.9312 223.729 41.3959V44.499H224.792V36.6545H223.729L221.027 43.2513L218.315 36.6545H217.284V44.499H218.315Z" fill="#002233"/>
<path d="M229.657 41.7106C231.23 41.7106 232.185 40.6256 232.185 39.1717C232.185 37.6418 231.23 36.6545 229.668 36.6545H226.619V44.499H227.682V41.7106H229.657ZM229.494 37.6201C230.536 37.6201 231.078 38.2711 231.078 39.1391C231.078 40.0505 230.536 40.7558 229.462 40.7558H227.682V37.6201H229.494Z" fill="#002233"/>
<path d="M233.058 44.499L233.774 42.546H237.072L237.767 44.499H238.884L236.009 36.6545H234.837L231.973 44.499H233.058ZM235.314 38.3471C235.358 38.206 235.423 38.0107 235.434 37.8914C235.456 38.0107 235.521 38.206 235.575 38.3471L236.758 41.6455H234.088L235.314 38.3471Z" fill="#002233"/>
<path d="M240.99 44.499V41.3851H243.041L244.441 44.499H245.645L244.115 41.2223C245.059 40.9294 245.634 40.1265 245.634 39.0089C245.634 37.5333 244.669 36.6545 242.933 36.6545H239.927V44.499H240.99ZM240.99 37.6093H242.933C243.963 37.6093 244.506 38.1626 244.506 39.0198C244.506 39.8661 243.985 40.4303 242.943 40.4303H240.99V37.6093Z" fill="#002233"/>
<path d="M247.33 44.499L248.046 42.546H251.345L252.039 44.499H253.157L250.281 36.6545H249.109L246.245 44.499H247.33ZM249.587 38.3471C249.63 38.206 249.695 38.0107 249.706 37.8914C249.728 38.0107 249.793 38.206 249.847 38.3471L251.03 41.6455H248.361L249.587 38.3471Z" fill="#002233"/>
<path d="M252.73 37.6527H255.193V44.499H256.267V37.6527H258.719V36.6545H252.73V37.6527Z" fill="#002233"/>
<path d="M264.568 44.499V43.49H260.847V41.027H264.199V40.0831H260.847V37.6635H264.568V36.6545H259.784V44.499H264.568Z" fill="#002233"/>
<path d="M266.022 41.754C266.022 43.7721 267.541 44.6401 269.082 44.6401C270.666 44.6401 272.12 43.707 272.12 41.754V36.6545H271.057V41.7214C271.057 43.0234 270.113 43.6202 269.082 43.6202C268.095 43.6202 267.097 43.1319 267.097 41.7214V36.6545H266.022V41.754Z" fill="#002233"/>
<path d="M274.918 44.499V41.3851H276.969L278.368 44.499H279.573L278.043 41.2223C278.987 40.9294 279.562 40.1265 279.562 39.0089C279.562 37.5333 278.596 36.6545 276.86 36.6545H273.855V44.499H274.918ZM274.918 37.6093H276.86C277.891 37.6093 278.433 38.1626 278.433 39.0198C278.433 39.8661 277.913 40.4303 276.871 40.4303H274.918V37.6093Z" fill="#002233"/>
<path fill-rule="evenodd" clip-rule="evenodd" d="M13.0417 43.7184C9.89752 44.8484 10.7762 44.6573 7.02398 45.9439L0 41.3817C3.52132 40.1743 5.47362 39.4903 8.5524 38.3833C15.0919 36.0319 28.0515 33.3964 34.5774 32.2024C50.9372 29.209 72.7472 34.8617 83.9654 37.9823L81.8258 41.1287C61.3043 36.1538 50.843 35.3905 36.5326 37.7929C30.505 38.8048 22.3004 40.391 13.0417 43.7184Z" fill="url(#paint0_linear)"/>
<path fill-rule="evenodd" clip-rule="evenodd" d="M50.0159 7.4126C71.7168 7.4126 86.9512 9.3252 86.9512 25.6073C86.9512 25.6073 64.3574 22.6181 56.0081 27.5044C35.3923 24.748 26.9897 30.67 25.8016 37.9505C23.7525 50.5068 43.2234 55.2284 44.8238 44.4226C45.4048 40.4994 42.8156 37.4453 39.1263 37.4453C36.468 37.4453 34.0562 39.8993 34.683 42.6782C35.1783 44.874 38.4254 45.8334 39.6159 43.6655C40.3669 42.2978 37.9072 42.6832 37.3098 42.1132C35.9259 40.7928 37.9301 39.4548 39.1666 39.4912C42.105 39.5778 43.5748 42.6029 42.2153 45.0785C39.6273 49.7918 32.2008 48.003 31.5493 42.9281C30.96 38.3372 34.5319 34.3006 39.1263 34.3006C44.5515 34.3006 47.9159 38.9608 47.9159 44.4226C47.9159 50.7638 42.4239 55.1937 34.683 55.4808C29.3695 55.6779 25.5244 54.4532 20.0059 50.7638C14.8464 47.3144 10.7229 39.5973 10.7229 31.7301C10.7229 15.448 33.8426 7.4126 50.0159 7.4126Z" fill="url(#paint1_linear)"/>
<path fill-rule="evenodd" clip-rule="evenodd" d="M88.0012 25.6626C88.0012 9.37101 71.7168 6.49847 50.0159 6.49847C32.7449 6.49847 10.7865 15.408 10.7231 31.659C10.723 31.6675 10.7229 31.6835 10.7229 31.7075L10.7229 31.7404C10.7229 31.7133 10.723 31.6861 10.7231 31.659C10.7234 31.6385 10.7241 31.6612 10.726 31.7209C10.7448 32.3014 10.6975 36.3996 11.6242 38.2126C11.2823 28.5298 26.181 26.8761 29.8437 26.8761C44.0573 26.8761 47.2725 32.4108 49.8609 35.1939C51.91 37.3971 55.9031 36.4876 55.3817 34.7496C54.8603 33.0116 46.6773 26.8761 49.0091 26.8761C55.1269 26.8761 60.4379 34.0802 62.2107 36.3048C63.9834 38.5294 68.5751 37.8288 67.428 35.6042C66.7758 34.3393 61.885 29.1183 62.1283 27.541C77.9494 28.3607 88.0012 25.6626 88.0012 25.6626Z" fill="url(#paint2_linear)"/>
<path fill-rule="evenodd" clip-rule="evenodd" d="M57.6923 0.66367C82.4002 -1.45414 88.3958 17.4094 88.3958 25.5978C86.3096 28.1289 80.6696 32.0222 62.1396 27.5438C50.4564 15.658 62.1396 9.71513 57.6923 0.66367Z" fill="url(#paint3_linear)"/>
<circle cx="73.978" cy="14.3773" r="5.20789" fill="white"/>
<circle cx="73.9774" cy="14.3774" r="2.9711" fill="#00B487"/>
<circle cx="72.9953" cy="12.7516" r="1.34531" fill="white"/>
<defs>
<linearGradient id="paint0_linear" x1="83.9654" y1="38.6492" x2="0.802286" y2="38.6492" gradientUnits="userSpaceOnUse">
<stop stop-color="#004059"/>
<stop offset="1" stop-color="#207272"/>
</linearGradient>
<linearGradient id="paint1_linear" x1="42.5466" y1="15.3453" x2="43.284" y2="56.4809" gradientUnits="userSpaceOnUse">
<stop stop-color="#B3FF7D"/>
<stop offset="1" stop-color="#13ACA2"/>
</linearGradient>
<linearGradient id="paint2_linear" x1="38.4972" y1="3.34306" x2="43.031" y2="33.1219" gradientUnits="userSpaceOnUse">
<stop stop-color="#B3FF7D"/>
<stop offset="1" stop-color="#12B4A9"/>
</linearGradient>
<linearGradient id="paint3_linear" x1="70.952" y1="-0.633611" x2="61.4609" y2="24.4511" gradientUnits="userSpaceOnUse">
<stop stop-color="#B3FF7D"/>
<stop offset="1" stop-color="#13ACA2"/>
</linearGradient>
</defs>
</svg>
