<svg width="380" height="360" viewBox="0 0 380 360" fill="none" xmlns="http://www.w3.org/2000/svg">
<path d="M302.552 297.123C302.552 297.123 294.745 297.402 276.296 287.047C257.846 276.693 250.914 267.448 250.914 267.448L235.937 275.187L297.087 307.714L302.552 297.123Z" fill="#BEA088"/>
<path d="M271.821 284.454C257.188 273.423 254.974 271.629 250.829 265.805L235.937 275.186L266.512 291.45C259.868 287.916 262.434 283.009 271.821 284.454Z" fill="#9B7A71"/>
<path d="M290.484 297.452C292.461 288.82 301.724 286.575 323.277 281.795C315.894 302.626 310.223 311.363 301.737 311.676C293.252 311.988 288.507 306.084 290.484 297.452Z" fill="url(#paint0_linear)"/>
<path d="M304.978 300.995C314.971 306.719 314.056 318.841 311.374 346.878C288.31 329.891 279.669 319.637 282.687 309.203C285.704 298.768 294.986 295.271 304.978 300.995Z" fill="url(#paint1_linear)"/>
<path d="M131.702 177.403C134.613 181.124 137.273 185.064 139.513 189.15C140.195 190.312 140.815 191.528 141.372 192.799C145.586 201.422 148.279 210.82 149.259 220.393C149.387 221.927 149.57 223.524 149.582 225.05C149.628 225.23 149.612 225.463 149.604 225.58C150.219 240.408 150.276 249.078 142.798 262.172C141.672 264.03 140.546 265.888 139.311 267.622C142.798 262.172 139.801 264.781 140.015 263.387C137.063 255.818 133.526 240.141 128.626 234.512C124.395 229.525 119.407 225.307 114.223 221.369C112.886 220.338 111.542 219.423 110.259 218.454C108.697 217.29 107.189 216.188 105.565 215.078C98.9195 210.217 92.3448 205.185 86.4107 199.376C85.4787 198.432 84.5467 197.487 83.6772 196.488C82.6365 195.419 81.6583 194.295 80.6881 193.054C76.7914 188.325 73.5653 183.232 70.893 177.766C70.4825 176.916 70.072 176.067 69.6615 175.217C66.1924 167.701 63.6357 159.721 61.8421 151.734C61.7496 151.376 61.657 151.018 61.6189 150.722C61.4801 150.184 61.4038 149.592 61.265 149.054C58.5809 136.137 57.6728 122.99 56.8816 109.851C56.7231 107.904 56.6814 105.965 56.5773 104.08C57.2815 105.772 58.1025 107.472 58.9859 109.117C64.4958 119.355 72.8212 127.912 81.912 135.582C82.6347 136.16 83.4117 136.801 84.1344 137.379C86.5198 139.363 89.0302 141.238 91.478 143.168C95.0995 145.942 98.9003 148.669 102.584 151.389C103.307 151.967 104.092 152.49 104.815 153.069C110.729 157.468 116.402 161.968 121.746 166.973C122.461 167.668 123.175 168.363 123.89 169.058C126.71 171.542 129.273 174.359 131.702 177.403Z" fill="url(#paint2_linear)"/>
<path d="M156.224 184C177.817 192.335 165.331 231.304 159.028 245.156C154.952 255.082 146.779 267.965 146.085 278.805C143.017 311.247 159.373 333.737 180.819 348.848C183.156 318.016 204.338 299.053 209.926 274.65C220.427 238.613 190.541 195.588 156.224 184Z" fill="url(#paint3_linear)"/>
<path d="M102.769 198.32C106.895 200.623 110.875 203.222 114.524 206.12C115.604 206.927 116.647 207.808 117.653 208.763C124.881 215.078 131.007 222.697 135.622 231.141C136.335 232.505 137.122 233.906 137.725 235.309C137.837 235.456 137.913 235.677 137.951 235.788C144.267 249.218 147.197 265.226 145.38 280.195C145.063 282.344 144.745 284.494 144.279 286.57C143.972 285.129 143.629 283.761 143.286 282.394C140.655 271.789 137.112 263.041 128.734 256.438C127.878 255.741 126.985 255.118 126.018 254.459C124.753 253.653 123.489 252.848 122.077 252.155C116.243 249.199 110.01 247.245 103.705 245.625C102.073 245.192 100.479 244.871 98.9209 244.475C97.0295 244.007 95.2125 243.576 93.2846 243.183C85.2746 241.279 77.2632 239.19 69.541 236.136C68.3157 235.627 67.0903 235.117 65.9015 234.534C64.5275 233.951 63.1901 233.295 61.8148 232.527C56.3893 229.679 51.4407 226.235 46.8583 222.233C46.1504 221.609 45.4425 220.985 44.7346 220.361C38.623 214.778 33.172 208.413 28.4221 201.747C28.1979 201.452 27.9736 201.158 27.8237 200.9C27.4873 200.458 27.1874 199.942 26.851 199.5C19.3684 188.634 13.434 176.868 7.61035 165.063C6.70931 163.33 5.91906 161.559 5.09233 159.862C6.39734 161.148 7.81313 162.397 9.2654 163.571C18.3141 170.872 29.3056 175.531 40.6593 179.076C41.5496 179.329 42.5142 179.618 43.4045 179.871C46.3726 180.775 49.4137 181.53 52.4183 182.36C56.832 183.513 61.3929 184.553 65.8431 185.631C66.7334 185.884 67.6602 186.062 68.5505 186.315C75.708 188.077 82.6818 190.026 89.5488 192.567C90.477 192.931 91.4051 193.294 92.3332 193.658C95.8957 194.853 99.3502 196.457 102.769 198.32Z" fill="url(#paint4_linear)"/>
<path d="M215.542 226.476C218.524 204.107 214.654 180.368 202.754 161C205.005 177.03 204.539 195.054 192.149 207.081C184.091 215.118 173.989 221.114 164.031 226.515C153.312 232.815 142.142 239.475 133.64 248.717C128.808 253.688 124.741 259.179 121.303 265.183C115.558 275.334 111.923 286.263 108.411 297.345C103.948 314.3 102.209 331.797 100.398 349.189C115.018 332.045 128.798 315.494 145.603 304.728C158.949 296.455 170.695 292.748 182.933 282.828C200.93 269.759 212.224 248.225 215.542 226.476Z" fill="url(#paint5_linear)"/>
<path fill-rule="evenodd" clip-rule="evenodd" d="M266 275.5C165.398 273.562 161.636 263.173 22.3222 307.156C19.1622 308.153 15.6861 306.441 14.6821 303.283C13.6781 300.125 15.5264 296.718 18.6864 295.72C160.022 251.107 165.594 261.539 266.747 263.496C294.592 264.035 319.691 260.986 344.366 256.138C347.526 255.518 350.638 257.446 351.451 260.562C352.303 263.827 350.322 267.162 347.025 267.881C323.368 273.042 293.671 276.033 266 275.5Z" fill="url(#paint6_linear)"/>
<path fill-rule="evenodd" clip-rule="evenodd" d="M266 275.5C165.398 273.562 161.636 263.173 22.3222 307.156C19.1622 308.153 15.6861 306.441 14.6821 303.283C13.6781 300.125 15.5264 296.718 18.6864 295.72C160.022 251.107 165.594 261.539 266.747 263.496C294.592 264.035 319.691 260.986 344.366 256.138C347.526 255.518 350.638 257.446 351.451 260.562C352.303 263.827 350.322 267.162 347.025 267.881C323.368 273.042 293.671 276.033 266 275.5Z" fill="url(#paint7_linear)"/>
<path d="M217.011 125.291L206.062 255.508C206.062 255.508 204.904 263.391 210.782 263.413C220.441 263.435 258.859 263.413 258.859 263.413C258.859 263.413 251.582 261.775 251.669 258.063C251.778 253.695 264.475 124.046 264.475 124.046L217.011 125.291Z" fill="#75ACEA"/>
<path d="M262.465 259.388C260.563 259.388 223.37 259.454 213.951 259.345C209.843 259.301 209.122 255.698 209.1 253.383C209.078 252.269 209.231 251.44 209.231 251.44L209.515 248.055L210.236 239.429L210.87 231.808L211.701 222.024L212.4 213.748L220.179 121.223L267.666 120C267.666 120 262.312 174.266 258.531 213.748C258.116 218.159 257.701 222.374 257.329 226.305C257.198 227.571 257.089 228.794 256.98 229.995C256.63 233.729 256.302 237.158 256.018 240.193C255.865 241.787 255.734 243.272 255.603 244.626C255.122 249.955 254.838 253.361 254.838 253.994C254.838 254.366 254.86 254.715 254.925 255.043C255.734 259.192 261.744 259.388 262.465 259.388Z" fill="url(#paint8_linear)"/>
<path d="M101.693 54.4286L128.397 161.585L132.047 176.26L144.481 226.158H375.466L329.64 54.4286H101.693Z" fill="#AED1FF"/>
<path d="M101.693 54.4286L98 55.6733L139.564 229.892L144.481 226.158L101.693 54.4286Z" fill="#90C2F4"/>
<path d="M139.564 229.892H369.128L375.466 226.158H144.481L139.564 229.892Z" fill="#75ACEA"/>
<path d="M220.184 263.462H269.877V263.104C269.877 260.895 268.086 259.104 265.877 259.104H220.184V263.462Z" fill="#AED1FF"/>
<path d="M101.693 54.4286H329.64L366.615 192.441H136.089L101.693 54.4286Z" fill="#C9E3FF"/>
<path d="M355.864 186.48H142.449L134.822 156.104L131.872 144.355L130.67 139.573L122.825 108.367L122.432 106.751L118.28 90.2639L116.422 82.8828L114.849 76.5936L111.134 61.8315H321.489L325.554 76.5936L327.28 82.8828L329.334 90.2639L342.73 138.874L343.867 143.001L344.391 144.901L353.657 178.465L355.864 186.48Z" fill="url(#paint9_linear)"/>
<path d="M355.864 186.48H142.449L134.822 156.104L131.872 144.355L130.67 139.573L122.825 108.367L122.432 106.751L118.28 90.2639L116.422 82.8828L114.849 76.5936L111.134 61.8315H321.489L325.554 76.5936L327.28 82.8828L329.334 90.2639L342.73 138.874L343.867 143.001L344.391 144.901L353.657 178.465L355.864 186.48Z" fill="url(#paint10_linear)"/>
<path d="M355.864 186.48H142.449L134.822 156.104L131.872 144.355L130.67 139.573L122.825 108.367L122.432 106.751L118.28 90.2639L116.422 82.8828L114.849 76.5936L111.134 61.8315H321.489L325.554 76.5936L327.28 82.8828L329.334 90.2639L342.73 138.874L343.867 143.001L344.391 144.901L353.657 178.465L355.864 186.48Z" fill="url(#paint11_linear)"/>
<path d="M325.554 76.5936H114.849L111.134 61.8315H321.489L325.554 76.5936Z" fill="#53B694"/>
<path d="M119.853 68.4919C119.591 67.4656 120.224 66.6576 121.23 66.6576C122.257 66.6576 123.284 67.4874 123.546 68.4919C123.808 69.5183 123.174 70.3263 122.169 70.3263C121.12 70.3481 120.093 69.5183 119.853 68.4919Z" fill="#E9F7FE"/>
<path d="M125.971 68.4919C125.709 67.4655 126.343 66.6576 127.348 66.6576C128.375 66.6576 129.402 67.4874 129.665 68.4919C129.927 69.5182 129.293 70.3262 128.288 70.3262C127.261 70.3481 126.234 69.5182 125.971 68.4919Z" fill="#E9F7FE"/>
<path d="M132.593 68.4919C132.331 67.4655 132.964 66.6576 133.97 66.6576C134.997 66.6576 136.024 67.4874 136.286 68.4919C136.548 69.5182 135.915 70.3262 134.909 70.3262C133.86 70.3481 132.833 69.5182 132.593 68.4919Z" fill="#E9F7FE"/>
<path d="M304.892 22.6124C275.633 12.6122 254.902 7.34643 234.864 7V191.855C236.805 191.855 238.017 192.099 240.388 190.285C244.259 187.323 249.759 175.971 278.259 163.971C306.759 151.971 311.756 132.639 311.756 115.433V31.458C311.756 27.5548 309.029 24.0213 304.892 22.6124Z" fill="url(#paint12_linear)"/>
<path d="M164.864 22.6124C194.123 12.6122 214.854 7.34643 234.892 7V191.855C232.951 191.855 231.739 192.099 229.369 190.285C225.498 187.323 219.998 175.971 191.498 163.971C162.998 151.971 158 132.639 158 115.433V31.458C158 27.5548 160.727 24.0213 164.864 22.6124Z" fill="url(#paint13_linear)"/>
<path d="M239.984 99.8213H228.729C218.629 99.8213 210.425 91.6224 210.425 81.5298V63.0352C210.425 52.9426 218.629 44.7437 228.729 44.7437H239.984C250.084 44.7437 258.289 52.9426 258.289 63.0352V81.5298C258.312 91.6224 250.084 99.8213 239.984 99.8213ZM228.729 52.065C222.674 52.065 217.751 56.9843 217.751 63.0352V81.5298C217.751 87.5808 222.674 92.5001 228.729 92.5001H239.984C246.04 92.5001 250.962 87.5808 250.962 81.5298V63.0352C250.962 56.9843 246.04 52.065 239.984 52.065H228.729Z" fill="#D2EAFF"/>
<path d="M244.64 135H226.908C210.306 135 196.864 122.224 196.864 106.445V87.0001C196.864 78.1635 204.027 71.0001 212.864 71.0001H256.863C265.7 71.0001 272.863 78.1635 272.863 87.0001V108.176C272.887 122.991 260.251 135 244.64 135Z" fill="#D2EAFF"/>
<path d="M237.305 102.835C241.028 101.53 242.987 97.4562 241.681 93.736C240.375 90.0158 236.299 88.0579 232.576 89.3629C228.853 90.6679 226.894 94.7416 228.2 98.4618C229.505 102.182 233.582 104.14 237.305 102.835Z" fill="#208DF2"/>
<path d="M234.365 99C233.616 99 233 99.6985 233 100.547V111C233 112.105 233.895 113 235 113C236.105 113 237 112.107 237 111.002C237 108.699 237 104.696 237 100.547C237 99.6985 235.113 99 234.365 99Z" fill="#208DF2"/>
<path fill-rule="evenodd" clip-rule="evenodd" d="M170.715 207.955C171.864 205.637 173.758 203.779 176.818 203.129C187.226 200.917 208.235 202.617 217.11 221.587C225.985 240.556 221.702 250.261 218.643 251.708C215.585 253.154 178.666 256.049 172.323 252.976C171.053 252.36 170.312 251.188 169.906 249.641C169.495 249.617 169.084 249.589 168.674 249.559C166.42 249.376 161.685 249.343 155.548 249.662C155.513 250.071 155.543 250.506 155.647 250.97C156.345 254.083 160.955 259.894 163.758 260.911C164.846 261.307 166.222 261.168 167.609 261.029C169.58 260.831 171.574 260.631 172.797 261.957C176.597 266.079 167.714 266.745 164.19 267.01L164.19 267.01C163.77 267.041 163.426 267.067 163.189 267.092L162.977 267.115C160.809 267.347 158.49 267.595 156.443 266.794C152.882 265.402 149.637 262.578 146.677 260.002C146.183 259.572 145.696 259.148 145.217 258.74C142.463 256.392 139.994 253.941 139.098 251.152C135.872 251.569 132.548 252.076 129.204 252.689C124.966 253.466 120.894 254.729 117.146 256.329C116.941 257.721 116.695 259.116 116.449 260.511C115.737 264.557 115.026 268.596 115.305 272.525C115.658 272.349 116.033 272.153 116.426 271.948C119.018 270.595 122.373 268.843 125.196 269.855C126.648 270.377 127.671 272.002 127.092 273.48C126.525 274.939 124.654 275.478 123.109 275.924C122.794 276.015 122.493 276.102 122.219 276.192C121.257 276.507 120.288 276.86 119.312 277.216C116.868 278.106 114.379 279.012 111.853 279.377C108.174 279.909 107.748 278.667 106.709 275.19C106.363 274.034 106.096 272.88 105.882 271.724C105.381 271.114 104.804 270.155 104.239 269.215C103.244 267.56 102.283 265.962 101.833 266.425C98.5411 269.808 96.4997 273.38 96.1985 276.667C95.3503 285.926 100.387 302.617 118.41 311.661C136.434 320.706 152.722 313.101 157.424 305.018C162.126 296.936 154.585 291.383 149.589 292.748C142.547 294.675 137.415 290.684 141.809 285.199C146.125 279.82 157.943 278.78 166.209 286.535C174.474 294.289 178.554 322.584 145.347 327.476C112.14 332.369 90.8851 305.128 83.7017 288.083C82.3288 284.825 81.2299 280.974 80.4203 276.752L80.4305 276.962L74.137 278.325C74.137 278.325 71.5177 275.187 73.8972 267.02C75.1443 262.739 76.7602 259.753 78.0158 257.881L70 259.78C70 259.78 70.3037 254.043 74.4371 246.603C76.3863 243.094 78.3905 240.674 79.9644 239.096L71.357 239.015C71.357 239.015 73.0126 233.511 78.8116 227.284C81.5049 224.392 83.9969 222.537 85.8935 221.379L78.4036 218.142C78.4036 218.142 82.0653 213.699 89.8298 210.224C92.693 208.942 95.1851 208.21 97.1904 207.797C97.4039 207.625 97.6186 207.456 97.8346 207.289C97.7637 205.858 95.4082 205.082 91.9855 203.955L91.8902 203.924C91.8902 203.924 97.8222 200.698 106.268 199.633C109.934 199.171 112.884 199.292 115.049 199.577C115.65 199.455 116.256 199.344 116.864 199.245L117.262 194.397C117.262 194.397 118.662 192.958 126.765 195.56C130.338 196.708 132.987 198.088 134.833 199.272C134.998 199.298 135.162 199.325 135.328 199.352L134.251 194.76C134.251 194.76 139.982 195.046 147.415 199.198C150.854 201.119 153.244 203.091 154.82 204.656L154.348 198.344C154.348 198.344 159.969 199.546 166.665 204.788C168.194 205.985 169.543 207.04 170.715 207.955ZM80.369 238.699C80.4385 238.543 80.527 238.344 80.6318 238.11C80.6045 238.249 80.5775 238.388 80.5508 238.527C80.491 238.583 80.4304 238.641 80.369 238.699Z" fill="white"/>
<path d="M176.818 203.129L177.026 204.107L176.818 203.129ZM170.715 207.955L170.1 208.744L171.067 209.499L171.612 208.399L170.715 207.955ZM217.11 221.587L216.204 222.011L217.11 221.587ZM218.643 251.708L218.216 250.804L218.643 251.708ZM172.323 252.976L171.886 253.876L171.887 253.876L172.323 252.976ZM169.906 249.641L170.873 249.387L170.689 248.685L169.965 248.642L169.906 249.641ZM168.674 249.559L168.593 250.556L168.6 250.556L168.674 249.559ZM155.548 249.662L155.496 248.663L154.624 248.709L154.551 249.578L155.548 249.662ZM155.647 250.97L156.623 250.751L156.623 250.75L155.647 250.97ZM163.758 260.911L164.1 259.971L164.1 259.971L163.758 260.911ZM167.609 261.029L167.509 260.034L167.609 261.029ZM172.797 261.957L173.532 261.279L173.532 261.278L172.797 261.957ZM164.19 267.01L164.115 266.012L164.107 266.013L164.19 267.01ZM164.19 267.01L164.264 268.007L164.273 268.006L164.19 267.01ZM163.189 267.092L163.083 266.098L163.083 266.098L163.189 267.092ZM162.977 267.115L162.87 266.121L162.87 266.121L162.977 267.115ZM156.443 266.794L156.808 265.863L156.807 265.862L156.443 266.794ZM146.677 260.002L147.334 259.248L146.677 260.002ZM145.217 258.74L145.867 257.979L145.866 257.979L145.217 258.74ZM139.098 251.152L140.051 250.846L139.796 250.053L138.97 250.16L139.098 251.152ZM129.204 252.689L129.024 251.705H129.024L129.204 252.689ZM117.146 256.329L116.753 255.41L116.238 255.629L116.157 256.183L117.146 256.329ZM116.449 260.511L117.434 260.684V260.684L116.449 260.511ZM115.305 272.525L114.308 272.596L114.414 274.085L115.751 273.42L115.305 272.525ZM116.426 271.948L116.889 272.835H116.889L116.426 271.948ZM125.196 269.855L125.534 268.914L125.533 268.913L125.196 269.855ZM127.092 273.48L126.161 273.116L126.161 273.117L127.092 273.48ZM123.109 275.924L123.386 276.885H123.386L123.109 275.924ZM122.219 276.192L122.53 277.143L122.531 277.142L122.219 276.192ZM119.312 277.216L119.654 278.155H119.654L119.312 277.216ZM111.853 279.377L111.71 278.387L111.71 278.387L111.853 279.377ZM106.709 275.19L105.75 275.476L105.751 275.476L106.709 275.19ZM105.882 271.724L106.865 271.542L106.818 271.289L106.655 271.09L105.882 271.724ZM104.239 269.215L105.096 268.699V268.699L104.239 269.215ZM101.833 266.425L101.116 265.728L101.116 265.728L101.833 266.425ZM96.1985 276.667L97.1943 276.759L96.1985 276.667ZM118.41 311.661L117.962 312.555L118.41 311.661ZM157.424 305.018L156.56 304.516V304.516L157.424 305.018ZM149.589 292.748L149.326 291.783L149.326 291.783L149.589 292.748ZM141.809 285.199L141.029 284.573L141.028 284.574L141.809 285.199ZM166.209 286.535L166.893 285.805L166.209 286.535ZM145.347 327.476L145.201 326.487L145.347 327.476ZM83.7017 288.083L82.7802 288.471L83.7017 288.083ZM80.4203 276.752L81.4024 276.564L79.4215 276.801L80.4203 276.752ZM80.4305 276.962L80.6422 277.939L81.4705 277.76L81.4293 276.913L80.4305 276.962ZM74.137 278.325L73.3693 278.966L73.7572 279.43L74.3487 279.302L74.137 278.325ZM73.8972 267.02L74.8573 267.3L73.8972 267.02ZM78.0158 257.881L78.8464 258.438L80.2662 256.32L77.7853 256.908L78.0158 257.881ZM70 259.78L69.0014 259.727L68.9308 261.06L70.2305 260.753L70 259.78ZM74.4371 246.603L75.3113 247.089L74.4371 246.603ZM79.9644 239.096L80.6725 239.802L82.3518 238.118L79.9738 238.096L79.9644 239.096ZM71.357 239.015L70.3993 238.727L70.0157 240.003L71.3476 240.015L71.357 239.015ZM78.8116 227.284L78.0798 226.602L78.8116 227.284ZM85.8935 221.379L86.4146 222.232L88.062 221.226L86.2902 220.461L85.8935 221.379ZM78.4036 218.142L77.6319 217.506L76.7861 218.532L78.007 219.06L78.4036 218.142ZM89.8298 210.224L90.2383 211.137L89.8298 210.224ZM97.1904 207.797L97.3924 208.776L97.6292 208.727L97.8175 208.576L97.1904 207.797ZM97.8346 207.289L98.4453 208.081L98.8593 207.762L98.8334 207.24L97.8346 207.289ZM91.9855 203.955L91.6727 204.905L91.6727 204.905L91.9855 203.955ZM91.8902 203.924L91.4124 203.045L89.3808 204.15L91.5774 204.874L91.8902 203.924ZM106.268 199.633L106.393 200.625L106.268 199.633ZM115.049 199.577L114.918 200.569L115.084 200.591L115.248 200.557L115.049 199.577ZM116.864 199.245L117.026 200.232L117.797 200.106L117.861 199.327L116.864 199.245ZM117.262 194.397L116.546 193.699L116.295 193.957L116.266 194.315L117.262 194.397ZM126.765 195.56L127.07 194.608V194.608L126.765 195.56ZM134.833 199.272L134.293 200.114L134.47 200.228L134.678 200.26L134.833 199.272ZM135.328 199.352L135.164 200.339L136.643 200.584L136.301 199.124L135.328 199.352ZM134.251 194.76L134.301 193.761L132.975 193.695L133.278 194.988L134.251 194.76ZM147.415 199.198L146.927 200.071L147.415 199.198ZM154.82 204.656L154.116 205.365L156.017 207.253L155.817 204.581L154.82 204.656ZM154.348 198.344L154.558 197.366L153.252 197.087L153.351 198.418L154.348 198.344ZM166.665 204.788L167.281 204L166.665 204.788ZM80.6318 238.11L81.613 238.303L79.7188 237.702L80.6318 238.11ZM80.369 238.699L79.4551 238.293L81.0608 239.421L80.369 238.699ZM80.5508 238.527L81.235 239.256L81.4718 239.034L81.5329 238.715L80.5508 238.527ZM176.61 202.151C173.201 202.875 171.079 204.969 169.819 207.512L171.612 208.399C172.649 206.305 174.315 204.683 177.026 204.107L176.61 202.151ZM218.015 221.163C213.44 211.384 205.725 206.054 197.851 203.465C190.003 200.884 181.968 201.012 176.61 202.151L177.026 204.107C182.076 203.034 189.749 202.906 197.226 205.365C204.677 207.815 211.904 212.82 216.204 222.011L218.015 221.163ZM219.071 252.612C220.116 252.117 221.091 251.022 221.839 249.5C222.599 247.954 223.17 245.882 223.349 243.287C223.708 238.096 222.504 230.756 218.015 221.163L216.204 222.011C220.591 231.387 221.683 238.384 221.354 243.149C221.189 245.533 220.671 247.344 220.045 248.617C219.407 249.915 218.7 250.575 218.216 250.804L219.071 252.612ZM171.887 253.876C172.834 254.335 174.241 254.641 175.879 254.855C177.547 255.073 179.557 255.208 181.775 255.277C186.213 255.417 191.548 255.297 196.765 255.036C201.984 254.775 207.103 254.372 211.114 253.943C213.118 253.728 214.855 253.506 216.194 253.291C216.862 253.183 217.442 253.076 217.91 252.969C218.356 252.868 218.773 252.753 219.071 252.612L218.216 250.804C218.131 250.844 217.901 250.92 217.467 251.019C217.056 251.112 216.522 251.212 215.876 251.316C214.585 251.524 212.887 251.742 210.901 251.954C206.931 252.379 201.851 252.779 196.665 253.038C191.477 253.298 186.201 253.415 181.838 253.278C179.655 253.21 177.716 253.078 176.139 252.872C174.532 252.662 173.398 252.386 172.759 252.076L171.887 253.876ZM168.939 249.895C169.388 251.606 170.261 253.087 171.886 253.876L172.759 252.077C171.845 251.633 171.236 250.77 170.873 249.387L168.939 249.895ZM168.6 250.556C169.016 250.587 169.432 250.615 169.848 250.639L169.965 248.642C169.559 248.619 169.153 248.592 168.748 248.562L168.6 250.556ZM155.6 250.661C161.721 250.342 166.404 250.378 168.593 250.556L168.755 248.562C166.435 248.374 161.649 248.343 155.496 248.663L155.6 250.661ZM156.623 250.75C156.539 250.379 156.519 250.047 156.544 249.746L154.551 249.578C154.508 250.095 154.546 250.632 154.672 251.19L156.623 250.75ZM164.1 259.971C163.572 259.78 162.869 259.321 162.067 258.616C161.281 257.924 160.458 257.048 159.691 256.098C158.126 254.161 156.92 252.077 156.623 250.751L154.671 251.189C155.072 252.977 156.52 255.355 158.135 257.355C158.959 258.374 159.858 259.336 160.746 260.118C161.619 260.885 162.543 261.534 163.417 261.851L164.1 259.971ZM167.509 260.034C166.048 260.181 164.929 260.273 164.1 259.971L163.417 261.851C164.764 262.341 166.395 262.156 167.709 262.024L167.509 260.034ZM173.532 261.278C172.698 260.375 171.627 260.032 170.584 259.926C169.567 259.823 168.47 259.937 167.509 260.034L167.709 262.024C168.719 261.923 169.604 261.837 170.383 261.916C171.135 261.992 171.673 262.212 172.062 262.635L173.532 261.278ZM164.265 268.007C165.993 267.877 169.226 267.64 171.551 266.88C172.142 266.687 172.711 266.449 173.198 266.148C173.68 265.851 174.139 265.457 174.428 264.928C174.734 264.369 174.807 263.735 174.627 263.081C174.455 262.459 174.068 261.86 173.532 261.279L172.062 262.634C172.476 263.083 172.642 263.408 172.699 263.612C172.746 263.784 172.721 263.881 172.673 263.968C172.609 264.085 172.459 264.254 172.147 264.446C171.841 264.636 171.431 264.815 170.929 264.979C168.881 265.649 165.911 265.878 164.115 266.013L164.265 268.007ZM164.273 268.006L164.273 268.006L164.107 266.013L164.106 266.013L164.273 268.006ZM163.295 268.087C163.513 268.063 163.837 268.039 164.264 268.007L164.115 266.013C163.702 266.044 163.34 266.071 163.083 266.098L163.295 268.087ZM163.083 268.109L163.295 268.087L163.083 266.098L162.87 266.121L163.083 268.109ZM156.079 267.725C158.394 268.631 160.969 268.336 163.083 268.109L162.87 266.121C160.649 266.358 158.587 266.559 156.808 265.863L156.079 267.725ZM146.021 260.756C148.948 263.304 152.326 266.258 156.079 267.725L156.807 265.862C153.438 264.545 150.326 261.852 147.334 259.248L146.021 260.756ZM144.568 259.5C145.043 259.905 145.525 260.326 146.021 260.756L147.334 259.248C146.84 258.818 146.35 258.391 145.867 257.979L144.568 259.5ZM138.146 251.457C139.138 254.548 141.826 257.163 144.569 259.501L145.866 257.979C143.1 255.622 140.849 253.334 140.051 250.846L138.146 251.457ZM129.384 253.673C132.709 253.064 136.016 252.559 139.227 252.143L138.97 250.16C135.729 250.579 132.387 251.089 129.024 251.705L129.384 253.673ZM117.539 257.249C121.222 255.676 125.222 254.435 129.384 253.673L129.024 251.705C124.709 252.496 120.567 253.782 116.753 255.41L117.539 257.249ZM116.157 256.183C115.954 257.559 115.711 258.941 115.465 260.337L117.434 260.684C117.679 259.292 117.928 257.883 118.135 256.475L116.157 256.183ZM115.465 260.337C114.756 264.359 114.018 268.522 114.308 272.596L116.303 272.454C116.033 268.67 116.717 264.755 117.434 260.684L115.465 260.337ZM115.751 273.42C116.114 273.239 116.498 273.039 116.889 272.835L115.963 271.062C115.569 271.268 115.203 271.459 114.86 271.63L115.751 273.42ZM116.889 272.835C118.199 272.151 119.609 271.418 121.027 270.968C122.447 270.518 123.742 270.396 124.858 270.796L125.533 268.913C123.827 268.302 122.034 268.55 120.422 269.061C118.809 269.573 117.246 270.392 115.963 271.062L116.889 272.835ZM124.857 270.796C125.932 271.182 126.48 272.301 126.161 273.116L128.024 273.844C128.861 271.703 127.365 269.573 125.534 268.914L124.857 270.796ZM126.161 273.117C126.003 273.522 125.64 273.872 125.013 274.191C124.382 274.513 123.623 274.735 122.832 274.964L123.386 276.885C124.14 276.668 125.09 276.397 125.922 275.973C126.758 275.546 127.614 274.897 128.024 273.843L126.161 273.117ZM122.832 274.964C122.521 275.053 122.201 275.145 121.906 275.242L122.531 277.142C122.784 277.059 123.067 276.977 123.386 276.885L122.832 274.964ZM121.907 275.242C120.928 275.563 119.943 275.921 118.97 276.276L119.654 278.155C120.633 277.799 121.587 277.451 122.53 277.143L121.907 275.242ZM118.97 276.276C116.507 277.173 114.116 278.04 111.71 278.387L111.995 280.367C114.642 279.985 117.229 279.039 119.654 278.155L118.97 276.276ZM111.71 278.387C109.927 278.645 109.329 278.402 108.989 278.071C108.783 277.87 108.581 277.55 108.36 277.008C108.138 276.464 107.93 275.784 107.667 274.903L105.751 275.476C106.007 276.334 106.242 277.113 106.508 277.764C106.774 278.416 107.103 279.025 107.593 279.503C108.646 280.529 110.1 280.641 111.996 280.367L111.71 278.387ZM107.667 274.904C107.333 273.788 107.074 272.669 106.865 271.542L104.899 271.907C105.119 273.091 105.393 274.281 105.75 275.476L107.667 274.904ZM103.382 269.73C103.932 270.645 104.551 271.679 105.109 272.359L106.655 271.09C106.211 270.55 105.677 269.666 105.096 268.699L103.382 269.73ZM102.55 267.122C102.422 267.253 102.218 267.352 101.988 267.343C101.893 267.34 101.821 267.319 101.779 267.303C101.737 267.287 101.714 267.272 101.711 267.27C101.709 267.268 101.741 267.29 101.807 267.359C101.87 267.425 101.947 267.516 102.038 267.634C102.417 268.127 102.873 268.883 103.382 269.73L105.096 268.699C104.61 267.891 104.088 267.021 103.625 266.417C103.404 266.129 103.125 265.805 102.806 265.596C102.643 265.489 102.386 265.357 102.061 265.345C101.689 265.331 101.356 265.481 101.116 265.728L102.55 267.122ZM97.1943 276.759C97.4659 273.794 99.335 270.426 102.55 267.122L101.116 265.728C97.7472 269.19 95.5335 272.966 95.2027 276.576L97.1943 276.759ZM118.859 310.768C101.235 301.923 96.3803 285.643 97.1943 276.759L95.2027 276.576C94.3202 286.208 99.54 303.31 117.962 312.555L118.859 310.768ZM156.56 304.516C152.157 312.084 136.472 319.606 118.859 310.768L117.962 312.555C136.395 321.805 153.288 314.118 158.288 305.521L156.56 304.516ZM149.853 293.712C151.932 293.145 154.682 294.018 156.386 295.994C158.011 297.878 158.71 300.819 156.56 304.516L158.288 305.521C160.84 301.135 160.119 297.259 157.9 294.687C155.761 292.207 152.243 290.986 149.326 291.783L149.853 293.712ZM141.028 284.574C139.84 286.057 139.214 287.54 139.181 288.94C139.147 290.367 139.733 291.595 140.744 292.499C142.712 294.256 146.16 294.723 149.853 293.712L149.326 291.783C145.977 292.7 143.338 292.134 142.077 291.007C141.474 290.468 141.161 289.791 141.18 288.987C141.2 288.157 141.58 287.084 142.589 285.824L141.028 284.574ZM166.893 285.805C162.566 281.746 157.3 279.981 152.536 279.942C147.805 279.903 143.435 281.575 141.029 284.573L142.589 285.825C144.499 283.444 148.196 281.906 152.52 281.942C156.81 281.977 161.585 283.568 165.524 287.264L166.893 285.805ZM145.493 328.466C153.934 327.222 160.089 324.479 164.418 320.874C168.752 317.266 171.206 312.836 172.302 308.315C173.395 303.804 173.135 299.216 172.071 295.256C171.012 291.31 169.13 287.905 166.893 285.805L165.524 287.264C167.419 289.042 169.148 292.081 170.14 295.775C171.128 299.454 171.363 303.699 170.358 307.844C169.356 311.977 167.12 316.022 163.138 319.337C159.151 322.657 153.363 325.285 145.201 326.487L145.493 328.466ZM82.7802 288.471C86.4248 297.119 93.6261 308.335 104.139 316.785C114.672 325.252 128.56 330.96 145.493 328.466L145.201 326.487C128.928 328.885 115.585 323.419 105.392 315.227C95.18 307.018 88.162 296.091 84.6232 287.695L82.7802 288.471ZM79.4382 276.941C80.2574 281.212 81.3737 285.134 82.7802 288.471L84.6232 287.695C83.2839 284.517 82.2024 280.736 81.4024 276.564L79.4382 276.941ZM81.4293 276.913L81.4192 276.704L79.4215 276.801L79.4317 277.01L81.4293 276.913ZM74.3487 279.302L80.6422 277.939L80.2188 275.984L73.9252 277.348L74.3487 279.302ZM72.9372 266.74C71.7095 270.954 71.7507 273.944 72.1438 275.929C72.3399 276.92 72.6219 277.651 72.8683 278.15C72.9914 278.399 73.105 278.589 73.1938 278.724C73.2381 278.791 73.2763 278.845 73.3062 278.885C73.3211 278.905 73.334 278.922 73.3446 278.935C73.3499 278.942 73.3546 278.948 73.3588 278.953C73.3608 278.956 73.3627 278.958 73.3645 278.96C73.3654 278.961 73.3662 278.962 73.367 278.963C73.3674 278.964 73.368 278.964 73.3682 278.965C73.3687 278.965 73.3693 278.966 74.137 278.325C74.9046 277.684 74.9052 277.685 74.9057 277.685C74.9059 277.686 74.9064 277.686 74.9067 277.687C74.9073 277.687 74.9079 277.688 74.9085 277.689C74.9096 277.69 74.9106 277.691 74.9114 277.692C74.913 277.694 74.914 277.696 74.9144 277.696C74.9153 277.697 74.9138 277.695 74.9101 277.69C74.9028 277.681 74.887 277.659 74.8644 277.624C74.8192 277.556 74.7468 277.437 74.6614 277.264C74.4911 276.919 74.267 276.356 74.1057 275.541C73.784 273.916 73.7054 271.253 74.8573 267.3L72.9372 266.74ZM77.1852 257.324C75.8761 259.276 74.2147 262.355 72.9372 266.74L74.8573 267.3C76.074 263.124 77.6443 260.23 78.8464 258.438L77.1852 257.324ZM70.2305 260.753L78.2463 258.854L77.7853 256.908L69.7695 258.806L70.2305 260.753ZM73.563 246.117C71.4482 249.924 70.3094 253.301 69.6985 255.738C69.3931 256.957 69.2196 257.94 69.122 258.626C69.0732 258.969 69.0434 259.237 69.0257 259.423C69.0168 259.516 69.0109 259.589 69.0071 259.64C69.0053 259.665 69.0039 259.685 69.003 259.7C69.0025 259.707 69.0022 259.713 69.0019 259.717C69.0018 259.72 69.0017 259.722 69.0016 259.723C69.0016 259.724 69.0015 259.725 69.0015 259.725C69.0015 259.725 69.0014 259.726 69.0014 259.726C69.0014 259.726 69.0014 259.727 70 259.78C70.9986 259.832 70.9986 259.833 70.9986 259.833C70.9986 259.833 70.9986 259.833 70.9985 259.833C70.9985 259.834 70.9985 259.834 70.9985 259.834C70.9985 259.834 70.9985 259.834 70.9986 259.833C70.9986 259.832 70.9988 259.83 70.999 259.826C70.9995 259.818 71.0004 259.805 71.0017 259.787C71.0044 259.75 71.0091 259.692 71.0166 259.614C71.0316 259.457 71.0578 259.219 71.1021 258.908C71.1906 258.285 71.3513 257.37 71.6385 256.224C72.2129 253.933 73.2926 250.722 75.3113 247.089L73.563 246.117ZM79.2564 238.39C77.6205 240.03 75.5592 242.524 73.563 246.117L75.3113 247.089C77.2133 243.665 79.1605 241.318 80.6725 239.802L79.2564 238.39ZM71.3476 240.015L79.9551 240.096L79.9738 238.096L71.3664 238.015L71.3476 240.015ZM78.0798 226.602C75.1124 229.789 73.1996 232.796 72.0256 235.017C71.4385 236.128 71.0358 237.043 70.778 237.686C70.6491 238.007 70.5564 238.261 70.495 238.438C70.4642 238.526 70.4413 238.595 70.4256 238.644C70.4177 238.668 70.4116 238.687 70.4073 238.701C70.4051 238.708 70.4034 238.714 70.4021 238.718C70.4014 238.72 70.4008 238.722 70.4004 238.724C70.4002 238.724 70.4 238.725 70.3998 238.726C70.3997 238.726 70.3996 238.726 70.3996 238.727C70.3994 238.727 70.3993 238.727 71.357 239.015C72.3146 239.303 72.3145 239.304 72.3144 239.304C72.3144 239.304 72.3143 239.304 72.3143 239.304C72.3142 239.304 72.3142 239.305 72.3142 239.305C72.3141 239.305 72.3142 239.305 72.3143 239.304C72.3146 239.303 72.3154 239.301 72.3165 239.297C72.3188 239.29 72.3227 239.277 72.3284 239.26C72.3397 239.225 72.358 239.169 72.3839 239.095C72.4356 238.946 72.5176 238.722 72.6345 238.43C72.8684 237.846 73.242 236.996 73.7937 235.952C74.8973 233.864 76.7118 231.006 79.5434 227.966L78.0798 226.602ZM85.3724 220.525C83.4019 221.728 80.8382 223.641 78.0798 226.602L79.5434 227.966C82.1716 225.144 84.5918 223.345 86.4146 222.232L85.3724 220.525ZM78.007 219.06L85.4968 222.297L86.2902 220.461L78.8003 217.224L78.007 219.06ZM89.4213 209.311C85.4473 211.09 82.516 213.119 80.5713 214.713C79.5988 215.509 78.8726 216.197 78.3853 216.691C78.1416 216.938 77.9576 217.137 77.8324 217.276C77.7698 217.346 77.7218 217.401 77.6885 217.439C77.6718 217.459 77.6587 217.474 77.6493 217.485C77.6446 217.491 77.6408 217.495 77.6379 217.499C77.6365 217.501 77.6352 217.502 77.6342 217.503C77.6337 217.504 77.6333 217.504 77.6329 217.505C77.6327 217.505 77.6325 217.505 77.6324 217.506C77.6322 217.506 77.6319 217.506 78.4036 218.142C79.1754 218.778 79.1752 218.778 79.175 218.779C79.1749 218.779 79.1748 218.779 79.1747 218.779C79.1745 218.779 79.1744 218.779 79.1744 218.779C79.1743 218.779 79.1744 218.779 79.1747 218.779C79.1754 218.778 79.177 218.776 79.1795 218.773C79.1844 218.767 79.1928 218.757 79.2049 218.743C79.2289 218.715 79.2672 218.671 79.3199 218.613C79.4253 218.496 79.588 218.32 79.8089 218.096C80.2508 217.648 80.9252 217.008 81.8388 216.26C83.666 214.763 86.4478 212.833 90.2383 211.137L89.4213 209.311ZM96.9885 206.817C94.9144 207.245 92.3529 207.999 89.4213 209.311L90.2383 211.137C93.0331 209.886 95.4557 209.175 97.3924 208.776L96.9885 206.817ZM97.224 206.497C97.0024 206.668 96.7822 206.842 96.5634 207.018L97.8175 208.576C98.0255 208.408 98.2348 208.243 98.4453 208.081L97.224 206.497ZM91.6727 204.905C93.4128 205.478 94.7745 205.929 95.7191 206.402C96.734 206.911 96.8306 207.232 96.8359 207.339L98.8334 207.24C98.7678 205.915 97.6511 205.133 96.6148 204.614C95.5083 204.06 93.9809 203.56 92.2982 203.005L91.6727 204.905ZM91.5774 204.874L91.6727 204.905L92.2983 203.005L92.203 202.974L91.5774 204.874ZM106.143 198.641C101.827 199.185 98.1569 200.281 95.5648 201.24C94.2678 201.72 93.2377 202.167 92.5284 202.496C92.1736 202.661 91.8988 202.796 91.7106 202.891C91.6165 202.938 91.5441 202.976 91.4941 203.002C91.4691 203.015 91.4498 203.025 91.4361 203.033C91.4293 203.036 91.4239 203.039 91.4199 203.041C91.418 203.042 91.4164 203.043 91.4151 203.044C91.4145 203.044 91.4139 203.045 91.4135 203.045C91.4133 203.045 91.413 203.045 91.4129 203.045C91.4127 203.045 91.4124 203.045 91.8902 203.924C92.368 204.802 92.3678 204.803 92.3677 204.803C92.3676 204.803 92.3675 204.803 92.3675 204.803C92.3674 204.803 92.3674 204.803 92.3675 204.803C92.3677 204.803 92.3682 204.802 92.3692 204.802C92.371 204.801 92.3742 204.799 92.3789 204.797C92.3882 204.792 92.4032 204.784 92.4237 204.773C92.4647 204.751 92.528 204.718 92.6126 204.676C92.7818 204.59 93.0364 204.465 93.3698 204.31C94.0366 204.001 95.0174 203.575 96.2591 203.116C98.7445 202.196 102.263 201.146 106.393 200.625L106.143 198.641ZM115.179 198.586C112.933 198.29 109.898 198.168 106.143 198.641L106.393 200.625C109.97 200.174 112.834 200.294 114.918 200.569L115.179 198.586ZM116.703 198.258C116.082 198.36 115.464 198.473 114.85 198.597L115.248 200.557C115.837 200.438 116.43 200.329 117.026 200.232L116.703 198.258ZM116.266 194.315L115.868 199.163L117.861 199.327L118.259 194.478L116.266 194.315ZM127.07 194.608C122.965 193.29 120.47 192.965 118.95 193.003C118.185 193.022 117.646 193.134 117.265 193.273C117.073 193.343 116.922 193.42 116.803 193.495C116.744 193.532 116.694 193.569 116.651 193.604C116.63 193.621 116.61 193.638 116.593 193.654C116.584 193.662 116.576 193.67 116.568 193.677C116.564 193.681 116.56 193.685 116.556 193.688C116.555 193.69 116.553 193.692 116.551 193.694C116.55 193.695 116.549 193.696 116.548 193.696C116.547 193.698 116.546 193.699 117.262 194.397C117.979 195.094 117.978 195.095 117.976 195.097C117.976 195.097 117.975 195.098 117.974 195.099C117.972 195.101 117.971 195.103 117.969 195.104C117.966 195.108 117.962 195.111 117.959 195.114C117.953 195.12 117.947 195.126 117.941 195.131C117.929 195.142 117.918 195.151 117.909 195.158C117.891 195.173 117.878 195.182 117.873 195.185C117.863 195.191 117.884 195.176 117.951 195.152C118.085 195.103 118.402 195.017 119 195.002C120.206 194.972 122.462 195.229 126.459 196.512L127.07 194.608ZM135.373 198.431C133.458 197.202 130.73 195.783 127.07 194.608L126.459 196.512C129.946 197.632 132.517 198.974 134.293 200.114L135.373 198.431ZM135.491 198.366C135.323 198.338 135.156 198.311 134.989 198.284L134.678 200.26C134.84 200.286 135.002 200.312 135.164 200.339L135.491 198.366ZM133.278 194.988L134.354 199.58L136.301 199.124L135.225 194.532L133.278 194.988ZM147.903 198.325C144.099 196.2 140.724 195.061 138.289 194.452C137.071 194.147 136.087 193.975 135.402 193.879C135.059 193.831 134.791 193.802 134.605 193.785C134.512 193.776 134.439 193.77 134.389 193.767C134.363 193.765 134.343 193.764 134.328 193.763C134.321 193.762 134.315 193.762 134.311 193.762C134.309 193.761 134.307 193.761 134.305 193.761C134.304 193.761 134.304 193.761 134.303 193.761C134.303 193.761 134.302 193.761 134.302 193.761C134.302 193.761 134.301 193.761 134.251 194.76C134.202 195.759 134.201 195.759 134.201 195.759C134.201 195.759 134.201 195.759 134.201 195.759C134.2 195.759 134.2 195.759 134.2 195.759C134.2 195.759 134.2 195.759 134.201 195.759C134.202 195.759 134.204 195.759 134.208 195.759C134.215 195.759 134.228 195.76 134.247 195.762C134.283 195.764 134.341 195.769 134.42 195.776C134.576 195.791 134.813 195.816 135.124 195.86C135.746 195.947 136.659 196.106 137.803 196.392C140.092 196.964 143.298 198.044 146.927 200.071L147.903 198.325ZM155.525 203.946C153.888 202.32 151.425 200.292 147.903 198.325L146.927 200.071C150.283 201.945 152.601 203.861 154.116 205.365L155.525 203.946ZM153.351 198.418L153.823 204.73L155.817 204.581L155.346 198.269L153.351 198.418ZM167.281 204C163.856 201.319 160.699 199.666 158.388 198.68C157.232 198.188 156.288 197.862 155.626 197.658C155.295 197.556 155.034 197.484 154.853 197.438C154.763 197.414 154.692 197.397 154.643 197.385C154.618 197.379 154.598 197.375 154.584 197.372C154.577 197.37 154.571 197.369 154.567 197.368C154.564 197.368 154.563 197.367 154.561 197.367C154.56 197.367 154.56 197.366 154.559 197.366C154.559 197.366 154.558 197.366 154.558 197.366C154.558 197.366 154.558 197.366 154.348 198.344C154.139 199.322 154.139 199.322 154.139 199.322C154.139 199.322 154.138 199.322 154.138 199.322C154.138 199.321 154.138 199.321 154.138 199.321C154.138 199.321 154.138 199.321 154.138 199.322C154.139 199.322 154.142 199.322 154.146 199.323C154.153 199.325 154.166 199.328 154.184 199.332C154.22 199.34 154.276 199.354 154.353 199.374C154.505 199.413 154.736 199.477 155.037 199.569C155.638 199.755 156.517 200.057 157.604 200.52C159.777 201.447 162.778 203.015 166.048 205.575L167.281 204ZM171.331 207.167C170.159 206.252 168.81 205.197 167.281 204L166.048 205.575C167.578 206.773 168.927 207.828 170.1 208.744L171.331 207.167ZM79.7188 237.702C79.6137 237.937 79.5249 238.136 79.4551 238.293L81.2828 239.106C81.352 238.95 81.4402 238.752 81.5447 238.518L79.7188 237.702ZM81.5329 238.715C81.5593 238.578 81.586 238.44 81.613 238.303L79.6506 237.917C79.623 238.057 79.5957 238.198 79.5686 238.339L81.5329 238.715ZM81.0608 239.421C81.1197 239.365 81.1778 239.31 81.235 239.256L79.8665 237.798C79.8042 237.856 79.7411 237.916 79.6771 237.977L81.0608 239.421Z" fill="white"/>
<path fill-rule="evenodd" clip-rule="evenodd" d="M168.874 220.601C168.874 216.188 172.077 212.59 176.5 212.59C183.253 212.274 186 212.59 188.5 212.59L186.523 215.601C186.523 215.601 179.374 215.601 176.5 215.601C173.626 215.601 171 218.387 171 220.601L168.874 220.601Z" fill="#002233"/>
<path d="M213.878 235.611C217.269 233.841 219.408 230.228 222.31 230.209C224.32 230.195 226.02 232.603 224.856 235.447C222.953 240.094 205.262 243.587 204.073 236.399C203.541 233.184 207.138 232.398 207.835 234.944C207.835 234.944 205.708 234.232 206 236C206.292 237.768 210.486 237.382 213.878 235.611Z" fill="#002233"/>
<path d="M187.543 212.616C192.629 207.94 203.603 209.385 210.347 210.865C213.647 211.589 215.621 214.816 215.074 218.151C213.992 224.752 208.292 229.6 201.604 229.609L199.695 229.611C190.657 229.623 180.453 223.164 185.18 215.46C185.781 214.481 186.556 213.523 187.543 212.616Z" fill="url(#paint14_linear)"/>
<path d="M321 63L355.5 187" stroke="#AED1FF" stroke-width="2"/>
<defs>
<linearGradient id="paint0_linear" x1="310.542" y1="285.016" x2="313.009" y2="303.291" gradientUnits="userSpaceOnUse">
<stop stop-color="#B3FF7D"/>
<stop offset="1" stop-color="#12B4A9"/>
</linearGradient>
<linearGradient id="paint1_linear" x1="316.986" y1="328.523" x2="288.639" y2="324.307" gradientUnits="userSpaceOnUse">
<stop stop-color="#B3FF7D"/>
<stop offset="1" stop-color="#12B4A9"/>
</linearGradient>
<linearGradient id="paint2_linear" x1="19.2676" y1="107.03" x2="131.378" y2="100.873" gradientUnits="userSpaceOnUse">
<stop stop-color="#91E157"/>
<stop offset="1" stop-color="#44ABA4"/>
</linearGradient>
<linearGradient id="paint3_linear" x1="148.756" y1="379.797" x2="247.37" y2="309.387" gradientUnits="userSpaceOnUse">
<stop stop-color="#91E157"/>
<stop offset="1" stop-color="#44ABA4"/>
</linearGradient>
<linearGradient id="paint4_linear" x1="125.297" y1="223.257" x2="33.5171" y2="263.709" gradientUnits="userSpaceOnUse">
<stop stop-color="#67D098"/>
<stop offset="1" stop-color="#7AD777"/>
</linearGradient>
<linearGradient id="paint5_linear" x1="207.34" y1="238.722" x2="89.3407" y2="231.036" gradientUnits="userSpaceOnUse">
<stop stop-color="#67D098"/>
<stop offset="1" stop-color="#7AD777"/>
</linearGradient>
<linearGradient id="paint6_linear" x1="257" y1="278" x2="256.971" y2="267" gradientUnits="userSpaceOnUse">
<stop stop-color="#AC867B"/>
<stop offset="1" stop-color="#C9AF8F"/>
</linearGradient>
<linearGradient id="paint7_linear" x1="55" y1="276.5" x2="66" y2="305.5" gradientUnits="userSpaceOnUse">
<stop stop-color="#DDBE91"/>
<stop offset="1" stop-color="#C2A67E" stop-opacity="0"/>
</linearGradient>
<linearGradient id="paint8_linear" x1="241.5" y1="200.5" x2="238" y2="255" gradientUnits="userSpaceOnUse">
<stop stop-color="#305E8B"/>
<stop offset="1" stop-color="#90C2F4"/>
</linearGradient>
<linearGradient id="paint9_linear" x1="123.695" y1="71.2955" x2="347.912" y2="191.806" gradientUnits="userSpaceOnUse">
<stop stop-color="#F5F5DE"/>
<stop offset="0.345008" stop-color="#A7FABB"/>
<stop offset="0.532862" stop-color="#94ECB4"/>
<stop offset="0.695674" stop-color="#8AE8B6"/>
<stop offset="1" stop-color="#DCF2C1"/>
</linearGradient>
<linearGradient id="paint10_linear" x1="111.134" y1="167.438" x2="151.569" y2="119.869" gradientUnits="userSpaceOnUse">
<stop stop-color="#1ED0C6"/>
<stop offset="1" stop-color="#34E4A4" stop-opacity="0"/>
</linearGradient>
<linearGradient id="paint11_linear" x1="335.087" y1="61.8315" x2="299.646" y2="109.349" gradientUnits="userSpaceOnUse">
<stop stop-color="#CAE9B2"/>
<stop offset="1" stop-color="#87E7B5" stop-opacity="0"/>
</linearGradient>
<linearGradient id="paint12_linear" x1="273" y1="-2" x2="273" y2="192" gradientUnits="userSpaceOnUse">
<stop stop-color="#579AFF"/>
<stop offset="1" stop-color="#4362FC"/>
</linearGradient>
<linearGradient id="paint13_linear" x1="164" y1="2" x2="220" y2="192" gradientUnits="userSpaceOnUse">
<stop stop-color="#50ABFF"/>
<stop offset="1" stop-color="#72A2FF"/>
</linearGradient>
<linearGradient id="paint14_linear" x1="206.045" y1="210.118" x2="201.499" y2="230.79" gradientUnits="userSpaceOnUse">
<stop stop-color="#46606C"/>
<stop offset="1" stop-color="#002233"/>
</linearGradient>
</defs>
</svg>
