<svg width="380" height="360" viewBox="0 0 380 360" fill="none" xmlns="http://www.w3.org/2000/svg">
<ellipse cx="102.5" cy="348.5" rx="93.5" ry="9.5" fill="#F2F2F2"/>
<path d="M40.4999 261C69 191 119.237 162.241 140 147.5L144 149.5C111 183.5 100.5 224 103 261L40.4999 261Z" fill="url(#paint0_linear)"/>
<path d="M123.525 269.207C123.525 269.207 108.372 259.074 103.807 249.216C99.2432 239.357 96.1395 226.212 97.0524 225.208C97.9652 224.204 126.72 248.394 133.566 269.39L123.525 269.207Z" fill="url(#paint1_linear)"/>
<path d="M98.9692 228.494C103.807 235.158 108.372 242.004 113.21 248.668C115.583 252.046 118.048 255.332 120.512 258.527C123.068 261.722 125.624 264.917 128.545 267.838C125.077 265.647 122.064 262.635 119.234 259.531C117.774 257.979 116.496 256.336 115.218 254.784C113.94 253.141 112.662 251.498 111.475 249.764C109.102 246.386 106.82 242.917 104.72 239.357C102.621 235.888 100.612 232.237 98.9692 228.494Z" fill="url(#paint2_linear)"/>
<path d="M136.488 269.116C136.488 269.116 128.454 245.199 127.542 230.868C126.629 216.627 129.915 198.553 132.015 198.005C134.114 197.457 158.578 241.548 139.956 269.116H136.488Z" fill="url(#paint3_linear)"/>
<path d="M132.836 201.291C134.296 206.677 135.483 212.063 136.396 217.54C136.944 220.279 137.309 223.017 137.765 225.756C138.13 228.494 138.496 231.233 138.769 234.063C139.043 236.801 139.226 239.631 139.5 242.369C139.591 245.199 139.774 247.938 139.774 250.768C139.774 256.336 139.5 261.996 138.313 267.381C138.404 266.012 138.404 264.643 138.496 263.182C138.496 261.813 138.496 260.444 138.496 259.075C138.496 257.705 138.404 256.336 138.404 254.967L138.313 252.867L138.222 250.768C137.948 245.291 137.4 239.722 136.852 234.245C136.305 228.768 135.666 223.291 134.935 217.723L132.836 201.291Z" fill="url(#paint4_linear)"/>
<path d="M136.487 269.116C136.487 269.116 131.923 251.863 140.504 238.353C149.085 224.843 160.404 210.42 161.591 210.694C162.777 210.967 157.848 253.962 139.956 269.116H136.487Z" fill="url(#paint5_linear)"/>
<path d="M160.495 213.341C158.761 217.905 156.935 222.469 155.109 227.034L149.541 240.635L143.881 254.236C142.056 258.801 140.139 263.274 138.222 267.838C139.408 263.091 140.778 258.344 142.421 253.689C144.064 249.033 145.798 244.469 147.624 239.905C149.541 235.34 151.549 230.867 153.649 226.486C155.748 222.013 158.03 217.631 160.495 213.341Z" fill="url(#paint6_linear)"/>
<path d="M138.039 268.385C138.039 268.385 144.429 250.767 155.931 244.286C167.432 237.805 179.117 232.602 180.76 233.515C182.403 234.519 174.735 255.971 141.508 269.116L138.039 268.385Z" fill="url(#paint7_linear)"/>
<path d="M178.021 235.888C174.918 238.535 171.814 241.182 168.71 243.83C165.607 246.477 162.503 249.033 159.399 251.68L150.088 259.531C146.984 262.178 143.881 264.825 140.686 267.381C143.333 264.186 146.072 261.174 148.993 258.344C151.914 255.423 154.926 252.776 158.03 250.037C161.134 247.39 164.329 244.834 167.706 242.46C171.084 240.178 174.461 237.896 178.021 235.888Z" fill="url(#paint8_linear)"/>
<path d="M144.063 268.659C144.063 268.659 150.819 258.344 161.955 256.701C173.092 255.058 179.117 253.232 179.482 254.145C179.847 255.058 167.615 267.381 156.843 269.207C145.98 270.941 144.063 268.659 144.063 268.659Z" fill="url(#paint9_linear)"/>
<path d="M146.711 268.386C148.993 267.108 151.275 265.921 153.649 264.917C156.022 263.821 158.396 262.817 160.769 261.813C163.142 260.809 165.516 259.896 167.981 258.983C170.354 258.07 172.819 257.249 175.283 256.336C173.184 257.888 170.902 259.166 168.619 260.352C166.337 261.539 163.964 262.635 161.591 263.639C159.217 264.643 156.752 265.556 154.288 266.286C151.823 267.108 149.267 267.838 146.711 268.386Z" fill="url(#paint10_linear)"/>
<path d="M132.47 268.203C132.47 268.203 120.238 257.705 116.222 241.183C112.205 224.66 110.562 209.324 111.84 209.416C113.118 209.507 137.491 237.349 137.126 268.386L132.47 268.203Z" fill="url(#paint11_linear)"/>
<path d="M113.21 213.341C115.035 217.814 116.77 222.195 118.504 226.668L123.616 240.087C125.351 244.56 126.994 249.033 128.819 253.415C130.645 257.888 132.379 262.269 134.388 266.651C131.649 262.635 129.458 258.344 127.45 254.054C125.351 249.672 123.525 245.29 121.79 240.818C120.056 236.345 118.504 231.78 117.044 227.216C115.583 222.652 114.214 218.088 113.21 213.341Z" fill="url(#paint12_linear)"/>
<path d="M129.549 268.659C129.549 268.659 122.794 258.344 111.658 256.701C100.521 255.058 94.4962 253.232 94.131 254.145C93.7659 255.058 105.998 267.381 116.77 269.207C127.541 270.941 129.549 268.659 129.549 268.659Z" fill="url(#paint13_linear)"/>
<path d="M126.811 268.386C124.529 267.108 122.246 265.921 119.873 264.917C117.5 263.821 115.126 262.817 112.753 261.813C110.379 260.809 108.006 259.896 105.541 258.983C103.168 258.07 100.703 257.249 98.2385 256.336C100.338 257.888 102.62 259.166 104.902 260.352C107.184 261.539 109.558 262.635 111.931 263.639C114.305 264.643 116.769 265.556 119.234 266.286C121.79 267.108 124.255 267.838 126.811 268.386Z" fill="url(#paint14_linear)"/>
<path d="M116.776 269.807V292.111C116.776 298.885 122.318 304.495 129.16 304.495H142.775C149.548 304.495 155.159 298.953 155.159 292.111V269.807H116.776Z" fill="url(#paint15_linear)"/>
<path d="M157.348 279.112C156.117 280.48 154.885 281.849 153.654 283.217C152.422 281.849 151.19 280.48 149.959 279.112C149.617 278.701 148.864 278.701 148.522 279.112C147.291 280.48 146.059 281.849 144.828 283.217C143.596 281.849 142.365 280.48 141.133 279.112C140.791 278.701 140.038 278.701 139.696 279.112C138.465 280.48 137.233 281.849 136.002 283.217C134.77 281.849 133.539 280.48 132.307 279.112C131.965 278.701 131.212 278.701 130.87 279.112C129.639 280.48 128.407 281.849 127.176 283.217C125.944 281.849 124.713 280.48 123.481 279.112C123.139 278.701 122.386 278.701 122.044 279.112C120.813 280.48 119.581 281.849 118.35 283.217C117.118 281.849 115.887 280.48 114.655 279.112C113.766 278.154 112.329 279.591 113.218 280.549C114.724 282.191 116.16 283.833 117.666 285.475C118.008 285.885 118.76 285.885 119.102 285.475C120.334 284.106 121.565 282.738 122.797 281.37C124.028 282.738 125.26 284.106 126.491 285.475C126.834 285.885 127.586 285.885 127.928 285.475C129.16 284.106 130.391 282.738 131.623 281.37C132.854 282.738 134.086 284.106 135.317 285.475C135.66 285.885 136.412 285.885 136.754 285.475C137.986 284.106 139.217 282.738 140.449 281.37C141.68 282.738 142.912 284.106 144.143 285.475C144.485 285.885 145.238 285.885 145.58 285.475C146.812 284.106 148.043 282.738 149.275 281.37C150.506 282.738 151.738 284.106 152.969 285.475C153.311 285.885 154.064 285.885 154.406 285.475C155.911 283.833 157.348 282.191 158.853 280.549C159.674 279.591 158.238 278.086 157.348 279.112Z" fill="white"/>
<path opacity="0.1" d="M146.333 269.807V292.111C146.333 298.885 140.791 304.495 133.949 304.495H142.707C149.48 304.495 155.09 298.953 155.09 292.111V269.807H146.333Z" fill="#482C80"/>
<path d="M156.101 267.481H115.834C114.729 267.481 113.834 268.376 113.834 269.481V270.133C113.834 271.238 114.729 272.133 115.834 272.133H156.101C157.205 272.133 158.101 271.238 158.101 270.133V269.481C158.101 268.376 157.205 267.481 156.101 267.481Z" fill="#D5BD75"/>
<path d="M322.284 177.19C322.284 177.19 327.897 169.573 329.864 165.993C331.83 162.413 338.873 140.075 338.873 140.075L353.775 130.719L339.548 166.54L332.523 183.29L322.284 177.19Z" fill="#BEA088"/>
<path d="M334.5 153.5C341.087 136.4 335.283 145.416 335.721 138.281L357.749 130.038L341.464 160.668C345.235 154.155 341.704 147.311 334.5 153.5Z" fill="#9B7A71"/>
<path d="M326.912 171.785C318.633 168.643 311.628 175.105 295.696 190.389C317.125 195.798 327.541 195.925 332.507 189.037C337.473 182.15 335.192 174.927 326.912 171.785Z" fill="url(#paint16_linear)"/>
<path d="M320.911 184.44C315.457 194.581 322.642 204.387 339.743 226.766C350.338 200.153 352.25 186.881 344.172 179.619C336.094 172.358 326.366 174.298 320.911 184.44Z" fill="url(#paint17_linear)"/>
<path fill-rule="evenodd" clip-rule="evenodd" d="M327 142.04C249.575 137.838 273.143 146.16 211.33 141.953C209.372 141.819 207.649 140.459 207.12 138.568C206.3 135.639 208.473 132.724 211.514 132.656C272.554 131.28 251.121 128.608 327.903 132.781C346.482 133.791 357.853 125.22 368.852 113.281C371.721 110.167 377 112.104 377 116.338C377 118.034 376.435 119.69 375.361 121.003C361.554 137.888 349.338 143.253 327 142.04Z" fill="url(#paint18_linear)"/>
<path fill-rule="evenodd" clip-rule="evenodd" d="M327 142.04C249.575 137.838 273.143 146.16 211.33 141.953C209.372 141.819 207.649 140.459 207.12 138.568C206.3 135.639 208.473 132.724 211.514 132.656C272.554 131.28 251.121 128.608 327.903 132.781C346.482 133.791 357.853 125.22 368.852 113.281C371.721 110.167 377 112.104 377 116.338C377 118.034 376.435 119.69 375.361 121.003C361.554 137.888 349.338 143.253 327 142.04Z" fill="url(#paint19_linear)"/>
<path d="M168.383 345.042C169.181 347.488 167.358 350 164.785 350C163.257 350 161.879 349.082 161.292 347.672L146 311H157.279L168.383 345.042Z" fill="url(#paint20_linear)"/>
<path d="M29.6601 344.963C28.8422 347.444 30.6907 350 33.3039 350C34.8564 350 36.2558 349.064 36.8492 347.63L52 311H40.8525L29.6601 344.963Z" fill="url(#paint21_linear)"/>
<rect x="25" y="304" width="148" height="7" fill="#D0B4AC"/>
<path d="M183.751 130.558C189.306 128.389 195.088 127.501 201.011 128.704C204.295 129.451 207.487 130.558 210.528 132.006C213.289 133.28 216.806 135.586 219.994 134.648C222.061 134.046 221.857 131.741 221.047 130.229C219.024 126.463 214.383 124.637 210.639 123.121C207.156 121.683 203.523 120.642 199.807 120.018C193.293 118.963 185.684 119.597 180.533 124.068C179.263 125.187 179.08 126.783 179.851 128.28C180.479 129.506 182.194 131.167 183.767 130.558L183.751 130.558Z" fill="url(#paint22_linear)"/>
<path d="M235.585 41.072C235.585 41.072 239.768 40.4825 248.413 39.219C257.057 37.9554 262.685 39.7476 262.685 39.7476L257.606 47.2731C257.606 47.2731 246.41 45.143 242.884 45.0021C240.462 44.8493 238.161 45.3549 235.828 44.6887L235.585 41.072Z" fill="url(#paint23_linear)"/>
<path d="M254.439 46.1034C254.439 46.1034 258.938 43.4777 267.685 43.5625C276.431 43.6472 281.69 46.3127 281.69 46.3127L275.496 52.9726C275.496 52.9726 264.757 49.1479 261.306 48.4507C258.94 47.9155 256.638 47.1286 254.439 46.1034Z" fill="url(#paint24_linear)"/>
<path d="M274.478 50.7137C274.478 50.7137 279.407 49.0347 287.962 50.8431C296.517 52.6514 297.032 54.6482 297.032 54.6482L293.792 61.5813C293.792 61.5813 284.036 55.6938 280.778 54.3348C278.553 53.3589 276.441 52.1448 274.478 50.7137Z" fill="url(#paint25_linear)"/>
<path d="M292 59.1142C292 59.1142 297.18 59.6689 304.172 64.9236C311.164 70.1782 314.812 76.08 314.812 76.08C308.941 74.8842 305.985 74.2486 308.329 80.4984C308.329 80.4984 298.564 67.6473 296.186 65.0431C294.583 63.222 293.18 61.2343 292 59.1142Z" fill="url(#paint26_linear)"/>
<path d="M303.502 73.6304C303.502 73.6304 308.283 75.6927 313.439 82.7507C318.594 89.8086 319.596 95.6388 319.596 95.6388L310.57 94.6311C310.57 94.6311 307.26 83.728 305.741 80.5341C304.751 78.3194 304 76.0049 303.502 73.6304Z" fill="url(#paint27_linear)"/>
<path d="M308.957 91.327C308.957 91.327 312.573 95.0756 314.573 103.586C316.572 112.097 315.244 117.852 315.244 117.852L305 113.5C305 113.5 308.501 102.087 308.352 98.5534C308.293 96.1299 308.496 93.7071 308.957 91.327Z" fill="url(#paint28_linear)"/>
<path d="M306.123 109.802C306.123 109.802 308.734 114.307 308.629 123.051C308.524 131.796 305.871 137.068 305.871 137.068L297 129.5C297 129.5 303.088 120.137 303.776 116.685C304.31 114.313 305.096 112.006 306.123 109.802Z" fill="url(#paint29_linear)"/>
<path d="M299.184 128.063C299.184 128.063 300.744 133.042 298.704 141.541C296.664 150.041 292.728 151.505 292.728 151.505L287.808 147.081C287.808 147.081 293.948 137.479 295.389 134.259C296.426 132.063 297.698 129.985 299.184 128.063Z" fill="url(#paint30_linear)"/>
<path d="M223.05 39.2196C223.05 39.2196 264.208 43.5725 281.315 51.0364C298.422 58.5003 311.089 72.2948 311.046 93.1099C311.004 113.925 296.39 128.007 291.89 152.507C288.401 171.507 264.891 228.508 228.755 207.508C201.624 186.218 217.429 163.054 228.755 160.349C240.082 157.643 250.095 164.595 251.204 171.594C252.328 178.726 245.715 179.671 240.415 174.362C236.654 170.599 227.097 171.709 227.171 181.316C227.246 190.923 234.89 195.007 243.39 195.007C262.89 195.007 273.084 160.233 274.085 147.507C274.539 141.733 275.297 130.703 274.085 126.007C273.744 124.688 267.06 130.784 266.533 129.406C265.964 127.919 271.537 119.719 270.761 118.199C267.606 112.02 262.786 105.723 256.667 100.566C242.683 88.7812 227.684 79.8265 223.05 77.6562C220.052 76.2275 217.147 74.6127 214.351 72.8212L223.05 39.2196Z" fill="url(#paint31_linear)"/>
<path d="M233.722 31.0907C234.553 35.4114 235.456 39.5782 235.573 43.982C235.615 48.6322 235.307 53.2722 234.652 57.8647C233.453 67.4153 231.358 77.3065 227.59 86.1839C226.784 88.0737 225.679 89.7572 224.713 91.5734C223.359 94.0927 224.346 96.9578 227.134 98.1108C232.083 100.159 235.217 93.7573 236.62 90.2486C240.26 80.9607 242.594 71.2131 243.559 61.2669C244.577 51.3247 245.344 38.9779 239.349 30.1418C237.882 27.9768 233.033 27.5291 233.722 31.0907Z" fill="url(#paint32_linear)"/>
<path d="M264.276 39.0176C264.486 44.3754 264.141 49.7405 263.246 55.0272C262.251 60.4514 260.39 65.7514 258.35 70.8604C254.923 79.1936 250.348 87.007 244.758 94.0739C242.816 96.5159 240.686 98.8546 239.52 101.784C238.55 104.22 241.529 108.546 244.344 107.399C247.55 106.09 249.882 103.485 252.064 100.869C254.121 98.4024 256.047 95.8294 257.835 93.1606C261.508 87.5955 264.575 81.653 266.983 75.4347C271.37 64.2714 274.23 50.6979 269.891 39.1643C269.009 36.8226 264.19 35.3447 264.285 39.0022L264.276 39.0176Z" fill="url(#paint33_linear)"/>
<path d="M292.473 50.5147C289.846 62.9796 284.787 74.8043 277.586 85.3124C273.617 91.1533 269.12 96.5891 264.454 101.898C262.317 104.34 260.17 106.798 257.873 109.098C255.492 111.488 252.261 113.406 251.662 116.937C251.337 118.831 255.161 124.409 256.891 125.007C260.761 126.365 261.816 119.415 264.454 116.937C267.093 114.458 269.6 112.241 272.035 109.501C277.055 103.921 281.652 97.9761 285.788 91.7142C293.574 79.7663 299.126 66.2365 298.606 51.7907C298.483 48.4133 293.298 46.5418 292.476 50.5109L292.473 50.5147Z" fill="url(#paint34_linear)"/>
<path d="M312.294 79.8723C308.832 85.8338 304.647 91.3296 300.184 96.5742C295.819 101.731 291.441 106.907 286.485 111.512C281.667 115.987 271.843 118.894 266.5 122.72C264.127 124.439 265.561 123.26 262.982 124.65C260.233 126.109 260.158 126.318 257.982 128.65C256.136 130.617 258.03 132.944 259.982 133.65C266.264 135.933 276.103 133.201 281 129.72C286.79 125.617 287.776 124.469 292.94 119.598C298.301 114.543 303.259 109.077 307.769 103.25C312.454 97.1889 316.683 91.0025 317.943 83.309C318.339 80.8791 314.023 76.8773 312.294 79.8723Z" fill="url(#paint35_linear)"/>
<path d="M227.857 46.9722C227.756 46.1716 227.772 29.2512 216.842 29.0071C205.912 28.763 183.274 34.8603 177.94 55.707C172.605 76.5537 178.784 85.5326 182.149 86.4084C185.513 87.2843 223.337 83.1503 229.154 78.8356C233.487 75.6168 230.707 65.6448 229.154 57.2195C228.491 53.8368 228.058 50.4132 227.857 46.9722Z" fill="url(#paint36_linear)"/>
<path d="M207.102 66.6618C213.404 62.5876 215.126 54.5691 211.244 48.5645C207.362 42.5599 199.106 40.9951 192.804 45.0693C186.503 49.1436 184.541 57.3141 188.424 63.3187C192.306 69.3232 200.8 70.7361 207.102 66.6618Z" fill="white"/>
<path d="M194.231 63.7863C195.215 63.6619 195.911 62.7639 195.787 61.7805C195.662 60.7971 194.764 60.1008 193.781 60.2252C192.797 60.3496 192.101 61.2476 192.225 62.231C192.35 63.2144 193.248 63.9107 194.231 63.7863Z" fill="#4382FB"/>
<path d="M287.442 128.6C288.313 124.77 288.412 118.364 288.541 114.268C288.7 109.316 288.052 104.442 287.31 99.565C286.736 95.7956 284.587 91.8294 280.378 91.3319C275.018 90.7015 269.23 99.7406 267.051 103.71C263.479 110.213 261.614 120.241 257.54 126.324C254 126.72 251 127.22 247.5 127.22C245 127.72 243.737 128.957 243.5 130.57C243.215 132.485 245 134.196 247.5 134.196C253.5 134.196 253.5 134.196 257.128 134.196C260.5 134.72 261.8 133.792 264.5 131.22C268.216 127.678 270.575 123.363 273.601 119.279C277.019 120.608 274.09 130.985 274.746 135.307C275.252 138.625 280.767 137.775 283.916 135.777C286.715 133.993 287.109 130.065 287.442 128.6Z" fill="url(#paint37_linear)"/>
<path d="M176.505 78.7775C204.966 75.036 217.632 72.9001 218.656 60.9958" stroke="#92EF86" stroke-width="2"/>
<path d="M255.823 217.022C249.632 205.801 249.813 195.523 248.432 188.081C248.01 186.216 242.716 185.546 241.8 187.621C238.414 196.969 242.833 210.917 249.194 218.354C250.342 219.186 256.833 218.283 255.824 217.024L255.823 217.022Z" fill="url(#paint38_linear)"/>
<path d="M218.595 208.678C223.534 197.506 232.03 192.797 237.156 187.96C238.388 186.676 235.34 181.361 233.028 181.482C223.113 182.723 214.749 193.517 213.009 203.052C213.111 204.531 218.253 210.23 218.594 208.679L218.595 208.678Z" fill="url(#paint39_linear)"/>
<path d="M283.174 186.891C270.977 186.575 262.936 181.055 256.304 178.41C254.602 177.816 251.239 182.198 252.392 184.097C257.982 191.997 271.391 195.318 280.682 193.509C281.955 192.917 284.713 186.646 283.176 186.892L283.174 186.891Z" fill="url(#paint40_linear)"/>
<path d="M300.178 158.982C285.985 161.216 275.058 157.48 266.611 156.269C264.468 156.041 261.877 161.041 263.771 162.664C272.568 169.246 289.049 169.707 299.254 165.994C300.551 165.147 301.884 158.421 300.179 158.982L300.178 158.982Z" fill="url(#paint41_linear)"/>
<circle r="6.29535" transform="matrix(-0.873178 0.487402 0.487402 0.873178 203.238 109.051)" fill="url(#paint42_linear)"/>
<circle r="21.2928" transform="matrix(-0.873178 0.487402 0.487402 0.873178 201.768 107.709)" stroke="#4382FB" stroke-width="4"/>
<path d="M193.145 129.337C169.818 128.08 158.111 133.455 139.433 147.748C139.882 149.372 140.771 149.882 143.5 150C162.902 134.385 178.065 139.333 194.978 152.066L193.145 129.337Z" fill="url(#paint43_linear)"/>
<path d="M232.788 99.8173C230.302 96.9719 226.164 96.254 222.865 98.0957L181.583 121.139C178.207 123.023 176.662 127.052 177.912 130.711L183.209 146.214C186.437 155.66 197.432 159.876 206.148 155.011L239.226 136.547C248.108 131.589 250.169 119.709 243.476 112.049L232.788 99.8173Z" fill="url(#paint44_linear)"/>
<path d="M232.788 99.8173C230.302 96.9719 226.164 96.254 222.865 98.0957L181.583 121.139C178.207 123.023 176.662 127.052 177.912 130.711L183.209 146.214C186.437 155.66 197.432 159.876 206.148 155.011L239.226 136.547C248.108 131.589 250.169 119.709 243.476 112.049L232.788 99.8173Z" fill="url(#paint45_linear)"/>
<path d="M246.184 117.26L185.243 149.73L185.595 150.39L246.536 117.92L246.184 117.26Z" fill="white"/>
<path d="M238.622 118.068C236.611 119.133 235.114 118.739 233.932 118.496C232.841 118.204 232.063 118.062 231.149 118.546C230.235 119.031 229.882 119.691 229.543 120.82C229.112 121.996 228.564 123.393 226.552 124.458C224.541 125.523 223.045 125.13 221.862 124.886C220.771 124.594 219.994 124.453 219.079 124.937C218.165 125.421 217.812 126.082 217.473 127.21C217.042 128.387 216.494 129.784 214.482 130.849C212.471 131.914 210.975 131.52 209.792 131.277C208.701 130.985 207.924 130.843 207.009 131.327C206.095 131.811 205.742 132.472 205.403 133.6C204.972 134.777 204.424 136.174 202.413 137.239C200.401 138.304 198.905 137.911 197.722 137.667C196.631 137.375 195.854 137.234 194.939 137.718C194.025 138.202 193.673 138.863 193.333 139.991C192.903 141.167 192.354 142.564 190.343 143.629C188.331 144.695 186.835 144.301 185.652 144.058C184.561 143.766 183.784 143.624 182.87 144.108L182.15 142.75C184.162 141.685 185.658 142.078 186.841 142.322C187.932 142.614 188.709 142.755 189.624 142.271C190.538 141.787 190.89 141.126 191.23 139.998C191.66 138.821 192.209 137.425 194.22 136.359C196.232 135.294 197.728 135.688 198.911 135.931C200.002 136.223 200.779 136.365 201.693 135.881C202.608 135.397 202.96 134.736 203.3 133.608C203.73 132.431 204.279 131.034 206.29 129.969C208.302 128.904 209.798 129.298 210.98 129.541C212.072 129.833 212.849 129.974 213.763 129.49C214.678 129.006 215.03 128.345 215.369 127.217C215.8 126.041 216.348 124.644 218.36 123.579C220.372 122.514 221.868 122.907 223.05 123.15C224.141 123.442 224.919 123.584 225.833 123.1C226.748 122.616 227.1 121.955 227.439 120.827C227.87 119.65 228.418 118.253 230.43 117.188C232.442 116.123 233.938 116.517 235.12 116.76C236.211 117.052 236.989 117.194 237.903 116.709C238.909 116.177 239.17 115.564 239.509 114.436C239.94 113.26 240.488 111.863 242.5 110.798L243.219 112.156C242.213 112.689 241.952 113.301 241.613 114.429C241.182 115.606 240.634 117.003 238.622 118.068Z" fill="white"/>
<path d="M246.23 73.1002C244.088 69.3267 237.934 59.3518 232.746 65.8673C230.716 68.4069 230.639 71.8679 232.192 75.4271C233.518 78.441 236.796 82.4446 233.952 85.555C231.742 87.9767 213.615 89.7509 210.595 89.2293C207.758 88.7413 202.887 87.0743 201 90.2197C198 95.2196 203.5 96.7197 206.5 97.8028C209.5 98.8858 213.5 100 219.5 100C226.5 100 234.858 98.6449 239.297 97.8028C245.771 96.5794 251.611 94.6103 251.09 87.0743C250.719 81.5986 248.445 77.0075 246.23 73.1002Z" fill="url(#paint46_linear)"/>
<path d="M86.9259 142.668C84.3259 141.768 81.3259 141.568 78.6259 141.768C72.7259 142.268 67.8259 145.768 64.8259 150.868C59.8259 159.468 60.8259 169.668 61.9259 179.168C63.3259 191.668 65.7259 204.168 68.2259 216.468C70.7259 228.368 73.5259 240.168 76.5259 251.968C78.0259 257.968 79.4259 264.168 81.2259 270.068C81.2259 270.168 81.2259 270.268 81.3259 270.368C81.6259 271.268 83.0259 271.068 82.8259 270.168C81.5259 265.468 80.3259 260.668 79.1259 255.968C76.3259 245.068 73.7259 234.068 71.2259 222.968C68.5259 210.668 66.0259 198.368 64.3259 185.868C63.6259 180.668 63.0259 175.368 62.7259 170.168C62.5259 166.468 62.5259 162.568 63.3259 158.868C64.7259 152.568 68.5259 146.368 74.8259 144.168C78.3259 142.868 82.3259 142.868 85.8259 143.868C86.0259 143.968 86.2259 143.968 86.4259 144.068C87.2259 144.368 87.8259 143.068 86.9259 142.668Z" fill="url(#paint47_linear)"/>
<path d="M81.0261 162.168C84.6261 162.668 79.8261 170.968 79.1261 177.768C82.2261 178.968 85.9261 179.768 90.0261 179.968C90.5261 175.068 91.6261 169.468 94.1261 169.068C96.9261 168.568 96.4261 174.268 96.8261 179.968C100.126 179.768 103.726 179.168 107.526 178.268C107.026 174.468 107.026 170.868 108.726 169.968C110.726 168.868 111.926 172.368 113.426 176.568C115.826 175.768 118.226 174.868 120.726 173.868C120.426 170.768 120.726 168.168 122.126 167.368C123.726 166.468 124.826 168.568 125.926 171.468C128.126 170.368 130.426 169.168 132.726 167.868C132.026 165.268 131.326 162.768 130.626 160.468C127.726 161.668 125.526 162.368 125.026 160.568C124.626 159.068 126.326 157.068 128.726 155.068C127.726 152.568 126.726 150.168 125.626 147.968C121.626 149.768 118.226 151.368 117.626 149.168C117.126 147.368 119.626 144.868 122.726 142.568C120.726 139.168 118.726 136.268 116.626 133.668C112.226 137.268 108.426 141.668 106.926 139.268C105.626 137.168 108.826 132.568 112.026 128.768C109.026 125.968 105.926 123.868 102.926 122.468C98.5261 127.568 95.8261 136.768 92.9261 134.568C90.5261 132.768 93.3261 125.068 95.4261 120.168C89.4261 119.368 84.5261 121.468 82.0261 125.668C74.4261 138.568 80.8261 145.868 80.8261 145.868C80.8261 145.868 71.1261 146.268 67.1261 160.768C65.8261 165.468 67.7261 170.468 72.4261 174.268C74.4261 168.968 78.1261 161.668 81.0261 162.168ZM106.326 150.668C105.626 149.868 106.326 147.968 108.026 146.368C109.726 144.768 111.726 144.168 112.426 145.068C113.126 145.868 112.426 147.768 110.726 149.368C109.026 150.868 107.026 151.468 106.326 150.668ZM115.226 166.768C115.026 165.468 115.426 164.368 116.026 164.368C116.626 164.268 117.226 165.268 117.426 166.568C117.626 167.868 117.226 168.968 116.626 168.968C116.026 169.068 115.426 168.068 115.226 166.768ZM85.4261 161.968C85.6261 159.268 86.7261 157.168 88.0261 157.168C89.3261 157.268 90.2261 159.468 90.1261 162.168C89.9261 164.868 88.8261 166.968 87.5261 166.968C86.2261 166.968 85.2261 164.668 85.4261 161.968Z" fill="url(#paint48_linear)"/>
<path opacity="0.5" d="M67.026 160.468C65.726 165.168 67.626 170.168 72.326 173.968C74.426 168.968 78.026 161.768 81.026 162.168C84.626 162.668 79.826 170.968 79.126 177.768C82.226 178.968 85.926 179.768 90.026 179.968C90.526 175.068 91.626 169.468 94.126 169.068C96.926 168.568 96.426 174.268 96.826 179.968C100.126 179.768 103.726 179.168 107.526 178.268C107.026 174.468 107.026 170.868 108.726 169.968C110.726 168.868 111.926 172.368 113.426 176.568C115.826 175.768 118.226 174.868 120.726 173.868C120.426 170.768 120.726 168.168 122.126 167.368C123.726 166.468 124.826 168.568 125.926 171.468C128.126 170.368 130.426 169.168 132.726 167.868L80.726 145.668C80.726 145.568 71.026 146.068 67.026 160.468ZM90.126 162.268C89.926 164.968 88.826 167.068 87.526 167.068C86.226 166.968 85.326 164.768 85.426 162.068C85.626 159.368 86.726 157.268 88.026 157.268C89.326 157.268 90.226 159.568 90.126 162.268ZM117.426 166.468C117.626 167.768 117.226 168.868 116.626 168.868C116.026 168.968 115.426 167.968 115.226 166.668C115.026 165.368 115.426 164.268 116.026 164.268C116.626 164.268 117.326 165.268 117.426 166.468Z" fill="url(#paint49_linear)"/>
<path d="M103.826 191.368C99.026 193.668 94.726 197.568 91.126 201.468C81.726 211.568 76.026 224.468 73.426 237.868C71.026 249.768 71.026 261.968 72.226 273.968C72.326 274.868 73.826 274.968 73.726 273.968C71.826 255.268 73.026 235.568 81.326 218.468C85.626 209.568 91.926 201.268 100.026 195.368C101.426 194.368 102.926 193.268 104.626 192.568C105.426 192.268 104.626 190.968 103.826 191.368Z" fill="url(#paint50_linear)"/>
<path d="M89.426 193.568C89.726 195.868 83.826 194.368 79.626 195.068C79.426 197.168 79.626 199.568 80.126 202.068C83.226 201.568 86.826 201.268 87.526 202.668C88.326 204.268 84.726 204.968 81.326 206.168C82.026 208.168 83.026 210.268 84.226 212.368C86.426 211.368 88.626 210.768 89.526 211.668C90.526 212.768 88.626 214.068 86.326 215.668C87.226 216.968 88.126 218.268 89.226 219.668C91.026 218.968 92.726 218.668 93.426 219.368C94.226 220.168 93.226 221.168 91.526 222.368C92.526 223.568 93.726 224.768 94.926 225.968C96.426 225.168 97.826 224.268 99.126 223.368C97.826 221.768 97.126 220.568 98.126 219.968C99.026 219.468 100.526 220.168 102.126 221.268C103.526 220.268 104.826 219.168 105.926 218.168C104.126 215.968 102.626 214.268 103.826 213.468C104.826 212.868 106.826 213.968 108.726 215.468C110.426 213.668 111.926 211.968 113.126 210.168C110.126 208.068 106.826 206.568 108.026 205.168C109.026 203.968 112.426 205.168 115.326 206.468C116.526 204.168 117.226 201.868 117.626 199.768C113.726 197.968 107.626 197.868 108.526 195.768C109.226 193.968 114.426 194.368 117.826 194.868C117.326 191.068 115.226 188.368 112.226 187.568C103.026 185.168 99.626 190.268 99.626 190.268C99.626 190.268 97.726 184.468 88.226 184.468C85.126 184.468 82.426 186.568 80.926 190.068C84.126 190.768 89.126 191.668 89.426 193.568ZM100.726 207.068C101.126 206.468 102.426 206.668 103.626 207.368C104.826 208.168 105.626 209.268 105.226 209.868C104.826 210.468 103.526 210.268 102.326 209.568C101.026 208.768 100.326 207.668 100.726 207.068ZM92.426 215.268C93.226 214.968 93.926 214.968 94.026 215.368C94.126 215.768 93.726 216.268 92.926 216.568C92.126 216.868 91.426 216.868 91.326 216.468C91.126 216.168 91.626 215.568 92.426 215.268ZM90.226 196.268C91.926 195.868 93.426 196.268 93.626 197.068C93.826 197.868 92.626 198.768 90.926 199.168C89.226 199.568 87.726 199.168 87.526 198.368C87.326 197.568 88.526 196.568 90.226 196.268Z" fill="url(#paint51_linear)"/>
<path opacity="0.2" d="M88.026 184.668C84.926 184.668 82.226 186.768 80.726 190.268C84.126 190.668 89.226 191.668 89.426 193.568C89.726 195.868 83.826 194.368 79.626 195.068C79.426 197.168 79.626 199.568 80.126 202.068C83.226 201.568 86.826 201.268 87.526 202.668C88.326 204.268 84.726 204.968 81.326 206.168C82.026 208.168 83.026 210.268 84.226 212.368C86.426 211.368 88.626 210.768 89.526 211.668C90.526 212.768 88.626 214.068 86.326 215.668C87.226 216.968 88.126 218.268 89.226 219.668C91.026 218.968 92.726 218.668 93.426 219.368C94.226 220.168 93.226 221.168 91.526 222.368C92.526 223.568 93.726 224.768 94.926 225.968L99.626 190.368C99.426 190.568 97.526 184.668 88.026 184.668ZM90.826 199.168C89.126 199.568 87.626 199.168 87.426 198.368C87.226 197.568 88.426 196.668 90.126 196.268C91.826 195.868 93.326 196.268 93.526 197.068C93.726 197.768 92.526 198.768 90.826 199.168ZM92.926 216.568C92.126 216.868 91.426 216.868 91.326 216.468C91.226 216.068 91.626 215.568 92.426 215.268C93.226 214.968 93.926 214.968 94.026 215.368C94.226 215.768 93.726 216.268 92.926 216.568Z" fill="url(#paint52_linear)"/>
<path d="M104.426 236.668C101.826 237.568 99.326 239.368 97.226 241.168C91.526 246.068 87.526 252.868 84.826 259.868C82.426 266.168 81.026 272.868 80.226 279.568C80.126 280.468 81.626 280.468 81.726 279.568C83.526 264.868 88.826 247.168 102.526 239.268C103.326 238.768 104.126 238.368 104.826 238.168C105.726 237.868 105.326 236.368 104.426 236.668Z" fill="url(#paint53_linear)"/>
<path d="M99.626 237.468C100.526 238.668 96.726 239.768 94.626 241.568C95.226 242.768 96.126 244.068 97.226 245.368C98.826 244.068 100.726 242.668 101.526 243.268C102.526 243.868 100.726 245.468 99.226 247.268C100.326 248.168 101.526 248.968 102.926 249.768C103.826 248.468 104.926 247.468 105.626 247.668C106.526 247.968 105.926 249.268 105.126 250.968C106.026 251.368 107.026 251.868 108.026 252.268C108.826 251.268 109.626 250.568 110.326 250.768C111.026 250.968 110.826 251.868 110.326 253.068C111.326 253.368 112.326 253.668 113.426 253.968C113.926 252.968 114.426 252.068 114.926 251.168C113.726 250.668 112.926 250.268 113.226 249.568C113.526 248.968 114.626 248.868 115.926 248.968C116.326 247.968 116.726 246.968 117.026 245.968C115.326 245.368 113.826 244.868 114.326 244.068C114.726 243.368 116.126 243.368 117.726 243.568C118.126 241.968 118.326 240.568 118.426 239.168C116.126 238.968 113.726 239.268 113.926 238.068C114.126 237.068 116.426 236.568 118.426 236.368C118.326 234.668 118.026 233.168 117.526 231.868C114.726 232.168 111.326 234.168 111.126 232.668C110.926 231.468 113.926 229.968 115.926 229.068C114.326 227.168 112.326 226.368 110.326 226.868C104.426 228.568 104.226 232.568 104.226 232.568C104.226 232.568 101.226 229.968 95.9261 233.068C94.2261 234.068 93.326 236.168 93.726 238.568C95.726 237.668 98.926 236.568 99.626 237.468ZM110.426 241.268C110.426 240.768 111.226 240.468 112.126 240.468C113.126 240.468 113.826 240.868 113.826 241.368C113.826 241.868 113.026 242.168 112.126 242.168C111.226 242.068 110.426 241.768 110.426 241.268ZM108.526 248.568C108.826 248.168 109.226 247.968 109.426 248.068C109.626 248.268 109.526 248.668 109.226 249.068C108.926 249.468 108.526 249.668 108.326 249.568C108.126 249.468 108.226 249.068 108.526 248.568ZM101.026 238.668C101.826 237.868 102.826 237.568 103.126 237.968C103.526 238.368 103.126 239.268 102.326 240.068C101.526 240.868 100.526 241.168 100.226 240.768C99.826 240.368 100.226 239.468 101.026 238.668Z" fill="url(#paint54_linear)"/>
<path opacity="0.2" d="M95.9261 233.068C94.2261 234.068 93.326 236.168 93.726 238.568C95.726 237.668 98.926 236.568 99.626 237.568C100.526 238.768 96.726 239.868 94.626 241.668C95.226 242.868 96.126 244.168 97.226 245.468C98.826 244.168 100.726 242.768 101.526 243.368C102.526 243.968 100.726 245.568 99.226 247.368C100.326 248.268 101.526 249.068 102.926 249.868C103.826 248.568 104.926 247.568 105.626 247.768C106.526 248.068 105.926 249.368 105.126 251.068C106.026 251.468 107.026 251.968 108.026 252.368C108.826 251.368 109.626 250.668 110.326 250.868C111.026 251.068 110.826 251.968 110.326 253.168C111.326 253.468 112.326 253.768 113.426 254.068L104.226 232.668C104.226 232.468 101.226 229.868 95.9261 233.068ZM102.326 240.068C101.526 240.868 100.526 241.168 100.226 240.768C99.826 240.368 100.226 239.468 101.026 238.668C101.826 237.868 102.826 237.568 103.126 237.968C103.526 238.468 103.126 239.368 102.326 240.068ZM109.226 249.168C108.926 249.568 108.526 249.768 108.326 249.668C108.126 249.468 108.226 249.068 108.526 248.668C108.826 248.268 109.226 248.068 109.426 248.168C109.726 248.268 109.626 248.768 109.226 249.168Z" fill="url(#paint55_linear)"/>
<path d="M31.0259 161.268C32.2259 161.968 33.226 162.968 34.426 164.068C37.526 167.068 40.226 170.468 42.626 174.068C52.626 188.868 58.026 206.568 61.426 223.968C64.626 240.668 65.9259 257.768 66.0259 274.768C66.0259 275.768 67.5259 275.768 67.5259 274.768C67.3259 248.168 64.626 220.768 55.126 195.668C50.826 184.168 44.926 172.668 36.226 163.868C34.826 162.468 33.426 161.068 31.826 160.068C31.026 159.468 30.2259 160.768 31.0259 161.268Z" fill="url(#paint56_linear)"/>
<path d="M24.726 156.468C23.826 158.968 18.526 154.168 13.726 152.768C12.426 154.868 11.226 157.368 10.426 160.368C13.926 161.468 17.826 163.168 17.726 164.968C17.726 167.068 13.626 165.768 9.42604 165.268C9.12604 167.668 8.92601 170.368 9.02601 173.268C11.926 173.468 14.426 174.068 14.826 175.368C15.326 176.968 12.626 177.368 9.32603 177.768C9.52603 179.568 9.82602 181.468 10.226 183.468C12.526 183.768 14.426 184.368 14.726 185.468C15.126 186.768 13.526 187.268 11.126 187.568C11.526 189.368 12.126 191.168 12.726 193.068C14.726 192.968 16.626 192.868 18.426 192.668C17.926 190.368 17.826 188.668 19.226 188.568C20.426 188.468 21.626 190.068 22.626 192.068C24.626 191.768 26.526 191.368 28.326 190.968C27.626 187.768 27.026 185.068 28.726 184.968C30.126 184.868 31.526 187.068 32.726 189.668C35.426 188.768 37.926 187.768 40.126 186.568C38.226 182.768 35.626 179.368 37.526 178.668C39.226 177.968 42.126 181.068 44.326 183.968C46.826 182.168 48.826 180.268 50.326 178.268C47.326 174.268 41.026 170.868 43.026 169.168C44.726 167.768 49.826 170.868 53.126 173.168C54.626 168.968 53.926 165.068 51.226 162.568C43.026 155.068 36.726 158.568 36.726 158.568C36.726 158.568 37.926 151.468 28.026 146.368C24.826 144.668 20.926 145.368 17.426 148.168C20.726 150.568 25.526 154.368 24.726 156.468ZM29.126 176.568C29.826 176.168 31.126 176.968 32.026 178.468C32.926 179.968 33.026 181.468 32.326 181.868C31.626 182.268 30.326 181.468 29.426 179.968C28.626 178.468 28.426 176.968 29.126 176.568ZM16.126 180.568C17.026 180.668 17.826 181.068 17.726 181.568C17.726 182.068 16.926 182.368 15.926 182.268C15.026 182.168 14.226 181.768 14.326 181.268C14.326 180.768 15.126 180.468 16.126 180.568ZM24.126 159.668C26.026 160.168 27.426 161.368 27.226 162.268C26.926 163.168 25.226 163.468 23.226 162.968C21.326 162.468 19.926 161.268 20.126 160.368C20.426 159.468 22.226 159.068 24.126 159.668Z" fill="url(#paint57_linear)"/>
<path opacity="0.2" d="M28.126 146.468C24.926 144.768 21.026 145.468 17.526 148.268C20.826 150.568 25.526 154.268 24.726 156.368C23.826 158.868 18.526 154.068 13.726 152.668C12.426 154.768 11.226 157.268 10.426 160.268C13.926 161.368 17.826 163.068 17.726 164.868C17.726 166.968 13.626 165.668 9.42604 165.168C9.12604 167.568 8.92601 170.268 9.02601 173.168C11.926 173.368 14.426 173.968 14.826 175.268C15.326 176.868 12.626 177.268 9.32603 177.668C9.52603 179.468 9.82602 181.368 10.226 183.368C12.526 183.668 14.426 184.268 14.726 185.368C15.126 186.668 13.526 187.168 11.126 187.468C11.526 189.268 12.126 191.068 12.726 192.968L36.826 158.668C36.826 158.768 37.926 151.668 28.126 146.468ZM23.226 162.968C21.326 162.468 19.926 161.268 20.126 160.368C20.426 159.468 22.126 159.168 24.126 159.668C26.026 160.168 27.426 161.368 27.226 162.268C26.926 163.168 25.226 163.568 23.226 162.968ZM15.926 182.168C15.026 182.068 14.226 181.668 14.326 181.168C14.326 180.668 15.126 180.368 16.126 180.468C17.026 180.568 17.826 180.968 17.726 181.468C17.726 181.968 16.926 182.268 15.926 182.168Z" fill="url(#paint58_linear)"/>
<path d="M30.526 218.368C34.226 219.968 37.626 222.668 40.626 225.268C48.226 231.968 53.926 240.668 57.426 250.168C60.326 258.068 61.626 266.368 61.926 274.768C61.926 275.768 63.426 275.768 63.426 274.768C63.026 261.168 59.626 247.568 52.126 236.168C47.726 229.468 41.926 223.568 35.226 219.268C34.026 218.468 32.726 217.668 31.326 217.068C30.326 216.668 29.626 217.968 30.526 218.368Z" fill="url(#paint59_linear)"/>
<path d="M27.6262 216.468C28.6262 218.668 22.1262 218.968 18.1262 221.068C18.6262 223.268 19.5262 225.568 20.8262 228.068C23.8262 226.568 27.3262 225.168 28.5262 226.368C29.8262 227.768 26.4262 229.568 23.3262 231.868C24.6262 233.668 26.3262 235.468 28.2262 237.268C30.2262 235.568 32.2262 234.268 33.3262 234.968C34.7262 235.768 33.1262 237.668 31.3262 240.068C32.6262 241.168 34.0262 242.168 35.5262 243.168C37.2262 241.868 38.7262 241.068 39.7262 241.568C40.8262 242.168 40.0262 243.468 38.8262 245.168C40.2262 246.068 41.7262 246.868 43.3262 247.768C44.5262 246.468 45.7262 245.168 46.7262 243.868C44.9262 242.668 43.8262 241.668 44.6262 240.768C45.3262 239.968 47.1262 240.168 49.1262 240.868C50.2262 239.368 51.2262 237.968 52.0262 236.568C49.5262 234.968 47.4262 233.668 48.4262 232.468C49.2262 231.468 51.6262 232.068 54.0262 232.968C55.2262 230.668 56.1262 228.368 56.8262 226.268C53.1262 225.068 49.3262 224.568 50.1262 222.768C50.8262 221.268 54.6262 221.368 57.9262 221.868C58.4262 219.068 58.4262 216.568 58.2262 214.368C53.7262 213.668 47.5262 215.568 47.7262 213.168C47.9262 211.168 53.2262 209.968 56.8262 209.368C55.1262 205.668 52.1262 203.668 48.8262 203.768C38.7262 204.168 36.9262 210.468 36.9262 210.468C36.9262 210.468 33.1262 205.168 23.5262 208.068C20.4262 209.068 18.2262 211.968 17.8262 215.968C21.3262 215.268 26.7262 214.668 27.6262 216.468ZM43.3262 226.668C43.5262 225.968 44.9262 225.668 46.4262 226.068C47.9262 226.468 49.0262 227.368 48.8262 228.068C48.6262 228.768 47.2262 229.068 45.7262 228.668C44.1262 228.268 43.1262 227.368 43.3262 226.668ZM37.4262 237.568C38.1262 236.968 38.8262 236.868 39.1262 237.168C39.4262 237.468 39.0262 238.168 38.4262 238.768C37.7262 239.368 37.0262 239.468 36.7262 239.168C36.4262 238.868 36.7262 238.168 37.4262 237.568ZM29.3262 218.968C30.9262 218.068 32.5262 217.968 33.0262 218.768C33.4262 219.568 32.5262 220.868 30.9262 221.768C29.3262 222.668 27.7262 222.768 27.2262 221.968C26.7262 221.168 27.7262 219.868 29.3262 218.968Z" fill="url(#paint60_linear)"/>
<path opacity="0.5" d="M23.4261 207.968C20.3261 208.968 18.1261 211.868 17.7261 215.868C21.3261 215.268 26.7261 214.668 27.6261 216.468C28.6261 218.668 22.1261 218.968 18.1261 221.068C18.6261 223.268 19.5261 225.568 20.8261 228.068C23.8261 226.568 27.3261 225.168 28.5261 226.368C29.8261 227.768 26.4261 229.568 23.3261 231.868C24.6261 233.668 26.3261 235.468 28.2261 237.268C30.2261 235.568 32.2261 234.268 33.3261 234.968C34.7261 235.768 33.1261 237.668 31.3261 240.068C32.6261 241.168 34.0261 242.168 35.5261 243.168C37.2261 241.868 38.7261 241.068 39.7261 241.568C40.8261 242.168 40.0261 243.468 38.8261 245.168C40.2261 246.068 41.7261 246.868 43.3261 247.768L36.9261 210.168C36.8261 210.268 33.1261 204.968 23.4261 207.968ZM30.8261 221.668C29.2261 222.568 27.6261 222.668 27.1261 221.868C26.6261 221.068 27.6261 219.768 29.2261 218.868C30.8261 217.968 32.4261 217.868 32.9261 218.668C33.3261 219.468 32.4261 220.768 30.8261 221.668ZM38.3261 238.768C37.6261 239.368 36.9261 239.468 36.6261 239.168C36.3261 238.868 36.7261 238.168 37.3261 237.568C38.0261 236.968 38.7261 236.868 39.0261 237.168C39.3261 237.468 39.0261 238.168 38.3261 238.768Z" fill="url(#paint61_linear)"/>
<path d="M38.926 264.068V280.768C38.926 293.468 49.326 303.868 62.026 303.868H81.826C94.526 303.868 104.926 293.468 104.926 280.768V264.068H38.926Z" fill="#FFE787"/>
<path d="M105 275H39.0002V280H105V275Z" fill="white"/>
<path opacity="0.1" d="M92.726 264.068V280.768C92.726 293.468 82.326 303.868 69.626 303.868H81.926C94.626 303.868 105.026 293.468 105.026 280.768V264.068H92.726Z" fill="#482C80"/>
<path d="M107.126 261.068H36.8259V267.268H107.126V261.068Z" fill="#D5BD75"/>
<defs>
<linearGradient id="paint0_linear" x1="140.247" y1="184.012" x2="122.383" y2="219.92" gradientUnits="userSpaceOnUse">
<stop stop-color="#65B0FE" stop-opacity="0.75"/>
<stop offset="1" stop-color="#65B0FE" stop-opacity="0.15"/>
</linearGradient>
<linearGradient id="paint1_linear" x1="110.073" y1="220.779" x2="125.904" y2="256.175" gradientUnits="userSpaceOnUse">
<stop stop-color="#B3FF7D"/>
<stop offset="1" stop-color="#12B4A9"/>
</linearGradient>
<linearGradient id="paint2_linear" x1="109.599" y1="224.58" x2="124.6" y2="254.976" gradientUnits="userSpaceOnUse">
<stop stop-color="#B3FF7D"/>
<stop offset="1" stop-color="#12B4A9"/>
</linearGradient>
<linearGradient id="paint3_linear" x1="134.401" y1="190.924" x2="167.07" y2="215.096" gradientUnits="userSpaceOnUse">
<stop stop-color="#B3FF7D"/>
<stop offset="1" stop-color="#12B4A9"/>
</linearGradient>
<linearGradient id="paint4_linear" x1="135.329" y1="194.716" x2="151.964" y2="199.423" gradientUnits="userSpaceOnUse">
<stop stop-color="#B3FF7D"/>
<stop offset="1" stop-color="#12B4A9"/>
</linearGradient>
<linearGradient id="paint5_linear" x1="144.793" y1="204.877" x2="172.305" y2="238.491" gradientUnits="userSpaceOnUse">
<stop stop-color="#B3FF7D"/>
<stop offset="1" stop-color="#12B4A9"/>
</linearGradient>
<linearGradient id="paint6_linear" x1="146.227" y1="207.919" x2="172.283" y2="236.625" gradientUnits="userSpaceOnUse">
<stop stop-color="#B3FF7D"/>
<stop offset="1" stop-color="#12B4A9"/>
</linearGradient>
<linearGradient id="paint7_linear" x1="153.468" y1="229.858" x2="163.132" y2="261.179" gradientUnits="userSpaceOnUse">
<stop stop-color="#B3FF7D"/>
<stop offset="1" stop-color="#12B4A9"/>
</linearGradient>
<linearGradient id="paint8_linear" x1="154.104" y1="232.755" x2="162.728" y2="260.313" gradientUnits="userSpaceOnUse">
<stop stop-color="#B3FF7D"/>
<stop offset="1" stop-color="#12B4A9"/>
</linearGradient>
<linearGradient id="paint9_linear" x1="156.796" y1="252.313" x2="159.288" y2="267.227" gradientUnits="userSpaceOnUse">
<stop stop-color="#B3FF7D"/>
<stop offset="1" stop-color="#12B4A9"/>
</linearGradient>
<linearGradient id="paint10_linear" x1="156.98" y1="255.137" x2="158.748" y2="266.437" gradientUnits="userSpaceOnUse">
<stop stop-color="#B3FF7D"/>
<stop offset="1" stop-color="#12B4A9"/>
</linearGradient>
<linearGradient id="paint11_linear" x1="120.657" y1="203.548" x2="148.619" y2="236.415" gradientUnits="userSpaceOnUse">
<stop stop-color="#B3FF7D"/>
<stop offset="1" stop-color="#12B4A9"/>
</linearGradient>
<linearGradient id="paint12_linear" x1="120.821" y1="208.037" x2="146.37" y2="235.395" gradientUnits="userSpaceOnUse">
<stop stop-color="#B3FF7D"/>
<stop offset="1" stop-color="#12B4A9"/>
</linearGradient>
<linearGradient id="paint13_linear" x1="106.856" y1="252.313" x2="109.348" y2="267.227" gradientUnits="userSpaceOnUse">
<stop stop-color="#B3FF7D"/>
<stop offset="1" stop-color="#12B4A9"/>
</linearGradient>
<linearGradient id="paint14_linear" x1="108.508" y1="255.137" x2="110.275" y2="266.437" gradientUnits="userSpaceOnUse">
<stop stop-color="#B3FF7D"/>
<stop offset="1" stop-color="#12B4A9"/>
</linearGradient>
<linearGradient id="paint15_linear" x1="137.738" y1="284.051" x2="154.928" y2="284.051" gradientUnits="userSpaceOnUse">
<stop stop-color="#FFE787"/>
<stop offset="1" stop-color="#DCC66E"/>
</linearGradient>
<linearGradient id="paint16_linear" x1="305.439" y1="181.579" x2="319.279" y2="193.767" gradientUnits="userSpaceOnUse">
<stop stop-color="#B3FF7D"/>
<stop offset="1" stop-color="#12B4A9"/>
</linearGradient>
<linearGradient id="paint17_linear" x1="325.275" y1="214.154" x2="347.106" y2="195.587" gradientUnits="userSpaceOnUse">
<stop stop-color="#B3FF7D"/>
<stop offset="1" stop-color="#12B4A9"/>
</linearGradient>
<linearGradient id="paint18_linear" x1="348.556" y1="148.334" x2="348.83" y2="139.83" gradientUnits="userSpaceOnUse">
<stop stop-color="#AC867B"/>
<stop offset="1" stop-color="#C9AF8F"/>
</linearGradient>
<linearGradient id="paint19_linear" x1="192.45" y1="141.714" x2="200.169" y2="164.428" gradientUnits="userSpaceOnUse">
<stop stop-color="#DDBE91"/>
<stop offset="1" stop-color="#C2A67E" stop-opacity="0"/>
</linearGradient>
<linearGradient id="paint20_linear" x1="158" y1="311" x2="158" y2="329.47" gradientUnits="userSpaceOnUse">
<stop stop-color="#9B7A71"/>
<stop offset="1" stop-color="#B89991"/>
</linearGradient>
<linearGradient id="paint21_linear" x1="40" y1="311" x2="40" y2="329.47" gradientUnits="userSpaceOnUse">
<stop stop-color="#9B7A71"/>
<stop offset="1" stop-color="#B89991"/>
</linearGradient>
<linearGradient id="paint22_linear" x1="203.552" y1="114.613" x2="195.817" y2="134.593" gradientUnits="userSpaceOnUse">
<stop stop-color="#B3FF7D"/>
<stop offset="1" stop-color="#19A8B1"/>
</linearGradient>
<linearGradient id="paint23_linear" x1="251.146" y1="49.1265" x2="254.921" y2="34.2306" gradientUnits="userSpaceOnUse">
<stop stop-color="#67D098"/>
<stop offset="1" stop-color="#7AD777"/>
</linearGradient>
<linearGradient id="paint24_linear" x1="271.671" y1="53.0118" x2="275.632" y2="41.3425" gradientUnits="userSpaceOnUse">
<stop stop-color="#67D098"/>
<stop offset="1" stop-color="#7AD777"/>
</linearGradient>
<linearGradient id="paint25_linear" x1="290.431" y1="58.4228" x2="293.629" y2="51.0867" gradientUnits="userSpaceOnUse">
<stop stop-color="#67D098"/>
<stop offset="1" stop-color="#7AD777"/>
</linearGradient>
<linearGradient id="paint26_linear" x1="307.437" y1="76.6939" x2="311.271" y2="68.2995" gradientUnits="userSpaceOnUse">
<stop stop-color="#67D098"/>
<stop offset="1" stop-color="#7AD777"/>
</linearGradient>
<linearGradient id="paint27_linear" x1="314.841" y1="93.3265" x2="319.011" y2="82.468" gradientUnits="userSpaceOnUse">
<stop stop-color="#67D098"/>
<stop offset="1" stop-color="#7AD777"/>
</linearGradient>
<linearGradient id="paint28_linear" x1="314.131" y1="112.129" x2="317.315" y2="96.9125" gradientUnits="userSpaceOnUse">
<stop stop-color="#67D098"/>
<stop offset="1" stop-color="#7AD777"/>
</linearGradient>
<linearGradient id="paint29_linear" x1="306.466" y1="130.639" x2="306.838" y2="113.87" gradientUnits="userSpaceOnUse">
<stop stop-color="#67D098"/>
<stop offset="1" stop-color="#7AD777"/>
</linearGradient>
<linearGradient id="paint30_linear" x1="295.235" y1="146.269" x2="291.933" y2="133.179" gradientUnits="userSpaceOnUse">
<stop stop-color="#67D098"/>
<stop offset="1" stop-color="#7AD777"/>
</linearGradient>
<linearGradient id="paint31_linear" x1="282.606" y1="31.6803" x2="262.843" y2="169.969" gradientUnits="userSpaceOnUse">
<stop stop-color="#B3FF7D"/>
<stop offset="1" stop-color="#12B4A9"/>
</linearGradient>
<linearGradient id="paint32_linear" x1="244.337" y1="23.8677" x2="265.984" y2="61.8952" gradientUnits="userSpaceOnUse">
<stop stop-color="#B3FF7D"/>
<stop offset="1" stop-color="#12B4A9"/>
</linearGradient>
<linearGradient id="paint33_linear" x1="276.49" y1="33.8307" x2="291.147" y2="76.8335" gradientUnits="userSpaceOnUse">
<stop stop-color="#B3FF7D"/>
<stop offset="1" stop-color="#12B4A9"/>
</linearGradient>
<linearGradient id="paint34_linear" x1="304.187" y1="43.4906" x2="322.768" y2="78.0888" gradientUnits="userSpaceOnUse">
<stop stop-color="#B3FF7D"/>
<stop offset="1" stop-color="#12B4A9"/>
</linearGradient>
<linearGradient id="paint35_linear" x1="309.051" y1="66.4164" x2="319.728" y2="117.941" gradientUnits="userSpaceOnUse">
<stop stop-color="#B3FF7D"/>
<stop offset="1" stop-color="#12B4A9"/>
</linearGradient>
<linearGradient id="paint36_linear" x1="190.087" y1="26.6134" x2="212.28" y2="70.0539" gradientUnits="userSpaceOnUse">
<stop stop-color="#B3FF7D"/>
<stop offset="1" stop-color="#24C594"/>
</linearGradient>
<linearGradient id="paint37_linear" x1="286.989" y1="88.2186" x2="283.32" y2="134.736" gradientUnits="userSpaceOnUse">
<stop stop-color="#B3FF7D"/>
<stop offset="1" stop-color="#12B4A9"/>
</linearGradient>
<linearGradient id="paint38_linear" x1="252.923" y1="221.969" x2="210.267" y2="203.933" gradientUnits="userSpaceOnUse">
<stop stop-color="#12B4A9"/>
<stop offset="1" stop-color="#B3FF7D"/>
</linearGradient>
<linearGradient id="paint39_linear" x1="212.596" y1="208.289" x2="209.192" y2="158.714" gradientUnits="userSpaceOnUse">
<stop stop-color="#12B4A9"/>
<stop offset="1" stop-color="#B3FF7D"/>
</linearGradient>
<linearGradient id="paint40_linear" x1="285.539" y1="192.061" x2="246.012" y2="216.926" gradientUnits="userSpaceOnUse">
<stop stop-color="#12B4A9"/>
<stop offset="1" stop-color="#B3FF7D"/>
</linearGradient>
<linearGradient id="paint41_linear" x1="304.44" y1="163.56" x2="272.748" y2="201.713" gradientUnits="userSpaceOnUse">
<stop stop-color="#12B4A9"/>
<stop offset="1" stop-color="#B3FF7D"/>
</linearGradient>
<linearGradient id="paint42_linear" x1="-0.0265503" y1="0.180353" x2="9.58738" y2="3.05685" gradientUnits="userSpaceOnUse">
<stop stop-color="#71AAFF"/>
<stop offset="1" stop-color="#4382FC"/>
</linearGradient>
<linearGradient id="paint43_linear" x1="184.179" y1="134.151" x2="155.386" y2="157.281" gradientUnits="userSpaceOnUse">
<stop stop-color="#71AAFF"/>
<stop offset="1" stop-color="#4375D6"/>
</linearGradient>
<linearGradient id="paint44_linear" x1="180.156" y1="128.229" x2="234.51" y2="101.473" gradientUnits="userSpaceOnUse">
<stop stop-color="#6BB8FF"/>
<stop offset="1" stop-color="#4F8AFD"/>
</linearGradient>
<linearGradient id="paint45_linear" x1="206.628" y1="122.824" x2="220.585" y2="145.85" gradientUnits="userSpaceOnUse">
<stop stop-color="#659DF5" stop-opacity="0"/>
<stop offset="1" stop-color="#4274D5"/>
</linearGradient>
<linearGradient id="paint46_linear" x1="239.463" y1="59.2288" x2="231.506" y2="99.5936" gradientUnits="userSpaceOnUse">
<stop stop-color="#B3FF7D"/>
<stop offset="1" stop-color="#12B4A9"/>
</linearGradient>
<linearGradient id="paint47_linear" x1="70.4986" y1="128.837" x2="122.906" y2="157.631" gradientUnits="userSpaceOnUse">
<stop stop-color="#B3FF7D"/>
<stop offset="1" stop-color="#12B4A9"/>
</linearGradient>
<linearGradient id="paint48_linear" x1="90.4472" y1="114.033" x2="107.886" y2="165.769" gradientUnits="userSpaceOnUse">
<stop stop-color="#B3FF7D"/>
<stop offset="1" stop-color="#12B4A9"/>
</linearGradient>
<linearGradient id="paint49_linear" x1="90.383" y1="142.245" x2="96.5033" y2="174.029" gradientUnits="userSpaceOnUse">
<stop stop-color="#B3FF7D"/>
<stop offset="1" stop-color="#12B4A9"/>
</linearGradient>
<linearGradient id="paint50_linear" x1="83.4849" y1="182.995" x2="123.414" y2="226.259" gradientUnits="userSpaceOnUse">
<stop stop-color="#B3FF7D"/>
<stop offset="1" stop-color="#12B4A9"/>
</linearGradient>
<linearGradient id="paint51_linear" x1="93.3062" y1="180.339" x2="107.11" y2="214.657" gradientUnits="userSpaceOnUse">
<stop stop-color="#B3FF7D"/>
<stop offset="1" stop-color="#12B4A9"/>
</linearGradient>
<linearGradient id="paint52_linear" x1="86.765" y1="180.558" x2="105.901" y2="205.633" gradientUnits="userSpaceOnUse">
<stop stop-color="#B3FF7D"/>
<stop offset="1" stop-color="#12B4A9"/>
</linearGradient>
<linearGradient id="paint53_linear" x1="89.2466" y1="232.289" x2="108.325" y2="261.898" gradientUnits="userSpaceOnUse">
<stop stop-color="#B3FF7D"/>
<stop offset="1" stop-color="#12B4A9"/>
</linearGradient>
<linearGradient id="paint54_linear" x1="102.543" y1="224.011" x2="111.693" y2="246.457" gradientUnits="userSpaceOnUse">
<stop stop-color="#B3FF7D"/>
<stop offset="1" stop-color="#12B4A9"/>
</linearGradient>
<linearGradient id="paint55_linear" x1="100.746" y1="229.235" x2="108.535" y2="247.637" gradientUnits="userSpaceOnUse">
<stop stop-color="#B3FF7D"/>
<stop offset="1" stop-color="#12B4A9"/>
</linearGradient>
<linearGradient id="paint56_linear" x1="43.932" y1="148.41" x2="98.828" y2="195.554" gradientUnits="userSpaceOnUse">
<stop stop-color="#B3FF7D"/>
<stop offset="1" stop-color="#12B4A9"/>
</linearGradient>
<linearGradient id="paint57_linear" x1="25.1378" y1="140.713" x2="40.7235" y2="180.329" gradientUnits="userSpaceOnUse">
<stop stop-color="#B3FF7D"/>
<stop offset="1" stop-color="#12B4A9"/>
</linearGradient>
<linearGradient id="paint58_linear" x1="19.0141" y1="140.833" x2="39.5784" y2="173.405" gradientUnits="userSpaceOnUse">
<stop stop-color="#B3FF7D"/>
<stop offset="1" stop-color="#12B4A9"/>
</linearGradient>
<linearGradient id="paint59_linear" x1="42.0845" y1="211.169" x2="67.8049" y2="250.635" gradientUnits="userSpaceOnUse">
<stop stop-color="#B3FF7D"/>
<stop offset="1" stop-color="#12B4A9"/>
</linearGradient>
<linearGradient id="paint60_linear" x1="32.3911" y1="199.386" x2="47.0435" y2="235.76" gradientUnits="userSpaceOnUse">
<stop stop-color="#B3FF7D"/>
<stop offset="1" stop-color="#12B4A9"/>
</linearGradient>
<linearGradient id="paint61_linear" x1="26.9269" y1="202.995" x2="44.0503" y2="232.013" gradientUnits="userSpaceOnUse">
<stop stop-color="#B3FF7D"/>
<stop offset="1" stop-color="#12B4A9"/>
</linearGradient>
</defs>
</svg>
