<svg width="380" height="364" viewBox="0 0 380 364" fill="none" xmlns="http://www.w3.org/2000/svg">
<ellipse cx="187" cy="350" rx="171" ry="14" fill="#F2F2F2"/>
<path d="M69.8501 167.5C68.8501 152.5 65.8501 147 61.3501 142" stroke="url(#paint0_linear)" stroke-width="2"/>
<path fill-rule="evenodd" clip-rule="evenodd" d="M283.855 52.5928H319.312C333.379 52.5928 344.925 41.1999 344.925 27.025V25.5678C344.925 11.3929 333.512 0 319.312 0H283.613C269.413 0 258 11.3929 258 25.5678V27.025C258 35.7157 262.29 43.3606 268.882 47.9753V63.5882C272.773 56.7773 275.146 52.5928 283.855 52.5928Z" fill="#72D582"/>
<path d="M287 25.5C287 26.9423 285.846 28 284.5 28C283.058 28 282 26.8462 282 25.5C282 24.0577 283.154 23 284.5 23C285.846 23 287 24.1539 287 25.5Z" fill="white"/>
<path d="M304 25.5C304 26.9423 302.846 28 301.5 28C300.058 28 299 26.8462 299 25.5C299 24.0577 300.154 23 301.5 23C302.846 23 304 24.1539 304 25.5Z" fill="white"/>
<path d="M321 25.5C321 26.9423 319.846 28 318.5 28C317.154 28 316 26.8462 316 25.5C316 24.0577 317.154 23 318.5 23C319.846 23 321 24.1539 321 25.5Z" fill="white"/>
<path d="M79.589 41.7425H115.288C129.488 41.7425 140.901 53.1354 140.901 67.3102V68.7675C140.901 77.5109 136.521 85.062 129.886 89.6986V105.198C127.338 98.631 122.053 94.2028 115.155 94.2028H79.589C65.3891 94.2028 53.9761 82.8099 53.9761 68.635V67.1778C53.9761 53.2679 65.5218 41.7425 79.589 41.7425Z" fill="white" stroke="#50B398" stroke-miterlimit="10"/>
<path d="M83 67.5C83 68.9423 81.8462 70 80.5 70C79.0577 70 78 68.8462 78 67.5C78 66.0577 79.1538 65 80.5 65C81.8462 65 83 66.1538 83 67.5Z" fill="#50B398"/>
<path d="M100 67.5C100 68.9423 98.8462 70 97.5 70C96.0577 70 95 68.8462 95 67.5C95 66.0577 96.1538 65 97.5 65C98.8462 65 100 66.1538 100 67.5Z" fill="#50B398"/>
<path d="M117 67.5C117 68.9423 115.846 70 114.5 70C113.058 70 112 68.8462 112 67.5C112 66.0577 113.154 65 114.5 65C115.846 65 117 66.1538 117 67.5Z" fill="#50B398"/>
<path d="M255.123 348.505C255.001 350.178 256.326 351.603 258.004 351.603C259.483 351.603 260.723 350.487 260.878 349.016L272.018 243.37H262.728L255.123 348.505Z" fill="url(#paint1_linear)"/>
<path d="M219.108 348.2C218.745 349.956 220.085 351.603 221.878 351.603C223.187 351.603 224.325 350.705 224.629 349.432L249.988 243.37H240.831L219.108 348.2Z" fill="url(#paint2_linear)"/>
<path d="M300.725 348.505C300.846 350.178 299.521 351.603 297.843 351.603C296.364 351.603 295.124 350.487 294.969 349.016L283.829 243.37H293.119L300.725 348.505Z" fill="url(#paint3_linear)"/>
<path d="M332.911 347.968C333.26 349.726 331.915 351.365 330.122 351.365C328.806 351.365 327.663 350.462 327.357 349.183L302 243.132L312.086 243L332.911 347.968Z" fill="url(#paint4_linear)"/>
<path d="M197.175 286.927V351.31H118.212C118.212 351.31 116.885 341.375 120.867 331.572C126.573 317.529 150.726 316.204 150.726 316.204L152.053 286L197.175 286.927Z" fill="url(#paint5_linear)"/>
<path d="M150.195 315.337C151.522 315.337 152.584 316.264 153.513 317.059C156.964 320.503 159.883 324.478 162.139 328.849" stroke="#2456B7" stroke-width="0.9375" stroke-miterlimit="10" stroke-linecap="round" stroke-linejoin="round"/>
<path d="M182.439 187.333H132.407V186.936C132.407 178.457 139.308 171.568 147.802 171.568H182.439V187.333Z" fill="#FFD5C7"/>
<path d="M286.483 165.74C290.73 175.013 292.455 185.346 293.119 195.546C293.65 204.157 293.252 213.033 290.067 221.114C286.882 229.195 280.246 236.216 271.885 238.204C262.728 237.011 252.908 235.554 243.751 236.084C251.581 221.909 253.704 203.76 250.652 187.863C262.994 179.914 273.478 172.761 286.483 165.74Z" fill="#EEC8B4"/>
<path d="M294.446 201.375L188.411 189.055C179.519 187.995 171.159 193.162 168.106 201.508L132.142 298.347C132.142 298.347 141.166 304.309 159.348 311.33C183.633 320.603 205.796 314.642 205.796 314.642C205.796 314.642 211.768 278.609 217.209 241.25C245.874 244.297 275.734 246.02 280.511 242.045C294.844 229.858 294.446 201.375 294.446 201.375Z" fill="#FFE787"/>
<path d="M194.25 236.746C194.25 236.746 200.355 240.721 204.734 248.537C209.114 256.353 212.83 267.216 212.83 267.216L217.873 241.913L194.25 236.746Z" fill="#EED77A"/>
<path d="M138.114 280.463C156.03 294.506 184.164 300.864 208.981 298.612" stroke="#D1B74F" stroke-width="0.9375" stroke-miterlimit="10" stroke-linecap="round" stroke-linejoin="round"/>
<path d="M243.835 98.513L230.507 107.688L240.979 122.847L254.307 113.671L243.835 98.513Z" fill="#FFD5C7"/>
<path d="M227.428 114.207C234.61 114.207 240.433 106.437 240.433 96.8523C240.433 87.2678 234.61 79.498 227.428 79.498C220.245 79.498 214.422 87.2678 214.422 96.8523C214.422 106.437 220.245 114.207 227.428 114.207Z" fill="#FFD5C7"/>
<path d="M238.575 105.198C237.381 107.318 236.186 109.437 234.328 111.16C232.603 112.882 230.214 114.074 227.826 113.809" stroke="#E18061" stroke-miterlimit="10" stroke-linecap="round" stroke-linejoin="round"/>
<path d="M217.076 101.224C217.076 102.284 216.147 103.211 215.086 103.211C214.024 103.211 213.095 102.284 213.095 101.224C213.095 100.164 214.024 99.2368 215.086 99.2368C216.28 99.2368 217.076 100.164 217.076 101.224Z" fill="#FFD5C7"/>
<path d="M218.403 96.5874C218.403 97.1173 218.005 97.5147 217.474 97.5147C216.944 97.5147 216.545 97.1173 216.545 96.5874C216.545 96.0575 216.944 95.66 217.474 95.66C218.005 95.7925 218.403 96.1899 218.403 96.5874Z" fill="#002233"/>
<path d="M229.02 100.562C229.02 102.019 227.826 103.211 226.366 103.211C224.906 103.211 223.712 102.019 223.712 100.562C223.712 99.1044 224.906 97.9121 226.366 97.9121C227.826 97.9121 229.02 99.1044 229.02 100.562Z" fill="#E18061"/>
<path d="M219.465 105.331C219.465 105.993 219.465 106.655 219.332 107.318C219.2 107.98 218.934 108.51 218.403 109.04" stroke="#002233" stroke-miterlimit="10" stroke-linecap="round" stroke-linejoin="round"/>
<path d="M264.5 99.5C270.5 101 274.213 102.265 277 102C279.5 99.5 281.694 97.1105 283.697 91.6857C281.308 91.2883 275.5 90.5 273.5 90C281.5 90.5 282.635 88.1089 285.289 87.0491C287.28 80.5578 287.412 76.716 287.412 76.716C287.412 76.716 270.293 85.8568 261.932 85.8568C253.571 85.8568 242.026 79.3655 237.779 77.9083C231.144 75.6562 221.058 76.1861 216.678 84.0022C215.086 86.9166 214.422 90.6259 214.422 90.6259C214.422 90.6259 217.076 91.9507 221.058 91.9507C222.916 91.9507 224.906 91.5532 226.499 91.1558C228.489 93.4079 230.878 95.7925 233.93 98.3095C246.671 108.775 261.932 113 261.932 113C261.932 113 270.355 112.359 275 106C272.877 105.338 268.5 102 264.5 99.5Z" fill="#002233"/>
<path d="M237.645 90.361C238.043 84.797 237.778 81.7501 234.194 77.6433C234.194 77.6433 232.602 77.5109 231.54 77.5109C230.744 77.5109 228.09 77.7758 228.09 77.7758C228.09 77.7758 230.213 79.3655 231.54 82.5449C232.867 85.7243 232.469 91.0234 232.469 91.0234L237.38 91.4208L237.645 90.361Z" fill="white" stroke="#191C36" stroke-width="1.148" stroke-miterlimit="10"/>
<path d="M242.291 96.7198C242.291 100.694 239.106 103.874 235.125 103.874C231.144 103.874 227.958 100.694 227.958 96.7198C227.958 92.7456 231.144 89.5662 235.125 89.5662C239.106 89.5662 242.291 92.7456 242.291 96.7198Z" fill="white" stroke="#191C36" stroke-width="1.3532" stroke-miterlimit="10"/>
<path d="M238.31 93.5404C240.035 95.2626 240.035 98.0446 238.31 99.7667C236.585 101.489 233.798 101.489 232.072 99.7667C230.347 98.0446 230.347 95.2626 232.072 93.5404C233.798 91.8182 236.585 91.8182 238.31 93.5404Z" fill="#002233"/>
<path d="M266.311 118.048C280.379 129.706 312.892 174.615 312.892 174.615C312.892 174.615 306.39 190.115 284.36 197.799C255.827 207.867 240.964 204.82 240.964 204.82C240.964 204.82 228.224 161.898 227.295 145.206C226.366 128.514 232.072 118.048 241.362 114.471C250.519 111.027 261.666 114.207 266.311 118.048Z" fill="url(#paint6_linear)"/>
<path d="M230.745 187.73L199.957 177.927L233.267 120.3L261.136 136.197L230.745 187.73Z" fill="#4382FC"/>
<path d="M158.153 187.465V155.539H224.773L230.745 187.73L158.153 187.465Z" fill="url(#paint7_linear)"/>
<path d="M212.829 155.406C213.36 155.671 216.413 158.851 217.076 162.693" stroke="#1E54BB" stroke-width="0.7031" stroke-miterlimit="10" stroke-linecap="round" stroke-linejoin="round"/>
<path d="M121.923 147.458L94.3198 172.893C89.5423 177.265 92.7273 185.213 99.0974 185.213H123.118" stroke="#002233" stroke-width="2.3438" stroke-miterlimit="10"/>
<path d="M130.948 175.94H130.682C125.905 177 121.127 173.953 120.065 169.051L108.918 117.121C107.856 112.352 110.909 107.583 115.819 106.523H116.084L130.948 175.94Z" fill="#002233"/>
<path d="M208.848 187.333H30.2212V192.102H208.848V187.333Z" fill="#86645B"/>
<path d="M203.197 347.344C203.381 349.638 201.569 351.603 199.267 351.603C197.246 351.603 195.552 350.074 195.345 348.064L179.254 191.837H190.667L203.197 347.344Z" fill="url(#paint8_linear)"/>
<path d="M35.7488 347.278C35.5591 349.607 37.4048 351.603 39.7419 351.603C41.7936 351.603 43.5179 350.05 43.7264 348.009L59.6826 191.837H48.4023L35.7488 347.278Z" fill="url(#paint9_linear)"/>
<path d="M81.2544 187.41H55.9069L54.3144 181.846C52.4564 175.354 52.5891 168.466 54.5798 162.107L55.9069 158H81.3871L82.5815 161.842C84.7049 168.466 84.8376 175.487 82.8469 182.111L81.2544 187.41Z" fill="url(#paint10_linear)"/>
<path d="M53.1314 170H83.7373L84 172.381L83.7373 174H53.1314L53 172.381L53.1314 170Z" fill="#86645B"/>
<path d="M53.1799 177.265H83.7031" stroke="#86645B" stroke-width="2" stroke-miterlimit="10"/>
<path d="M316.21 243.105L261.5 244.5C261.5 244.5 269.622 242.086 275.567 236.022C287.533 223.818 298.001 189.718 318.068 189.718H348.459L330.41 233.699C327.756 239.396 322.315 243.105 316.21 243.105Z" fill="url(#paint11_linear)"/>
<path d="M56.7411 148.559C50.3409 150.094 45.7871 144.669 35.486 131.898C51.7933 129.934 59.4837 130.823 62.4942 136.37C65.5048 141.916 63.1413 147.025 56.7411 148.559Z" fill="url(#paint12_linear)"/>
<path d="M56.7779 137.46C52.952 129.804 58.5087 122.68 71.712 106.437C78.9883 126.444 80.1129 136.346 73.9497 141.559C67.7866 146.773 60.6037 145.115 56.7779 137.46Z" fill="url(#paint13_linear)"/>
<defs>
<linearGradient id="paint0_linear" x1="118.078" y1="138.677" x2="25.4805" y2="165.436" gradientUnits="userSpaceOnUse">
<stop stop-color="#817A5A"/>
<stop offset="0.873444" stop-color="#BDB7A9"/>
</linearGradient>
<linearGradient id="paint1_linear" x1="263.458" y1="243.37" x2="263.458" y2="294.628" gradientUnits="userSpaceOnUse">
<stop stop-color="#9B7A71"/>
<stop offset="1" stop-color="#B89991"/>
</linearGradient>
<linearGradient id="paint2_linear" x1="234.196" y1="243.37" x2="234.196" y2="294.628" gradientUnits="userSpaceOnUse">
<stop stop-color="#9B7A71"/>
<stop offset="1" stop-color="#B89991"/>
</linearGradient>
<linearGradient id="paint3_linear" x1="292.389" y1="243.37" x2="292.389" y2="294.628" gradientUnits="userSpaceOnUse">
<stop stop-color="#9B7A71"/>
<stop offset="1" stop-color="#B89991"/>
</linearGradient>
<linearGradient id="paint4_linear" x1="317.792" y1="243" x2="317.792" y2="294.32" gradientUnits="userSpaceOnUse">
<stop stop-color="#9B7A71"/>
<stop offset="1" stop-color="#B89991"/>
</linearGradient>
<linearGradient id="paint5_linear" x1="117.833" y1="286.936" x2="176.043" y2="308.049" gradientUnits="userSpaceOnUse">
<stop stop-color="#83B4FF"/>
<stop offset="1" stop-color="#5F95FF"/>
</linearGradient>
<linearGradient id="paint6_linear" x1="244" y1="172" x2="257.5" y2="144" gradientUnits="userSpaceOnUse">
<stop stop-color="#326AD7"/>
<stop offset="1" stop-color="#4382FC"/>
</linearGradient>
<linearGradient id="paint7_linear" x1="158" y1="156" x2="199.5" y2="184" gradientUnits="userSpaceOnUse">
<stop stop-color="#71AAFF"/>
<stop offset="1" stop-color="#4382FC"/>
</linearGradient>
<linearGradient id="paint8_linear" x1="191.397" y1="191.837" x2="191.397" y2="267.5" gradientUnits="userSpaceOnUse">
<stop stop-color="#9B7A71"/>
<stop offset="1" stop-color="#B89991"/>
</linearGradient>
<linearGradient id="paint9_linear" x1="47.5397" y1="191.837" x2="47.5397" y2="267.5" gradientUnits="userSpaceOnUse">
<stop stop-color="#9B7A71"/>
<stop offset="1" stop-color="#B89991"/>
</linearGradient>
<linearGradient id="paint10_linear" x1="70.0725" y1="170.077" x2="84.0725" y2="170.077" gradientUnits="userSpaceOnUse">
<stop stop-color="#FFE787"/>
<stop offset="1" stop-color="#DCC66E"/>
</linearGradient>
<linearGradient id="paint11_linear" x1="292.5" y1="205" x2="310" y2="227.5" gradientUnits="userSpaceOnUse">
<stop stop-color="#326AD7"/>
<stop offset="1" stop-color="#4382FC"/>
</linearGradient>
<linearGradient id="paint12_linear" x1="41.8364" y1="139.313" x2="53.1893" y2="131.634" gradientUnits="userSpaceOnUse">
<stop stop-color="#B3FF7D"/>
<stop offset="1" stop-color="#12B4A9"/>
</linearGradient>
<linearGradient id="paint13_linear" x1="60.6827" y1="115.483" x2="76.4856" y2="129.763" gradientUnits="userSpaceOnUse">
<stop stop-color="#B3FF7D"/>
<stop offset="1" stop-color="#12B4A9"/>
</linearGradient>
</defs>
</svg>
