<svg width="80" height="80" viewBox="0 0 80 80" fill="none" xmlns="http://www.w3.org/2000/svg">
<path d="M68.46 10C68.0532 10.6065 67.591 11.3754 67.1304 12.3066C65.8335 14.9284 64.5534 18.8292 64.5534 24V24.0703V24.1406V24.2108V24.281V24.3511V24.4213V24.4913V24.5614V24.6314V24.7014V24.7714V24.8413V24.9112V24.981V25.0508V25.1206V25.1904V25.2601V25.3298V25.3994V25.4691V25.5386V25.6082V25.6777V25.7472V25.8167V25.8861V25.9555V26.0248V26.0941V26.1634V26.2327V26.3019V26.3711V26.4402V26.5093V26.5784V26.6475V26.7165V26.7855V26.8545V26.9234V26.9923V27.0612V27.13V27.1988V27.2675V27.3363V27.405V27.4736V27.5423V27.6109V27.6795V27.748V27.8165V27.885V27.9534V28.0218V28.0902V28.1586V28.2269V28.2952V28.3634V28.4316V28.4998V28.568V28.6361V28.7042V28.7723V28.8403V28.9083V28.9763V29.0442V29.1121V29.18V29.2479V29.3157V29.3835V29.4512V29.519V29.5866V29.6543V29.7219V29.7895V29.8571V29.9247V29.9922V30.0596V30.1271V30.1945V30.2619V30.3293V30.3966V30.4639V30.5312V30.5984V30.6656V30.7328V30.7999V30.867V30.9341V31.0012V31.0682V31.1352V31.2022V31.2691V31.336V31.4029V31.4698V31.5366V31.6034V31.6701V31.7369V31.8036V31.8702V31.9369V32.0035V32.0701V32.1367V32.2032V32.2697V32.3362V32.4026V32.469V32.5354V32.6017V32.6681V32.7344V32.8006V32.8669V32.9331V32.9993V33.0654V33.1316V33.1977V33.2637V33.3298V33.3958V33.4618V33.5277V33.5937V33.6596V33.7254V33.7913V33.8571V33.9229V33.9887V34.0544V34.1201V34.1858V34.2514V34.3171V34.3827V34.4482V34.5138V34.5793V34.6448V34.7102V34.7757V34.8411V34.9064V34.9718V35.0371V35.1024V35.1677V35.2329V35.2981V35.3633V35.4285V35.4936V35.5587V35.6238V35.6889V35.7539V35.8189V35.8839V35.9488V36.0138V36.0786V36.1435V36.2084V36.2732V36.338V36.4027V36.4675V36.5322V36.5969V36.6615V36.7262V36.7908V36.8554V36.9199V36.9845V37.049V37.1134V37.1779V37.2423V37.3067V37.3711V37.4355V37.4998V37.5641V37.6284V37.6926V37.7568V37.821V37.8852V37.9494V38.0135V38.0776V38.1417V38.2057V38.2698V38.3338V38.3977V38.4617V38.5256V38.5895V38.6534V38.7172V38.7811V38.8449V38.9087V38.9724V39.0361V39.0998V39.1635V39.2272V39.2908V39.3544V39.418V39.4816V39.5451V39.6086V39.6721V39.7356V39.799V39.8625V39.9259V39.9892V40.0526V40.1159V40.1792V40.2425V40.3057V40.369V40.4322V40.4954V40.5585V40.6217V40.6848V40.7479V40.8109V40.874V40.937V41V41.063V41.1259V41.1889V41.2518V41.3147V41.3775V41.4404V41.5032V41.566V41.6287V41.6915V41.7542V41.8169V41.8796V41.9423V42.0049V42.0675V42.1301V42.1927V42.2552V42.3178V42.3803V42.4428V42.5052V42.5677V42.6301V42.6925V42.7549V42.8172V42.8795V42.9419V43.0042V43.0664V43.1287V43.1909V43.2531V43.3153V43.3774V43.4396V43.5017V43.5638V43.6259V43.6879V43.75V43.812V43.874V43.9359V43.9979V44.0598V44.1217V44.1836V44.2455V44.3073V44.3692V44.431V44.4928V44.5545V44.6163V44.678V44.7397V44.8014V44.8631V44.9247V44.9863V45.0479V45.1095V45.1711V45.2326V45.2942V45.3557V45.4171V45.4786V45.5401V45.6015V45.6629V45.7243V45.7856V45.847V45.9083V45.9696V46.0309V46.0922V46.1534V46.2147V46.2759V46.3371V46.3983V46.4594V46.5206V46.5817V46.6428V46.7039V46.7649V46.826V46.887V46.948V47.009V47.07V47.1309V47.1918V47.2528V47.3136V47.3745V47.4354V47.4962V47.557V47.6178V47.6786V47.7394V47.8002V47.8609V47.9216V47.9823V48.043V48.1036V48.1643V48.2249V48.2855V48.3461V48.4067V48.4672V48.5278V48.5883V48.6488V48.7093V48.7697V48.8302V48.8906V48.951V49.0114V49.0718V49.1322V49.1925V49.2529V49.3132V49.3735V49.4338V49.494V49.5543V49.6145V49.6747V49.7349V49.7951V49.8553V49.9154V49.9755V50.0356V50.0957V50.1558V50.2159V50.2759V50.336V50.396V50.456V50.516V50.576V50.6359V50.6958V50.7558V50.8157V50.8756V50.9354V50.9953V51.0551V51.115V51.1748V51.2346V51.2944V51.3541V51.4139V51.4736V51.5333V51.593V51.6527V51.7124V51.7721V51.8317V51.8913V51.951V52.0106V52.0701V52.1297V52.1893V52.2488V52.3083V52.3678V52.4273V52.4868V52.5463V52.6057V52.6652V52.7246V52.784V52.8434V52.9028V52.9622V53.0215V53.0809V53.1402V53.1995V53.2588V53.3181V53.3773V53.4366V53.4958V53.5551V53.6143V53.6735V53.7327V53.7919V53.851V53.9102V53.9693V54.0284V54.0875V54.1466V54.2057V54.2648V54.3238V54.3829V54.4419V54.5009V54.5599V54.6189V54.6779V54.7368V54.7958V54.8547V54.9137V54.9726V55.0315V55.0904V55.1492V55.2081V55.2669V55.3258V55.3846V55.4434V55.5022V55.561V55.6198V55.6785V55.7373V55.796V55.8548V55.9135V55.9722V56.0309V56.0896V56.1482V56.2069V56.2655V56.3242V56.3828V56.4414V56.5C64.5534 61.0513 63.2493 64.5098 61.9554 66.8246C61.3076 67.9833 60.6622 68.8554 60.1844 69.4326C59.9846 69.6739 59.8145 69.8632 59.6861 70H11.3204C11.7772 69.2269 12.3419 68.1986 12.9067 66.9842C14.1863 64.2331 15.5 60.4559 15.5 56.5V56.4443V56.3885V56.3325V56.2765V56.2204V56.1642V56.1078V56.0514V55.9949V55.9383V55.8815V55.8247V55.7678V55.7108V55.6537V55.5965V55.5391V55.4817V55.4242V55.3666V55.3089V55.2511V55.1933V55.1353V55.0772V55.019V54.9608V54.9024V54.844V54.7854V54.7268V54.6681V54.6093V54.5504V54.4914V54.4323V54.3731V54.3139V54.2545V54.1951V54.1356V54.076V54.0163V53.9565V53.8966V53.8366V53.7766V53.7165V53.6563V53.596V53.5356V53.4751V53.4146V53.3539V53.2932V53.2324V53.1716V53.1106V53.0496V52.9884V52.9272V52.866V52.8046V52.7432V52.6816V52.6201V52.5584V52.4966V52.4348V52.3729V52.3109V52.2489V52.1867V52.1245V52.0622V51.9999V51.9374V51.8749V51.8124V51.7497V51.687V51.6242V51.5613V51.4984V51.4354V51.3723V51.3091V51.2459V51.1826V51.1193V51.0558V50.9923V50.9288V50.8651V50.8014V50.7377V50.6738V50.6099V50.546V50.4819V50.4178V50.3537V50.2895V50.2252V50.1608V50.0964V50.0319V49.9674V49.9028V49.8381V49.7734V49.7086V49.6438V49.5788V49.5139V49.4489V49.3838V49.3186V49.2534V49.1882V49.1229V49.0575V48.992V48.9266V48.861V48.7954V48.7298V48.6641V48.5983V48.5325V48.4666V48.4007V48.3347V48.2687V48.2026V48.1365V48.0703V48.0041V47.9378V47.8714V47.8051V47.7386V47.6721V47.6056V47.539V47.4724V47.4057V47.339V47.2722V47.2054V47.1385V47.0716V47.0047V46.9377V46.8707V46.8036V46.7364V46.6693V46.602V46.5348V46.4675V46.4001V46.3328V46.2653V46.1979V46.1304V46.0628V45.9952V45.9276V45.8599V45.7922V45.7245V45.6567V45.5889V45.5211V45.4532V45.3852V45.3173V45.2493V45.1813V45.1132V45.0451V44.977V44.9088V44.8406V44.7724V44.7041V44.6358V44.5675V44.4991V44.4307V44.3623V44.2939V44.2254V44.1569V44.0883V44.0198V43.9512V43.8825V43.8139V43.7452V43.6765V43.6078V43.539V43.4702V43.4014V43.3326V43.2637V43.1949V43.126V43.057V42.9881V42.9191V42.8501V42.7811V42.7121V42.643V42.5739V42.5048V42.4357V42.3666V42.2974V42.2282V42.1591V42.0898V42.0206V41.9514V41.8821V41.8128V41.7435V41.6742V41.6049V41.5356V41.4662V41.3968V41.3274V41.2581V41.1886V41.1192V41.0498V40.9803V40.9109V40.8414V40.7719V40.7024V40.6329V40.5634V40.4939V40.4244V40.3549V40.2853V40.2158V40.1462V40.0766V40.0071V39.9375V39.8679V39.7983V39.7287V39.6591V39.5895V39.5199V39.4503V39.3807V39.3111V39.2415V39.1719V39.1022V39.0326V38.963V38.8934V38.8237V38.7541V38.6845V38.6149V38.5453V38.4756V38.406V38.3364V38.2668V38.1972V38.1276V38.058V37.9884V37.9188V37.8492V37.7797V37.7101V37.6405V37.571V37.5014V37.4319V37.3623V37.2928V37.2233V37.1538V37.0843V37.0148V36.9453V36.8758V36.8064V36.7369V36.6675V36.5981V36.5287V36.4593V36.3899V36.3205V36.2511V36.1818V36.1125V36.0432V35.9739V35.9046V35.8353V35.7661V35.6968V35.6276V35.5584V35.4893V35.4201V35.351V35.2818V35.2127V35.1437V35.0746V35.0056V34.9365V34.8675V34.7986V34.7296V34.6607V34.5918V34.5229V34.454V34.3852V34.3164V34.2476V34.1789V34.1101V34.0414V33.9727V33.9041V33.8355V33.7669V33.6983V33.6297V33.5612V33.4927V33.4243V33.3559V33.2875V33.2191V33.1508V33.0825V33.0142V32.946V32.8778V32.8096V32.7415V32.6734V32.6053V32.5373V32.4693V32.4013V32.3334V32.2655V32.1976V32.1298V32.062V31.9943V31.9266V31.8589V31.7913V31.7237V31.6561V31.5886V31.5211V31.4537V31.3863V31.319V31.2517V31.1844V31.1172V31.05V30.9829V30.9158V30.8487V30.7817V30.7148V30.6479V30.581V30.5142V30.4474V30.3807V30.314V30.2474V30.1808V30.1142V30.0477V29.9813V29.9149V29.8486V29.7823V29.716V29.6499V29.5837V29.5176V29.4516V29.3856V29.3197V29.2538V29.188V29.1222V29.0565V28.9908V28.9252V28.8597V28.7942V28.7288V28.6634V28.5981V28.5328V28.4676V28.4024V28.3373V28.2723V28.2073V28.1424V28.0776V28.0128V27.948V27.8834V27.8188V27.7542V27.6897V27.6253V27.5609V27.4966V27.4324V27.3682V27.3041V27.2401V27.1761V27.1122V27.0484V26.9846V26.9209V26.8573V26.7937V26.7302V26.6667V26.6034V26.5401V26.4768V26.4137V26.3506V26.2876V26.2246V26.1617V26.0989V26.0362V25.9736V25.911V25.8485V25.786V25.7236V25.6614V25.5991V25.537V25.4749V25.4129V25.351V25.2892V25.2274V25.1657V25.1041V25.0426V24.9812V24.9198V24.8585V24.7973V24.7362V24.6751V24.6142V24.5533V24.4925V24.4317V24.3711V24.3105V24.2501V24.1897V24.1294V24.0691V24.009V23.949V23.889V23.8291V23.7693V23.7096V23.65V23.5905V23.531V23.4716V23.4124V23.3532V23.2941V23.2351V23.1762V23.1174V23.0586V23C15.5 18.3326 17.5909 15.0733 19.7071 12.9571C20.7681 11.8961 21.8308 11.1285 22.6266 10.6275C23.0237 10.3775 23.352 10.1952 23.5773 10.0772C23.6343 10.0474 23.6847 10.0216 23.7278 10H68.46Z" fill="#B2F6FF" stroke="#002233" stroke-width="2"/>
<rect x="27.5" y="28" width="25" height="2" fill="#002233"/>
<rect x="27.5" y="34" width="25" height="2" fill="#002233"/>
<path d="M25.8589 52.2384C25.8589 52.2384 26.2334 43.5728 32.5 42.168C38.7666 40.7632 35.5437 48.4923 30.9861 53.175C26.4286 57.8576 46.5 50.7968 42 47.5C37.5 44.2032 31.7682 56.7136 39.5 54.668C47.2318 52.6224 50.5 48.8807 54.5 46" stroke="#002233" stroke-width="2"/>
</svg>
