<svg width="80" height="80" viewBox="0 0 80 80" fill="none" xmlns="http://www.w3.org/2000/svg">
<path d="M61.8022 33.7556L61.7451 34.1694L61.9992 34.5008L66.2313 40.0199L61.8862 45.4853L61.6198 45.8204L61.6783 46.2444L62.6248 53.1003L56.1613 55.7221L55.7649 55.8829L55.6074 56.2805L53.0475 62.7434L46.2069 61.7969L45.7923 61.7396L45.4604 61.9946L39.9381 66.2388L34.4157 61.9946L34.0838 61.7396L33.6692 61.7969L26.8287 62.7434L24.2687 56.2805L24.1096 55.8788L23.7079 55.7194L17.2521 53.1564L18.1978 46.3064L18.2549 45.8926L18.0008 45.5612L13.7609 40.0319L18.0618 34.44L18.317 34.1082L18.2597 33.6936L17.3141 26.8436L23.7699 24.2806L24.1715 24.1212L24.3306 23.7194L26.8906 17.2566L33.7312 18.2031L34.1458 18.2604L34.4776 18.0054L39.9991 13.7619L45.5832 18.0665L45.9153 18.3226L46.3308 18.2651L53.1713 17.3186L55.7313 23.7815L55.8904 24.1832L56.292 24.3426L62.7479 26.9056L61.8022 33.7556Z" fill="#CBFFA6" stroke="#002233" stroke-width="2"/>
<path d="M33 41L38.5 45.5L49 34" stroke="#002233" stroke-width="2"/>
</svg>
