<svg width="80" height="80" viewBox="0 0 80 80" fill="none" xmlns="http://www.w3.org/2000/svg">
<path d="M39.0525 22.2143L39.75 22.8931L40.4475 22.2143C43.2077 19.5279 47.0062 17.5 51.27 17.5C59.6923 17.5 66.75 23.865 66.75 31.9931C66.75 37.7027 64.1147 42.5609 60.5076 46.6669C56.9077 50.7646 52.2387 54.2293 47.9494 57.1702L40.5298 62.2574L41.0953 63.0822L40.5298 62.2574C40.0581 62.5809 39.4419 62.5809 38.9702 62.2574L31.5506 57.1702C27.2613 54.2293 22.5923 50.7646 18.9924 46.6669C15.3853 42.5609 12.75 37.7027 12.75 31.9931C12.75 23.865 19.8077 17.5 28.23 17.5C32.4938 17.5 36.2923 19.5279 39.0525 22.2143Z" fill="#FFD5C7" stroke="#002233" stroke-width="2"/>
<path d="M7.75 43H31.75L34.75 50L39.75 31L44.75 47L47.75 36L52.25 43H72.25" stroke="#002233" stroke-width="2"/>
</svg>
