<svg width="56" height="130" viewBox="0 0 56 130" fill="none" xmlns="http://www.w3.org/2000/svg">
<g clip-path="url(#clip0)">
<path d="M-57.3723 52.3418C-45.2325 42.8716 -27.4893 46.1571 -7.68838 57.9544M21.1825 91.9099C18.7425 83.6199 9.75534 68.3473 -7.68838 57.9544M-7.68838 57.9544C-3.5062 52.1139 6.00648 43.6281 18.3235 41.4973" stroke="url(#paint0_linear)" stroke-width="2"/>
<path d="M18.6615 26.6489C26.0702 23.2917 32.6354 28.8262 47.5855 41.9519C28.3222 48.1406 18.8773 48.8512 14.1479 42.8097C9.41855 36.7682 11.2527 30.0062 18.6615 26.6489Z" fill="url(#paint1_linear)"/>
<path d="M27.1544 83.1247C36.0848 90.2048 33.5763 102.234 27.2237 129.979C7.11566 109.852 0.102449 98.4126 4.42587 88.3577C8.7493 78.3028 18.2241 76.0446 27.1544 83.1247Z" fill="url(#paint2_linear)"/>
<path d="M20.9817 75.7838C29.9292 72.6816 37.2167 79.8062 53.7722 96.6367C30.6994 101.755 19.5618 101.568 14.4669 94.0518C9.372 86.5355 12.0341 78.8859 20.9817 75.7838Z" fill="url(#paint3_linear)"/>
<path d="M7.50212 32.7843C5.37098 23.4709 13.3145 16.9426 32.0072 2.18232C34.6131 25.8828 33.2059 37.0325 25.1097 41.3189C17.0135 45.6054 9.63326 42.0977 7.50212 32.7843Z" fill="url(#paint4_linear)"/>
</g>
<defs>
<linearGradient id="paint0_linear" x1="38.9744" y1="72.8076" x2="-20.3879" y2="28.194" gradientUnits="userSpaceOnUse">
<stop stop-color="#A29A70"/>
<stop offset="0.873444" stop-color="#BDB7A9"/>
</linearGradient>
<linearGradient id="paint1_linear" x1="39.3923" y1="31.1506" x2="25.2597" y2="45.6438" gradientUnits="userSpaceOnUse">
<stop stop-color="#B3FF7D"/>
<stop offset="1" stop-color="#12B4A9"/>
</linearGradient>
<linearGradient id="paint2_linear" x1="37.7123" y1="111.543" x2="8.11558" y2="103.795" gradientUnits="userSpaceOnUse">
<stop stop-color="#B3FF7D"/>
<stop offset="1" stop-color="#12B4A9"/>
</linearGradient>
<linearGradient id="paint3_linear" x1="44.9712" y1="83.2267" x2="27.4915" y2="98.7527" gradientUnits="userSpaceOnUse">
<stop stop-color="#B3FF7D"/>
<stop offset="1" stop-color="#12B4A9"/>
</linearGradient>
<linearGradient id="paint4_linear" x1="17.5942" y1="9.54019" x2="31.2509" y2="28.7713" gradientUnits="userSpaceOnUse">
<stop stop-color="#B3FF7D"/>
<stop offset="1" stop-color="#12B4A9"/>
</linearGradient>
<clipPath id="clip0">
<rect width="56" height="130" fill="white"/>
</clipPath>
</defs>
</svg>
