<svg width="1366" height="439" viewBox="0 0 1366 439" fill="none" xmlns="http://www.w3.org/2000/svg">
<g clip-path="url(#clip0)">
<path d="M-58.4126 57.4999C-5.41267 73.5 17.3325 58.0396 15.0077 18.2062" stroke="url(#paint0_linear)" stroke-width="2"/>
<path d="M25.286 36.7084C32.8676 33.1815 33.1156 24.1861 33.2827 3.34149C15.5018 14.264 8.55051 21.2223 9.93413 29.1197C11.3178 37.0171 17.7044 40.2352 25.286 36.7084Z" fill="url(#paint1_linear)"/>
<path d="M20.1419 55.193C31.03 60.6339 41.5021 52.7649 65.3996 34.0662C36.844 23.7082 22.618 22.0949 14.8752 30.8276C7.13244 39.5603 9.25385 49.7521 20.1419 55.193Z" fill="url(#paint2_linear)"/>
</g>
<g clip-path="url(#clip1)">
<path d="M-54.0405 355.126C-41.7715 360.109 -26.4887 366.237 -7.20855 377.112M21.2852 409.055C18.7535 401.151 5.02472 385.914 -7.20855 377.112M-7.20855 377.112C-4.30641 371.586 -1.62725 363.146 12.1277 349.425" stroke="url(#paint3_linear)" stroke-width="2"/>
<path d="M7.02857 349.106C2.68806 342.037 7.40872 334.46 18.6849 317.125C27.4128 335.897 29.3529 345.46 23.8837 351.235C18.4146 357.01 11.3691 356.175 7.02857 349.106Z" fill="url(#paint4_linear)"/>
<path d="M20.0452 339.91C30.1092 338.642 35.8902 347.655 48.8616 368.804C23.6312 369.075 12.1172 366.44 8.71018 357.499C5.3032 348.558 9.98126 341.178 20.0452 339.91Z" fill="url(#paint5_linear)"/>
<path d="M21.4853 395.594C30.6905 398.6 32.0082 408.738 34.5885 432.282C12.6962 422.234 3.82986 415.267 4.53202 406.16C5.23417 397.053 12.28 392.588 21.4853 395.594Z" fill="url(#paint6_linear)"/>
<path d="M14.4566 388.772C20.1439 384.207 27.2725 387.49 43.6339 395.415C28.223 405.095 20.0965 407.841 14.4569 403.707C8.81724 399.573 8.76936 393.336 14.4566 388.772Z" fill="url(#paint7_linear)"/>
</g>
<g clip-path="url(#clip2)">
<path d="M1379.78 283.861C1369.3 290.563 1356.9 266.539 1348.78 242" stroke="url(#paint8_linear)" stroke-width="2"/>
<path d="M1424.85 279.791C1417.78 199.972 1402.96 325.319 1346.42 287.134" stroke="url(#paint9_linear)" stroke-width="2"/>
<path d="M1334.47 281.696C1324.79 285.893 1323.69 297.67 1321.62 324.983C1344.55 311.665 1353.75 302.935 1352.75 292.506C1351.74 282.076 1344.14 277.499 1334.47 281.696Z" fill="url(#paint10_linear)"/>
<path d="M1344.81 233.845C1336.2 228.723 1327.14 234.546 1306.4 248.443C1329.2 258.667 1340.78 260.851 1347.66 254.154C1354.54 247.457 1353.41 238.967 1344.81 233.845Z" fill="url(#paint11_linear)"/>
<path d="M1357.63 236.115C1357.36 225.532 1347.03 220.709 1322.91 210.006C1326.63 236.163 1331.21 247.743 1341.08 250.118C1350.95 252.493 1357.9 246.698 1357.63 236.115Z" fill="url(#paint12_linear)"/>
</g>
<defs>
<linearGradient id="paint0_linear" x1="-36.6497" y1="26.2001" x2="-16.0788" y2="61.859" gradientUnits="userSpaceOnUse">
<stop stop-color="#817A5A"/>
<stop offset="0.873444" stop-color="#BDB7A9"/>
</linearGradient>
<linearGradient id="paint1_linear" x1="35.9345" y1="17.254" x2="15.3102" y2="18.1386" gradientUnits="userSpaceOnUse">
<stop stop-color="#B3FF7D"/>
<stop offset="1" stop-color="#12B4A9"/>
</linearGradient>
<linearGradient id="paint2_linear" x1="51.9537" y1="49.6944" x2="32.2565" y2="27.0011" gradientUnits="userSpaceOnUse">
<stop stop-color="#B3FF7D"/>
<stop offset="1" stop-color="#12B4A9"/>
</linearGradient>
<linearGradient id="paint3_linear" x1="37.2848" y1="386.072" x2="-28.445" y2="349.427" gradientUnits="userSpaceOnUse">
<stop stop-color="#A29A70"/>
<stop offset="0.873444" stop-color="#BDB7A9"/>
</linearGradient>
<linearGradient id="paint4_linear" x1="8.87279" y1="327.181" x2="25.4496" y2="339.207" gradientUnits="userSpaceOnUse">
<stop stop-color="#B3FF7D"/>
<stop offset="1" stop-color="#12B4A9"/>
</linearGradient>
<linearGradient id="paint5_linear" x1="43.083" y1="352.916" x2="20.9032" y2="364.972" gradientUnits="userSpaceOnUse">
<stop stop-color="#B3FF7D"/>
<stop offset="1" stop-color="#12B4A9"/>
</linearGradient>
<linearGradient id="paint6_linear" x1="37.9506" y1="414.854" x2="11.7941" y2="416.879" gradientUnits="userSpaceOnUse">
<stop stop-color="#B3FF7D"/>
<stop offset="1" stop-color="#12B4A9"/>
</linearGradient>
<linearGradient id="paint7_linear" x1="33.7817" y1="387.965" x2="25.1197" y2="403.747" gradientUnits="userSpaceOnUse">
<stop stop-color="#B3FF7D"/>
<stop offset="1" stop-color="#12B4A9"/>
</linearGradient>
<linearGradient id="paint8_linear" x1="1341.48" y1="257.889" x2="1374.75" y2="270.25" gradientUnits="userSpaceOnUse">
<stop stop-color="#A29A70"/>
<stop offset="0.873444" stop-color="#BDB7A9"/>
</linearGradient>
<linearGradient id="paint9_linear" x1="1347" y1="318.91" x2="1357.25" y2="251.405" gradientUnits="userSpaceOnUse">
<stop stop-color="#A29A70"/>
<stop offset="0.873444" stop-color="#BDB7A9"/>
</linearGradient>
<linearGradient id="paint10_linear" x1="1319.59" y1="306.598" x2="1345.11" y2="307.3" gradientUnits="userSpaceOnUse">
<stop stop-color="#B3FF7D"/>
<stop offset="1" stop-color="#12B4A9"/>
</linearGradient>
<linearGradient id="paint11_linear" x1="1318.38" y1="236.433" x2="1333.17" y2="256.243" gradientUnits="userSpaceOnUse">
<stop stop-color="#B3FF7D"/>
<stop offset="1" stop-color="#12B4A9"/>
</linearGradient>
<linearGradient id="paint12_linear" x1="1340.4" y1="213.94" x2="1331.03" y2="238.338" gradientUnits="userSpaceOnUse">
<stop stop-color="#B3FF7D"/>
<stop offset="1" stop-color="#12B4A9"/>
</linearGradient>
<clipPath id="clip0">
<rect width="67" height="76" fill="white"/>
</clipPath>
<clipPath id="clip1">
<rect width="51" height="123" fill="white" transform="translate(0 316)"/>
</clipPath>
<clipPath id="clip2">
<rect width="61" height="123" fill="white" transform="translate(1305 207)"/>
</clipPath>
</defs>
</svg>
