<svg width="326" height="481" viewBox="0 0 326 481" fill="none" xmlns="http://www.w3.org/2000/svg">
<path d="M302.492 209.431C309.98 217.672 326 223.924 326 223.924C298.037 144.925 245.996 136.021 210.449 139.905C234.621 123.518 252.537 94.3434 236.422 36.7523C236.422 36.7523 228.744 48.4031 227.607 57.307C227.607 57.307 223.815 53.3287 223.91 47.8348C223.91 47.8348 218.033 58.8226 218.696 68.6737C218.696 68.6737 216.042 65.7373 216.042 60.3381C216.042 60.3381 209.502 70.4734 208.838 77.104C208.838 77.104 206.563 74.9254 207.416 70.6629C207.416 70.6629 201.255 80.6087 202.487 91.6912C202.487 91.6912 199.169 90.0809 198.127 84.4923C198.127 84.4923 191.776 99.6479 192.913 106.847C192.913 106.847 189.027 106.468 189.311 100.69C189.311 100.69 188.079 102.395 186.183 105.521C186.562 70.947 173.291 27.28 114.141 0C114.141 0 118.976 16.5764 126.464 24.7225C126.464 24.7225 119.639 25.1014 114.521 20.6495C114.521 20.6495 120.113 34.9525 129.972 42.2462C129.972 42.2462 125.137 42.3409 119.924 38.0784C119.924 38.0784 124.189 52.3815 129.877 58.2542C129.877 58.2542 125.99 58.6331 122.673 54.4653C122.673 54.4653 127.223 68.2001 138.598 75.9673C138.598 75.9673 134.427 77.8617 128.265 74.2623C128.265 74.2623 137.46 92.3543 145.138 96.9957C145.138 96.9957 141.726 100.406 136.512 95.3854C136.512 95.3854 137.555 99.5532 139.925 105.9C134.901 100.406 130.256 95.9537 126.559 93.5857C77.2677 61.2854 45.9865 69.7156 28.4501 83.3557C10.9137 96.9009 4.75231 118.877 4.75231 118.877C4.75231 118.877 25.1324 108.741 28.3553 107.699C31.5782 106.657 26.2699 117.929 26.2699 117.929C26.2699 117.929 41.4365 112.435 45.6074 111.109C49.7782 109.783 44.1855 124.37 44.1855 124.37C44.1855 124.37 65.324 117.456 67.125 118.024C68.926 118.592 68.0729 125.128 64.85 126.928C61.6271 128.822 88.6426 124.276 88.6426 124.276C88.6426 124.276 88.2634 126.36 87.5051 128.633C74.7083 129.58 62.8594 132.232 51.674 137.158C28.9241 147.388 20.1085 152.029 7.50125 172.489C-5.0112 192.949 1.90857 225.06 1.90857 225.06C1.90857 225.06 13.5679 204.506 14.895 203.748C16.2221 202.99 21.3408 216.062 21.3408 216.062L32.9053 202.801L36.7918 215.304C36.7918 215.304 42.8584 204.316 53.0011 200.717C57.4563 199.106 56.5084 207.063 56.5084 207.063C56.5084 207.063 67.125 199.864 75.751 193.897C81.8176 189.729 -7.38098 279.904 21.5304 352.556C22.0043 353.788 23.4262 353.504 23.6158 352.367C25.6064 340.716 30.8199 329.918 33.5689 318.456C34.5168 321.393 35.6543 324.235 36.9813 327.076C37.4553 328.118 38.8772 327.645 38.972 326.603C40.1095 317.793 45.4178 310.973 50.3469 303.964C50.4417 304.722 50.5365 305.385 50.6313 306.143C50.6313 306.143 62.9542 291.84 66.0823 279.999C66.0823 279.999 70.5375 286.061 69.4948 293.355C69.4948 293.355 79.3531 279.62 80.2062 266.264C80.2062 266.264 83.2395 270.622 82.3864 277.915C82.3864 277.915 85.7989 273.937 89.1166 268.917C70.6323 308.89 54.4229 353.409 41.7209 401.149C36.5074 420.946 30.9147 443.869 25.4168 468.402C31.0095 472.38 36.6022 476.169 42.2897 479.863C42.8584 480.242 43.5219 480.621 44.0907 481C49.873 453.436 55.8448 427.861 61.6271 406.359C78.8791 341.758 94.4249 304.532 106.843 283.314L102.861 296.102L117.459 289.377L102.387 312.678L119.639 310.405L105.515 323.761L113.762 323.193L101.913 345.168C101.913 345.168 134.901 337.969 153.669 323.098C179.263 302.827 183.15 276.116 186.467 263.896C188.458 275.168 184.003 286.44 186.183 297.712C186.278 298.375 187.32 298.849 187.794 298.281C190.828 294.776 193.671 291.271 196.42 287.577C196.705 299.133 197.747 310.689 197.273 322.245C197.273 323.098 198.316 323.666 198.885 323.003C202.866 319.025 205.71 314.194 208.554 309.363C211.018 318.835 210.544 328.781 213.578 338.159C213.862 339.011 215.284 339.295 215.568 338.253C216.8 332.949 218.317 327.739 220.876 322.908C222.488 327.929 223.246 333.233 224.479 338.443C224.668 339.39 226.28 339.58 226.469 338.538C228.744 326.508 236.043 316.278 239.74 304.627C243.437 292.787 243.626 278.863 243.626 266.549C243.626 254.519 242.299 242.868 238.602 231.407C236.517 224.776 233.768 218.43 231.019 212.083C229.597 208.2 227.891 204.411 226.09 200.906C223.91 195.981 220.876 190.013 216.99 185.466C226.469 190.581 233.199 192.949 233.199 192.949C228.744 187.361 232.441 184.235 232.441 184.235C236.422 192.286 253.579 203.179 253.579 203.179C250.641 196.644 252.821 192.76 252.821 192.76C259.551 204.884 272.822 210.568 272.822 210.568C268.936 206.874 269.694 202.99 269.694 202.99C275.002 209.242 288.842 214.83 288.842 214.83C285.05 209.336 285.619 204.506 285.619 204.506C291.97 214.925 305.715 221.84 305.715 221.84C301.449 216.251 302.492 209.431 302.492 209.431Z" fill="#BCF7E8"/>
</svg>
