<svg width="221" height="326" viewBox="0 0 221 326" fill="none" xmlns="http://www.w3.org/2000/svg">
<g clip-path="url(#clip0)">
<path d="M248.922 100.222C244.064 97.9925 242.04 92.9257 242.04 92.9257C250.44 95.6618 264 93.6351 264 93.6351C213.604 50.263 174.339 64.6528 151.367 81.3734C161.588 60.498 162.398 33.3398 128.598 0C128.598 0 127.89 11.0457 130.622 17.6326C130.622 17.6326 126.372 16.4165 124.348 12.5657C124.348 12.5657 124.651 22.4967 128.902 28.9823C128.902 28.9823 125.967 27.9689 123.741 24.3208C123.741 24.3208 123.235 33.8464 125.36 38.7106C125.36 38.7106 122.931 38.1026 121.818 34.8598C121.818 34.8598 121.514 44.1828 126.776 51.3777C126.776 51.3777 123.842 51.5804 120.907 48.1349C120.907 48.1349 122.526 61.106 126.169 65.5648C126.169 65.5648 123.336 66.8822 121.312 62.7274C121.312 62.7274 121.109 64.4501 121.109 67.2875C107.751 43.2707 81.44 18.4433 29.9306 23.0034C29.9306 23.0034 39.7468 32.529 48.1461 35.1638C48.1461 35.1638 43.5923 38.1026 38.33 37.0892C38.33 37.0892 47.8426 44.7908 57.4563 45.9055C57.4563 45.9055 54.218 47.9322 48.9557 47.0202C48.9557 47.0202 57.5575 55.1271 63.7305 56.9512C63.7305 56.9512 61.2006 58.7753 57.2539 57.1539C57.2539 57.1539 65.7545 64.8555 76.6838 65.6662C76.6838 65.6662 74.5586 68.6049 68.8916 68.6049C68.8916 68.6049 82.3508 77.4212 89.5359 77.6239C89.5359 77.6239 88.5239 81.272 82.958 79.9546C82.958 79.9546 85.2856 82.3867 89.4346 85.8321C83.8688 84.0081 78.8089 82.7921 75.3682 82.5894C28.6151 79.8533 10.3995 97.9925 3.72052 114.206C-2.9585 130.42 1.39299 148.053 1.39299 148.053C1.39299 148.053 11.4115 133.055 13.2331 131.028C15.0546 129.103 15.8642 138.933 15.8642 138.933C15.8642 138.933 24.0612 129.103 26.4899 126.569C28.8175 124.036 30.7402 136.298 30.7402 136.298C30.7402 136.298 42.5803 123.225 43.9971 122.921C45.515 122.617 47.4378 127.38 45.9198 130.015C44.4018 132.548 61.2006 118.868 61.2006 118.868C61.2006 118.868 61.7066 120.388 62.1114 122.313C53.712 128.09 46.527 134.474 40.8599 142.378C29.2223 158.288 24.972 164.976 24.466 184.027C23.96 203.079 41.3659 222.535 41.3659 222.535C41.3659 222.535 41.2647 203.788 41.8719 202.775C42.4791 201.761 51.0809 208.754 51.0809 208.754L53.8132 195.073L61.403 202.167C61.403 202.167 61.2006 192.236 66.8676 185.75C69.2964 182.913 71.7251 188.79 71.7251 188.79C71.7251 188.79 76.1778 179.67 79.8209 172.171C82.3508 166.901 56.5455 264.286 105.12 302.997C105.93 303.605 106.841 302.895 106.537 302.085C103.299 293.268 102.59 283.743 99.9592 274.825C101.781 276.446 103.703 277.966 105.727 279.385C106.436 279.892 107.245 278.98 106.942 278.27C104.311 271.785 105.221 264.995 105.829 258.206C106.233 258.712 106.537 259.118 106.942 259.625C106.942 259.625 109.775 244.931 107.245 235.506C107.245 235.506 112.71 237.938 114.835 243.411C114.835 243.411 116.252 230.034 111.496 220.509C111.496 220.509 115.341 222.333 117.567 227.703C117.567 227.703 118.377 223.65 118.579 218.887C121.514 252.835 127.687 289.012 137.402 326C142.664 324.581 147.927 323.264 153.29 322.048C140.135 272.19 136.39 241.08 136.491 221.826L138.819 232.264L146.206 221.927L145.093 243.613L156.022 235.304L151.57 250.099L157.034 246.451L157.54 266.211C157.54 266.211 177.375 248.174 184.459 230.541C194.073 206.524 186.179 186.561 183.649 176.833C189.519 183.825 190.834 193.35 196.805 200.241C197.109 200.647 198.019 200.545 198.121 199.937C198.829 196.39 199.436 192.742 199.841 189.196C204.597 196.998 209.859 204.599 214.11 212.807C214.413 213.415 215.324 213.415 215.526 212.706C216.741 208.348 216.741 203.889 216.842 199.431C222.307 205.004 225.849 211.996 231.617 217.266C232.123 217.772 233.236 217.367 233.034 216.556C231.718 212.402 230.807 208.247 230.605 203.889C233.742 206.727 236.272 210.071 239.207 213.212C239.713 213.719 240.826 213.314 240.623 212.503C237.486 203.281 238.498 193.35 236.373 183.926C234.248 174.299 228.885 164.672 224.027 156.16C219.271 147.85 213.806 140.351 206.722 133.967C202.674 130.218 198.323 126.975 193.87 123.631C191.34 121.503 188.709 119.577 186.078 117.855C182.637 115.321 178.185 112.382 173.732 110.761C182.233 110.558 187.9 109.444 187.9 109.444C182.637 107.316 183.953 103.667 183.953 103.667C189.924 107.721 205.913 108.43 205.913 108.43C201.359 105.086 201.258 101.539 201.258 101.539C210.669 107.214 222.003 105.897 222.003 105.897C217.854 104.883 216.842 101.945 216.842 101.945C222.914 104.174 234.653 102.553 234.653 102.553C229.896 100.222 228.379 96.6752 228.379 96.6752C236.677 100.931 248.922 100.222 248.922 100.222Z" fill="#BCF7E8"/>
</g>
<defs>
<clipPath id="clip0">
<rect width="221" height="326" fill="white"/>
</clipPath>
</defs>
</svg>
