<svg width="1920" height="170" viewBox="0 0 1920 170" fill="none" xmlns="http://www.w3.org/2000/svg">
<g clip-path="url(#clip0)">
<path d="M12.6598 40.4773C13.4732 40.3417 14.151 39.935 14.8966 39.4605C23.0982 33.8346 30.9609 27.0565 37.3324 19.3293C37.3324 19.3293 37.3324 19.3293 37.4002 19.2615C39.7048 22.1084 41.806 25.2941 43.5005 28.4799C46.0762 33.2246 48.0419 38.1727 49.872 43.2563C47.2963 44.7475 44.3139 45.6965 41.3993 46.3065C36.9935 47.1877 32.5199 47.5944 28.2496 48.8822C26.5551 49.3567 24.8605 50.1023 23.5727 51.2546C22.2848 52.5425 21.5392 54.3726 22.0137 56.0671C22.6237 58.0328 24.7927 59.2529 26.894 59.3206C28.9952 59.3884 30.9609 58.6428 32.791 57.7617C38.8236 55.1182 44.5851 51.7968 50.0754 48.0688C50.4821 47.7977 50.821 47.5944 51.1599 47.2555C53.7356 54.847 56.108 62.6419 59.1582 70.0302C59.1582 70.1657 59.2937 70.3013 59.2937 70.4369C59.0226 70.4369 58.6837 70.5046 58.5481 70.5046C55.4979 70.5724 52.38 70.3013 49.3298 69.6913C46.483 69.149 43.5683 68.2678 40.6537 68.8779C37.8069 69.4201 35.0956 72.1314 35.6378 74.9782C36.1123 77.4862 38.8914 78.9096 41.3993 78.9774C43.9072 79.0452 46.3474 78.0962 48.7875 77.4184C50.6176 76.9439 56.9891 76.2661 60.9883 74.5715C63.4284 80.2652 65.6652 85.7556 68.1731 90.9748C67.6309 91.1103 67.1564 91.3137 66.6819 91.3815C64.6485 91.7881 62.5473 91.9915 60.446 91.9237C59.4971 91.9237 58.5481 91.7882 57.5992 92.0593C56.718 92.2626 55.7691 92.8049 55.2946 93.5505C54.8201 94.4317 54.9557 95.5161 55.4301 96.3973C56.108 97.8885 57.5992 98.973 59.1581 99.5831C60.7171 100.193 62.4117 100.396 64.1062 100.6C64.9874 100.668 65.9363 100.803 66.7497 100.532C67.3598 100.329 67.9698 99.9898 68.5798 99.5153C69.1899 99.0408 70.3422 98.1597 71.3589 97.0074C77.7982 108.869 85.932 118.901 99.285 125.882C96.2348 126.492 80.1027 125.95 58.8192 121.07C59.1581 119.647 59.3615 118.223 59.4293 117.206C59.7682 114.563 58.8192 111.445 56.4469 110.293C56.2435 110.225 56.0402 110.157 55.8369 110.089C52.2444 110.293 50.8888 116.529 50.4143 118.901C44.2462 117.206 37.6035 115.173 30.9609 112.597C32.0454 111.377 32.9943 109.886 33.6722 108.666C34.8244 106.565 35.3667 103.989 35.0278 101.617C34.8922 100.532 34.6211 99.5831 34.0111 98.7019C33.3333 97.8885 32.2487 97.3463 31.232 97.5496C30.0797 97.753 29.1986 98.9052 28.8597 100.058C28.5207 101.21 28.3852 102.43 28.0463 103.582C27.3684 105.751 25.7417 107.514 24.1827 109.208C24.0471 109.344 23.8438 109.547 23.7082 109.683C19.7769 108.056 15.8455 106.293 11.982 104.328C12.1175 104.057 12.3209 103.718 12.4564 103.447C13.8799 100.939 15.0321 98.2952 15.7777 95.5162C16.4556 93.2116 16.7267 90.7714 16.0489 88.4669C15.5066 86.7045 14.3543 85.1455 12.8631 84.1966C12.6598 84.1288 12.4564 83.9255 12.1853 83.9255C11.982 83.9933 11.8464 84.1288 11.7108 84.2644C6.15273 88.3313 5.20378 98.363 4.66153 100.396C-2.04888 96.6684 -8.62372 92.3982 -15.063 87.5857C-11.8095 85.4167 -8.55594 83.2476 -5.43798 80.9431C-3.81121 79.723 -2.11667 78.5707 -0.896595 76.9439C0.323479 75.3172 1.06909 73.2159 0.662401 71.318C0.25571 69.5557 -0.96437 68.0645 -2.65892 67.3189C-4.28568 66.6411 -6.31914 66.9122 -7.74256 67.9289C-10.0471 69.5557 -10.725 72.6737 -12.0128 75.1816C-13.8429 78.6385 -17.0287 81.1464 -20.0111 83.7221C-22.6546 81.4853 -25.3658 79.1807 -27.8738 76.6728C-31.2629 73.4193 -33.5675 68.8101 -35.262 63.9976C-31.7373 63.7265 -28.2127 64.1331 -24.8914 62.8453C-21.1634 61.4219 -18.3165 57.7617 -17.8421 53.7625C-17.7743 53.1525 -17.7743 52.4747 -17.9098 51.9324C-18.1132 51.4579 -18.3843 51.0512 -18.791 50.6446C-19.74 49.56 -20.7567 48.4078 -22.1801 48.0689C-24.6202 47.391 -26.9248 49.1534 -29.0261 50.5768C-31.3984 52.2713 -33.9064 53.6947 -36.6176 54.6437C-37.0243 54.7793 -37.431 54.9148 -37.8377 55.0504C-39.6 47.8655 -39.1256 39.5283 -35.262 33.2246C-31.9407 27.7343 -26.5859 24.1419 -21.4345 20.4816C-28.8227 1.1638 -34.5842 -21.9498 -31.2629 -32.1849C-27.5349 -30.3548 -21.7734 -26.3556 -22.0445 -25.6778C-26.3148 -15.8495 -25.0269 -1.68305 -18.2488 18.1093C-16.4864 16.7536 -14.9274 15.3302 -13.3684 13.7712C-7.47142 7.33193 0.120151 2.99389 9.13514 3.06167C18.9635 3.12945 27.7074 8.34865 34.5533 15.6013C31.0287 17.2281 27.6396 19.5327 24.1149 21.1594C19.0991 23.464 13.9476 25.4975 9.47405 28.6154C7.71172 29.8355 5.94938 31.4623 5.88159 33.5635C5.88159 35.597 7.57615 37.156 9.13514 38.4438C10.2196 39.6639 11.3719 40.545 12.6598 40.4773Z" fill="url(#paint0_linear)"/>
<path d="M20.5225 72.7414C42.1449 95.3128 64.3773 113.614 83.8307 125.747C77.1203 125.001 68.6476 123.713 59.2259 121.477C59.5648 120.053 59.7682 118.63 59.836 117.613C60.1749 114.97 59.2937 111.919 56.8536 110.699C56.6502 110.632 56.4469 110.564 56.2435 110.496C52.6511 110.699 51.2955 116.935 50.821 119.308C44.6528 117.613 38.0102 115.58 31.3676 113.004C32.4521 111.784 33.401 110.293 34.0789 109.073C35.2312 106.971 35.7734 104.396 35.4345 102.023C35.2989 100.939 35.0278 99.9898 34.4178 99.1086C33.8077 98.2274 32.6554 97.753 31.6387 97.9563C30.4864 98.1597 29.6053 99.3119 29.2664 100.464C28.9274 101.617 28.7919 102.837 28.453 103.989C27.7751 106.158 26.1484 107.92 24.5894 109.615C24.4538 109.75 24.2505 109.954 24.1149 110.089C20.1836 108.463 16.2522 106.7 12.3887 104.734C12.5242 104.463 12.7276 104.124 12.8631 103.853C14.2866 101.345 15.4388 98.7019 16.1844 95.9229C16.8623 93.6183 17.1334 91.1781 16.4556 88.8735C15.9133 87.1112 14.761 85.5522 13.2698 84.6033C13.0665 84.5355 12.8631 84.3322 12.592 84.3322C12.3887 84.3999 12.2531 84.5355 12.1175 84.6711C6.55943 88.738 5.61048 98.7697 5.06823 100.803C-1.64218 97.0751 -8.21703 92.8049 -14.6563 87.9924C-11.4028 85.8234 -8.14925 83.6543 -5.03128 81.3497C-3.40452 80.1297 -1.70998 78.9774 -0.489907 77.3506C0.730167 75.7239 1.47578 73.6226 1.06909 71.7247C0.730179 70.0302 -0.557673 68.4712 -2.25222 67.7256C-3.87898 67.0478 -5.91245 67.3189 -7.33587 68.3356C-9.64045 69.9624 -10.3183 73.0804 -11.6061 75.5883C-13.4362 79.0452 -16.622 81.5531 -19.6044 84.1288C-22.2479 81.892 -24.9591 79.5874 -27.4671 77.0795C-30.8562 73.826 -33.1608 69.2168 -34.8553 64.4043C-31.3306 64.1332 -27.806 64.5398 -24.4847 63.252C-20.7567 61.8286 -17.9098 58.1684 -17.4354 54.1692C-17.3676 53.5592 -17.3676 52.8814 -17.5709 52.4069C-17.7743 51.9324 -18.0454 51.5257 -18.4521 51.119C-19.401 50.0345 -20.4178 48.8822 -21.8412 48.5433C-24.2813 47.8655 -26.5859 49.6278 -28.6872 51.0513C-31.0595 52.7458 -33.5675 54.1692 -36.2787 55.1182C-36.6854 55.2537 -37.0921 55.3893 -37.4988 55.5248C-39.2611 48.34 -38.7866 40.0028 -34.9231 33.6991C-31.6018 28.2088 -26.3148 24.6841 -21.1634 21.0239C-10.386 37.6304 3.78037 55.3215 20.5225 72.7414Z" fill="url(#paint1_linear)"/>
<path d="M114.334 53.8993C113.649 46.4525 111.366 37.092 108.214 28.4414L131.437 54.3485C121.81 56.1949 116.567 85.4451 118.13 102.091C119.695 118.911 132.184 131.856 139.103 131.001C143.832 130.429 155.879 115.669 154.312 98.6732C153.623 90.8757 150.893 80.555 147.215 71.9094L170.792 98.1639C170.705 98.2524 170.707 98.4277 170.709 98.6031C164.414 100.593 161.006 120.004 162.078 131.13C163.153 142.607 171.656 151.469 176.297 150.811C179.45 150.43 187.771 140.353 186.696 128.877C186.206 123.532 184.385 116.535 181.873 110.596L197.561 128.07C197.388 128.248 197.212 128.249 197.039 128.426C193.652 131.879 201.055 144.873 206.898 150.604C212.829 156.422 221.518 157.303 223.774 154.826C225.337 153.232 225.246 143.763 219.315 137.945C213.915 132.648 202.453 126.094 197.997 127.803C193.827 122.67 188.149 115.885 181.672 107.968C188.356 110.008 196.609 111.156 202.57 110.923C214.14 110.461 223.27 102.394 222.962 97.7494C222.756 94.5946 213.025 85.7442 201.544 86.2932C192.078 86.735 177.124 91.0003 172.178 96.3968C163.217 85.5222 153.279 73.3417 143.075 60.9007C153.036 66.3291 171.219 69.5738 183.051 69.0215C200.056 68.3317 213.445 56.4528 213.028 49.6172C212.721 44.9728 198.479 32.0445 181.563 32.8212C164.909 33.5076 136.76 42.5472 136.065 52.2872C124.53 38.1929 112.82 24.1004 102.439 11.4857C113.808 17.4266 133.834 20.9167 146.981 20.2641C166.176 19.4655 181.393 6.07833 180.966 -1.80938C180.565 -7.06673 164.552 -21.7317 145.357 -20.9331C126.774 -20.2281 95.3908 -10.1928 93.7419 0.696216C76.6182 -20.0961 64.3767 -34.7097 64.2013 -34.708L58.3118 -27.1102L86.7647 4.6216C76.9953 9.97685 71.8512 40.366 73.5999 58.0619C75.3621 77.1607 89.5325 91.7557 97.3283 90.8915C102.404 89.7904 116.096 72.9981 114.334 53.8993Z" fill="url(#paint2_linear)"/>
</g>
<g clip-path="url(#clip1)">
<path d="M1723.42 94.6154C1722.98 94.8803 1722.65 95.079 1722.28 95.4534C1714.7 116.04 1709.55 136.948 1706.97 157.648C1705.14 142.756 1704.78 127.574 1705.56 112.3C1700.4 125.286 1696.31 138.532 1693.17 151.643C1692.17 140.588 1691.77 129.311 1692.13 118.032C1691.8 118.231 1691.54 118.539 1691.21 118.737C1687.01 128.605 1683.27 138.492 1680.24 148.552C1678.48 143.183 1677.2 134.389 1682.59 125.746C1676.99 130.331 1677.38 129.495 1683.18 124.494C1682.48 125.067 1681.56 125.772 1680.49 126.719C1671.17 129.365 1664.19 127.459 1658.45 125.396C1669.22 122.921 1679.87 120.512 1690.31 118.236C1690.68 117.862 1691.12 117.597 1691.49 117.222C1680.09 115.443 1668.52 113.62 1656.78 111.754C1671.51 109.418 1685.81 107.347 1700 105.343C1684.63 102.678 1669.02 99.8609 1653.17 96.8909C1676.53 95.467 1699.24 94.4405 1721.29 93.8114C1721.62 93.6127 1721.99 93.2383 1722.32 93.0397C1699.79 89.9185 1676.52 86.8001 1652.77 83.3763C1678.74 82.3159 1703.78 81.6758 1728.26 81.3669C1704.14 77.5714 1679.02 73.626 1653.31 69.4413C1682.78 69.7066 1711.35 70.2165 1738.91 71.0373C1712.94 66.4148 1685.97 61.6423 1658.53 56.5644C1689.87 57.9419 1720.42 59.4978 1749.6 61.2781C1721.23 53.9217 1692.02 46.1733 1662.21 37.4398C1698.98 42.8566 1734.74 47.8383 1769.01 52.8254C1736.5 42.5878 1702.61 31.5434 1668.68 18.7218C1707.22 27.5551 1744.7 35.3829 1780.54 42.7121C1750.09 32.423 1718.61 21.4137 1686.88 8.75962C1724.61 18.2322 1761.5 26.5668 1796.81 34.5122C1767.09 23.9353 1736.26 12.5286 1705.3 -0.589033C1742.33 9.45654 1778.63 18.298 1813.17 26.707C1784.11 15.7327 1754 4.03815 1723.87 -9.4336C1760.31 1.11879 1795.8 10.5995 1829.87 19.4491C1801.41 8.25316 1772.08 -3.90498 1742.56 -17.5984C1778.23 -6.58243 1813.13 3.4051 1846.61 12.7615C1818.76 1.34394 1790.09 -11.2116 1761.36 -25.0834C1796.44 -13.5606 1830.68 -3.17574 1863.5 6.57805C1836.38 -5.12743 1808.32 -17.9046 1780.31 -32.0643C1814.63 -20.0779 1848.28 -9.18625 1880.66 0.832441C1854.05 -11.0285 1826.7 -24.0935 1799.42 -38.5411C1833.08 -26.1574 1866.19 -14.9346 1897.98 -4.40908C1871.97 -16.4917 1845.31 -29.6689 1818.64 -44.3382C1851.71 -31.4476 1884.1 -19.9369 1915.34 -9.0803C1889.95 -21.3845 1863.79 -34.7172 1837.73 -49.6081C1874.23 -34.7554 1909.98 -21.3919 1944.25 -9.22988C1952.37 -11.1465 1960.43 -12.8875 1968.63 -14.4095C1968.84 -12.5891 1969.04 -10.7687 1969.25 -8.94825C1961.05 -7.42624 1952.98 -5.6853 1944.91 -3.94435C1917.1 22.7506 1896.17 54.4012 1883.77 88.5219C1890.38 60.8951 1902.2 34.4561 1918.92 10.4347C1896.83 36.2091 1880.3 65.4958 1870.67 96.2932C1876.04 68.0786 1886.75 40.8098 1902.35 15.6735C1881.27 42.6291 1866.09 72.8983 1857.78 104.393C1861.78 75.6567 1871.29 47.6244 1885.94 21.4164C1865.87 49.5531 1852.08 80.6291 1845.2 112.755C1847.94 83.4308 1856.13 54.7011 1869.79 27.5971C1850.85 56.8488 1838.33 88.7977 1832.98 121.488C1834.32 91.8184 1841.3 62.3252 1853.79 34.282C1835.98 64.6485 1824.95 97.338 1820.97 130.55C1820.95 100.359 1826.61 70.1682 1838 41.2952C1821.35 72.601 1811.71 106.097 1809.38 139.808C1807.95 109.271 1812.25 78.5586 1822.43 48.922C1807.12 81.2103 1798.91 115.338 1798.15 149.438C1795.21 118.62 1798.15 87.3867 1807.12 56.9867C1793.09 90.1479 1786.37 125.016 1787.24 159.329C1782.85 128.342 1784.36 96.4771 1792.01 65.3797C1779.36 99.3478 1774.18 134.781 1776.64 169.483C1770.44 136.747 1770.86 102.846 1778.16 69.4238C1765.81 101.416 1759.88 134.613 1760.55 167.107C1756.3 139.322 1756.85 110.576 1762.25 82.1862C1751.67 108.928 1745.45 136.465 1743.79 163.635C1741.77 138.541 1743.61 112.907 1749.41 87.4113C1739.74 112.702 1733.85 138.548 1732.01 164.183C1730.13 140.8 1731.35 116.879 1736.09 93.0771C1727.51 115.467 1721.93 138.131 1719.4 160.894C1717.94 139.199 1719.24 116.88 1723.42 94.6154Z" fill="url(#paint3_linear)"/>
</g>
<defs>
<linearGradient id="paint0_linear" x1="-87.2243" y1="-29.3809" x2="78.6728" y2="-9.47284" gradientUnits="userSpaceOnUse">
<stop stop-color="#B3FF7D"/>
<stop offset="1" stop-color="#12B4A9"/>
</linearGradient>
<linearGradient id="paint1_linear" x1="-61.0601" y1="19.8093" x2="41.7056" y2="13.2084" gradientUnits="userSpaceOnUse">
<stop stop-color="#B3FF7D"/>
<stop offset="1" stop-color="#12B4A9"/>
</linearGradient>
<linearGradient id="paint2_linear" x1="17.0667" y1="-51.5278" x2="228.989" y2="-6.61602" gradientUnits="userSpaceOnUse">
<stop stop-color="#B3FF7D"/>
<stop offset="1" stop-color="#12B4A9"/>
</linearGradient>
<linearGradient id="paint3_linear" x1="1992.35" y1="-95.3937" x2="1855.11" y2="170.97" gradientUnits="userSpaceOnUse">
<stop stop-color="#B3FF7D"/>
<stop offset="1" stop-color="#12B4A9"/>
</linearGradient>
<clipPath id="clip0">
<rect width="225" height="157" fill="white"/>
</clipPath>
<clipPath id="clip1">
<rect width="268" height="170" fill="white" transform="translate(1652)"/>
</clipPath>
</defs>
</svg>
