<svg width="80" height="80" viewBox="0 0 80 80" fill="none" xmlns="http://www.w3.org/2000/svg">
<path d="M69.6051 27.2969C69.6051 22.0779 65.394 17.8495 60.2008 17.8495C59.3978 17.8495 58.6236 17.9608 57.8789 18.1505C57.2401 13.3183 53.1307 9.58722 48.1453 9.58722C45.4736 9.58722 43.0548 10.6602 41.2829 12.3979C40.0949 9.24577 37.0709 7 33.5174 7C28.9277 7 25.2075 10.7369 25.2075 15.3472C25.2075 15.9724 25.2814 16.5794 25.412 17.1658C24.4497 16.7534 23.393 16.5233 22.2813 16.5233C17.8854 16.5233 14.3228 20.1027 14.3228 24.5159C14.3228 25.7043 14.5872 26.8293 15.0511 27.8421C12.097 28.9983 10 31.8759 10 35.2515C10 37.5839 11.0058 39.6746 12.5962 41.1295C12.2062 42.2214 11.9837 43.3926 11.9837 44.6181C11.9837 50.332 16.5939 54.9645 22.2821 54.9645C25.4842 54.9645 28.3407 53.4924 30.2275 51.1889C33.7416 53.9336 37.2745 60.0854 32.1126 73.5872H45.2782C45.2782 73.5872 37.1563 60.9324 45.2954 53.7934C46.9014 56.1241 49.5591 57.6672 52.5946 57.6672C57.5078 57.6672 61.4907 53.6672 61.4907 48.7336C61.4907 48.3039 61.4496 47.8833 61.3921 47.4709C65.8053 46.8845 69.2143 43.099 69.2143 38.5052C69.2143 36.5332 68.5813 34.7146 67.5156 33.2301C68.8202 31.6078 69.6051 29.546 69.6051 27.2969ZM31.326 49.5089C31.4664 49.2482 31.6183 48.9934 31.7357 48.7179C33.0872 48.6792 34.3754 48.4004 35.561 47.9155C35.295 48.6792 35.1275 49.5501 35.1538 50.5447C35.1768 51.4544 33.368 50.5555 31.326 49.5089ZM37.7146 49.3365C38.6564 49.8569 39.6835 50.2371 40.7755 50.4416C40.4824 50.8408 40.177 51.2746 39.8346 51.7802C37.6104 55.0858 37.4289 52.407 37.7146 49.3365ZM43.0539 53.6614C40.1376 55.9278 41.1762 53.1682 42.4899 50.6091C42.5416 50.6091 42.5925 50.6173 42.6442 50.6173C43.063 50.6173 43.4719 50.5835 43.8775 50.5365C44.0228 51.2532 44.2814 51.9237 44.5877 52.5662C44.1139 52.8755 43.6065 53.2317 43.0539 53.6614Z" fill="url(#paint0_linear)"/>
<defs>
<linearGradient id="paint0_linear" x1="32.5368" y1="-5.26411" x2="55.3627" y2="55.4917" gradientUnits="userSpaceOnUse">
<stop stop-color="#B3FF7D"/>
<stop offset="1" stop-color="#12B4A9"/>
</linearGradient>
</defs>
</svg>
