<svg width="200" height="127" viewBox="0 0 200 127" fill="none" xmlns="http://www.w3.org/2000/svg">
<path d="M95.5 39.9998C147 36 167 80 149.5 126.5" stroke="#12B4A9" stroke-width="2" stroke-dasharray="12 12"/>
<path fill-rule="evenodd" clip-rule="evenodd" d="M40 6C52.702 6 63 16.532 63 29.5227C63 42.6896 50.997 48.6243 40 69.24C29.0033 48.6243 17 42.5134 17 29.5227C17 16.532 27.298 6 40 6ZM40 71.0241C46.5159 71.0241 51.7932 71.6912 51.7932 72.5083C51.7932 73.3328 46.5159 74 40 74C33.4914 74 28.2068 73.3328 28.2068 72.5083C28.2068 71.6912 33.4914 71.0241 40 71.0241ZM40 20.295C44.9841 20.295 49.0226 24.4254 49.0226 29.5227C49.0226 34.6201 44.9841 38.7504 40 38.7504C35.0159 38.7504 30.9774 34.6201 30.9774 29.5227C30.9774 24.4254 35.0159 20.295 40 20.295Z" fill="url(#paint0_linear)"/>
<g clip-path="url(#clip0)">
<path d="M191.458 50.8517C190.481 51.5816 188.722 52.1074 185.762 50.7677C186.207 53.9853 185.201 55.5235 184.224 56.2528C182.704 57.3877 180.556 57.1096 179.204 56.3741C178.168 55.8078 177.501 55.0338 177.225 54.072C177.013 53.3375 177.032 52.5171 177.281 51.6193C173.786 53.7967 171.358 50.5428 170.536 49.4426C169.781 48.4306 168.011 46.0603 169.963 44.6029C170.334 44.326 170.82 44.0956 171.447 43.9002C174.012 43.0997 178.63 43.6418 181.423 44.9559C180.956 41.9037 181.75 37.323 183.245 35.092C183.612 34.5458 183.969 34.146 184.341 33.8684C186.294 32.4104 188.063 34.7807 188.819 35.7927C189.871 37.2014 190.405 38.3686 190.503 39.4638C190.615 40.7441 190.105 41.892 188.99 42.8797C189.919 42.8959 190.712 43.1103 191.357 43.5219C192.201 44.0609 192.754 44.9199 193.002 46.0749C193.322 47.5782 192.978 49.7168 191.458 50.8517V50.8517Z" fill="#8EE4B0"/>
</g>
<defs>
<linearGradient id="paint0_linear" x1="34.3926" y1="-6.52432" x2="62.6163" y2="50.2469" gradientUnits="userSpaceOnUse">
<stop stop-color="#B3FF7D"/>
<stop offset="1" stop-color="#12B4A9"/>
</linearGradient>
<clipPath id="clip0">
<rect width="24" height="24" fill="white" transform="translate(166 44.3582) rotate(-36.7453)"/>
</clipPath>
</defs>
</svg>
