<svg width="193" height="123" viewBox="0 0 193 123" fill="none" xmlns="http://www.w3.org/2000/svg">
<path d="M102 40C62.5001 31.4999 18.0001 80.4999 41.0001 122" stroke="#12B4A9" stroke-width="2" stroke-dasharray="12 12"/>
<path d="M153 8.71814C148.768 11.5347 144.684 14.1885 139.922 16.7306C149.967 27.5663 160.537 36.9366 177.105 40.6476C179.078 34.8838 179.954 28.9599 180 22.8957C167.961 18.5461 160.003 13.9121 153 8.71814ZM138.427 17.4983C137.594 17.9249 136.776 18.3732 135.893 18.7937C143.709 31.2902 153.212 42.478 171.483 52.1866C173.613 48.8798 175.288 45.5261 176.574 42.1111C159.526 38.2449 148.639 28.532 138.427 17.4983V17.4983ZM134.493 19.4414C133.796 19.7607 133.08 20.0609 132.346 20.3769C138.716 36.8828 146.848 52.6561 163.134 62.5258C166.05 59.5646 168.528 56.5373 170.614 53.4821C152.105 43.6142 142.415 32.1123 134.493 19.4414ZM130.922 20.9766C129.368 21.6198 127.742 22.2651 126 22.8957C126.133 40.2651 133.108 56.4143 153 71.282C156.427 68.7209 159.454 66.1224 162.145 63.4855C145.538 53.3867 137.299 37.4752 130.922 20.9766V20.9766Z" fill="url(#paint0_linear)"/>
<g clip-path="url(#clip0)">
<path d="M27.9032 40.6585C24.4076 38.4285 19.7748 39.433 17.5626 42.9007C19.7784 39.4272 18.733 34.8084 15.2374 32.5784L13.7227 31.6121L11.7686 34.6751C9.95459 37.5186 10.3259 41.1382 12.4478 43.5814C10.3185 43.6298 8.25358 44.6951 7.02951 46.6138L5.87181 48.4286L6.06989 48.5549C9.16351 50.5285 13.2636 49.6395 15.2214 46.5706C13.2636 49.6395 14.1855 53.7323 17.2792 55.7058L17.4772 55.8322L18.6349 54.0175C19.859 52.0987 19.9547 49.7772 19.1011 47.8259C22.211 48.7203 25.6499 47.5314 27.4639 44.6879L29.418 41.6248L27.9032 40.6585V40.6585Z" fill="#8EE4B0"/>
</g>
<defs>
<linearGradient id="paint0_linear" x1="146.418" y1="-2.80495" x2="168.454" y2="53.7511" gradientUnits="userSpaceOnUse">
<stop stop-color="#B3FF7D"/>
<stop offset="1" stop-color="#12B4A9"/>
</linearGradient>
<clipPath id="clip0">
<rect width="24" height="24" fill="white" transform="translate(12.9077 28) rotate(32.5357)"/>
</clipPath>
</defs>
</svg>
